%TF.GenerationSoftware,KiCad,Pcbnew,7.0.8*%
%TF.CreationDate,2024-09-05T21:50:58+02:00*%
%TF.ProjectId,ESP32_TFT2-8,45535033-325f-4544-9654-322d382e6b69,rev?*%
%TF.SameCoordinates,Original*%
%TF.FileFunction,Soldermask,Top*%
%TF.FilePolarity,Negative*%
%FSLAX46Y46*%
G04 Gerber Fmt 4.6, Leading zero omitted, Abs format (unit mm)*
G04 Created by KiCad (PCBNEW 7.0.8) date 2024-09-05 21:50:58*
%MOMM*%
%LPD*%
G01*
G04 APERTURE LIST*
%ADD10R,2.000000X2.000000*%
%ADD11R,1.524000X1.524000*%
%ADD12C,1.524000*%
%ADD13R,1.200000X2.000000*%
%ADD14O,1.200000X2.000000*%
G04 APERTURE END LIST*
D10*
%TO.C,U5*%
X108090000Y-93920000D03*
%TD*%
D11*
%TO.C,U2*%
X198909600Y-124536320D03*
D12*
X198909600Y-121996320D03*
X198909600Y-119486320D03*
X198909600Y-116916320D03*
X198909600Y-114376320D03*
X198909600Y-111736320D03*
X198909600Y-109296320D03*
X198909600Y-106756320D03*
X198909600Y-104216320D03*
X198909600Y-101676320D03*
X198909600Y-99136320D03*
X198909600Y-96596320D03*
X198909600Y-94056320D03*
X198909600Y-91516320D03*
D11*
X117909600Y-111796320D03*
D12*
X117909600Y-109296320D03*
X117909600Y-106756320D03*
X117909600Y-104216320D03*
%TD*%
D10*
%TO.C,U6*%
X113170000Y-93920000D03*
%TD*%
%TO.C,U3*%
X97930000Y-93920000D03*
%TD*%
%TO.C,U4*%
X103010000Y-93920000D03*
%TD*%
%TO.C,U11*%
X96774000Y-117348000D03*
%TD*%
%TO.C,U7*%
X96774000Y-107188000D03*
%TD*%
D13*
%TO.C,U1*%
X135800000Y-90100000D03*
X135900000Y-94550000D03*
D14*
X138340000Y-90100000D03*
X138440000Y-94550000D03*
X140880000Y-90100000D03*
X140980000Y-94550000D03*
X143420000Y-90100000D03*
X143520000Y-94550000D03*
X145960000Y-90100000D03*
X146060000Y-94550000D03*
X148500000Y-90100000D03*
X148600000Y-94550000D03*
X151040000Y-90100000D03*
X151140000Y-94550000D03*
X153580000Y-90100000D03*
X153680000Y-94550000D03*
X156120000Y-90100000D03*
X156220000Y-94550000D03*
X158660000Y-90100000D03*
X158760000Y-94550000D03*
X161200000Y-90100000D03*
X161300000Y-94550000D03*
X163740000Y-90100000D03*
X163840000Y-94550000D03*
X166280000Y-90100000D03*
X166380000Y-94550000D03*
X168820000Y-90100000D03*
X168920000Y-94550000D03*
X171360000Y-90100000D03*
X171460000Y-94550000D03*
X173900000Y-90100000D03*
X174000000Y-94550000D03*
X176440000Y-90100000D03*
X176540000Y-94550000D03*
X178980000Y-90100000D03*
X179080000Y-94550000D03*
X181520000Y-90100000D03*
X181620000Y-94550000D03*
X181617280Y-119946320D03*
X181647280Y-124196321D03*
X179077280Y-119946320D03*
X179107280Y-124196321D03*
X176540000Y-119950000D03*
X176570000Y-124200001D03*
X174000000Y-119950000D03*
X174030000Y-124200001D03*
X171460000Y-119950000D03*
X171490000Y-124200001D03*
X168920000Y-119950000D03*
X168950000Y-124200001D03*
X166380000Y-119950000D03*
X166410000Y-124200001D03*
X163840000Y-119950000D03*
X163870000Y-124200001D03*
X161300000Y-119950000D03*
X161330000Y-124200001D03*
X158760000Y-119950000D03*
X158790000Y-124200001D03*
X156220000Y-119950000D03*
X156250000Y-124200001D03*
X153680000Y-119950000D03*
X153710000Y-124200001D03*
X151140000Y-119950000D03*
X151170000Y-124200001D03*
X148600000Y-119950000D03*
X148630000Y-124200001D03*
X146060000Y-119950000D03*
X146090000Y-124200001D03*
X143520000Y-119950000D03*
X143550000Y-124200001D03*
X140980000Y-119950000D03*
X141010000Y-124200001D03*
X138440000Y-119950000D03*
X138470000Y-124200001D03*
X135900000Y-119950000D03*
X135930000Y-124200001D03*
%TD*%
D10*
%TO.C,U8*%
X96774000Y-109728000D03*
%TD*%
%TO.C,U13*%
X96774000Y-122428000D03*
%TD*%
%TO.C,U12*%
X96774000Y-119888000D03*
%TD*%
%TO.C,U9*%
X96774000Y-112268000D03*
%TD*%
%TO.C,U10*%
X96774000Y-114808000D03*
%TD*%
M02*
