%TF.GenerationSoftware,KiCad,Pcbnew,7.0.8*%
%TF.CreationDate,2024-09-26T17:13:04+02:00*%
%TF.ProjectId,ESP32_TFT2-8,45535033-325f-4544-9654-322d382e6b69,rev?*%
%TF.SameCoordinates,Original*%
%TF.FileFunction,Copper,L2,Bot*%
%TF.FilePolarity,Positive*%
%FSLAX46Y46*%
G04 Gerber Fmt 4.6, Leading zero omitted, Abs format (unit mm)*
G04 Created by KiCad (PCBNEW 7.0.8) date 2024-09-26 17:13:04*
%MOMM*%
%LPD*%
G01*
G04 APERTURE LIST*
%ADD10C,0.300000*%
%TA.AperFunction,NonConductor*%
%ADD11C,0.300000*%
%TD*%
%TA.AperFunction,ComponentPad*%
%ADD12R,2.000000X2.000000*%
%TD*%
%TA.AperFunction,ComponentPad*%
%ADD13R,1.524000X1.524000*%
%TD*%
%TA.AperFunction,ComponentPad*%
%ADD14C,1.524000*%
%TD*%
%TA.AperFunction,ComponentPad*%
%ADD15R,1.200000X2.000000*%
%TD*%
%TA.AperFunction,ComponentPad*%
%ADD16O,1.200000X2.000000*%
%TD*%
%TA.AperFunction,ViaPad*%
%ADD17C,0.800000*%
%TD*%
%TA.AperFunction,Conductor*%
%ADD18C,0.250000*%
%TD*%
G04 APERTURE END LIST*
D10*
D11*
X121654510Y-140999171D02*
X121654510Y-142499171D01*
X122511653Y-140999171D02*
X121868796Y-141856314D01*
X122511653Y-142499171D02*
X121654510Y-141642028D01*
X123154510Y-140999171D02*
X123154510Y-142499171D01*
X123154510Y-141784885D02*
X124011653Y-141784885D01*
X124011653Y-140999171D02*
X124011653Y-142499171D01*
X125225939Y-141784885D02*
X124725939Y-141784885D01*
X124725939Y-140999171D02*
X124725939Y-142499171D01*
X124725939Y-142499171D02*
X125440225Y-142499171D01*
X127940225Y-140999171D02*
X127083082Y-140999171D01*
X127511653Y-140999171D02*
X127511653Y-142499171D01*
X127511653Y-142499171D02*
X127368796Y-142284885D01*
X127368796Y-142284885D02*
X127225939Y-142142028D01*
X127225939Y-142142028D02*
X127083082Y-142070600D01*
X128868796Y-142499171D02*
X129011653Y-142499171D01*
X129011653Y-142499171D02*
X129154510Y-142427742D01*
X129154510Y-142427742D02*
X129225939Y-142356314D01*
X129225939Y-142356314D02*
X129297367Y-142213457D01*
X129297367Y-142213457D02*
X129368796Y-141927742D01*
X129368796Y-141927742D02*
X129368796Y-141570600D01*
X129368796Y-141570600D02*
X129297367Y-141284885D01*
X129297367Y-141284885D02*
X129225939Y-141142028D01*
X129225939Y-141142028D02*
X129154510Y-141070600D01*
X129154510Y-141070600D02*
X129011653Y-140999171D01*
X129011653Y-140999171D02*
X128868796Y-140999171D01*
X128868796Y-140999171D02*
X128725939Y-141070600D01*
X128725939Y-141070600D02*
X128654510Y-141142028D01*
X128654510Y-141142028D02*
X128583081Y-141284885D01*
X128583081Y-141284885D02*
X128511653Y-141570600D01*
X128511653Y-141570600D02*
X128511653Y-141927742D01*
X128511653Y-141927742D02*
X128583081Y-142213457D01*
X128583081Y-142213457D02*
X128654510Y-142356314D01*
X128654510Y-142356314D02*
X128725939Y-142427742D01*
X128725939Y-142427742D02*
X128868796Y-142499171D01*
X130011652Y-141142028D02*
X130083081Y-141070600D01*
X130083081Y-141070600D02*
X130011652Y-140999171D01*
X130011652Y-140999171D02*
X129940224Y-141070600D01*
X129940224Y-141070600D02*
X130011652Y-141142028D01*
X130011652Y-141142028D02*
X130011652Y-140999171D01*
X130654510Y-142356314D02*
X130725938Y-142427742D01*
X130725938Y-142427742D02*
X130868796Y-142499171D01*
X130868796Y-142499171D02*
X131225938Y-142499171D01*
X131225938Y-142499171D02*
X131368796Y-142427742D01*
X131368796Y-142427742D02*
X131440224Y-142356314D01*
X131440224Y-142356314D02*
X131511653Y-142213457D01*
X131511653Y-142213457D02*
X131511653Y-142070600D01*
X131511653Y-142070600D02*
X131440224Y-141856314D01*
X131440224Y-141856314D02*
X130583081Y-140999171D01*
X130583081Y-140999171D02*
X131511653Y-140999171D01*
X132440224Y-142499171D02*
X132583081Y-142499171D01*
X132583081Y-142499171D02*
X132725938Y-142427742D01*
X132725938Y-142427742D02*
X132797367Y-142356314D01*
X132797367Y-142356314D02*
X132868795Y-142213457D01*
X132868795Y-142213457D02*
X132940224Y-141927742D01*
X132940224Y-141927742D02*
X132940224Y-141570600D01*
X132940224Y-141570600D02*
X132868795Y-141284885D01*
X132868795Y-141284885D02*
X132797367Y-141142028D01*
X132797367Y-141142028D02*
X132725938Y-141070600D01*
X132725938Y-141070600D02*
X132583081Y-140999171D01*
X132583081Y-140999171D02*
X132440224Y-140999171D01*
X132440224Y-140999171D02*
X132297367Y-141070600D01*
X132297367Y-141070600D02*
X132225938Y-141142028D01*
X132225938Y-141142028D02*
X132154509Y-141284885D01*
X132154509Y-141284885D02*
X132083081Y-141570600D01*
X132083081Y-141570600D02*
X132083081Y-141927742D01*
X132083081Y-141927742D02*
X132154509Y-142213457D01*
X132154509Y-142213457D02*
X132225938Y-142356314D01*
X132225938Y-142356314D02*
X132297367Y-142427742D01*
X132297367Y-142427742D02*
X132440224Y-142499171D01*
X133511652Y-142356314D02*
X133583080Y-142427742D01*
X133583080Y-142427742D02*
X133725938Y-142499171D01*
X133725938Y-142499171D02*
X134083080Y-142499171D01*
X134083080Y-142499171D02*
X134225938Y-142427742D01*
X134225938Y-142427742D02*
X134297366Y-142356314D01*
X134297366Y-142356314D02*
X134368795Y-142213457D01*
X134368795Y-142213457D02*
X134368795Y-142070600D01*
X134368795Y-142070600D02*
X134297366Y-141856314D01*
X134297366Y-141856314D02*
X133440223Y-140999171D01*
X133440223Y-140999171D02*
X134368795Y-140999171D01*
X135654509Y-141999171D02*
X135654509Y-140999171D01*
X135297366Y-142570600D02*
X134940223Y-141499171D01*
X134940223Y-141499171D02*
X135868794Y-141499171D01*
D12*
%TO.P,U5,1,LP*%
%TO.N,Net-(U3-LP)*%
X127520000Y-79300000D03*
%TD*%
D13*
%TO.P,U2,1,VCC*%
%TO.N,Net-(U1-3V3)*%
X198909600Y-124536320D03*
D14*
%TO.P,U2,2,GND*%
%TO.N,Net-(U10-LP)*%
X198909600Y-121996320D03*
%TO.P,U2,3,CS*%
%TO.N,Net-(U1-GPIO5)*%
X198909600Y-119486320D03*
%TO.P,U2,4,RESET*%
%TO.N,Net-(U1-GPIO22)*%
X198909600Y-116916320D03*
%TO.P,U2,5,DC*%
%TO.N,unconnected-(U1-ADC2_CH0{slash}GPIO4-Pad26)*%
X198909600Y-114376320D03*
%TO.P,U2,6,MOSI*%
%TO.N,Net-(U1-GPIO23)*%
X198909600Y-111736320D03*
%TO.P,U2,7,SCK*%
%TO.N,Net-(U1-GPIO18)*%
X198909600Y-109296320D03*
%TO.P,U2,8,LED*%
%TO.N,Net-(U1-3V3)*%
X198909600Y-106756320D03*
%TO.P,U2,9,MISO*%
%TO.N,Net-(U1-GPIO19)*%
X198909600Y-104216320D03*
%TO.P,U2,10,T_CLK*%
%TO.N,Net-(U1-GPIO18)*%
X198909600Y-101676320D03*
%TO.P,U2,11,T_CS*%
%TO.N,Net-(U1-MTMS{slash}GPIO14{slash}ADC2_CH6)*%
X198909600Y-99136320D03*
%TO.P,U2,12,T_DIN*%
%TO.N,Net-(U1-GPIO23)*%
X198909600Y-96596320D03*
%TO.P,U2,13,T_DQ*%
%TO.N,Net-(U1-GPIO19)*%
X198909600Y-94056320D03*
%TO.P,U2,14,T_IRQ*%
%TO.N,Net-(U1-ADC2_CH7{slash}GPIO27)*%
X198909600Y-91516320D03*
%TD*%
D12*
%TO.P,U6,1,LP*%
%TO.N,Net-(U1-5V)*%
X132600000Y-79300000D03*
%TD*%
%TO.P,U3,1,LP*%
%TO.N,Net-(U3-LP)*%
X117360000Y-79300000D03*
%TD*%
%TO.P,U4,1,LP*%
%TO.N,Net-(U10-LP)*%
X122440000Y-79300000D03*
%TD*%
%TO.P,U11,1,LP*%
%TO.N,Net-(U1-32K_XN{slash}GPIO33{slash}ADC1_CH5)*%
X121974000Y-105612000D03*
%TD*%
%TO.P,U7,1,LP*%
%TO.N,Net-(U1-5V)*%
X121974000Y-115772000D03*
%TD*%
D15*
%TO.P,U1,1,3V3*%
%TO.N,Net-(U1-3V3)*%
X135800000Y-90100000D03*
X135900000Y-94550000D03*
D16*
%TO.P,U1,2,CHIP_PU*%
%TO.N,unconnected-(U1-CHIP_PU-Pad2)*%
X138340000Y-90100000D03*
X138440000Y-94550000D03*
%TO.P,U1,3,SENSOR_VP/GPIO36/ADC1_CH0*%
%TO.N,unconnected-(U1-SENSOR_VP{slash}GPIO36{slash}ADC1_CH0-Pad3)*%
X140880000Y-90100000D03*
X140980000Y-94550000D03*
%TO.P,U1,4,SENSOR_VN/GPIO39/ADC1_CH3*%
%TO.N,unconnected-(U1-SENSOR_VN{slash}GPIO39{slash}ADC1_CH3-Pad4)*%
X143420000Y-90100000D03*
X143520000Y-94550000D03*
%TO.P,U1,5,VDET_1/GPIO34/ADC1_CH6*%
%TO.N,unconnected-(U1-VDET_1{slash}GPIO34{slash}ADC1_CH6-Pad5)*%
X145960000Y-90100000D03*
X146060000Y-94550000D03*
%TO.P,U1,6,VDET_2/GPIO35/ADC1_CH7*%
%TO.N,unconnected-(U1-VDET_2{slash}GPIO35{slash}ADC1_CH7-Pad6)*%
X148500000Y-90100000D03*
X148600000Y-94550000D03*
%TO.P,U1,7,32K_XP/GPIO32/ADC1_CH4*%
%TO.N,unconnected-(U1-32K_XP{slash}GPIO32{slash}ADC1_CH4-Pad7)*%
X151040000Y-90100000D03*
X151140000Y-94550000D03*
%TO.P,U1,8,32K_XN/GPIO33/ADC1_CH5*%
%TO.N,Net-(U1-32K_XN{slash}GPIO33{slash}ADC1_CH5)*%
X153580000Y-90100000D03*
X153680000Y-94550000D03*
%TO.P,U1,9,DAC_1/ADC2_CH8/GPIO25*%
%TO.N,Net-(U1-DAC_1{slash}ADC2_CH8{slash}GPIO25)*%
X156120000Y-90100000D03*
X156220000Y-94550000D03*
%TO.P,U1,10,DAC_2/ADC2_CH9/GPIO26*%
%TO.N,Net-(U1-DAC_2{slash}ADC2_CH9{slash}GPIO26)*%
X158660000Y-90100000D03*
X158760000Y-94550000D03*
%TO.P,U1,11,ADC2_CH7/GPIO27*%
%TO.N,Net-(U1-ADC2_CH7{slash}GPIO27)*%
X161200000Y-90100000D03*
X161300000Y-94550000D03*
%TO.P,U1,12,MTMS/GPIO14/ADC2_CH6*%
%TO.N,Net-(U1-MTMS{slash}GPIO14{slash}ADC2_CH6)*%
X163740000Y-90100000D03*
X163840000Y-94550000D03*
%TO.P,U1,13,MTDI/GPIO12/ADC2_CH5*%
%TO.N,unconnected-(U1-MTDI{slash}GPIO12{slash}ADC2_CH5-Pad13)*%
X166280000Y-90100000D03*
X166380000Y-94550000D03*
%TO.P,U1,14,GND*%
%TO.N,Net-(U10-LP)*%
X168820000Y-90100000D03*
X168920000Y-94550000D03*
%TO.P,U1,15,MTCK/GPIO13/ADC2_CH4*%
%TO.N,unconnected-(U1-MTCK{slash}GPIO13{slash}ADC2_CH4-Pad15)*%
X171360000Y-90100000D03*
X171460000Y-94550000D03*
%TO.P,U1,16,SD_DATA2/GPIO9*%
%TO.N,unconnected-(U1-SD_DATA2{slash}GPIO9-Pad16)*%
X173900000Y-90100000D03*
X174000000Y-94550000D03*
%TO.P,U1,17,SD_DATA3/GPIO10*%
%TO.N,unconnected-(U1-SD_DATA3{slash}GPIO10-Pad17)*%
X176440000Y-90100000D03*
X176540000Y-94550000D03*
%TO.P,U1,18,CMD*%
%TO.N,unconnected-(U1-CMD-Pad18)*%
X178980000Y-90100000D03*
X179080000Y-94550000D03*
%TO.P,U1,19,5V*%
%TO.N,Net-(U1-5V)*%
X181520000Y-90100000D03*
X181620000Y-94550000D03*
%TO.P,U1,20,SD_CLK/GPIO6*%
%TO.N,unconnected-(U1-SD_CLK{slash}GPIO6-Pad20)*%
X181617280Y-119946320D03*
X181647280Y-124196321D03*
%TO.P,U1,21,SD_DATA0/GPIO7*%
%TO.N,unconnected-(U1-SD_DATA0{slash}GPIO7-Pad21)*%
X179077280Y-119946320D03*
X179107280Y-124196321D03*
%TO.P,U1,22,SD_DATA1/GPIO8*%
%TO.N,unconnected-(U1-SD_DATA1{slash}GPIO8-Pad22)*%
X176540000Y-119950000D03*
X176570000Y-124200001D03*
%TO.P,U1,23,MTDO/GPIO15/ADC2_CH3*%
%TO.N,unconnected-(U1-MTDO{slash}GPIO15{slash}ADC2_CH3-Pad23)*%
X174000000Y-119950000D03*
X174030000Y-124200001D03*
%TO.P,U1,24,ADC2_CH2/GPIO2*%
%TO.N,unconnected-(U1-ADC2_CH2{slash}GPIO2-Pad24)*%
X171460000Y-119950000D03*
X171490000Y-124200001D03*
%TO.P,U1,25,GPIO0/BOOT/ADC2_CH1*%
%TO.N,unconnected-(U1-GPIO0{slash}BOOT{slash}ADC2_CH1-Pad25)*%
X168920000Y-119950000D03*
X168950000Y-124200001D03*
%TO.P,U1,26,ADC2_CH0/GPIO4*%
%TO.N,unconnected-(U1-ADC2_CH0{slash}GPIO4-Pad26)*%
X166380000Y-119950000D03*
X166410000Y-124200001D03*
%TO.P,U1,27,GPIO16*%
%TO.N,unconnected-(U1-GPIO16-Pad27)*%
X163840000Y-119950000D03*
X163870000Y-124200001D03*
%TO.P,U1,28,GPIO17*%
%TO.N,unconnected-(U1-GPIO17-Pad28)*%
X161300000Y-119950000D03*
X161330000Y-124200001D03*
%TO.P,U1,29,GPIO5*%
%TO.N,Net-(U1-GPIO5)*%
X158760000Y-119950000D03*
X158790000Y-124200001D03*
%TO.P,U1,30,GPIO18*%
%TO.N,Net-(U1-GPIO18)*%
X156220000Y-119950000D03*
X156250000Y-124200001D03*
%TO.P,U1,31,GPIO19*%
%TO.N,Net-(U1-GPIO19)*%
X153680000Y-119950000D03*
X153710000Y-124200001D03*
%TO.P,U1,32,GND*%
%TO.N,Net-(U10-LP)*%
X151140000Y-119950000D03*
X151170000Y-124200001D03*
%TO.P,U1,33,GPIO21*%
%TO.N,unconnected-(U1-GPIO21-Pad33)*%
X148600000Y-119950000D03*
X148630000Y-124200001D03*
%TO.P,U1,34,U0RXD/GPIO3*%
%TO.N,unconnected-(U1-U0RXD{slash}GPIO3-Pad34)*%
X146060000Y-119950000D03*
X146090000Y-124200001D03*
%TO.P,U1,35,U0TXD/GPIO1*%
%TO.N,unconnected-(U1-U0TXD{slash}GPIO1-Pad35)*%
X143520000Y-119950000D03*
X143550000Y-124200001D03*
%TO.P,U1,36,GPIO22*%
%TO.N,Net-(U1-GPIO22)*%
X140980000Y-119950000D03*
X141010000Y-124200001D03*
%TO.P,U1,37,GPIO23*%
%TO.N,Net-(U1-GPIO23)*%
X138440000Y-119950000D03*
X138470000Y-124200001D03*
%TO.P,U1,38,GND*%
%TO.N,Net-(U10-LP)*%
X135900000Y-119950000D03*
X135930000Y-124200001D03*
%TD*%
D12*
%TO.P,U8,1,LP*%
%TO.N,Net-(U10-LP)*%
X121974000Y-113232000D03*
%TD*%
%TO.P,U13,1,LP*%
%TO.N,Net-(U1-DAC_1{slash}ADC2_CH8{slash}GPIO25)*%
X121974000Y-100532000D03*
%TD*%
%TO.P,U12,1,LP*%
%TO.N,Net-(U1-DAC_2{slash}ADC2_CH9{slash}GPIO26)*%
X121974000Y-103072000D03*
%TD*%
%TO.P,U9,1,LP*%
%TO.N,Net-(U1-5V)*%
X121974000Y-110692000D03*
%TD*%
%TO.P,U10,1,LP*%
%TO.N,Net-(U10-LP)*%
X121974000Y-108152000D03*
%TD*%
D17*
%TO.N,Net-(U1-3V3)*%
X204620000Y-106720000D03*
%TO.N,Net-(U1-5V)*%
X181120000Y-85420000D03*
%TD*%
D18*
%TO.N,Net-(U1-3V3)*%
X198909600Y-124536320D02*
X204273680Y-124536320D01*
X141060000Y-77260000D02*
X201276396Y-77260000D01*
X204273680Y-124536320D02*
X204620000Y-124190000D01*
X204820000Y-79230000D02*
X204820000Y-106520000D01*
X201276396Y-77260000D02*
X201286396Y-77250000D01*
X204620000Y-124190000D02*
X204620000Y-106720000D01*
X204820000Y-106520000D02*
X204620000Y-106720000D01*
X141060000Y-77260000D02*
X135900000Y-82420000D01*
X202840000Y-77250000D02*
X204820000Y-79230000D01*
X135900000Y-82420000D02*
X135900000Y-94550000D01*
X201286396Y-77250000D02*
X202840000Y-77250000D01*
%TO.N,unconnected-(U1-CHIP_PU-Pad2)*%
X138440000Y-94550000D02*
X138440000Y-90200000D01*
X138440000Y-90200000D02*
X138340000Y-90100000D01*
%TO.N,unconnected-(U1-SENSOR_VP{slash}GPIO36{slash}ADC1_CH0-Pad3)*%
X140980000Y-90200000D02*
X140880000Y-90100000D01*
X140980000Y-94550000D02*
X140980000Y-90200000D01*
%TO.N,unconnected-(U1-SENSOR_VN{slash}GPIO39{slash}ADC1_CH3-Pad4)*%
X143520000Y-94550000D02*
X143520000Y-90200000D01*
X143520000Y-90200000D02*
X143420000Y-90100000D01*
%TO.N,unconnected-(U1-VDET_1{slash}GPIO34{slash}ADC1_CH6-Pad5)*%
X146060000Y-90200000D02*
X145960000Y-90100000D01*
X146060000Y-94550000D02*
X146060000Y-90200000D01*
%TO.N,unconnected-(U1-VDET_2{slash}GPIO35{slash}ADC1_CH7-Pad6)*%
X148500000Y-94450000D02*
X148600000Y-94550000D01*
X148500000Y-90100000D02*
X148500000Y-94450000D01*
%TO.N,unconnected-(U1-32K_XP{slash}GPIO32{slash}ADC1_CH4-Pad7)*%
X151040000Y-90100000D02*
X151040000Y-94450000D01*
X151040000Y-94450000D02*
X151140000Y-94550000D01*
%TO.N,Net-(U1-32K_XN{slash}GPIO33{slash}ADC1_CH5)*%
X153580000Y-94450000D02*
X153680000Y-94550000D01*
X153580000Y-90100000D02*
X153580000Y-94450000D01*
%TO.N,Net-(U1-DAC_1{slash}ADC2_CH8{slash}GPIO25)*%
X156120000Y-94450000D02*
X156220000Y-94550000D01*
X152068000Y-100532000D02*
X156220000Y-96380000D01*
X156220000Y-96380000D02*
X156220000Y-94550000D01*
X156120000Y-90100000D02*
X156120000Y-94450000D01*
X121974000Y-100532000D02*
X152068000Y-100532000D01*
%TO.N,Net-(U1-DAC_2{slash}ADC2_CH9{slash}GPIO26)*%
X158660000Y-90100000D02*
X158660000Y-94450000D01*
X154528000Y-103072000D02*
X158760000Y-98840000D01*
X158660000Y-94450000D02*
X158760000Y-94550000D01*
X158760000Y-98840000D02*
X158760000Y-94550000D01*
X121974000Y-103072000D02*
X154528000Y-103072000D01*
%TO.N,Net-(U1-ADC2_CH7{slash}GPIO27)*%
X161200000Y-94450000D02*
X161300000Y-94550000D01*
X161200000Y-90100000D02*
X161200000Y-94450000D01*
%TO.N,Net-(U1-MTMS{slash}GPIO14{slash}ADC2_CH6)*%
X163740000Y-94450000D02*
X163840000Y-94550000D01*
X163740000Y-90100000D02*
X163740000Y-94450000D01*
%TO.N,unconnected-(U1-MTDI{slash}GPIO12{slash}ADC2_CH5-Pad13)*%
X166280000Y-90100000D02*
X166280000Y-94450000D01*
X166280000Y-94450000D02*
X166380000Y-94550000D01*
%TO.N,Net-(U10-LP)*%
X122440000Y-79300000D02*
X122440000Y-85960000D01*
X151140000Y-115560000D02*
X168920000Y-97780000D01*
X151140000Y-124170001D02*
X151170000Y-124200001D01*
X168920000Y-97780000D02*
X168920000Y-94550000D01*
X118418000Y-112216000D02*
X118418000Y-109422000D01*
X151170000Y-130770000D02*
X151170000Y-124200001D01*
X198909600Y-121996320D02*
X201473680Y-121996320D01*
X118418000Y-109422000D02*
X118470000Y-109370000D01*
X121974000Y-113232000D02*
X119434000Y-113232000D01*
X203360000Y-79980000D02*
X201730000Y-78350000D01*
X135930000Y-131866000D02*
X135930000Y-124200001D01*
X118470000Y-89930000D02*
X118470000Y-109370000D01*
X151140000Y-119950000D02*
X151140000Y-115560000D01*
X135900000Y-124170001D02*
X135930000Y-124200001D01*
X151140000Y-119950000D02*
X151140000Y-124170001D01*
X151140000Y-119950000D02*
X151140000Y-123180000D01*
X135900000Y-119950000D02*
X135900000Y-124170001D01*
X140462000Y-134112000D02*
X138176000Y-134112000D01*
X135900000Y-119950000D02*
X129182000Y-113232000D01*
X138176000Y-134112000D02*
X135930000Y-131866000D01*
X168920000Y-81660000D02*
X172230000Y-78350000D01*
X168820000Y-90100000D02*
X168820000Y-94450000D01*
X119688000Y-108152000D02*
X121974000Y-108152000D01*
X147828000Y-134112000D02*
X151170000Y-130770000D01*
X201473680Y-121996320D02*
X203360000Y-120110000D01*
X129182000Y-113232000D02*
X121974000Y-113232000D01*
X168920000Y-94550000D02*
X168920000Y-81660000D01*
X122440000Y-85960000D02*
X118470000Y-89930000D01*
X203360000Y-120110000D02*
X203360000Y-79980000D01*
X147828000Y-134112000D02*
X140462000Y-134112000D01*
X119434000Y-113232000D02*
X118418000Y-112216000D01*
X168820000Y-94450000D02*
X168920000Y-94550000D01*
X201730000Y-78350000D02*
X172230000Y-78350000D01*
X118470000Y-109370000D02*
X119688000Y-108152000D01*
%TO.N,unconnected-(U1-MTCK{slash}GPIO13{slash}ADC2_CH4-Pad15)*%
X171360000Y-90100000D02*
X171360000Y-94450000D01*
X171360000Y-94450000D02*
X171460000Y-94550000D01*
%TO.N,unconnected-(U1-SD_DATA2{slash}GPIO9-Pad16)*%
X173900000Y-90100000D02*
X173900000Y-94450000D01*
X173900000Y-94450000D02*
X174000000Y-94550000D01*
%TO.N,unconnected-(U1-SD_DATA3{slash}GPIO10-Pad17)*%
X176440000Y-90100000D02*
X176440000Y-94450000D01*
X176440000Y-94450000D02*
X176540000Y-94550000D01*
%TO.N,unconnected-(U1-CMD-Pad18)*%
X178980000Y-90100000D02*
X178980000Y-94450000D01*
X178980000Y-94450000D02*
X179080000Y-94550000D01*
%TO.N,Net-(U1-5V)*%
X181520000Y-94450000D02*
X181620000Y-94550000D01*
X181120000Y-85420000D02*
X181620000Y-85920000D01*
X181620000Y-85920000D02*
X181620000Y-94550000D01*
X181520000Y-90100000D02*
X181520000Y-94450000D01*
%TO.N,unconnected-(U1-SD_CLK{slash}GPIO6-Pad20)*%
X181617280Y-124166321D02*
X181647280Y-124196321D01*
X181617280Y-119946320D02*
X181617280Y-124166321D01*
%TO.N,unconnected-(U1-SD_DATA0{slash}GPIO7-Pad21)*%
X179077280Y-119946320D02*
X179077280Y-124166321D01*
X179077280Y-124166321D02*
X179107280Y-124196321D01*
%TO.N,unconnected-(U1-SD_DATA1{slash}GPIO8-Pad22)*%
X176540000Y-124170001D02*
X176570000Y-124200001D01*
X176540000Y-119950000D02*
X176540000Y-124170001D01*
%TO.N,unconnected-(U1-MTDO{slash}GPIO15{slash}ADC2_CH3-Pad23)*%
X174000000Y-119950000D02*
X174000000Y-124170001D01*
X174000000Y-124170001D02*
X174030000Y-124200001D01*
%TO.N,unconnected-(U1-ADC2_CH2{slash}GPIO2-Pad24)*%
X171460000Y-124170001D02*
X171490000Y-124200001D01*
X171460000Y-119950000D02*
X171460000Y-124170001D01*
%TO.N,unconnected-(U1-GPIO0{slash}BOOT{slash}ADC2_CH1-Pad25)*%
X168920000Y-124170001D02*
X168950000Y-124200001D01*
X168920000Y-119950000D02*
X168920000Y-124170001D01*
%TO.N,unconnected-(U1-ADC2_CH0{slash}GPIO4-Pad26)*%
X166380000Y-115410000D02*
X166380000Y-119950000D01*
X198909600Y-114376320D02*
X167413680Y-114376320D01*
X166380000Y-124170001D02*
X166410000Y-124200001D01*
X166380000Y-119950000D02*
X166380000Y-124170001D01*
X167413680Y-114376320D02*
X166380000Y-115410000D01*
%TO.N,unconnected-(U1-GPIO16-Pad27)*%
X163840000Y-124170001D02*
X163870000Y-124200001D01*
X163840000Y-119950000D02*
X163840000Y-124170001D01*
%TO.N,unconnected-(U1-GPIO17-Pad28)*%
X161300000Y-119950000D02*
X161300000Y-124170001D01*
X161300000Y-124170001D02*
X161330000Y-124200001D01*
%TO.N,Net-(U1-GPIO5)*%
X198013680Y-119486320D02*
X187960000Y-129540000D01*
X187960000Y-129540000D02*
X160020000Y-129540000D01*
X158760000Y-119950000D02*
X158760000Y-124170001D01*
X158760000Y-128280000D02*
X158760000Y-119950000D01*
X158760000Y-124170001D02*
X158790000Y-124200001D01*
X198909600Y-119486320D02*
X198013680Y-119486320D01*
X160020000Y-129540000D02*
X158760000Y-128280000D01*
%TO.N,Net-(U1-GPIO18)*%
X197170000Y-109296320D02*
X198909600Y-109296320D01*
X197186320Y-109280000D02*
X197170000Y-109296320D01*
X198909600Y-101676320D02*
X197186320Y-101676320D01*
X156220000Y-119950000D02*
X156220000Y-124170001D01*
X156220000Y-124170001D02*
X156250000Y-124200001D01*
X156220000Y-115560000D02*
X162483680Y-109296320D01*
X156220000Y-119950000D02*
X156220000Y-115560000D01*
X197186320Y-101676320D02*
X197186320Y-109280000D01*
X162483680Y-109296320D02*
X197170000Y-109296320D01*
%TO.N,Net-(U1-GPIO19)*%
X153680000Y-119950000D02*
X153680000Y-124170001D01*
X153680000Y-124170001D02*
X153710000Y-124200001D01*
%TO.N,unconnected-(U1-GPIO21-Pad33)*%
X148600000Y-124170001D02*
X148630000Y-124200001D01*
X148600000Y-119950000D02*
X148600000Y-124170001D01*
%TO.N,unconnected-(U1-U0RXD{slash}GPIO3-Pad34)*%
X146060000Y-124170001D02*
X146090000Y-124200001D01*
X146060000Y-119950000D02*
X146060000Y-124170001D01*
%TO.N,unconnected-(U1-U0TXD{slash}GPIO1-Pad35)*%
X143520000Y-124170001D02*
X143550000Y-124200001D01*
X143520000Y-119950000D02*
X143520000Y-124170001D01*
%TO.N,Net-(U1-GPIO22)*%
X140980000Y-119950000D02*
X140980000Y-124170001D01*
X140980000Y-124170001D02*
X141010000Y-124200001D01*
%TO.N,Net-(U1-GPIO23)*%
X201210000Y-110820000D02*
X200293680Y-111736320D01*
X198909600Y-96596320D02*
X200256320Y-96596320D01*
X200293680Y-111736320D02*
X198909600Y-111736320D01*
X138440000Y-119950000D02*
X138440000Y-124170001D01*
X200256320Y-96596320D02*
X201210000Y-97550000D01*
X138440000Y-124170001D02*
X138470000Y-124200001D01*
X201210000Y-97550000D02*
X201210000Y-110820000D01*
%TO.N,Net-(U3-LP)*%
X127260000Y-77440000D02*
X127520000Y-77700000D01*
X117360000Y-79300000D02*
X117360000Y-77440000D01*
X127520000Y-77700000D02*
X127520000Y-79300000D01*
X117360000Y-77440000D02*
X127260000Y-77440000D01*
%TD*%
M02*
