%TF.GenerationSoftware,KiCad,Pcbnew,7.0.8*%
%TF.CreationDate,2024-09-26T17:13:04+02:00*%
%TF.ProjectId,ESP32_TFT2-8,45535033-325f-4544-9654-322d382e6b69,rev?*%
%TF.SameCoordinates,Original*%
%TF.FileFunction,Soldermask,Bot*%
%TF.FilePolarity,Negative*%
%FSLAX46Y46*%
G04 Gerber Fmt 4.6, Leading zero omitted, Abs format (unit mm)*
G04 Created by KiCad (PCBNEW 7.0.8) date 2024-09-26 17:13:04*
%MOMM*%
%LPD*%
G01*
G04 APERTURE LIST*
%ADD10C,0.300000*%
%ADD11R,2.000000X2.000000*%
%ADD12R,1.524000X1.524000*%
%ADD13C,1.524000*%
%ADD14R,1.200000X2.000000*%
%ADD15O,1.200000X2.000000*%
G04 APERTURE END LIST*
D10*
X121694510Y-141049171D02*
X121694510Y-142549171D01*
X122551653Y-141049171D02*
X121908796Y-141906314D01*
X122551653Y-142549171D02*
X121694510Y-141692028D01*
X123194510Y-141049171D02*
X123194510Y-142549171D01*
X123194510Y-141834885D02*
X124051653Y-141834885D01*
X124051653Y-141049171D02*
X124051653Y-142549171D01*
X125265939Y-141834885D02*
X124765939Y-141834885D01*
X124765939Y-141049171D02*
X124765939Y-142549171D01*
X124765939Y-142549171D02*
X125480225Y-142549171D01*
X127980225Y-141049171D02*
X127123082Y-141049171D01*
X127551653Y-141049171D02*
X127551653Y-142549171D01*
X127551653Y-142549171D02*
X127408796Y-142334885D01*
X127408796Y-142334885D02*
X127265939Y-142192028D01*
X127265939Y-142192028D02*
X127123082Y-142120600D01*
X128908796Y-142549171D02*
X129051653Y-142549171D01*
X129051653Y-142549171D02*
X129194510Y-142477742D01*
X129194510Y-142477742D02*
X129265939Y-142406314D01*
X129265939Y-142406314D02*
X129337367Y-142263457D01*
X129337367Y-142263457D02*
X129408796Y-141977742D01*
X129408796Y-141977742D02*
X129408796Y-141620600D01*
X129408796Y-141620600D02*
X129337367Y-141334885D01*
X129337367Y-141334885D02*
X129265939Y-141192028D01*
X129265939Y-141192028D02*
X129194510Y-141120600D01*
X129194510Y-141120600D02*
X129051653Y-141049171D01*
X129051653Y-141049171D02*
X128908796Y-141049171D01*
X128908796Y-141049171D02*
X128765939Y-141120600D01*
X128765939Y-141120600D02*
X128694510Y-141192028D01*
X128694510Y-141192028D02*
X128623081Y-141334885D01*
X128623081Y-141334885D02*
X128551653Y-141620600D01*
X128551653Y-141620600D02*
X128551653Y-141977742D01*
X128551653Y-141977742D02*
X128623081Y-142263457D01*
X128623081Y-142263457D02*
X128694510Y-142406314D01*
X128694510Y-142406314D02*
X128765939Y-142477742D01*
X128765939Y-142477742D02*
X128908796Y-142549171D01*
X130051652Y-141192028D02*
X130123081Y-141120600D01*
X130123081Y-141120600D02*
X130051652Y-141049171D01*
X130051652Y-141049171D02*
X129980224Y-141120600D01*
X129980224Y-141120600D02*
X130051652Y-141192028D01*
X130051652Y-141192028D02*
X130051652Y-141049171D01*
X130694510Y-142406314D02*
X130765938Y-142477742D01*
X130765938Y-142477742D02*
X130908796Y-142549171D01*
X130908796Y-142549171D02*
X131265938Y-142549171D01*
X131265938Y-142549171D02*
X131408796Y-142477742D01*
X131408796Y-142477742D02*
X131480224Y-142406314D01*
X131480224Y-142406314D02*
X131551653Y-142263457D01*
X131551653Y-142263457D02*
X131551653Y-142120600D01*
X131551653Y-142120600D02*
X131480224Y-141906314D01*
X131480224Y-141906314D02*
X130623081Y-141049171D01*
X130623081Y-141049171D02*
X131551653Y-141049171D01*
X132480224Y-142549171D02*
X132623081Y-142549171D01*
X132623081Y-142549171D02*
X132765938Y-142477742D01*
X132765938Y-142477742D02*
X132837367Y-142406314D01*
X132837367Y-142406314D02*
X132908795Y-142263457D01*
X132908795Y-142263457D02*
X132980224Y-141977742D01*
X132980224Y-141977742D02*
X132980224Y-141620600D01*
X132980224Y-141620600D02*
X132908795Y-141334885D01*
X132908795Y-141334885D02*
X132837367Y-141192028D01*
X132837367Y-141192028D02*
X132765938Y-141120600D01*
X132765938Y-141120600D02*
X132623081Y-141049171D01*
X132623081Y-141049171D02*
X132480224Y-141049171D01*
X132480224Y-141049171D02*
X132337367Y-141120600D01*
X132337367Y-141120600D02*
X132265938Y-141192028D01*
X132265938Y-141192028D02*
X132194509Y-141334885D01*
X132194509Y-141334885D02*
X132123081Y-141620600D01*
X132123081Y-141620600D02*
X132123081Y-141977742D01*
X132123081Y-141977742D02*
X132194509Y-142263457D01*
X132194509Y-142263457D02*
X132265938Y-142406314D01*
X132265938Y-142406314D02*
X132337367Y-142477742D01*
X132337367Y-142477742D02*
X132480224Y-142549171D01*
X133551652Y-142406314D02*
X133623080Y-142477742D01*
X133623080Y-142477742D02*
X133765938Y-142549171D01*
X133765938Y-142549171D02*
X134123080Y-142549171D01*
X134123080Y-142549171D02*
X134265938Y-142477742D01*
X134265938Y-142477742D02*
X134337366Y-142406314D01*
X134337366Y-142406314D02*
X134408795Y-142263457D01*
X134408795Y-142263457D02*
X134408795Y-142120600D01*
X134408795Y-142120600D02*
X134337366Y-141906314D01*
X134337366Y-141906314D02*
X133480223Y-141049171D01*
X133480223Y-141049171D02*
X134408795Y-141049171D01*
X135694509Y-142049171D02*
X135694509Y-141049171D01*
X135337366Y-142620600D02*
X134980223Y-141549171D01*
X134980223Y-141549171D02*
X135908794Y-141549171D01*
D11*
%TO.C,U5*%
X127520000Y-79300000D03*
%TD*%
D12*
%TO.C,U2*%
X198909600Y-124536320D03*
D13*
X198909600Y-121996320D03*
X198909600Y-119486320D03*
X198909600Y-116916320D03*
X198909600Y-114376320D03*
X198909600Y-111736320D03*
X198909600Y-109296320D03*
X198909600Y-106756320D03*
X198909600Y-104216320D03*
X198909600Y-101676320D03*
X198909600Y-99136320D03*
X198909600Y-96596320D03*
X198909600Y-94056320D03*
X198909600Y-91516320D03*
%TD*%
D11*
%TO.C,U6*%
X132600000Y-79300000D03*
%TD*%
%TO.C,U3*%
X117360000Y-79300000D03*
%TD*%
%TO.C,U4*%
X122440000Y-79300000D03*
%TD*%
%TO.C,U11*%
X121974000Y-105612000D03*
%TD*%
%TO.C,U7*%
X121974000Y-115772000D03*
%TD*%
D14*
%TO.C,U1*%
X135800000Y-90100000D03*
X135900000Y-94550000D03*
D15*
X138340000Y-90100000D03*
X138440000Y-94550000D03*
X140880000Y-90100000D03*
X140980000Y-94550000D03*
X143420000Y-90100000D03*
X143520000Y-94550000D03*
X145960000Y-90100000D03*
X146060000Y-94550000D03*
X148500000Y-90100000D03*
X148600000Y-94550000D03*
X151040000Y-90100000D03*
X151140000Y-94550000D03*
X153580000Y-90100000D03*
X153680000Y-94550000D03*
X156120000Y-90100000D03*
X156220000Y-94550000D03*
X158660000Y-90100000D03*
X158760000Y-94550000D03*
X161200000Y-90100000D03*
X161300000Y-94550000D03*
X163740000Y-90100000D03*
X163840000Y-94550000D03*
X166280000Y-90100000D03*
X166380000Y-94550000D03*
X168820000Y-90100000D03*
X168920000Y-94550000D03*
X171360000Y-90100000D03*
X171460000Y-94550000D03*
X173900000Y-90100000D03*
X174000000Y-94550000D03*
X176440000Y-90100000D03*
X176540000Y-94550000D03*
X178980000Y-90100000D03*
X179080000Y-94550000D03*
X181520000Y-90100000D03*
X181620000Y-94550000D03*
X181617280Y-119946320D03*
X181647280Y-124196321D03*
X179077280Y-119946320D03*
X179107280Y-124196321D03*
X176540000Y-119950000D03*
X176570000Y-124200001D03*
X174000000Y-119950000D03*
X174030000Y-124200001D03*
X171460000Y-119950000D03*
X171490000Y-124200001D03*
X168920000Y-119950000D03*
X168950000Y-124200001D03*
X166380000Y-119950000D03*
X166410000Y-124200001D03*
X163840000Y-119950000D03*
X163870000Y-124200001D03*
X161300000Y-119950000D03*
X161330000Y-124200001D03*
X158760000Y-119950000D03*
X158790000Y-124200001D03*
X156220000Y-119950000D03*
X156250000Y-124200001D03*
X153680000Y-119950000D03*
X153710000Y-124200001D03*
X151140000Y-119950000D03*
X151170000Y-124200001D03*
X148600000Y-119950000D03*
X148630000Y-124200001D03*
X146060000Y-119950000D03*
X146090000Y-124200001D03*
X143520000Y-119950000D03*
X143550000Y-124200001D03*
X140980000Y-119950000D03*
X141010000Y-124200001D03*
X138440000Y-119950000D03*
X138470000Y-124200001D03*
X135900000Y-119950000D03*
X135930000Y-124200001D03*
%TD*%
D11*
%TO.C,U8*%
X121974000Y-113232000D03*
%TD*%
%TO.C,U13*%
X121974000Y-100532000D03*
%TD*%
%TO.C,U12*%
X121974000Y-103072000D03*
%TD*%
%TO.C,U9*%
X121974000Y-110692000D03*
%TD*%
%TO.C,U10*%
X121974000Y-108152000D03*
%TD*%
M02*
