M48
; DRILL file {KiCad 7.0.8} date Thu Sep  5 21:51:01 2024
; FORMAT={3:3/ absolute / metric / suppress leading zeros}
; #@! TF.CreationDate,2024-09-05T21:51:01+02:00
; #@! TF.GenerationSoftware,Kicad,Pcbnew,7.0.8
; #@! TF.FileFunction,MixedPlating,1,2
FMAT,2
METRIC,TZ
; #@! TA.AperFunction,Plated,PTH,ViaDrill
T1C0.400
; #@! TA.AperFunction,Plated,PTH,ComponentDrill
T2C0.762
; #@! TA.AperFunction,Plated,PTH,ComponentDrill
T3C0.800
; #@! TA.AperFunction,Plated,PTH,ComponentDrill
T4C1.000
%
G90
G05
T1
X181120Y-85420
X212646Y-106756
T2
X117910Y-104216
X117910Y-106756
X117910Y-109296
X117910Y-111796
T3
X135800Y-90100
X135900Y-94550
X135900Y-119950
X135930Y-124200
X138340Y-90100
X138440Y-94550
X138440Y-119950
X138470Y-124200
X140880Y-90100
X140980Y-94550
X140980Y-119950
X141010Y-124200
X143420Y-90100
X143520Y-94550
X143520Y-119950
X143550Y-124200
X145960Y-90100
X146060Y-94550
X146060Y-119950
X146090Y-124200
X148500Y-90100
X148600Y-94550
X148600Y-119950
X148630Y-124200
X151040Y-90100
X151140Y-94550
X151140Y-119950
X151170Y-124200
X153580Y-90100
X153680Y-94550
X153680Y-119950
X153710Y-124200
X156120Y-90100
X156220Y-94550
X156220Y-119950
X156250Y-124200
X158660Y-90100
X158760Y-94550
X158760Y-119950
X158790Y-124200
X161200Y-90100
X161300Y-94550
X161300Y-119950
X161330Y-124200
X163740Y-90100
X163840Y-94550
X163840Y-119950
X163870Y-124200
X166280Y-90100
X166380Y-94550
X166380Y-119950
X166410Y-124200
X168820Y-90100
X168920Y-94550
X168920Y-119950
X168950Y-124200
X171360Y-90100
X171460Y-94550
X171460Y-119950
X171490Y-124200
X173900Y-90100
X174000Y-94550
X174000Y-119950
X174030Y-124200
X176440Y-90100
X176540Y-94550
X176540Y-119950
X176570Y-124200
X178980Y-90100
X179077Y-119946
X179080Y-94550
X179107Y-124196
X181520Y-90100
X181617Y-119946
X181620Y-94550
X181647Y-124196
X198910Y-91516
X198910Y-94056
X198910Y-96596
X198910Y-99136
X198910Y-101676
X198910Y-104216
X198910Y-106756
X198910Y-109296
X198910Y-111736
X198910Y-114376
X198910Y-116916
X198910Y-119486
X198910Y-121996
X198910Y-124536
T4
X96774Y-107188
X96774Y-109728
X96774Y-112268
X96774Y-114808
X96774Y-117348
X96774Y-119888
X96774Y-122428
X97930Y-93920
X103010Y-93920
X108090Y-93920
X113170Y-93920
T0
M30
