%TF.GenerationSoftware,KiCad,Pcbnew,7.0.8*%
%TF.CreationDate,2024-09-05T21:50:58+02:00*%
%TF.ProjectId,ESP32_TFT2-8,45535033-325f-4544-9654-322d382e6b69,rev?*%
%TF.SameCoordinates,Original*%
%TF.FileFunction,Copper,L2,Bot*%
%TF.FilePolarity,Positive*%
%FSLAX46Y46*%
G04 Gerber Fmt 4.6, Leading zero omitted, Abs format (unit mm)*
G04 Created by KiCad (PCBNEW 7.0.8) date 2024-09-05 21:50:58*
%MOMM*%
%LPD*%
G01*
G04 APERTURE LIST*
%ADD10C,0.300000*%
%TA.AperFunction,NonConductor*%
%ADD11C,0.300000*%
%TD*%
%TA.AperFunction,ComponentPad*%
%ADD12R,2.000000X2.000000*%
%TD*%
%TA.AperFunction,ComponentPad*%
%ADD13R,1.524000X1.524000*%
%TD*%
%TA.AperFunction,ComponentPad*%
%ADD14C,1.524000*%
%TD*%
%TA.AperFunction,ComponentPad*%
%ADD15R,1.200000X2.000000*%
%TD*%
%TA.AperFunction,ComponentPad*%
%ADD16O,1.200000X2.000000*%
%TD*%
%TA.AperFunction,ViaPad*%
%ADD17C,0.800000*%
%TD*%
%TA.AperFunction,Conductor*%
%ADD18C,0.250000*%
%TD*%
G04 APERTURE END LIST*
D10*
D11*
X105424510Y-140559171D02*
X105424510Y-142059171D01*
X106281653Y-140559171D02*
X105638796Y-141416314D01*
X106281653Y-142059171D02*
X105424510Y-141202028D01*
X106924510Y-140559171D02*
X106924510Y-142059171D01*
X106924510Y-141344885D02*
X107781653Y-141344885D01*
X107781653Y-140559171D02*
X107781653Y-142059171D01*
X108995939Y-141344885D02*
X108495939Y-141344885D01*
X108495939Y-140559171D02*
X108495939Y-142059171D01*
X108495939Y-142059171D02*
X109210225Y-142059171D01*
X111210225Y-142059171D02*
X111353082Y-142059171D01*
X111353082Y-142059171D02*
X111495939Y-141987742D01*
X111495939Y-141987742D02*
X111567368Y-141916314D01*
X111567368Y-141916314D02*
X111638796Y-141773457D01*
X111638796Y-141773457D02*
X111710225Y-141487742D01*
X111710225Y-141487742D02*
X111710225Y-141130600D01*
X111710225Y-141130600D02*
X111638796Y-140844885D01*
X111638796Y-140844885D02*
X111567368Y-140702028D01*
X111567368Y-140702028D02*
X111495939Y-140630600D01*
X111495939Y-140630600D02*
X111353082Y-140559171D01*
X111353082Y-140559171D02*
X111210225Y-140559171D01*
X111210225Y-140559171D02*
X111067368Y-140630600D01*
X111067368Y-140630600D02*
X110995939Y-140702028D01*
X110995939Y-140702028D02*
X110924510Y-140844885D01*
X110924510Y-140844885D02*
X110853082Y-141130600D01*
X110853082Y-141130600D02*
X110853082Y-141487742D01*
X110853082Y-141487742D02*
X110924510Y-141773457D01*
X110924510Y-141773457D02*
X110995939Y-141916314D01*
X110995939Y-141916314D02*
X111067368Y-141987742D01*
X111067368Y-141987742D02*
X111210225Y-142059171D01*
X112424510Y-140559171D02*
X112710224Y-140559171D01*
X112710224Y-140559171D02*
X112853081Y-140630600D01*
X112853081Y-140630600D02*
X112924510Y-140702028D01*
X112924510Y-140702028D02*
X113067367Y-140916314D01*
X113067367Y-140916314D02*
X113138796Y-141202028D01*
X113138796Y-141202028D02*
X113138796Y-141773457D01*
X113138796Y-141773457D02*
X113067367Y-141916314D01*
X113067367Y-141916314D02*
X112995939Y-141987742D01*
X112995939Y-141987742D02*
X112853081Y-142059171D01*
X112853081Y-142059171D02*
X112567367Y-142059171D01*
X112567367Y-142059171D02*
X112424510Y-141987742D01*
X112424510Y-141987742D02*
X112353081Y-141916314D01*
X112353081Y-141916314D02*
X112281653Y-141773457D01*
X112281653Y-141773457D02*
X112281653Y-141416314D01*
X112281653Y-141416314D02*
X112353081Y-141273457D01*
X112353081Y-141273457D02*
X112424510Y-141202028D01*
X112424510Y-141202028D02*
X112567367Y-141130600D01*
X112567367Y-141130600D02*
X112853081Y-141130600D01*
X112853081Y-141130600D02*
X112995939Y-141202028D01*
X112995939Y-141202028D02*
X113067367Y-141273457D01*
X113067367Y-141273457D02*
X113138796Y-141416314D01*
X113781652Y-140702028D02*
X113853081Y-140630600D01*
X113853081Y-140630600D02*
X113781652Y-140559171D01*
X113781652Y-140559171D02*
X113710224Y-140630600D01*
X113710224Y-140630600D02*
X113781652Y-140702028D01*
X113781652Y-140702028D02*
X113781652Y-140559171D01*
X114424510Y-141916314D02*
X114495938Y-141987742D01*
X114495938Y-141987742D02*
X114638796Y-142059171D01*
X114638796Y-142059171D02*
X114995938Y-142059171D01*
X114995938Y-142059171D02*
X115138796Y-141987742D01*
X115138796Y-141987742D02*
X115210224Y-141916314D01*
X115210224Y-141916314D02*
X115281653Y-141773457D01*
X115281653Y-141773457D02*
X115281653Y-141630600D01*
X115281653Y-141630600D02*
X115210224Y-141416314D01*
X115210224Y-141416314D02*
X114353081Y-140559171D01*
X114353081Y-140559171D02*
X115281653Y-140559171D01*
X116210224Y-142059171D02*
X116353081Y-142059171D01*
X116353081Y-142059171D02*
X116495938Y-141987742D01*
X116495938Y-141987742D02*
X116567367Y-141916314D01*
X116567367Y-141916314D02*
X116638795Y-141773457D01*
X116638795Y-141773457D02*
X116710224Y-141487742D01*
X116710224Y-141487742D02*
X116710224Y-141130600D01*
X116710224Y-141130600D02*
X116638795Y-140844885D01*
X116638795Y-140844885D02*
X116567367Y-140702028D01*
X116567367Y-140702028D02*
X116495938Y-140630600D01*
X116495938Y-140630600D02*
X116353081Y-140559171D01*
X116353081Y-140559171D02*
X116210224Y-140559171D01*
X116210224Y-140559171D02*
X116067367Y-140630600D01*
X116067367Y-140630600D02*
X115995938Y-140702028D01*
X115995938Y-140702028D02*
X115924509Y-140844885D01*
X115924509Y-140844885D02*
X115853081Y-141130600D01*
X115853081Y-141130600D02*
X115853081Y-141487742D01*
X115853081Y-141487742D02*
X115924509Y-141773457D01*
X115924509Y-141773457D02*
X115995938Y-141916314D01*
X115995938Y-141916314D02*
X116067367Y-141987742D01*
X116067367Y-141987742D02*
X116210224Y-142059171D01*
X117281652Y-141916314D02*
X117353080Y-141987742D01*
X117353080Y-141987742D02*
X117495938Y-142059171D01*
X117495938Y-142059171D02*
X117853080Y-142059171D01*
X117853080Y-142059171D02*
X117995938Y-141987742D01*
X117995938Y-141987742D02*
X118067366Y-141916314D01*
X118067366Y-141916314D02*
X118138795Y-141773457D01*
X118138795Y-141773457D02*
X118138795Y-141630600D01*
X118138795Y-141630600D02*
X118067366Y-141416314D01*
X118067366Y-141416314D02*
X117210223Y-140559171D01*
X117210223Y-140559171D02*
X118138795Y-140559171D01*
X119424509Y-141559171D02*
X119424509Y-140559171D01*
X119067366Y-142130600D02*
X118710223Y-141059171D01*
X118710223Y-141059171D02*
X119638794Y-141059171D01*
D12*
%TO.P,U5,1,LP*%
%TO.N,Net-(U3-LP)*%
X108090000Y-93920000D03*
%TD*%
D13*
%TO.P,U2,1,VCC*%
%TO.N,Net-(U1-3V3)*%
X198909600Y-124536320D03*
D14*
%TO.P,U2,2,GND*%
%TO.N,Net-(U10-LP)*%
X198909600Y-121996320D03*
%TO.P,U2,3,CS*%
%TO.N,Net-(U1-GPIO5)*%
X198909600Y-119486320D03*
%TO.P,U2,4,RESET*%
%TO.N,Net-(U1-GPIO22)*%
X198909600Y-116916320D03*
%TO.P,U2,5,DC*%
%TO.N,unconnected-(U1-ADC2_CH0{slash}GPIO4-Pad26)*%
X198909600Y-114376320D03*
%TO.P,U2,6,MOSI*%
%TO.N,Net-(U1-GPIO23)*%
X198909600Y-111736320D03*
%TO.P,U2,7,SCK*%
%TO.N,Net-(U1-GPIO18)*%
X198909600Y-109296320D03*
%TO.P,U2,8,LED*%
%TO.N,Net-(U1-3V3)*%
X198909600Y-106756320D03*
%TO.P,U2,9,MISO*%
%TO.N,Net-(U1-GPIO19)*%
X198909600Y-104216320D03*
%TO.P,U2,10,T_CLK*%
%TO.N,Net-(U1-GPIO18)*%
X198909600Y-101676320D03*
%TO.P,U2,11,T_CS*%
%TO.N,Net-(U1-MTMS{slash}GPIO14{slash}ADC2_CH6)*%
X198909600Y-99136320D03*
%TO.P,U2,12,T_DIN*%
%TO.N,Net-(U1-GPIO23)*%
X198909600Y-96596320D03*
%TO.P,U2,13,T_DQ*%
%TO.N,Net-(U1-GPIO19)*%
X198909600Y-94056320D03*
%TO.P,U2,14,T_IRQ*%
%TO.N,Net-(U1-ADC2_CH7{slash}GPIO27)*%
X198909600Y-91516320D03*
D13*
%TO.P,U2,15*%
%TO.N,N/C*%
X117909600Y-111796320D03*
D14*
%TO.P,U2,16*%
X117909600Y-109296320D03*
%TO.P,U2,17*%
X117909600Y-106756320D03*
%TO.P,U2,18*%
X117909600Y-104216320D03*
%TD*%
D12*
%TO.P,U6,1,LP*%
%TO.N,Net-(U1-5V)*%
X113170000Y-93920000D03*
%TD*%
%TO.P,U3,1,LP*%
%TO.N,Net-(U3-LP)*%
X97930000Y-93920000D03*
%TD*%
%TO.P,U4,1,LP*%
%TO.N,Net-(U10-LP)*%
X103010000Y-93920000D03*
%TD*%
%TO.P,U11,1,LP*%
%TO.N,Net-(U1-32K_XN{slash}GPIO33{slash}ADC1_CH5)*%
X96774000Y-117348000D03*
%TD*%
%TO.P,U7,1,LP*%
%TO.N,Net-(U1-5V)*%
X96774000Y-107188000D03*
%TD*%
D15*
%TO.P,U1,1,3V3*%
%TO.N,Net-(U1-3V3)*%
X135800000Y-90100000D03*
X135900000Y-94550000D03*
D16*
%TO.P,U1,2,CHIP_PU*%
%TO.N,unconnected-(U1-CHIP_PU-Pad2)*%
X138340000Y-90100000D03*
X138440000Y-94550000D03*
%TO.P,U1,3,SENSOR_VP/GPIO36/ADC1_CH0*%
%TO.N,unconnected-(U1-SENSOR_VP{slash}GPIO36{slash}ADC1_CH0-Pad3)*%
X140880000Y-90100000D03*
X140980000Y-94550000D03*
%TO.P,U1,4,SENSOR_VN/GPIO39/ADC1_CH3*%
%TO.N,unconnected-(U1-SENSOR_VN{slash}GPIO39{slash}ADC1_CH3-Pad4)*%
X143420000Y-90100000D03*
X143520000Y-94550000D03*
%TO.P,U1,5,VDET_1/GPIO34/ADC1_CH6*%
%TO.N,unconnected-(U1-VDET_1{slash}GPIO34{slash}ADC1_CH6-Pad5)*%
X145960000Y-90100000D03*
X146060000Y-94550000D03*
%TO.P,U1,6,VDET_2/GPIO35/ADC1_CH7*%
%TO.N,unconnected-(U1-VDET_2{slash}GPIO35{slash}ADC1_CH7-Pad6)*%
X148500000Y-90100000D03*
X148600000Y-94550000D03*
%TO.P,U1,7,32K_XP/GPIO32/ADC1_CH4*%
%TO.N,unconnected-(U1-32K_XP{slash}GPIO32{slash}ADC1_CH4-Pad7)*%
X151040000Y-90100000D03*
X151140000Y-94550000D03*
%TO.P,U1,8,32K_XN/GPIO33/ADC1_CH5*%
%TO.N,Net-(U1-32K_XN{slash}GPIO33{slash}ADC1_CH5)*%
X153580000Y-90100000D03*
X153680000Y-94550000D03*
%TO.P,U1,9,DAC_1/ADC2_CH8/GPIO25*%
%TO.N,Net-(U1-DAC_1{slash}ADC2_CH8{slash}GPIO25)*%
X156120000Y-90100000D03*
X156220000Y-94550000D03*
%TO.P,U1,10,DAC_2/ADC2_CH9/GPIO26*%
%TO.N,Net-(U1-DAC_2{slash}ADC2_CH9{slash}GPIO26)*%
X158660000Y-90100000D03*
X158760000Y-94550000D03*
%TO.P,U1,11,ADC2_CH7/GPIO27*%
%TO.N,Net-(U1-ADC2_CH7{slash}GPIO27)*%
X161200000Y-90100000D03*
X161300000Y-94550000D03*
%TO.P,U1,12,MTMS/GPIO14/ADC2_CH6*%
%TO.N,Net-(U1-MTMS{slash}GPIO14{slash}ADC2_CH6)*%
X163740000Y-90100000D03*
X163840000Y-94550000D03*
%TO.P,U1,13,MTDI/GPIO12/ADC2_CH5*%
%TO.N,unconnected-(U1-MTDI{slash}GPIO12{slash}ADC2_CH5-Pad13)*%
X166280000Y-90100000D03*
X166380000Y-94550000D03*
%TO.P,U1,14,GND*%
%TO.N,Net-(U10-LP)*%
X168820000Y-90100000D03*
X168920000Y-94550000D03*
%TO.P,U1,15,MTCK/GPIO13/ADC2_CH4*%
%TO.N,unconnected-(U1-MTCK{slash}GPIO13{slash}ADC2_CH4-Pad15)*%
X171360000Y-90100000D03*
X171460000Y-94550000D03*
%TO.P,U1,16,SD_DATA2/GPIO9*%
%TO.N,unconnected-(U1-SD_DATA2{slash}GPIO9-Pad16)*%
X173900000Y-90100000D03*
X174000000Y-94550000D03*
%TO.P,U1,17,SD_DATA3/GPIO10*%
%TO.N,unconnected-(U1-SD_DATA3{slash}GPIO10-Pad17)*%
X176440000Y-90100000D03*
X176540000Y-94550000D03*
%TO.P,U1,18,CMD*%
%TO.N,unconnected-(U1-CMD-Pad18)*%
X178980000Y-90100000D03*
X179080000Y-94550000D03*
%TO.P,U1,19,5V*%
%TO.N,Net-(U1-5V)*%
X181520000Y-90100000D03*
X181620000Y-94550000D03*
%TO.P,U1,20,SD_CLK/GPIO6*%
%TO.N,unconnected-(U1-SD_CLK{slash}GPIO6-Pad20)*%
X181617280Y-119946320D03*
X181647280Y-124196321D03*
%TO.P,U1,21,SD_DATA0/GPIO7*%
%TO.N,unconnected-(U1-SD_DATA0{slash}GPIO7-Pad21)*%
X179077280Y-119946320D03*
X179107280Y-124196321D03*
%TO.P,U1,22,SD_DATA1/GPIO8*%
%TO.N,unconnected-(U1-SD_DATA1{slash}GPIO8-Pad22)*%
X176540000Y-119950000D03*
X176570000Y-124200001D03*
%TO.P,U1,23,MTDO/GPIO15/ADC2_CH3*%
%TO.N,unconnected-(U1-MTDO{slash}GPIO15{slash}ADC2_CH3-Pad23)*%
X174000000Y-119950000D03*
X174030000Y-124200001D03*
%TO.P,U1,24,ADC2_CH2/GPIO2*%
%TO.N,unconnected-(U1-ADC2_CH2{slash}GPIO2-Pad24)*%
X171460000Y-119950000D03*
X171490000Y-124200001D03*
%TO.P,U1,25,GPIO0/BOOT/ADC2_CH1*%
%TO.N,unconnected-(U1-GPIO0{slash}BOOT{slash}ADC2_CH1-Pad25)*%
X168920000Y-119950000D03*
X168950000Y-124200001D03*
%TO.P,U1,26,ADC2_CH0/GPIO4*%
%TO.N,unconnected-(U1-ADC2_CH0{slash}GPIO4-Pad26)*%
X166380000Y-119950000D03*
X166410000Y-124200001D03*
%TO.P,U1,27,GPIO16*%
%TO.N,unconnected-(U1-GPIO16-Pad27)*%
X163840000Y-119950000D03*
X163870000Y-124200001D03*
%TO.P,U1,28,GPIO17*%
%TO.N,unconnected-(U1-GPIO17-Pad28)*%
X161300000Y-119950000D03*
X161330000Y-124200001D03*
%TO.P,U1,29,GPIO5*%
%TO.N,Net-(U1-GPIO5)*%
X158760000Y-119950000D03*
X158790000Y-124200001D03*
%TO.P,U1,30,GPIO18*%
%TO.N,Net-(U1-GPIO18)*%
X156220000Y-119950000D03*
X156250000Y-124200001D03*
%TO.P,U1,31,GPIO19*%
%TO.N,Net-(U1-GPIO19)*%
X153680000Y-119950000D03*
X153710000Y-124200001D03*
%TO.P,U1,32,GND*%
%TO.N,Net-(U10-LP)*%
X151140000Y-119950000D03*
X151170000Y-124200001D03*
%TO.P,U1,33,GPIO21*%
%TO.N,unconnected-(U1-GPIO21-Pad33)*%
X148600000Y-119950000D03*
X148630000Y-124200001D03*
%TO.P,U1,34,U0RXD/GPIO3*%
%TO.N,unconnected-(U1-U0RXD{slash}GPIO3-Pad34)*%
X146060000Y-119950000D03*
X146090000Y-124200001D03*
%TO.P,U1,35,U0TXD/GPIO1*%
%TO.N,unconnected-(U1-U0TXD{slash}GPIO1-Pad35)*%
X143520000Y-119950000D03*
X143550000Y-124200001D03*
%TO.P,U1,36,GPIO22*%
%TO.N,Net-(U1-GPIO22)*%
X140980000Y-119950000D03*
X141010000Y-124200001D03*
%TO.P,U1,37,GPIO23*%
%TO.N,Net-(U1-GPIO23)*%
X138440000Y-119950000D03*
X138470000Y-124200001D03*
%TO.P,U1,38,GND*%
%TO.N,Net-(U10-LP)*%
X135900000Y-119950000D03*
X135930000Y-124200001D03*
%TD*%
D12*
%TO.P,U8,1,LP*%
%TO.N,Net-(U10-LP)*%
X96774000Y-109728000D03*
%TD*%
%TO.P,U13,1,LP*%
%TO.N,Net-(U1-DAC_1{slash}ADC2_CH8{slash}GPIO25)*%
X96774000Y-122428000D03*
%TD*%
%TO.P,U12,1,LP*%
%TO.N,Net-(U1-DAC_2{slash}ADC2_CH9{slash}GPIO26)*%
X96774000Y-119888000D03*
%TD*%
%TO.P,U9,1,LP*%
%TO.N,Net-(U1-5V)*%
X96774000Y-112268000D03*
%TD*%
%TO.P,U10,1,LP*%
%TO.N,Net-(U10-LP)*%
X96774000Y-114808000D03*
%TD*%
D17*
%TO.N,Net-(U1-3V3)*%
X212646320Y-106756320D03*
%TO.N,Net-(U1-5V)*%
X181120000Y-85420000D03*
%TD*%
D18*
%TO.N,Net-(U10-LP)*%
X99060000Y-114808000D02*
X96774000Y-114808000D01*
X100330000Y-113538000D02*
X99060000Y-114808000D01*
X99314000Y-109728000D02*
X100330000Y-110744000D01*
X100330000Y-110744000D02*
X100330000Y-113538000D01*
X96774000Y-109728000D02*
X99314000Y-109728000D01*
%TO.N,Net-(U1-32K_XN{slash}GPIO33{slash}ADC1_CH5)*%
X128016000Y-106680000D02*
X141550000Y-106680000D01*
X117348000Y-117348000D02*
X128016000Y-106680000D01*
X96774000Y-117348000D02*
X117348000Y-117348000D01*
X141550000Y-106680000D02*
X153680000Y-94550000D01*
%TO.N,Net-(U1-DAC_1{slash}ADC2_CH8{slash}GPIO25)*%
X133676000Y-117094000D02*
X156220000Y-94550000D01*
X123698000Y-117094000D02*
X133676000Y-117094000D01*
X96774000Y-122428000D02*
X118364000Y-122428000D01*
X118364000Y-122428000D02*
X123698000Y-117094000D01*
%TO.N,Net-(U10-LP)*%
X103010000Y-96380000D02*
X103010000Y-93920000D01*
X101854000Y-97536000D02*
X103010000Y-96380000D01*
X94488000Y-97536000D02*
X101854000Y-97536000D01*
X92202000Y-99822000D02*
X94488000Y-97536000D01*
X92202000Y-132334000D02*
X92202000Y-99822000D01*
X93980000Y-134112000D02*
X92202000Y-132334000D01*
X140462000Y-134112000D02*
X93980000Y-134112000D01*
%TO.N,Net-(U1-3V3)*%
X214203680Y-124536320D02*
X214790000Y-123950000D01*
X198909600Y-124536320D02*
X214203680Y-124536320D01*
X214726320Y-106756320D02*
X214790000Y-106820000D01*
X214790000Y-123950000D02*
X214790000Y-106820000D01*
X141060000Y-77260000D02*
X135900000Y-82420000D01*
X212646320Y-106756320D02*
X214726320Y-106756320D01*
X214790000Y-106820000D02*
X214790000Y-77260000D01*
X135900000Y-82420000D02*
X135900000Y-94550000D01*
X214790000Y-77260000D02*
X141060000Y-77260000D01*
%TO.N,unconnected-(U1-CHIP_PU-Pad2)*%
X138440000Y-94550000D02*
X138440000Y-90200000D01*
X138440000Y-90200000D02*
X138340000Y-90100000D01*
%TO.N,unconnected-(U1-SENSOR_VP{slash}GPIO36{slash}ADC1_CH0-Pad3)*%
X140980000Y-90200000D02*
X140880000Y-90100000D01*
X140980000Y-94550000D02*
X140980000Y-90200000D01*
%TO.N,unconnected-(U1-SENSOR_VN{slash}GPIO39{slash}ADC1_CH3-Pad4)*%
X143520000Y-94550000D02*
X143520000Y-90200000D01*
X143520000Y-90200000D02*
X143420000Y-90100000D01*
%TO.N,unconnected-(U1-VDET_1{slash}GPIO34{slash}ADC1_CH6-Pad5)*%
X146060000Y-90200000D02*
X145960000Y-90100000D01*
X146060000Y-94550000D02*
X146060000Y-90200000D01*
%TO.N,unconnected-(U1-VDET_2{slash}GPIO35{slash}ADC1_CH7-Pad6)*%
X148500000Y-94450000D02*
X148600000Y-94550000D01*
X148500000Y-90100000D02*
X148500000Y-94450000D01*
%TO.N,unconnected-(U1-32K_XP{slash}GPIO32{slash}ADC1_CH4-Pad7)*%
X151040000Y-90100000D02*
X151040000Y-94450000D01*
X151040000Y-94450000D02*
X151140000Y-94550000D01*
%TO.N,Net-(U1-32K_XN{slash}GPIO33{slash}ADC1_CH5)*%
X153580000Y-94450000D02*
X153680000Y-94550000D01*
X153580000Y-90100000D02*
X153580000Y-94450000D01*
%TO.N,Net-(U1-DAC_1{slash}ADC2_CH8{slash}GPIO25)*%
X156120000Y-94450000D02*
X156220000Y-94550000D01*
X156120000Y-90100000D02*
X156120000Y-94450000D01*
%TO.N,Net-(U1-DAC_2{slash}ADC2_CH9{slash}GPIO26)*%
X158660000Y-90100000D02*
X158660000Y-94450000D01*
X158660000Y-94450000D02*
X158760000Y-94550000D01*
%TO.N,Net-(U1-ADC2_CH7{slash}GPIO27)*%
X161200000Y-94450000D02*
X161300000Y-94550000D01*
X161200000Y-90100000D02*
X161200000Y-94450000D01*
%TO.N,Net-(U1-MTMS{slash}GPIO14{slash}ADC2_CH6)*%
X163740000Y-94450000D02*
X163840000Y-94550000D01*
X163740000Y-90100000D02*
X163740000Y-94450000D01*
%TO.N,unconnected-(U1-MTDI{slash}GPIO12{slash}ADC2_CH5-Pad13)*%
X166280000Y-90100000D02*
X166280000Y-94450000D01*
X166280000Y-94450000D02*
X166380000Y-94550000D01*
%TO.N,Net-(U10-LP)*%
X198909600Y-121996320D02*
X210743680Y-121996320D01*
X151140000Y-115560000D02*
X168920000Y-97780000D01*
X151140000Y-124170001D02*
X151170000Y-124200001D01*
X168920000Y-81660000D02*
X172330000Y-78250000D01*
X168920000Y-97780000D02*
X168920000Y-94550000D01*
X151170000Y-130770000D02*
X151170000Y-124200001D01*
X174840000Y-78250000D02*
X174610000Y-78250000D01*
X172330000Y-78250000D02*
X180060000Y-78250000D01*
X135930000Y-131866000D02*
X135930000Y-124200001D01*
X92016668Y-109728000D02*
X96774000Y-109728000D01*
X151140000Y-119950000D02*
X151140000Y-115560000D01*
X135900000Y-124170001D02*
X135930000Y-124200001D01*
X207950000Y-78250000D02*
X180060000Y-78250000D01*
X151140000Y-119950000D02*
X151140000Y-124170001D01*
X151140000Y-119950000D02*
X151140000Y-123180000D01*
X135900000Y-119950000D02*
X135900000Y-124170001D01*
X140462000Y-134112000D02*
X138176000Y-134112000D01*
X210820000Y-81120000D02*
X207950000Y-78250000D01*
X138176000Y-134112000D02*
X135930000Y-131866000D01*
X168820000Y-90100000D02*
X168820000Y-94450000D01*
X147828000Y-134112000D02*
X151170000Y-130770000D01*
X168920000Y-94550000D02*
X168920000Y-81660000D01*
X180060000Y-78250000D02*
X174840000Y-78250000D01*
X210743680Y-121996320D02*
X210820000Y-121920000D01*
X210820000Y-121920000D02*
X210820000Y-91200000D01*
X147828000Y-134112000D02*
X140462000Y-134112000D01*
X210820000Y-91200000D02*
X210820000Y-81120000D01*
X210820000Y-91200000D02*
X210820000Y-88900000D01*
X168820000Y-94450000D02*
X168920000Y-94550000D01*
%TO.N,unconnected-(U1-MTCK{slash}GPIO13{slash}ADC2_CH4-Pad15)*%
X171360000Y-90100000D02*
X171360000Y-94450000D01*
X171360000Y-94450000D02*
X171460000Y-94550000D01*
%TO.N,unconnected-(U1-SD_DATA2{slash}GPIO9-Pad16)*%
X173900000Y-90100000D02*
X173900000Y-94450000D01*
X173900000Y-94450000D02*
X174000000Y-94550000D01*
%TO.N,unconnected-(U1-SD_DATA3{slash}GPIO10-Pad17)*%
X176440000Y-90100000D02*
X176440000Y-94450000D01*
X176440000Y-94450000D02*
X176540000Y-94550000D01*
%TO.N,unconnected-(U1-CMD-Pad18)*%
X178980000Y-90100000D02*
X178980000Y-94450000D01*
X178980000Y-94450000D02*
X179080000Y-94550000D01*
%TO.N,Net-(U1-5V)*%
X181520000Y-94450000D02*
X181620000Y-94550000D01*
X181120000Y-85420000D02*
X181620000Y-85920000D01*
X181620000Y-85920000D02*
X181620000Y-94550000D01*
X181520000Y-90100000D02*
X181520000Y-94450000D01*
%TO.N,unconnected-(U1-SD_CLK{slash}GPIO6-Pad20)*%
X181617280Y-124166321D02*
X181647280Y-124196321D01*
X181617280Y-119946320D02*
X181617280Y-124166321D01*
%TO.N,unconnected-(U1-SD_DATA0{slash}GPIO7-Pad21)*%
X179077280Y-119946320D02*
X179077280Y-124166321D01*
X179077280Y-124166321D02*
X179107280Y-124196321D01*
%TO.N,unconnected-(U1-SD_DATA1{slash}GPIO8-Pad22)*%
X176540000Y-124170001D02*
X176570000Y-124200001D01*
X176540000Y-119950000D02*
X176540000Y-124170001D01*
%TO.N,unconnected-(U1-MTDO{slash}GPIO15{slash}ADC2_CH3-Pad23)*%
X174000000Y-119950000D02*
X174000000Y-124170001D01*
X174000000Y-124170001D02*
X174030000Y-124200001D01*
%TO.N,unconnected-(U1-ADC2_CH2{slash}GPIO2-Pad24)*%
X171460000Y-124170001D02*
X171490000Y-124200001D01*
X171460000Y-119950000D02*
X171460000Y-124170001D01*
%TO.N,unconnected-(U1-GPIO0{slash}BOOT{slash}ADC2_CH1-Pad25)*%
X168920000Y-124170001D02*
X168950000Y-124200001D01*
X168920000Y-119950000D02*
X168920000Y-124170001D01*
%TO.N,unconnected-(U1-ADC2_CH0{slash}GPIO4-Pad26)*%
X166380000Y-115410000D02*
X166380000Y-119950000D01*
X198909600Y-114376320D02*
X167413680Y-114376320D01*
X166380000Y-124170001D02*
X166410000Y-124200001D01*
X166380000Y-119950000D02*
X166380000Y-124170001D01*
X167413680Y-114376320D02*
X166380000Y-115410000D01*
%TO.N,unconnected-(U1-GPIO16-Pad27)*%
X163840000Y-124170001D02*
X163870000Y-124200001D01*
X163840000Y-119950000D02*
X163840000Y-124170001D01*
%TO.N,unconnected-(U1-GPIO17-Pad28)*%
X161300000Y-119950000D02*
X161300000Y-124170001D01*
X161300000Y-124170001D02*
X161330000Y-124200001D01*
%TO.N,Net-(U1-GPIO5)*%
X198013680Y-119486320D02*
X187960000Y-129540000D01*
X187960000Y-129540000D02*
X160020000Y-129540000D01*
X158760000Y-119950000D02*
X158760000Y-124170001D01*
X158760000Y-128280000D02*
X158760000Y-119950000D01*
X158760000Y-124170001D02*
X158790000Y-124200001D01*
X198909600Y-119486320D02*
X198013680Y-119486320D01*
X160020000Y-129540000D02*
X158760000Y-128280000D01*
%TO.N,Net-(U1-GPIO18)*%
X198909600Y-109296320D02*
X205663680Y-109296320D01*
X205740000Y-101600000D02*
X205663680Y-101676320D01*
X162483680Y-109296320D02*
X198909600Y-109296320D01*
X205663680Y-109296320D02*
X205740000Y-109220000D01*
X205740000Y-109220000D02*
X205740000Y-101600000D01*
X156220000Y-119950000D02*
X156220000Y-124170001D01*
X156220000Y-124170001D02*
X156250000Y-124200001D01*
X156220000Y-115560000D02*
X162483680Y-109296320D01*
X156220000Y-119950000D02*
X156220000Y-115560000D01*
X205663680Y-101676320D02*
X198909600Y-101676320D01*
%TO.N,Net-(U1-GPIO19)*%
X153680000Y-119950000D02*
X153680000Y-124170001D01*
X153680000Y-124170001D02*
X153710000Y-124200001D01*
%TO.N,unconnected-(U1-GPIO21-Pad33)*%
X148600000Y-124170001D02*
X148630000Y-124200001D01*
X148600000Y-119950000D02*
X148600000Y-124170001D01*
%TO.N,unconnected-(U1-U0RXD{slash}GPIO3-Pad34)*%
X146060000Y-124170001D02*
X146090000Y-124200001D01*
X146060000Y-119950000D02*
X146060000Y-124170001D01*
%TO.N,unconnected-(U1-U0TXD{slash}GPIO1-Pad35)*%
X143520000Y-124170001D02*
X143550000Y-124200001D01*
X143520000Y-119950000D02*
X143520000Y-124170001D01*
%TO.N,Net-(U1-GPIO22)*%
X140980000Y-119950000D02*
X140980000Y-124170001D01*
X140980000Y-124170001D02*
X141010000Y-124200001D01*
%TO.N,Net-(U1-GPIO23)*%
X208256320Y-111736320D02*
X208280000Y-111712640D01*
X208203680Y-96596320D02*
X198909600Y-96596320D01*
X208280000Y-111712640D02*
X208280000Y-96520000D01*
X138440000Y-119950000D02*
X138440000Y-124170001D01*
X208280000Y-96520000D02*
X208203680Y-96596320D01*
X198909600Y-111736320D02*
X208256320Y-111736320D01*
X138440000Y-124170001D02*
X138470000Y-124200001D01*
%TO.N,Net-(U3-LP)*%
X108090000Y-88840000D02*
X108090000Y-93920000D01*
X97930000Y-88840000D02*
X108090000Y-88840000D01*
X97930000Y-93920000D02*
X97930000Y-88840000D01*
%TD*%
M02*
