%TF.GenerationSoftware,KiCad,Pcbnew,7.0.8*%
%TF.CreationDate,2024-09-26T17:13:04+02:00*%
%TF.ProjectId,ESP32_TFT2-8,45535033-325f-4544-9654-322d382e6b69,rev?*%
%TF.SameCoordinates,Original*%
%TF.FileFunction,Copper,L1,Top*%
%TF.FilePolarity,Positive*%
%FSLAX46Y46*%
G04 Gerber Fmt 4.6, Leading zero omitted, Abs format (unit mm)*
G04 Created by KiCad (PCBNEW 7.0.8) date 2024-09-26 17:13:04*
%MOMM*%
%LPD*%
G01*
G04 APERTURE LIST*
%TA.AperFunction,ComponentPad*%
%ADD10R,2.000000X2.000000*%
%TD*%
%TA.AperFunction,ComponentPad*%
%ADD11R,1.524000X1.524000*%
%TD*%
%TA.AperFunction,ComponentPad*%
%ADD12C,1.524000*%
%TD*%
%TA.AperFunction,ComponentPad*%
%ADD13R,1.200000X2.000000*%
%TD*%
%TA.AperFunction,ComponentPad*%
%ADD14O,1.200000X2.000000*%
%TD*%
%TA.AperFunction,ViaPad*%
%ADD15C,0.800000*%
%TD*%
%TA.AperFunction,Conductor*%
%ADD16C,0.250000*%
%TD*%
G04 APERTURE END LIST*
D10*
%TO.P,U5,1,LP*%
%TO.N,Net-(U3-LP)*%
X127520000Y-79300000D03*
%TD*%
D11*
%TO.P,U2,1,VCC*%
%TO.N,Net-(U1-3V3)*%
X198909600Y-124536320D03*
D12*
%TO.P,U2,2,GND*%
%TO.N,Net-(U10-LP)*%
X198909600Y-121996320D03*
%TO.P,U2,3,CS*%
%TO.N,Net-(U1-GPIO5)*%
X198909600Y-119486320D03*
%TO.P,U2,4,RESET*%
%TO.N,Net-(U1-GPIO22)*%
X198909600Y-116916320D03*
%TO.P,U2,5,DC*%
%TO.N,unconnected-(U1-ADC2_CH0{slash}GPIO4-Pad26)*%
X198909600Y-114376320D03*
%TO.P,U2,6,MOSI*%
%TO.N,Net-(U1-GPIO23)*%
X198909600Y-111736320D03*
%TO.P,U2,7,SCK*%
%TO.N,Net-(U1-GPIO18)*%
X198909600Y-109296320D03*
%TO.P,U2,8,LED*%
%TO.N,Net-(U1-3V3)*%
X198909600Y-106756320D03*
%TO.P,U2,9,MISO*%
%TO.N,Net-(U1-GPIO19)*%
X198909600Y-104216320D03*
%TO.P,U2,10,T_CLK*%
%TO.N,Net-(U1-GPIO18)*%
X198909600Y-101676320D03*
%TO.P,U2,11,T_CS*%
%TO.N,Net-(U1-MTMS{slash}GPIO14{slash}ADC2_CH6)*%
X198909600Y-99136320D03*
%TO.P,U2,12,T_DIN*%
%TO.N,Net-(U1-GPIO23)*%
X198909600Y-96596320D03*
%TO.P,U2,13,T_DQ*%
%TO.N,Net-(U1-GPIO19)*%
X198909600Y-94056320D03*
%TO.P,U2,14,T_IRQ*%
%TO.N,Net-(U1-ADC2_CH7{slash}GPIO27)*%
X198909600Y-91516320D03*
%TD*%
D10*
%TO.P,U6,1,LP*%
%TO.N,Net-(U1-5V)*%
X132600000Y-79300000D03*
%TD*%
%TO.P,U3,1,LP*%
%TO.N,Net-(U3-LP)*%
X117360000Y-79300000D03*
%TD*%
%TO.P,U4,1,LP*%
%TO.N,Net-(U10-LP)*%
X122440000Y-79300000D03*
%TD*%
%TO.P,U11,1,LP*%
%TO.N,Net-(U1-32K_XN{slash}GPIO33{slash}ADC1_CH5)*%
X121974000Y-105612000D03*
%TD*%
%TO.P,U7,1,LP*%
%TO.N,Net-(U1-5V)*%
X121974000Y-115772000D03*
%TD*%
D13*
%TO.P,U1,1,3V3*%
%TO.N,Net-(U1-3V3)*%
X135800000Y-90100000D03*
X135900000Y-94550000D03*
D14*
%TO.P,U1,2,CHIP_PU*%
%TO.N,unconnected-(U1-CHIP_PU-Pad2)*%
X138340000Y-90100000D03*
X138440000Y-94550000D03*
%TO.P,U1,3,SENSOR_VP/GPIO36/ADC1_CH0*%
%TO.N,unconnected-(U1-SENSOR_VP{slash}GPIO36{slash}ADC1_CH0-Pad3)*%
X140880000Y-90100000D03*
X140980000Y-94550000D03*
%TO.P,U1,4,SENSOR_VN/GPIO39/ADC1_CH3*%
%TO.N,unconnected-(U1-SENSOR_VN{slash}GPIO39{slash}ADC1_CH3-Pad4)*%
X143420000Y-90100000D03*
X143520000Y-94550000D03*
%TO.P,U1,5,VDET_1/GPIO34/ADC1_CH6*%
%TO.N,unconnected-(U1-VDET_1{slash}GPIO34{slash}ADC1_CH6-Pad5)*%
X145960000Y-90100000D03*
X146060000Y-94550000D03*
%TO.P,U1,6,VDET_2/GPIO35/ADC1_CH7*%
%TO.N,unconnected-(U1-VDET_2{slash}GPIO35{slash}ADC1_CH7-Pad6)*%
X148500000Y-90100000D03*
X148600000Y-94550000D03*
%TO.P,U1,7,32K_XP/GPIO32/ADC1_CH4*%
%TO.N,unconnected-(U1-32K_XP{slash}GPIO32{slash}ADC1_CH4-Pad7)*%
X151040000Y-90100000D03*
X151140000Y-94550000D03*
%TO.P,U1,8,32K_XN/GPIO33/ADC1_CH5*%
%TO.N,Net-(U1-32K_XN{slash}GPIO33{slash}ADC1_CH5)*%
X153580000Y-90100000D03*
X153680000Y-94550000D03*
%TO.P,U1,9,DAC_1/ADC2_CH8/GPIO25*%
%TO.N,Net-(U1-DAC_1{slash}ADC2_CH8{slash}GPIO25)*%
X156120000Y-90100000D03*
X156220000Y-94550000D03*
%TO.P,U1,10,DAC_2/ADC2_CH9/GPIO26*%
%TO.N,Net-(U1-DAC_2{slash}ADC2_CH9{slash}GPIO26)*%
X158660000Y-90100000D03*
X158760000Y-94550000D03*
%TO.P,U1,11,ADC2_CH7/GPIO27*%
%TO.N,Net-(U1-ADC2_CH7{slash}GPIO27)*%
X161200000Y-90100000D03*
X161300000Y-94550000D03*
%TO.P,U1,12,MTMS/GPIO14/ADC2_CH6*%
%TO.N,Net-(U1-MTMS{slash}GPIO14{slash}ADC2_CH6)*%
X163740000Y-90100000D03*
X163840000Y-94550000D03*
%TO.P,U1,13,MTDI/GPIO12/ADC2_CH5*%
%TO.N,unconnected-(U1-MTDI{slash}GPIO12{slash}ADC2_CH5-Pad13)*%
X166280000Y-90100000D03*
X166380000Y-94550000D03*
%TO.P,U1,14,GND*%
%TO.N,Net-(U10-LP)*%
X168820000Y-90100000D03*
X168920000Y-94550000D03*
%TO.P,U1,15,MTCK/GPIO13/ADC2_CH4*%
%TO.N,unconnected-(U1-MTCK{slash}GPIO13{slash}ADC2_CH4-Pad15)*%
X171360000Y-90100000D03*
X171460000Y-94550000D03*
%TO.P,U1,16,SD_DATA2/GPIO9*%
%TO.N,unconnected-(U1-SD_DATA2{slash}GPIO9-Pad16)*%
X173900000Y-90100000D03*
X174000000Y-94550000D03*
%TO.P,U1,17,SD_DATA3/GPIO10*%
%TO.N,unconnected-(U1-SD_DATA3{slash}GPIO10-Pad17)*%
X176440000Y-90100000D03*
X176540000Y-94550000D03*
%TO.P,U1,18,CMD*%
%TO.N,unconnected-(U1-CMD-Pad18)*%
X178980000Y-90100000D03*
X179080000Y-94550000D03*
%TO.P,U1,19,5V*%
%TO.N,Net-(U1-5V)*%
X181520000Y-90100000D03*
X181620000Y-94550000D03*
%TO.P,U1,20,SD_CLK/GPIO6*%
%TO.N,unconnected-(U1-SD_CLK{slash}GPIO6-Pad20)*%
X181617280Y-119946320D03*
X181647280Y-124196321D03*
%TO.P,U1,21,SD_DATA0/GPIO7*%
%TO.N,unconnected-(U1-SD_DATA0{slash}GPIO7-Pad21)*%
X179077280Y-119946320D03*
X179107280Y-124196321D03*
%TO.P,U1,22,SD_DATA1/GPIO8*%
%TO.N,unconnected-(U1-SD_DATA1{slash}GPIO8-Pad22)*%
X176540000Y-119950000D03*
X176570000Y-124200001D03*
%TO.P,U1,23,MTDO/GPIO15/ADC2_CH3*%
%TO.N,unconnected-(U1-MTDO{slash}GPIO15{slash}ADC2_CH3-Pad23)*%
X174000000Y-119950000D03*
X174030000Y-124200001D03*
%TO.P,U1,24,ADC2_CH2/GPIO2*%
%TO.N,unconnected-(U1-ADC2_CH2{slash}GPIO2-Pad24)*%
X171460000Y-119950000D03*
X171490000Y-124200001D03*
%TO.P,U1,25,GPIO0/BOOT/ADC2_CH1*%
%TO.N,unconnected-(U1-GPIO0{slash}BOOT{slash}ADC2_CH1-Pad25)*%
X168920000Y-119950000D03*
X168950000Y-124200001D03*
%TO.P,U1,26,ADC2_CH0/GPIO4*%
%TO.N,unconnected-(U1-ADC2_CH0{slash}GPIO4-Pad26)*%
X166380000Y-119950000D03*
X166410000Y-124200001D03*
%TO.P,U1,27,GPIO16*%
%TO.N,unconnected-(U1-GPIO16-Pad27)*%
X163840000Y-119950000D03*
X163870000Y-124200001D03*
%TO.P,U1,28,GPIO17*%
%TO.N,unconnected-(U1-GPIO17-Pad28)*%
X161300000Y-119950000D03*
X161330000Y-124200001D03*
%TO.P,U1,29,GPIO5*%
%TO.N,Net-(U1-GPIO5)*%
X158760000Y-119950000D03*
X158790000Y-124200001D03*
%TO.P,U1,30,GPIO18*%
%TO.N,Net-(U1-GPIO18)*%
X156220000Y-119950000D03*
X156250000Y-124200001D03*
%TO.P,U1,31,GPIO19*%
%TO.N,Net-(U1-GPIO19)*%
X153680000Y-119950000D03*
X153710000Y-124200001D03*
%TO.P,U1,32,GND*%
%TO.N,Net-(U10-LP)*%
X151140000Y-119950000D03*
X151170000Y-124200001D03*
%TO.P,U1,33,GPIO21*%
%TO.N,unconnected-(U1-GPIO21-Pad33)*%
X148600000Y-119950000D03*
X148630000Y-124200001D03*
%TO.P,U1,34,U0RXD/GPIO3*%
%TO.N,unconnected-(U1-U0RXD{slash}GPIO3-Pad34)*%
X146060000Y-119950000D03*
X146090000Y-124200001D03*
%TO.P,U1,35,U0TXD/GPIO1*%
%TO.N,unconnected-(U1-U0TXD{slash}GPIO1-Pad35)*%
X143520000Y-119950000D03*
X143550000Y-124200001D03*
%TO.P,U1,36,GPIO22*%
%TO.N,Net-(U1-GPIO22)*%
X140980000Y-119950000D03*
X141010000Y-124200001D03*
%TO.P,U1,37,GPIO23*%
%TO.N,Net-(U1-GPIO23)*%
X138440000Y-119950000D03*
X138470000Y-124200001D03*
%TO.P,U1,38,GND*%
%TO.N,Net-(U10-LP)*%
X135900000Y-119950000D03*
X135930000Y-124200001D03*
%TD*%
D10*
%TO.P,U8,1,LP*%
%TO.N,Net-(U10-LP)*%
X121974000Y-113232000D03*
%TD*%
%TO.P,U13,1,LP*%
%TO.N,Net-(U1-DAC_1{slash}ADC2_CH8{slash}GPIO25)*%
X121974000Y-100532000D03*
%TD*%
%TO.P,U12,1,LP*%
%TO.N,Net-(U1-DAC_2{slash}ADC2_CH9{slash}GPIO26)*%
X121974000Y-103072000D03*
%TD*%
%TO.P,U9,1,LP*%
%TO.N,Net-(U1-5V)*%
X121974000Y-110692000D03*
%TD*%
%TO.P,U10,1,LP*%
%TO.N,Net-(U10-LP)*%
X121974000Y-108152000D03*
%TD*%
D15*
%TO.N,Net-(U1-3V3)*%
X204620000Y-106720000D03*
%TO.N,Net-(U1-5V)*%
X181120000Y-85420000D03*
%TD*%
D16*
%TO.N,Net-(U1-ADC2_CH7{slash}GPIO27)*%
X163310000Y-87990000D02*
X161200000Y-90100000D01*
X188400000Y-87990000D02*
X163310000Y-87990000D01*
X191926320Y-91516320D02*
X188400000Y-87990000D01*
X198909600Y-91516320D02*
X191926320Y-91516320D01*
%TO.N,Net-(U1-3V3)*%
X204620000Y-106720000D02*
X204583680Y-106756320D01*
X204583680Y-106756320D02*
X198909600Y-106756320D01*
%TO.N,Net-(U1-32K_XN{slash}GPIO33{slash}ADC1_CH5)*%
X121974000Y-105612000D02*
X149288000Y-105612000D01*
X153680000Y-101220000D02*
X153680000Y-94550000D01*
X149288000Y-105612000D02*
X153680000Y-101220000D01*
%TO.N,Net-(U1-ADC2_CH7{slash}GPIO27)*%
X161300000Y-92700000D02*
X161300000Y-94550000D01*
%TO.N,Net-(U1-MTMS{slash}GPIO14{slash}ADC2_CH6)*%
X163840000Y-97800000D02*
X163840000Y-94550000D01*
X165176320Y-99136320D02*
X163840000Y-97800000D01*
X198909600Y-99136320D02*
X165176320Y-99136320D01*
%TO.N,Net-(U1-5V)*%
X181120000Y-85420000D02*
X180840000Y-85700000D01*
X134346380Y-85700000D02*
X125346380Y-94700000D01*
X134900000Y-85700000D02*
X134346380Y-85700000D01*
X125346380Y-94700000D02*
X122900000Y-94700000D01*
X180840000Y-85700000D02*
X134900000Y-85700000D01*
X120192000Y-110692000D02*
X121974000Y-110692000D01*
X124514000Y-115772000D02*
X125276000Y-115010000D01*
X132600000Y-83700000D02*
X132600000Y-79300000D01*
X125276000Y-115010000D02*
X125276000Y-111708000D01*
X120495332Y-117250668D02*
X121974000Y-115772000D01*
X118900000Y-109400000D02*
X120192000Y-110692000D01*
X134600000Y-85700000D02*
X132600000Y-83700000D01*
X134900000Y-85700000D02*
X134600000Y-85700000D01*
X122900000Y-94700000D02*
X118900000Y-98700000D01*
X181010000Y-85310000D02*
X181120000Y-85420000D01*
X124260000Y-110692000D02*
X121974000Y-110692000D01*
X121974000Y-115772000D02*
X124514000Y-115772000D01*
X118900000Y-98700000D02*
X118900000Y-109400000D01*
X125276000Y-111708000D02*
X124260000Y-110692000D01*
%TO.N,Net-(U1-GPIO19)*%
X203200000Y-94132640D02*
X203200000Y-104140000D01*
X203123680Y-94056320D02*
X203200000Y-94132640D01*
X203200000Y-104140000D02*
X203123680Y-104216320D01*
X159943680Y-104216320D02*
X153680000Y-110480000D01*
X203123680Y-104216320D02*
X198909600Y-104216320D01*
X198909600Y-104216320D02*
X159943680Y-104216320D01*
X198909600Y-94056320D02*
X203123680Y-94056320D01*
X153680000Y-110480000D02*
X153680000Y-119950000D01*
%TO.N,Net-(U1-GPIO22)*%
X198909600Y-116916320D02*
X195503680Y-116916320D01*
X140980000Y-125740000D02*
X140980000Y-119950000D01*
X195503680Y-116916320D02*
X185420000Y-127000000D01*
X142240000Y-127000000D02*
X140980000Y-125740000D01*
X185420000Y-127000000D02*
X142240000Y-127000000D01*
%TO.N,Net-(U1-GPIO23)*%
X138440000Y-133360000D02*
X138440000Y-119950000D01*
X198909600Y-111736320D02*
X200636320Y-111736320D01*
X142240000Y-137160000D02*
X138440000Y-133360000D01*
X203200000Y-114300000D02*
X203200000Y-137160000D01*
X203200000Y-137160000D02*
X142240000Y-137160000D01*
X200636320Y-111736320D02*
X203200000Y-114300000D01*
%TD*%
M02*
