%TF.GenerationSoftware,KiCad,Pcbnew,7.0.8*%
%TF.CreationDate,2024-07-13T09:20:10+02:00*%
%TF.ProjectId,ESP32_TFT2-8,45535033-325f-4544-9654-322d382e6b69,rev?*%
%TF.SameCoordinates,Original*%
%TF.FileFunction,Copper,L1,Top*%
%TF.FilePolarity,Positive*%
%FSLAX46Y46*%
G04 Gerber Fmt 4.6, Leading zero omitted, Abs format (unit mm)*
G04 Created by KiCad (PCBNEW 7.0.8) date 2024-07-13 09:20:10*
%MOMM*%
%LPD*%
G01*
G04 APERTURE LIST*
%ADD10C,0.300000*%
%TA.AperFunction,NonConductor*%
%ADD11C,0.300000*%
%TD*%
%TA.AperFunction,ComponentPad*%
%ADD12R,2.000000X2.000000*%
%TD*%
%TA.AperFunction,ComponentPad*%
%ADD13R,1.524000X1.524000*%
%TD*%
%TA.AperFunction,ComponentPad*%
%ADD14C,1.524000*%
%TD*%
%TA.AperFunction,ComponentPad*%
%ADD15R,1.200000X2.000000*%
%TD*%
%TA.AperFunction,ComponentPad*%
%ADD16O,1.200000X2.000000*%
%TD*%
%TA.AperFunction,ViaPad*%
%ADD17C,0.800000*%
%TD*%
%TA.AperFunction,Conductor*%
%ADD18C,0.250000*%
%TD*%
G04 APERTURE END LIST*
D10*
D11*
X88094510Y-81690828D02*
X88094510Y-80190828D01*
X88951653Y-81690828D02*
X88308796Y-80833685D01*
X88951653Y-80190828D02*
X88094510Y-81047971D01*
X89594510Y-81690828D02*
X89594510Y-80190828D01*
X89594510Y-80905114D02*
X90451653Y-80905114D01*
X90451653Y-81690828D02*
X90451653Y-80190828D01*
X91665939Y-80905114D02*
X91165939Y-80905114D01*
X91165939Y-81690828D02*
X91165939Y-80190828D01*
X91165939Y-80190828D02*
X91880225Y-80190828D01*
X93880225Y-80190828D02*
X94023082Y-80190828D01*
X94023082Y-80190828D02*
X94165939Y-80262257D01*
X94165939Y-80262257D02*
X94237368Y-80333685D01*
X94237368Y-80333685D02*
X94308796Y-80476542D01*
X94308796Y-80476542D02*
X94380225Y-80762257D01*
X94380225Y-80762257D02*
X94380225Y-81119400D01*
X94380225Y-81119400D02*
X94308796Y-81405114D01*
X94308796Y-81405114D02*
X94237368Y-81547971D01*
X94237368Y-81547971D02*
X94165939Y-81619400D01*
X94165939Y-81619400D02*
X94023082Y-81690828D01*
X94023082Y-81690828D02*
X93880225Y-81690828D01*
X93880225Y-81690828D02*
X93737368Y-81619400D01*
X93737368Y-81619400D02*
X93665939Y-81547971D01*
X93665939Y-81547971D02*
X93594510Y-81405114D01*
X93594510Y-81405114D02*
X93523082Y-81119400D01*
X93523082Y-81119400D02*
X93523082Y-80762257D01*
X93523082Y-80762257D02*
X93594510Y-80476542D01*
X93594510Y-80476542D02*
X93665939Y-80333685D01*
X93665939Y-80333685D02*
X93737368Y-80262257D01*
X93737368Y-80262257D02*
X93880225Y-80190828D01*
X94880224Y-80190828D02*
X95880224Y-80190828D01*
X95880224Y-80190828D02*
X95237367Y-81690828D01*
X96451652Y-81547971D02*
X96523081Y-81619400D01*
X96523081Y-81619400D02*
X96451652Y-81690828D01*
X96451652Y-81690828D02*
X96380224Y-81619400D01*
X96380224Y-81619400D02*
X96451652Y-81547971D01*
X96451652Y-81547971D02*
X96451652Y-81690828D01*
X97094510Y-80333685D02*
X97165938Y-80262257D01*
X97165938Y-80262257D02*
X97308796Y-80190828D01*
X97308796Y-80190828D02*
X97665938Y-80190828D01*
X97665938Y-80190828D02*
X97808796Y-80262257D01*
X97808796Y-80262257D02*
X97880224Y-80333685D01*
X97880224Y-80333685D02*
X97951653Y-80476542D01*
X97951653Y-80476542D02*
X97951653Y-80619400D01*
X97951653Y-80619400D02*
X97880224Y-80833685D01*
X97880224Y-80833685D02*
X97023081Y-81690828D01*
X97023081Y-81690828D02*
X97951653Y-81690828D01*
X98880224Y-80190828D02*
X99023081Y-80190828D01*
X99023081Y-80190828D02*
X99165938Y-80262257D01*
X99165938Y-80262257D02*
X99237367Y-80333685D01*
X99237367Y-80333685D02*
X99308795Y-80476542D01*
X99308795Y-80476542D02*
X99380224Y-80762257D01*
X99380224Y-80762257D02*
X99380224Y-81119400D01*
X99380224Y-81119400D02*
X99308795Y-81405114D01*
X99308795Y-81405114D02*
X99237367Y-81547971D01*
X99237367Y-81547971D02*
X99165938Y-81619400D01*
X99165938Y-81619400D02*
X99023081Y-81690828D01*
X99023081Y-81690828D02*
X98880224Y-81690828D01*
X98880224Y-81690828D02*
X98737367Y-81619400D01*
X98737367Y-81619400D02*
X98665938Y-81547971D01*
X98665938Y-81547971D02*
X98594509Y-81405114D01*
X98594509Y-81405114D02*
X98523081Y-81119400D01*
X98523081Y-81119400D02*
X98523081Y-80762257D01*
X98523081Y-80762257D02*
X98594509Y-80476542D01*
X98594509Y-80476542D02*
X98665938Y-80333685D01*
X98665938Y-80333685D02*
X98737367Y-80262257D01*
X98737367Y-80262257D02*
X98880224Y-80190828D01*
X99951652Y-80333685D02*
X100023080Y-80262257D01*
X100023080Y-80262257D02*
X100165938Y-80190828D01*
X100165938Y-80190828D02*
X100523080Y-80190828D01*
X100523080Y-80190828D02*
X100665938Y-80262257D01*
X100665938Y-80262257D02*
X100737366Y-80333685D01*
X100737366Y-80333685D02*
X100808795Y-80476542D01*
X100808795Y-80476542D02*
X100808795Y-80619400D01*
X100808795Y-80619400D02*
X100737366Y-80833685D01*
X100737366Y-80833685D02*
X99880223Y-81690828D01*
X99880223Y-81690828D02*
X100808795Y-81690828D01*
X102094509Y-80690828D02*
X102094509Y-81690828D01*
X101737366Y-80119400D02*
X101380223Y-81190828D01*
X101380223Y-81190828D02*
X102308794Y-81190828D01*
D12*
%TO.P,U5,1,LP*%
%TO.N,Net-(U3-LP)*%
X99060000Y-93980000D03*
%TD*%
%TO.P,U11,1,LP*%
%TO.N,Net-(U1-32K_XN{slash}GPIO33{slash}ADC1_CH5)*%
X101600000Y-121920000D03*
%TD*%
D13*
%TO.P,U2,1,VCC*%
%TO.N,Net-(U1-3V3)*%
X198909600Y-124536320D03*
D14*
%TO.P,U2,2,GND*%
%TO.N,Net-(U10-LP)*%
X198909600Y-121996320D03*
%TO.P,U2,3,CS*%
%TO.N,Net-(U1-GPIO5)*%
X198909600Y-119486320D03*
%TO.P,U2,4,RESET*%
%TO.N,Net-(U1-GPIO22)*%
X198909600Y-116916320D03*
%TO.P,U2,5,DC*%
%TO.N,unconnected-(U2-DC-Pad5)*%
X198909600Y-114376320D03*
%TO.P,U2,6,MOSI*%
%TO.N,Net-(U1-GPIO23)*%
X198909600Y-111736320D03*
%TO.P,U2,7,SCK*%
%TO.N,Net-(U1-GPIO18)*%
X198909600Y-109296320D03*
%TO.P,U2,8,LED*%
%TO.N,unconnected-(U2-LED-Pad8)*%
X198909600Y-106756320D03*
%TO.P,U2,9,MISO*%
%TO.N,Net-(U1-GPIO19)*%
X198909600Y-104216320D03*
%TO.P,U2,10,T_CLK*%
%TO.N,Net-(U1-GPIO18)*%
X198909600Y-101676320D03*
%TO.P,U2,11,T_CS*%
%TO.N,Net-(U1-MTMS{slash}GPIO14{slash}ADC2_CH6)*%
X198909600Y-99136320D03*
%TO.P,U2,12,T_DIN*%
%TO.N,Net-(U1-GPIO23)*%
X198909600Y-96596320D03*
%TO.P,U2,13,T_DQ*%
%TO.N,Net-(U1-GPIO19)*%
X198909600Y-94056320D03*
%TO.P,U2,14,T_IRQ*%
%TO.N,Net-(U1-ADC2_CH7{slash}GPIO27)*%
X198909600Y-91516320D03*
D13*
%TO.P,U2,15*%
%TO.N,N/C*%
X117909600Y-111796320D03*
D14*
%TO.P,U2,16*%
X117909600Y-109296320D03*
%TO.P,U2,17*%
X117909600Y-106756320D03*
%TO.P,U2,18*%
X117909600Y-104216320D03*
%TD*%
D12*
%TO.P,U7,1,LP*%
%TO.N,Net-(U1-5V)*%
X101600000Y-111760000D03*
%TD*%
%TO.P,U6,1,LP*%
%TO.N,Net-(U1-5V)*%
X104140000Y-93980000D03*
%TD*%
%TO.P,U14,1,LP*%
%TO.N,unconnected-(U14-LP-Pad1)*%
X88900000Y-116840000D03*
%TD*%
%TO.P,U15,1,LP*%
%TO.N,unconnected-(U15-LP-Pad1)*%
X88900000Y-121920000D03*
%TD*%
%TO.P,U8,1,LP*%
%TO.N,Net-(U10-LP)*%
X101600000Y-114300000D03*
%TD*%
%TO.P,U3,1,LP*%
%TO.N,Net-(U3-LP)*%
X88900000Y-93980000D03*
%TD*%
%TO.P,U4,1,LP*%
%TO.N,Net-(U10-LP)*%
X93980000Y-93980000D03*
%TD*%
%TO.P,U13,1,LP*%
%TO.N,Net-(U1-DAC_1{slash}ADC2_CH8{slash}GPIO25)*%
X101600000Y-127000000D03*
%TD*%
%TO.P,U12,1,LP*%
%TO.N,Net-(U1-DAC_2{slash}ADC2_CH9{slash}GPIO26)*%
X101600000Y-124460000D03*
%TD*%
%TO.P,U9,1,LP*%
%TO.N,Net-(U1-5V)*%
X101600000Y-116840000D03*
%TD*%
%TO.P,U10,1,LP*%
%TO.N,Net-(U10-LP)*%
X101600000Y-119380000D03*
%TD*%
D15*
%TO.P,U1,1,3V3*%
%TO.N,Net-(U1-3V3)*%
X135900000Y-94550000D03*
D16*
%TO.P,U1,2,CHIP_PU*%
%TO.N,unconnected-(U1-CHIP_PU-Pad2)*%
X138440000Y-94550000D03*
%TO.P,U1,3,SENSOR_VP/GPIO36/ADC1_CH0*%
%TO.N,unconnected-(U1-SENSOR_VP{slash}GPIO36{slash}ADC1_CH0-Pad3)*%
X140980000Y-94550000D03*
%TO.P,U1,4,SENSOR_VN/GPIO39/ADC1_CH3*%
%TO.N,unconnected-(U1-SENSOR_VN{slash}GPIO39{slash}ADC1_CH3-Pad4)*%
X143520000Y-94550000D03*
%TO.P,U1,5,VDET_1/GPIO34/ADC1_CH6*%
%TO.N,unconnected-(U1-VDET_1{slash}GPIO34{slash}ADC1_CH6-Pad5)*%
X146060000Y-94550000D03*
%TO.P,U1,6,VDET_2/GPIO35/ADC1_CH7*%
%TO.N,unconnected-(U1-VDET_2{slash}GPIO35{slash}ADC1_CH7-Pad6)*%
X148600000Y-94550000D03*
%TO.P,U1,7,32K_XP/GPIO32/ADC1_CH4*%
%TO.N,unconnected-(U1-32K_XP{slash}GPIO32{slash}ADC1_CH4-Pad7)*%
X151140000Y-94550000D03*
%TO.P,U1,8,32K_XN/GPIO33/ADC1_CH5*%
%TO.N,Net-(U1-32K_XN{slash}GPIO33{slash}ADC1_CH5)*%
X153680000Y-94550000D03*
%TO.P,U1,9,DAC_1/ADC2_CH8/GPIO25*%
%TO.N,Net-(U1-DAC_1{slash}ADC2_CH8{slash}GPIO25)*%
X156220000Y-94550000D03*
%TO.P,U1,10,DAC_2/ADC2_CH9/GPIO26*%
%TO.N,Net-(U1-DAC_2{slash}ADC2_CH9{slash}GPIO26)*%
X158760000Y-94550000D03*
%TO.P,U1,11,ADC2_CH7/GPIO27*%
%TO.N,Net-(U1-ADC2_CH7{slash}GPIO27)*%
X161300000Y-94550000D03*
%TO.P,U1,12,MTMS/GPIO14/ADC2_CH6*%
%TO.N,Net-(U1-MTMS{slash}GPIO14{slash}ADC2_CH6)*%
X163840000Y-94550000D03*
%TO.P,U1,13,MTDI/GPIO12/ADC2_CH5*%
%TO.N,unconnected-(U1-MTDI{slash}GPIO12{slash}ADC2_CH5-Pad13)*%
X166380000Y-94550000D03*
%TO.P,U1,14,GND*%
%TO.N,Net-(U10-LP)*%
X168920000Y-94550000D03*
%TO.P,U1,15,MTCK/GPIO13/ADC2_CH4*%
%TO.N,unconnected-(U1-MTCK{slash}GPIO13{slash}ADC2_CH4-Pad15)*%
X171460000Y-94550000D03*
%TO.P,U1,16,SD_DATA2/GPIO9*%
%TO.N,unconnected-(U1-SD_DATA2{slash}GPIO9-Pad16)*%
X174000000Y-94550000D03*
%TO.P,U1,17,SD_DATA3/GPIO10*%
%TO.N,unconnected-(U1-SD_DATA3{slash}GPIO10-Pad17)*%
X176540000Y-94550000D03*
%TO.P,U1,18,CMD*%
%TO.N,unconnected-(U1-CMD-Pad18)*%
X179080000Y-94550000D03*
%TO.P,U1,19,5V*%
%TO.N,Net-(U1-5V)*%
X181620000Y-94550000D03*
%TO.P,U1,20,SD_CLK/GPIO6*%
%TO.N,unconnected-(U1-SD_CLK{slash}GPIO6-Pad20)*%
X181617280Y-119946320D03*
%TO.P,U1,21,SD_DATA0/GPIO7*%
%TO.N,unconnected-(U1-SD_DATA0{slash}GPIO7-Pad21)*%
X179077280Y-119946320D03*
%TO.P,U1,22,SD_DATA1/GPIO8*%
%TO.N,unconnected-(U1-SD_DATA1{slash}GPIO8-Pad22)*%
X176540000Y-119950000D03*
%TO.P,U1,23,MTDO/GPIO15/ADC2_CH3*%
%TO.N,unconnected-(U1-MTDO{slash}GPIO15{slash}ADC2_CH3-Pad23)*%
X174000000Y-119950000D03*
%TO.P,U1,24,ADC2_CH2/GPIO2*%
%TO.N,unconnected-(U1-ADC2_CH2{slash}GPIO2-Pad24)*%
X171460000Y-119950000D03*
%TO.P,U1,25,GPIO0/BOOT/ADC2_CH1*%
%TO.N,unconnected-(U1-GPIO0{slash}BOOT{slash}ADC2_CH1-Pad25)*%
X168920000Y-119950000D03*
%TO.P,U1,26,ADC2_CH0/GPIO4*%
%TO.N,unconnected-(U1-ADC2_CH0{slash}GPIO4-Pad26)*%
X166380000Y-119950000D03*
%TO.P,U1,27,GPIO16*%
%TO.N,unconnected-(U1-GPIO16-Pad27)*%
X163840000Y-119950000D03*
%TO.P,U1,28,GPIO17*%
%TO.N,unconnected-(U1-GPIO17-Pad28)*%
X161300000Y-119950000D03*
%TO.P,U1,29,GPIO5*%
%TO.N,Net-(U1-GPIO5)*%
X158760000Y-119950000D03*
%TO.P,U1,30,GPIO18*%
%TO.N,Net-(U1-GPIO18)*%
X156220000Y-119950000D03*
%TO.P,U1,31,GPIO19*%
%TO.N,Net-(U1-GPIO19)*%
X153680000Y-119950000D03*
%TO.P,U1,32,GND*%
%TO.N,Net-(U10-LP)*%
X151140000Y-119950000D03*
%TO.P,U1,33,GPIO21*%
%TO.N,unconnected-(U1-GPIO21-Pad33)*%
X148600000Y-119950000D03*
%TO.P,U1,34,U0RXD/GPIO3*%
%TO.N,unconnected-(U1-U0RXD{slash}GPIO3-Pad34)*%
X146060000Y-119950000D03*
%TO.P,U1,35,U0TXD/GPIO1*%
%TO.N,unconnected-(U1-U0TXD{slash}GPIO1-Pad35)*%
X143520000Y-119950000D03*
%TO.P,U1,36,GPIO22*%
%TO.N,Net-(U1-GPIO22)*%
X140980000Y-119950000D03*
%TO.P,U1,37,GPIO23*%
%TO.N,Net-(U1-GPIO23)*%
X138440000Y-119950000D03*
%TO.P,U1,38,GND*%
%TO.N,Net-(U10-LP)*%
X135900000Y-119950000D03*
%TD*%
D17*
%TO.N,Net-(U1-5V)*%
X182880000Y-83820000D03*
%TD*%
D18*
%TO.N,Net-(U1-DAC_2{slash}ADC2_CH9{slash}GPIO26)*%
X158760000Y-94550000D02*
X139010000Y-114300000D01*
X139010000Y-114300000D02*
X129540000Y-114300000D01*
X129540000Y-114300000D02*
X119380000Y-124460000D01*
X119380000Y-124460000D02*
X101600000Y-124460000D01*
%TO.N,Net-(U1-ADC2_CH7{slash}GPIO27)*%
X165100000Y-88900000D02*
X161300000Y-92700000D01*
X161300000Y-92700000D02*
X161300000Y-94550000D01*
X198909600Y-91516320D02*
X193116320Y-91516320D01*
X193116320Y-91516320D02*
X190500000Y-88900000D01*
X190500000Y-88900000D02*
X165100000Y-88900000D01*
%TO.N,Net-(U1-MTMS{slash}GPIO14{slash}ADC2_CH6)*%
X163840000Y-97800000D02*
X163840000Y-94550000D01*
X165176320Y-99136320D02*
X163840000Y-97800000D01*
X198909600Y-99136320D02*
X165176320Y-99136320D01*
%TO.N,Net-(U1-5V)*%
X199390000Y-83820000D02*
X182880000Y-83820000D01*
X205740000Y-90170000D02*
X199390000Y-83820000D01*
X183200680Y-92969320D02*
X202940680Y-92969320D01*
X181620000Y-94550000D02*
X183200680Y-92969320D01*
X202940680Y-92969320D02*
X205740000Y-90170000D01*
%TO.N,Net-(U1-GPIO19)*%
X203200000Y-94132640D02*
X203200000Y-104140000D01*
X203123680Y-94056320D02*
X203200000Y-94132640D01*
X203200000Y-104140000D02*
X203123680Y-104216320D01*
X159943680Y-104216320D02*
X153680000Y-110480000D01*
X203123680Y-104216320D02*
X198909600Y-104216320D01*
X198909600Y-104216320D02*
X159943680Y-104216320D01*
X198909600Y-94056320D02*
X203123680Y-94056320D01*
X153680000Y-110480000D02*
X153680000Y-119950000D01*
%TO.N,Net-(U1-GPIO22)*%
X198909600Y-116916320D02*
X195503680Y-116916320D01*
X140980000Y-125740000D02*
X140980000Y-119950000D01*
X195503680Y-116916320D02*
X185420000Y-127000000D01*
X142240000Y-127000000D02*
X140980000Y-125740000D01*
X185420000Y-127000000D02*
X142240000Y-127000000D01*
%TO.N,Net-(U1-GPIO23)*%
X138440000Y-133360000D02*
X138440000Y-119950000D01*
X198909600Y-111736320D02*
X200636320Y-111736320D01*
X142240000Y-137160000D02*
X138440000Y-133360000D01*
X203200000Y-114300000D02*
X203200000Y-137160000D01*
X203200000Y-137160000D02*
X142240000Y-137160000D01*
X200636320Y-111736320D02*
X203200000Y-114300000D01*
%TD*%
M02*
