%TF.GenerationSoftware,KiCad,Pcbnew,7.0.8*%
%TF.CreationDate,2024-07-13T09:20:10+02:00*%
%TF.ProjectId,ESP32_TFT2-8,45535033-325f-4544-9654-322d382e6b69,rev?*%
%TF.SameCoordinates,Original*%
%TF.FileFunction,Copper,L2,Bot*%
%TF.FilePolarity,Positive*%
%FSLAX46Y46*%
G04 Gerber Fmt 4.6, Leading zero omitted, Abs format (unit mm)*
G04 Created by KiCad (PCBNEW 7.0.8) date 2024-07-13 09:20:10*
%MOMM*%
%LPD*%
G01*
G04 APERTURE LIST*
%TA.AperFunction,ComponentPad*%
%ADD10R,2.000000X2.000000*%
%TD*%
%TA.AperFunction,ComponentPad*%
%ADD11R,1.524000X1.524000*%
%TD*%
%TA.AperFunction,ComponentPad*%
%ADD12C,1.524000*%
%TD*%
%TA.AperFunction,ComponentPad*%
%ADD13R,1.200000X2.000000*%
%TD*%
%TA.AperFunction,ComponentPad*%
%ADD14O,1.200000X2.000000*%
%TD*%
%TA.AperFunction,ViaPad*%
%ADD15C,0.800000*%
%TD*%
%TA.AperFunction,Conductor*%
%ADD16C,0.250000*%
%TD*%
G04 APERTURE END LIST*
D10*
%TO.P,U5,1,LP*%
%TO.N,Net-(U3-LP)*%
X99060000Y-93980000D03*
%TD*%
%TO.P,U11,1,LP*%
%TO.N,Net-(U1-32K_XN{slash}GPIO33{slash}ADC1_CH5)*%
X101600000Y-121920000D03*
%TD*%
D11*
%TO.P,U2,1,VCC*%
%TO.N,Net-(U1-3V3)*%
X198909600Y-124536320D03*
D12*
%TO.P,U2,2,GND*%
%TO.N,Net-(U10-LP)*%
X198909600Y-121996320D03*
%TO.P,U2,3,CS*%
%TO.N,Net-(U1-GPIO5)*%
X198909600Y-119486320D03*
%TO.P,U2,4,RESET*%
%TO.N,Net-(U1-GPIO22)*%
X198909600Y-116916320D03*
%TO.P,U2,5,DC*%
%TO.N,unconnected-(U2-DC-Pad5)*%
X198909600Y-114376320D03*
%TO.P,U2,6,MOSI*%
%TO.N,Net-(U1-GPIO23)*%
X198909600Y-111736320D03*
%TO.P,U2,7,SCK*%
%TO.N,Net-(U1-GPIO18)*%
X198909600Y-109296320D03*
%TO.P,U2,8,LED*%
%TO.N,unconnected-(U2-LED-Pad8)*%
X198909600Y-106756320D03*
%TO.P,U2,9,MISO*%
%TO.N,Net-(U1-GPIO19)*%
X198909600Y-104216320D03*
%TO.P,U2,10,T_CLK*%
%TO.N,Net-(U1-GPIO18)*%
X198909600Y-101676320D03*
%TO.P,U2,11,T_CS*%
%TO.N,Net-(U1-MTMS{slash}GPIO14{slash}ADC2_CH6)*%
X198909600Y-99136320D03*
%TO.P,U2,12,T_DIN*%
%TO.N,Net-(U1-GPIO23)*%
X198909600Y-96596320D03*
%TO.P,U2,13,T_DQ*%
%TO.N,Net-(U1-GPIO19)*%
X198909600Y-94056320D03*
%TO.P,U2,14,T_IRQ*%
%TO.N,Net-(U1-ADC2_CH7{slash}GPIO27)*%
X198909600Y-91516320D03*
D11*
%TO.P,U2,15*%
%TO.N,N/C*%
X117909600Y-111796320D03*
D12*
%TO.P,U2,16*%
X117909600Y-109296320D03*
%TO.P,U2,17*%
X117909600Y-106756320D03*
%TO.P,U2,18*%
X117909600Y-104216320D03*
%TD*%
D10*
%TO.P,U7,1,LP*%
%TO.N,Net-(U1-5V)*%
X101600000Y-111760000D03*
%TD*%
%TO.P,U6,1,LP*%
%TO.N,Net-(U1-5V)*%
X104140000Y-93980000D03*
%TD*%
%TO.P,U14,1,LP*%
%TO.N,unconnected-(U14-LP-Pad1)*%
X88900000Y-116840000D03*
%TD*%
%TO.P,U15,1,LP*%
%TO.N,unconnected-(U15-LP-Pad1)*%
X88900000Y-121920000D03*
%TD*%
%TO.P,U8,1,LP*%
%TO.N,Net-(U10-LP)*%
X101600000Y-114300000D03*
%TD*%
%TO.P,U3,1,LP*%
%TO.N,Net-(U3-LP)*%
X88900000Y-93980000D03*
%TD*%
%TO.P,U4,1,LP*%
%TO.N,Net-(U10-LP)*%
X93980000Y-93980000D03*
%TD*%
%TO.P,U13,1,LP*%
%TO.N,Net-(U1-DAC_1{slash}ADC2_CH8{slash}GPIO25)*%
X101600000Y-127000000D03*
%TD*%
%TO.P,U12,1,LP*%
%TO.N,Net-(U1-DAC_2{slash}ADC2_CH9{slash}GPIO26)*%
X101600000Y-124460000D03*
%TD*%
%TO.P,U9,1,LP*%
%TO.N,Net-(U1-5V)*%
X101600000Y-116840000D03*
%TD*%
%TO.P,U10,1,LP*%
%TO.N,Net-(U10-LP)*%
X101600000Y-119380000D03*
%TD*%
D13*
%TO.P,U1,1,3V3*%
%TO.N,Net-(U1-3V3)*%
X135900000Y-94550000D03*
D14*
%TO.P,U1,2,CHIP_PU*%
%TO.N,unconnected-(U1-CHIP_PU-Pad2)*%
X138440000Y-94550000D03*
%TO.P,U1,3,SENSOR_VP/GPIO36/ADC1_CH0*%
%TO.N,unconnected-(U1-SENSOR_VP{slash}GPIO36{slash}ADC1_CH0-Pad3)*%
X140980000Y-94550000D03*
%TO.P,U1,4,SENSOR_VN/GPIO39/ADC1_CH3*%
%TO.N,unconnected-(U1-SENSOR_VN{slash}GPIO39{slash}ADC1_CH3-Pad4)*%
X143520000Y-94550000D03*
%TO.P,U1,5,VDET_1/GPIO34/ADC1_CH6*%
%TO.N,unconnected-(U1-VDET_1{slash}GPIO34{slash}ADC1_CH6-Pad5)*%
X146060000Y-94550000D03*
%TO.P,U1,6,VDET_2/GPIO35/ADC1_CH7*%
%TO.N,unconnected-(U1-VDET_2{slash}GPIO35{slash}ADC1_CH7-Pad6)*%
X148600000Y-94550000D03*
%TO.P,U1,7,32K_XP/GPIO32/ADC1_CH4*%
%TO.N,unconnected-(U1-32K_XP{slash}GPIO32{slash}ADC1_CH4-Pad7)*%
X151140000Y-94550000D03*
%TO.P,U1,8,32K_XN/GPIO33/ADC1_CH5*%
%TO.N,Net-(U1-32K_XN{slash}GPIO33{slash}ADC1_CH5)*%
X153680000Y-94550000D03*
%TO.P,U1,9,DAC_1/ADC2_CH8/GPIO25*%
%TO.N,Net-(U1-DAC_1{slash}ADC2_CH8{slash}GPIO25)*%
X156220000Y-94550000D03*
%TO.P,U1,10,DAC_2/ADC2_CH9/GPIO26*%
%TO.N,Net-(U1-DAC_2{slash}ADC2_CH9{slash}GPIO26)*%
X158760000Y-94550000D03*
%TO.P,U1,11,ADC2_CH7/GPIO27*%
%TO.N,Net-(U1-ADC2_CH7{slash}GPIO27)*%
X161300000Y-94550000D03*
%TO.P,U1,12,MTMS/GPIO14/ADC2_CH6*%
%TO.N,Net-(U1-MTMS{slash}GPIO14{slash}ADC2_CH6)*%
X163840000Y-94550000D03*
%TO.P,U1,13,MTDI/GPIO12/ADC2_CH5*%
%TO.N,unconnected-(U1-MTDI{slash}GPIO12{slash}ADC2_CH5-Pad13)*%
X166380000Y-94550000D03*
%TO.P,U1,14,GND*%
%TO.N,Net-(U10-LP)*%
X168920000Y-94550000D03*
%TO.P,U1,15,MTCK/GPIO13/ADC2_CH4*%
%TO.N,unconnected-(U1-MTCK{slash}GPIO13{slash}ADC2_CH4-Pad15)*%
X171460000Y-94550000D03*
%TO.P,U1,16,SD_DATA2/GPIO9*%
%TO.N,unconnected-(U1-SD_DATA2{slash}GPIO9-Pad16)*%
X174000000Y-94550000D03*
%TO.P,U1,17,SD_DATA3/GPIO10*%
%TO.N,unconnected-(U1-SD_DATA3{slash}GPIO10-Pad17)*%
X176540000Y-94550000D03*
%TO.P,U1,18,CMD*%
%TO.N,unconnected-(U1-CMD-Pad18)*%
X179080000Y-94550000D03*
%TO.P,U1,19,5V*%
%TO.N,Net-(U1-5V)*%
X181620000Y-94550000D03*
%TO.P,U1,20,SD_CLK/GPIO6*%
%TO.N,unconnected-(U1-SD_CLK{slash}GPIO6-Pad20)*%
X181617280Y-119946320D03*
%TO.P,U1,21,SD_DATA0/GPIO7*%
%TO.N,unconnected-(U1-SD_DATA0{slash}GPIO7-Pad21)*%
X179077280Y-119946320D03*
%TO.P,U1,22,SD_DATA1/GPIO8*%
%TO.N,unconnected-(U1-SD_DATA1{slash}GPIO8-Pad22)*%
X176540000Y-119950000D03*
%TO.P,U1,23,MTDO/GPIO15/ADC2_CH3*%
%TO.N,unconnected-(U1-MTDO{slash}GPIO15{slash}ADC2_CH3-Pad23)*%
X174000000Y-119950000D03*
%TO.P,U1,24,ADC2_CH2/GPIO2*%
%TO.N,unconnected-(U1-ADC2_CH2{slash}GPIO2-Pad24)*%
X171460000Y-119950000D03*
%TO.P,U1,25,GPIO0/BOOT/ADC2_CH1*%
%TO.N,unconnected-(U1-GPIO0{slash}BOOT{slash}ADC2_CH1-Pad25)*%
X168920000Y-119950000D03*
%TO.P,U1,26,ADC2_CH0/GPIO4*%
%TO.N,unconnected-(U1-ADC2_CH0{slash}GPIO4-Pad26)*%
X166380000Y-119950000D03*
%TO.P,U1,27,GPIO16*%
%TO.N,unconnected-(U1-GPIO16-Pad27)*%
X163840000Y-119950000D03*
%TO.P,U1,28,GPIO17*%
%TO.N,unconnected-(U1-GPIO17-Pad28)*%
X161300000Y-119950000D03*
%TO.P,U1,29,GPIO5*%
%TO.N,Net-(U1-GPIO5)*%
X158760000Y-119950000D03*
%TO.P,U1,30,GPIO18*%
%TO.N,Net-(U1-GPIO18)*%
X156220000Y-119950000D03*
%TO.P,U1,31,GPIO19*%
%TO.N,Net-(U1-GPIO19)*%
X153680000Y-119950000D03*
%TO.P,U1,32,GND*%
%TO.N,Net-(U10-LP)*%
X151140000Y-119950000D03*
%TO.P,U1,33,GPIO21*%
%TO.N,unconnected-(U1-GPIO21-Pad33)*%
X148600000Y-119950000D03*
%TO.P,U1,34,U0RXD/GPIO3*%
%TO.N,unconnected-(U1-U0RXD{slash}GPIO3-Pad34)*%
X146060000Y-119950000D03*
%TO.P,U1,35,U0TXD/GPIO1*%
%TO.N,unconnected-(U1-U0TXD{slash}GPIO1-Pad35)*%
X143520000Y-119950000D03*
%TO.P,U1,36,GPIO22*%
%TO.N,Net-(U1-GPIO22)*%
X140980000Y-119950000D03*
%TO.P,U1,37,GPIO23*%
%TO.N,Net-(U1-GPIO23)*%
X138440000Y-119950000D03*
%TO.P,U1,38,GND*%
%TO.N,Net-(U10-LP)*%
X135900000Y-119950000D03*
%TD*%
D15*
%TO.N,Net-(U1-5V)*%
X182880000Y-83820000D03*
%TD*%
D16*
%TO.N,Net-(U1-3V3)*%
X213360000Y-86360000D02*
X137160000Y-86360000D01*
X198909600Y-124536320D02*
X210743680Y-124536320D01*
X135900000Y-87620000D02*
X135900000Y-94550000D01*
X210743680Y-124536320D02*
X213360000Y-121920000D01*
X137160000Y-86360000D02*
X135900000Y-87620000D01*
X213360000Y-121920000D02*
X213360000Y-86360000D01*
%TO.N,Net-(U1-32K_XN{slash}GPIO33{slash}ADC1_CH5)*%
X153680000Y-94550000D02*
X141550000Y-106680000D01*
X134620000Y-106680000D02*
X119380000Y-121920000D01*
X119380000Y-121920000D02*
X101600000Y-121920000D01*
X141550000Y-106680000D02*
X134620000Y-106680000D01*
%TO.N,Net-(U1-DAC_1{slash}ADC2_CH8{slash}GPIO25)*%
X121920000Y-127000000D02*
X101600000Y-127000000D01*
X136470000Y-114300000D02*
X134620000Y-114300000D01*
X134620000Y-114300000D02*
X121920000Y-127000000D01*
X156220000Y-94550000D02*
X136470000Y-114300000D01*
%TO.N,Net-(U10-LP)*%
X198909600Y-121996320D02*
X210743680Y-121996320D01*
X210820000Y-121920000D02*
X210820000Y-88900000D01*
X137160000Y-134620000D02*
X139700000Y-134620000D01*
X151140000Y-115560000D02*
X168920000Y-97780000D01*
X168920000Y-97780000D02*
X168920000Y-94550000D01*
X135900000Y-133360000D02*
X137160000Y-134620000D01*
X151140000Y-123180000D02*
X139700000Y-134620000D01*
X135900000Y-119950000D02*
X135900000Y-133360000D01*
X170180000Y-88900000D02*
X168920000Y-90160000D01*
X96520000Y-132080000D02*
X96520000Y-116840000D01*
X151140000Y-119950000D02*
X151140000Y-115560000D01*
X168920000Y-90160000D02*
X168920000Y-94550000D01*
X151140000Y-119950000D02*
X151140000Y-123180000D01*
X139700000Y-134620000D02*
X99060000Y-134620000D01*
X93980000Y-111760000D02*
X96520000Y-114300000D01*
X96520000Y-114300000D02*
X101600000Y-114300000D01*
X96520000Y-119380000D02*
X96520000Y-116840000D01*
X96520000Y-116840000D02*
X96520000Y-114300000D01*
X210820000Y-88900000D02*
X170180000Y-88900000D01*
X93980000Y-93980000D02*
X93980000Y-111760000D01*
X101600000Y-119380000D02*
X96520000Y-119380000D01*
X210743680Y-121996320D02*
X210820000Y-121920000D01*
X99060000Y-134620000D02*
X96520000Y-132080000D01*
%TO.N,Net-(U1-5V)*%
X149860000Y-83820000D02*
X182880000Y-83820000D01*
X104140000Y-104140000D02*
X104140000Y-93980000D01*
X104140000Y-93980000D02*
X124460000Y-93980000D01*
X101600000Y-111760000D02*
X106680000Y-111760000D01*
X106680000Y-111760000D02*
X106680000Y-116840000D01*
X101600000Y-111760000D02*
X101600000Y-106680000D01*
X101600000Y-106680000D02*
X104140000Y-104140000D01*
X124460000Y-93980000D02*
X134620000Y-83820000D01*
X106680000Y-116840000D02*
X101600000Y-116840000D01*
X134620000Y-83820000D02*
X149860000Y-83820000D01*
%TO.N,Net-(U1-GPIO5)*%
X198013680Y-119486320D02*
X187960000Y-129540000D01*
X187960000Y-129540000D02*
X160020000Y-129540000D01*
X158760000Y-128280000D02*
X158760000Y-119950000D01*
X198909600Y-119486320D02*
X198013680Y-119486320D01*
X160020000Y-129540000D02*
X158760000Y-128280000D01*
%TO.N,Net-(U1-GPIO18)*%
X198909600Y-109296320D02*
X205663680Y-109296320D01*
X205740000Y-101600000D02*
X205663680Y-101676320D01*
X162483680Y-109296320D02*
X198909600Y-109296320D01*
X205663680Y-109296320D02*
X205740000Y-109220000D01*
X205740000Y-109220000D02*
X205740000Y-101600000D01*
X156220000Y-115560000D02*
X162483680Y-109296320D01*
X156220000Y-119950000D02*
X156220000Y-115560000D01*
X205663680Y-101676320D02*
X198909600Y-101676320D01*
%TO.N,Net-(U1-GPIO23)*%
X208256320Y-111736320D02*
X208280000Y-111712640D01*
X208203680Y-96596320D02*
X198909600Y-96596320D01*
X208280000Y-111712640D02*
X208280000Y-96520000D01*
X208280000Y-96520000D02*
X208203680Y-96596320D01*
X198909600Y-111736320D02*
X208256320Y-111736320D01*
%TO.N,Net-(U3-LP)*%
X99060000Y-88900000D02*
X99060000Y-93980000D01*
X88900000Y-88900000D02*
X99060000Y-88900000D01*
X88900000Y-93980000D02*
X88900000Y-88900000D01*
%TD*%
M02*
