M48
; DRILL file {KiCad 7.0.8} date Sat Jul 13 09:20:14 2024
; FORMAT={3:3/ absolute / metric / suppress leading zeros}
; #@! TF.CreationDate,2024-07-13T09:20:14+02:00
; #@! TF.GenerationSoftware,Kicad,Pcbnew,7.0.8
; #@! TF.FileFunction,MixedPlating,1,2
FMAT,2
METRIC,TZ
; #@! TA.AperFunction,Plated,PTH,ViaDrill
T1C0.400
; #@! TA.AperFunction,Plated,PTH,ComponentDrill
T2C0.762
; #@! TA.AperFunction,Plated,PTH,ComponentDrill
T3C0.800
; #@! TA.AperFunction,Plated,PTH,ComponentDrill
T4C1.000
%
G90
G05
T1
X182880Y-83820
T2
X117910Y-104216
X117910Y-106756
X117910Y-109296
X117910Y-111796
X198910Y-91516
X198910Y-94056
X198910Y-96596
X198910Y-99136
X198910Y-101676
X198910Y-104216
X198910Y-106756
X198910Y-109296
X198910Y-111736
X198910Y-114376
X198910Y-116916
X198910Y-119486
X198910Y-121996
X198910Y-124536
T3
X135900Y-94550
X135900Y-119950
X138440Y-94550
X138440Y-119950
X140980Y-94550
X140980Y-119950
X143520Y-94550
X143520Y-119950
X146060Y-94550
X146060Y-119950
X148600Y-94550
X148600Y-119950
X151140Y-94550
X151140Y-119950
X153680Y-94550
X153680Y-119950
X156220Y-94550
X156220Y-119950
X158760Y-94550
X158760Y-119950
X161300Y-94550
X161300Y-119950
X163840Y-94550
X163840Y-119950
X166380Y-94550
X166380Y-119950
X168920Y-94550
X168920Y-119950
X171460Y-94550
X171460Y-119950
X174000Y-94550
X174000Y-119950
X176540Y-94550
X176540Y-119950
X179077Y-119946
X179080Y-94550
X181617Y-119946
X181620Y-94550
T4
X88900Y-93980
X88900Y-116840
X88900Y-121920
X93980Y-93980
X99060Y-93980
X101600Y-111760
X101600Y-114300
X101600Y-116840
X101600Y-119380
X101600Y-121920
X101600Y-124460
X101600Y-127000
X104140Y-93980
T0
M30
