%TF.GenerationSoftware,KiCad,Pcbnew,7.0.8*%
%TF.CreationDate,2024-07-13T09:20:10+02:00*%
%TF.ProjectId,ESP32_TFT2-8,45535033-325f-4544-9654-322d382e6b69,rev?*%
%TF.SameCoordinates,Original*%
%TF.FileFunction,Legend,Top*%
%TF.FilePolarity,Positive*%
%FSLAX46Y46*%
G04 Gerber Fmt 4.6, Leading zero omitted, Abs format (unit mm)*
G04 Created by KiCad (PCBNEW 7.0.8) date 2024-07-13 09:20:10*
%MOMM*%
%LPD*%
G01*
G04 APERTURE LIST*
%ADD10C,0.150000*%
%ADD11C,0.400000*%
%ADD12C,0.050000*%
%ADD13C,0.120000*%
G04 APERTURE END LIST*
D10*
X86360000Y-109220000D02*
X106680000Y-109220000D01*
X106680000Y-129540000D01*
X86360000Y-129540000D01*
X86360000Y-109220000D01*
X144973922Y-87769819D02*
X145545350Y-87769819D01*
X145259636Y-88769819D02*
X145259636Y-87769819D01*
X146212017Y-88246009D02*
X145878684Y-88246009D01*
X145878684Y-88769819D02*
X145878684Y-87769819D01*
X145878684Y-87769819D02*
X146354874Y-87769819D01*
X146592970Y-87769819D02*
X147164398Y-87769819D01*
X146878684Y-88769819D02*
X146878684Y-87769819D01*
X148735827Y-88769819D02*
X148259637Y-88769819D01*
X148259637Y-88769819D02*
X148259637Y-87769819D01*
X149640589Y-88674580D02*
X149592970Y-88722200D01*
X149592970Y-88722200D02*
X149450113Y-88769819D01*
X149450113Y-88769819D02*
X149354875Y-88769819D01*
X149354875Y-88769819D02*
X149212018Y-88722200D01*
X149212018Y-88722200D02*
X149116780Y-88626961D01*
X149116780Y-88626961D02*
X149069161Y-88531723D01*
X149069161Y-88531723D02*
X149021542Y-88341247D01*
X149021542Y-88341247D02*
X149021542Y-88198390D01*
X149021542Y-88198390D02*
X149069161Y-88007914D01*
X149069161Y-88007914D02*
X149116780Y-87912676D01*
X149116780Y-87912676D02*
X149212018Y-87817438D01*
X149212018Y-87817438D02*
X149354875Y-87769819D01*
X149354875Y-87769819D02*
X149450113Y-87769819D01*
X149450113Y-87769819D02*
X149592970Y-87817438D01*
X149592970Y-87817438D02*
X149640589Y-87865057D01*
X150069161Y-88769819D02*
X150069161Y-87769819D01*
X150069161Y-87769819D02*
X150307256Y-87769819D01*
X150307256Y-87769819D02*
X150450113Y-87817438D01*
X150450113Y-87817438D02*
X150545351Y-87912676D01*
X150545351Y-87912676D02*
X150592970Y-88007914D01*
X150592970Y-88007914D02*
X150640589Y-88198390D01*
X150640589Y-88198390D02*
X150640589Y-88341247D01*
X150640589Y-88341247D02*
X150592970Y-88531723D01*
X150592970Y-88531723D02*
X150545351Y-88626961D01*
X150545351Y-88626961D02*
X150450113Y-88722200D01*
X150450113Y-88722200D02*
X150307256Y-88769819D01*
X150307256Y-88769819D02*
X150069161Y-88769819D01*
X151831066Y-88769819D02*
X151831066Y-87769819D01*
X151831066Y-87769819D02*
X152069161Y-87769819D01*
X152069161Y-87769819D02*
X152212018Y-87817438D01*
X152212018Y-87817438D02*
X152307256Y-87912676D01*
X152307256Y-87912676D02*
X152354875Y-88007914D01*
X152354875Y-88007914D02*
X152402494Y-88198390D01*
X152402494Y-88198390D02*
X152402494Y-88341247D01*
X152402494Y-88341247D02*
X152354875Y-88531723D01*
X152354875Y-88531723D02*
X152307256Y-88626961D01*
X152307256Y-88626961D02*
X152212018Y-88722200D01*
X152212018Y-88722200D02*
X152069161Y-88769819D01*
X152069161Y-88769819D02*
X151831066Y-88769819D01*
X152831066Y-88769819D02*
X152831066Y-88103152D01*
X152831066Y-87769819D02*
X152783447Y-87817438D01*
X152783447Y-87817438D02*
X152831066Y-87865057D01*
X152831066Y-87865057D02*
X152878685Y-87817438D01*
X152878685Y-87817438D02*
X152831066Y-87769819D01*
X152831066Y-87769819D02*
X152831066Y-87865057D01*
X153259637Y-88722200D02*
X153354875Y-88769819D01*
X153354875Y-88769819D02*
X153545351Y-88769819D01*
X153545351Y-88769819D02*
X153640589Y-88722200D01*
X153640589Y-88722200D02*
X153688208Y-88626961D01*
X153688208Y-88626961D02*
X153688208Y-88579342D01*
X153688208Y-88579342D02*
X153640589Y-88484104D01*
X153640589Y-88484104D02*
X153545351Y-88436485D01*
X153545351Y-88436485D02*
X153402494Y-88436485D01*
X153402494Y-88436485D02*
X153307256Y-88388866D01*
X153307256Y-88388866D02*
X153259637Y-88293628D01*
X153259637Y-88293628D02*
X153259637Y-88246009D01*
X153259637Y-88246009D02*
X153307256Y-88150771D01*
X153307256Y-88150771D02*
X153402494Y-88103152D01*
X153402494Y-88103152D02*
X153545351Y-88103152D01*
X153545351Y-88103152D02*
X153640589Y-88150771D01*
X154116780Y-88103152D02*
X154116780Y-89103152D01*
X154116780Y-88150771D02*
X154212018Y-88103152D01*
X154212018Y-88103152D02*
X154402494Y-88103152D01*
X154402494Y-88103152D02*
X154497732Y-88150771D01*
X154497732Y-88150771D02*
X154545351Y-88198390D01*
X154545351Y-88198390D02*
X154592970Y-88293628D01*
X154592970Y-88293628D02*
X154592970Y-88579342D01*
X154592970Y-88579342D02*
X154545351Y-88674580D01*
X154545351Y-88674580D02*
X154497732Y-88722200D01*
X154497732Y-88722200D02*
X154402494Y-88769819D01*
X154402494Y-88769819D02*
X154212018Y-88769819D01*
X154212018Y-88769819D02*
X154116780Y-88722200D01*
X155164399Y-88769819D02*
X155069161Y-88722200D01*
X155069161Y-88722200D02*
X155021542Y-88626961D01*
X155021542Y-88626961D02*
X155021542Y-87769819D01*
X155973923Y-88769819D02*
X155973923Y-88246009D01*
X155973923Y-88246009D02*
X155926304Y-88150771D01*
X155926304Y-88150771D02*
X155831066Y-88103152D01*
X155831066Y-88103152D02*
X155640590Y-88103152D01*
X155640590Y-88103152D02*
X155545352Y-88150771D01*
X155973923Y-88722200D02*
X155878685Y-88769819D01*
X155878685Y-88769819D02*
X155640590Y-88769819D01*
X155640590Y-88769819D02*
X155545352Y-88722200D01*
X155545352Y-88722200D02*
X155497733Y-88626961D01*
X155497733Y-88626961D02*
X155497733Y-88531723D01*
X155497733Y-88531723D02*
X155545352Y-88436485D01*
X155545352Y-88436485D02*
X155640590Y-88388866D01*
X155640590Y-88388866D02*
X155878685Y-88388866D01*
X155878685Y-88388866D02*
X155973923Y-88341247D01*
X156354876Y-88103152D02*
X156592971Y-88769819D01*
X156831066Y-88103152D02*
X156592971Y-88769819D01*
X156592971Y-88769819D02*
X156497733Y-89007914D01*
X156497733Y-89007914D02*
X156450114Y-89055533D01*
X156450114Y-89055533D02*
X156354876Y-89103152D01*
X157926305Y-87865057D02*
X157973924Y-87817438D01*
X157973924Y-87817438D02*
X158069162Y-87769819D01*
X158069162Y-87769819D02*
X158307257Y-87769819D01*
X158307257Y-87769819D02*
X158402495Y-87817438D01*
X158402495Y-87817438D02*
X158450114Y-87865057D01*
X158450114Y-87865057D02*
X158497733Y-87960295D01*
X158497733Y-87960295D02*
X158497733Y-88055533D01*
X158497733Y-88055533D02*
X158450114Y-88198390D01*
X158450114Y-88198390D02*
X157878686Y-88769819D01*
X157878686Y-88769819D02*
X158497733Y-88769819D01*
X158926305Y-88674580D02*
X158973924Y-88722200D01*
X158973924Y-88722200D02*
X158926305Y-88769819D01*
X158926305Y-88769819D02*
X158878686Y-88722200D01*
X158878686Y-88722200D02*
X158926305Y-88674580D01*
X158926305Y-88674580D02*
X158926305Y-88769819D01*
X159545352Y-88198390D02*
X159450114Y-88150771D01*
X159450114Y-88150771D02*
X159402495Y-88103152D01*
X159402495Y-88103152D02*
X159354876Y-88007914D01*
X159354876Y-88007914D02*
X159354876Y-87960295D01*
X159354876Y-87960295D02*
X159402495Y-87865057D01*
X159402495Y-87865057D02*
X159450114Y-87817438D01*
X159450114Y-87817438D02*
X159545352Y-87769819D01*
X159545352Y-87769819D02*
X159735828Y-87769819D01*
X159735828Y-87769819D02*
X159831066Y-87817438D01*
X159831066Y-87817438D02*
X159878685Y-87865057D01*
X159878685Y-87865057D02*
X159926304Y-87960295D01*
X159926304Y-87960295D02*
X159926304Y-88007914D01*
X159926304Y-88007914D02*
X159878685Y-88103152D01*
X159878685Y-88103152D02*
X159831066Y-88150771D01*
X159831066Y-88150771D02*
X159735828Y-88198390D01*
X159735828Y-88198390D02*
X159545352Y-88198390D01*
X159545352Y-88198390D02*
X159450114Y-88246009D01*
X159450114Y-88246009D02*
X159402495Y-88293628D01*
X159402495Y-88293628D02*
X159354876Y-88388866D01*
X159354876Y-88388866D02*
X159354876Y-88579342D01*
X159354876Y-88579342D02*
X159402495Y-88674580D01*
X159402495Y-88674580D02*
X159450114Y-88722200D01*
X159450114Y-88722200D02*
X159545352Y-88769819D01*
X159545352Y-88769819D02*
X159735828Y-88769819D01*
X159735828Y-88769819D02*
X159831066Y-88722200D01*
X159831066Y-88722200D02*
X159878685Y-88674580D01*
X159878685Y-88674580D02*
X159926304Y-88579342D01*
X159926304Y-88579342D02*
X159926304Y-88388866D01*
X159926304Y-88388866D02*
X159878685Y-88293628D01*
X159878685Y-88293628D02*
X159831066Y-88246009D01*
X159831066Y-88246009D02*
X159735828Y-88198390D01*
X161021543Y-87769819D02*
X161688209Y-87769819D01*
X161688209Y-87769819D02*
X161021543Y-88769819D01*
X161021543Y-88769819D02*
X161688209Y-88769819D01*
X162212019Y-88769819D02*
X162116781Y-88722200D01*
X162116781Y-88722200D02*
X162069162Y-88674580D01*
X162069162Y-88674580D02*
X162021543Y-88579342D01*
X162021543Y-88579342D02*
X162021543Y-88293628D01*
X162021543Y-88293628D02*
X162069162Y-88198390D01*
X162069162Y-88198390D02*
X162116781Y-88150771D01*
X162116781Y-88150771D02*
X162212019Y-88103152D01*
X162212019Y-88103152D02*
X162354876Y-88103152D01*
X162354876Y-88103152D02*
X162450114Y-88150771D01*
X162450114Y-88150771D02*
X162497733Y-88198390D01*
X162497733Y-88198390D02*
X162545352Y-88293628D01*
X162545352Y-88293628D02*
X162545352Y-88579342D01*
X162545352Y-88579342D02*
X162497733Y-88674580D01*
X162497733Y-88674580D02*
X162450114Y-88722200D01*
X162450114Y-88722200D02*
X162354876Y-88769819D01*
X162354876Y-88769819D02*
X162212019Y-88769819D01*
X163116781Y-88769819D02*
X163021543Y-88722200D01*
X163021543Y-88722200D02*
X162973924Y-88626961D01*
X162973924Y-88626961D02*
X162973924Y-87769819D01*
X163640591Y-88769819D02*
X163545353Y-88722200D01*
X163545353Y-88722200D02*
X163497734Y-88626961D01*
X163497734Y-88626961D02*
X163497734Y-87769819D01*
X164735830Y-87865057D02*
X164783449Y-87817438D01*
X164783449Y-87817438D02*
X164878687Y-87769819D01*
X164878687Y-87769819D02*
X165116782Y-87769819D01*
X165116782Y-87769819D02*
X165212020Y-87817438D01*
X165212020Y-87817438D02*
X165259639Y-87865057D01*
X165259639Y-87865057D02*
X165307258Y-87960295D01*
X165307258Y-87960295D02*
X165307258Y-88055533D01*
X165307258Y-88055533D02*
X165259639Y-88198390D01*
X165259639Y-88198390D02*
X164688211Y-88769819D01*
X164688211Y-88769819D02*
X165307258Y-88769819D01*
X166164401Y-88103152D02*
X166164401Y-88769819D01*
X165926306Y-87722200D02*
X165688211Y-88436485D01*
X165688211Y-88436485D02*
X166307258Y-88436485D01*
X166878687Y-87769819D02*
X166973925Y-87769819D01*
X166973925Y-87769819D02*
X167069163Y-87817438D01*
X167069163Y-87817438D02*
X167116782Y-87865057D01*
X167116782Y-87865057D02*
X167164401Y-87960295D01*
X167164401Y-87960295D02*
X167212020Y-88150771D01*
X167212020Y-88150771D02*
X167212020Y-88388866D01*
X167212020Y-88388866D02*
X167164401Y-88579342D01*
X167164401Y-88579342D02*
X167116782Y-88674580D01*
X167116782Y-88674580D02*
X167069163Y-88722200D01*
X167069163Y-88722200D02*
X166973925Y-88769819D01*
X166973925Y-88769819D02*
X166878687Y-88769819D01*
X166878687Y-88769819D02*
X166783449Y-88722200D01*
X166783449Y-88722200D02*
X166735830Y-88674580D01*
X166735830Y-88674580D02*
X166688211Y-88579342D01*
X166688211Y-88579342D02*
X166640592Y-88388866D01*
X166640592Y-88388866D02*
X166640592Y-88150771D01*
X166640592Y-88150771D02*
X166688211Y-87960295D01*
X166688211Y-87960295D02*
X166735830Y-87865057D01*
X166735830Y-87865057D02*
X166783449Y-87817438D01*
X166783449Y-87817438D02*
X166878687Y-87769819D01*
X167545354Y-88769819D02*
X168069163Y-88103152D01*
X167545354Y-88103152D02*
X168069163Y-88769819D01*
X168354878Y-87769819D02*
X168973925Y-87769819D01*
X168973925Y-87769819D02*
X168640592Y-88150771D01*
X168640592Y-88150771D02*
X168783449Y-88150771D01*
X168783449Y-88150771D02*
X168878687Y-88198390D01*
X168878687Y-88198390D02*
X168926306Y-88246009D01*
X168926306Y-88246009D02*
X168973925Y-88341247D01*
X168973925Y-88341247D02*
X168973925Y-88579342D01*
X168973925Y-88579342D02*
X168926306Y-88674580D01*
X168926306Y-88674580D02*
X168878687Y-88722200D01*
X168878687Y-88722200D02*
X168783449Y-88769819D01*
X168783449Y-88769819D02*
X168497735Y-88769819D01*
X168497735Y-88769819D02*
X168402497Y-88722200D01*
X168402497Y-88722200D02*
X168354878Y-88674580D01*
X169354878Y-87865057D02*
X169402497Y-87817438D01*
X169402497Y-87817438D02*
X169497735Y-87769819D01*
X169497735Y-87769819D02*
X169735830Y-87769819D01*
X169735830Y-87769819D02*
X169831068Y-87817438D01*
X169831068Y-87817438D02*
X169878687Y-87865057D01*
X169878687Y-87865057D02*
X169926306Y-87960295D01*
X169926306Y-87960295D02*
X169926306Y-88055533D01*
X169926306Y-88055533D02*
X169878687Y-88198390D01*
X169878687Y-88198390D02*
X169307259Y-88769819D01*
X169307259Y-88769819D02*
X169926306Y-88769819D01*
X170545354Y-87769819D02*
X170640592Y-87769819D01*
X170640592Y-87769819D02*
X170735830Y-87817438D01*
X170735830Y-87817438D02*
X170783449Y-87865057D01*
X170783449Y-87865057D02*
X170831068Y-87960295D01*
X170831068Y-87960295D02*
X170878687Y-88150771D01*
X170878687Y-88150771D02*
X170878687Y-88388866D01*
X170878687Y-88388866D02*
X170831068Y-88579342D01*
X170831068Y-88579342D02*
X170783449Y-88674580D01*
X170783449Y-88674580D02*
X170735830Y-88722200D01*
X170735830Y-88722200D02*
X170640592Y-88769819D01*
X170640592Y-88769819D02*
X170545354Y-88769819D01*
X170545354Y-88769819D02*
X170450116Y-88722200D01*
X170450116Y-88722200D02*
X170402497Y-88674580D01*
X170402497Y-88674580D02*
X170354878Y-88579342D01*
X170354878Y-88579342D02*
X170307259Y-88388866D01*
X170307259Y-88388866D02*
X170307259Y-88150771D01*
X170307259Y-88150771D02*
X170354878Y-87960295D01*
X170354878Y-87960295D02*
X170402497Y-87865057D01*
X170402497Y-87865057D02*
X170450116Y-87817438D01*
X170450116Y-87817438D02*
X170545354Y-87769819D01*
X172021545Y-88722200D02*
X172164402Y-88769819D01*
X172164402Y-88769819D02*
X172402497Y-88769819D01*
X172402497Y-88769819D02*
X172497735Y-88722200D01*
X172497735Y-88722200D02*
X172545354Y-88674580D01*
X172545354Y-88674580D02*
X172592973Y-88579342D01*
X172592973Y-88579342D02*
X172592973Y-88484104D01*
X172592973Y-88484104D02*
X172545354Y-88388866D01*
X172545354Y-88388866D02*
X172497735Y-88341247D01*
X172497735Y-88341247D02*
X172402497Y-88293628D01*
X172402497Y-88293628D02*
X172212021Y-88246009D01*
X172212021Y-88246009D02*
X172116783Y-88198390D01*
X172116783Y-88198390D02*
X172069164Y-88150771D01*
X172069164Y-88150771D02*
X172021545Y-88055533D01*
X172021545Y-88055533D02*
X172021545Y-87960295D01*
X172021545Y-87960295D02*
X172069164Y-87865057D01*
X172069164Y-87865057D02*
X172116783Y-87817438D01*
X172116783Y-87817438D02*
X172212021Y-87769819D01*
X172212021Y-87769819D02*
X172450116Y-87769819D01*
X172450116Y-87769819D02*
X172592973Y-87817438D01*
X173021545Y-88769819D02*
X173021545Y-87769819D01*
X173021545Y-87769819D02*
X173402497Y-87769819D01*
X173402497Y-87769819D02*
X173497735Y-87817438D01*
X173497735Y-87817438D02*
X173545354Y-87865057D01*
X173545354Y-87865057D02*
X173592973Y-87960295D01*
X173592973Y-87960295D02*
X173592973Y-88103152D01*
X173592973Y-88103152D02*
X173545354Y-88198390D01*
X173545354Y-88198390D02*
X173497735Y-88246009D01*
X173497735Y-88246009D02*
X173402497Y-88293628D01*
X173402497Y-88293628D02*
X173021545Y-88293628D01*
X174021545Y-88769819D02*
X174021545Y-87769819D01*
X186502493Y-141309819D02*
X186502493Y-142024104D01*
X186502493Y-142024104D02*
X186454874Y-142166961D01*
X186454874Y-142166961D02*
X186359636Y-142262200D01*
X186359636Y-142262200D02*
X186216779Y-142309819D01*
X186216779Y-142309819D02*
X186121541Y-142309819D01*
X187454874Y-142309819D02*
X186978684Y-142309819D01*
X186978684Y-142309819D02*
X186978684Y-141309819D01*
X188359636Y-142214580D02*
X188312017Y-142262200D01*
X188312017Y-142262200D02*
X188169160Y-142309819D01*
X188169160Y-142309819D02*
X188073922Y-142309819D01*
X188073922Y-142309819D02*
X187931065Y-142262200D01*
X187931065Y-142262200D02*
X187835827Y-142166961D01*
X187835827Y-142166961D02*
X187788208Y-142071723D01*
X187788208Y-142071723D02*
X187740589Y-141881247D01*
X187740589Y-141881247D02*
X187740589Y-141738390D01*
X187740589Y-141738390D02*
X187788208Y-141547914D01*
X187788208Y-141547914D02*
X187835827Y-141452676D01*
X187835827Y-141452676D02*
X187931065Y-141357438D01*
X187931065Y-141357438D02*
X188073922Y-141309819D01*
X188073922Y-141309819D02*
X188169160Y-141309819D01*
X188169160Y-141309819D02*
X188312017Y-141357438D01*
X188312017Y-141357438D02*
X188359636Y-141405057D01*
X189073922Y-141309819D02*
X189073922Y-142024104D01*
X189073922Y-142024104D02*
X189026303Y-142166961D01*
X189026303Y-142166961D02*
X188931065Y-142262200D01*
X188931065Y-142262200D02*
X188788208Y-142309819D01*
X188788208Y-142309819D02*
X188692970Y-142309819D01*
X190026303Y-142309819D02*
X189550113Y-142309819D01*
X189550113Y-142309819D02*
X189550113Y-141309819D01*
X190931065Y-142214580D02*
X190883446Y-142262200D01*
X190883446Y-142262200D02*
X190740589Y-142309819D01*
X190740589Y-142309819D02*
X190645351Y-142309819D01*
X190645351Y-142309819D02*
X190502494Y-142262200D01*
X190502494Y-142262200D02*
X190407256Y-142166961D01*
X190407256Y-142166961D02*
X190359637Y-142071723D01*
X190359637Y-142071723D02*
X190312018Y-141881247D01*
X190312018Y-141881247D02*
X190312018Y-141738390D01*
X190312018Y-141738390D02*
X190359637Y-141547914D01*
X190359637Y-141547914D02*
X190407256Y-141452676D01*
X190407256Y-141452676D02*
X190502494Y-141357438D01*
X190502494Y-141357438D02*
X190645351Y-141309819D01*
X190645351Y-141309819D02*
X190740589Y-141309819D01*
X190740589Y-141309819D02*
X190883446Y-141357438D01*
X190883446Y-141357438D02*
X190931065Y-141405057D01*
X191645351Y-141309819D02*
X191645351Y-142024104D01*
X191645351Y-142024104D02*
X191597732Y-142166961D01*
X191597732Y-142166961D02*
X191502494Y-142262200D01*
X191502494Y-142262200D02*
X191359637Y-142309819D01*
X191359637Y-142309819D02*
X191264399Y-142309819D01*
X192597732Y-142309819D02*
X192121542Y-142309819D01*
X192121542Y-142309819D02*
X192121542Y-141309819D01*
X193502494Y-142214580D02*
X193454875Y-142262200D01*
X193454875Y-142262200D02*
X193312018Y-142309819D01*
X193312018Y-142309819D02*
X193216780Y-142309819D01*
X193216780Y-142309819D02*
X193073923Y-142262200D01*
X193073923Y-142262200D02*
X192978685Y-142166961D01*
X192978685Y-142166961D02*
X192931066Y-142071723D01*
X192931066Y-142071723D02*
X192883447Y-141881247D01*
X192883447Y-141881247D02*
X192883447Y-141738390D01*
X192883447Y-141738390D02*
X192931066Y-141547914D01*
X192931066Y-141547914D02*
X192978685Y-141452676D01*
X192978685Y-141452676D02*
X193073923Y-141357438D01*
X193073923Y-141357438D02*
X193216780Y-141309819D01*
X193216780Y-141309819D02*
X193312018Y-141309819D01*
X193312018Y-141309819D02*
X193454875Y-141357438D01*
X193454875Y-141357438D02*
X193502494Y-141405057D01*
X194216780Y-141309819D02*
X194216780Y-142024104D01*
X194216780Y-142024104D02*
X194169161Y-142166961D01*
X194169161Y-142166961D02*
X194073923Y-142262200D01*
X194073923Y-142262200D02*
X193931066Y-142309819D01*
X193931066Y-142309819D02*
X193835828Y-142309819D01*
X195169161Y-142309819D02*
X194692971Y-142309819D01*
X194692971Y-142309819D02*
X194692971Y-141309819D01*
X196073923Y-142214580D02*
X196026304Y-142262200D01*
X196026304Y-142262200D02*
X195883447Y-142309819D01*
X195883447Y-142309819D02*
X195788209Y-142309819D01*
X195788209Y-142309819D02*
X195645352Y-142262200D01*
X195645352Y-142262200D02*
X195550114Y-142166961D01*
X195550114Y-142166961D02*
X195502495Y-142071723D01*
X195502495Y-142071723D02*
X195454876Y-141881247D01*
X195454876Y-141881247D02*
X195454876Y-141738390D01*
X195454876Y-141738390D02*
X195502495Y-141547914D01*
X195502495Y-141547914D02*
X195550114Y-141452676D01*
X195550114Y-141452676D02*
X195645352Y-141357438D01*
X195645352Y-141357438D02*
X195788209Y-141309819D01*
X195788209Y-141309819D02*
X195883447Y-141309819D01*
X195883447Y-141309819D02*
X196026304Y-141357438D01*
X196026304Y-141357438D02*
X196073923Y-141405057D01*
D11*
X151742204Y-79744438D02*
X151075537Y-78792057D01*
X150599347Y-79744438D02*
X150599347Y-77744438D01*
X150599347Y-77744438D02*
X151361252Y-77744438D01*
X151361252Y-77744438D02*
X151551728Y-77839676D01*
X151551728Y-77839676D02*
X151646966Y-77934914D01*
X151646966Y-77934914D02*
X151742204Y-78125390D01*
X151742204Y-78125390D02*
X151742204Y-78411104D01*
X151742204Y-78411104D02*
X151646966Y-78601580D01*
X151646966Y-78601580D02*
X151551728Y-78696819D01*
X151551728Y-78696819D02*
X151361252Y-78792057D01*
X151361252Y-78792057D02*
X150599347Y-78792057D01*
X153456490Y-79744438D02*
X153456490Y-78696819D01*
X153456490Y-78696819D02*
X153361252Y-78506342D01*
X153361252Y-78506342D02*
X153170776Y-78411104D01*
X153170776Y-78411104D02*
X152789823Y-78411104D01*
X152789823Y-78411104D02*
X152599347Y-78506342D01*
X153456490Y-79649200D02*
X153266014Y-79744438D01*
X153266014Y-79744438D02*
X152789823Y-79744438D01*
X152789823Y-79744438D02*
X152599347Y-79649200D01*
X152599347Y-79649200D02*
X152504109Y-79458723D01*
X152504109Y-79458723D02*
X152504109Y-79268247D01*
X152504109Y-79268247D02*
X152599347Y-79077771D01*
X152599347Y-79077771D02*
X152789823Y-78982533D01*
X152789823Y-78982533D02*
X153266014Y-78982533D01*
X153266014Y-78982533D02*
X153456490Y-78887295D01*
X155266014Y-79744438D02*
X155266014Y-77744438D01*
X155266014Y-79649200D02*
X155075538Y-79744438D01*
X155075538Y-79744438D02*
X154694585Y-79744438D01*
X154694585Y-79744438D02*
X154504109Y-79649200D01*
X154504109Y-79649200D02*
X154408871Y-79553961D01*
X154408871Y-79553961D02*
X154313633Y-79363485D01*
X154313633Y-79363485D02*
X154313633Y-78792057D01*
X154313633Y-78792057D02*
X154408871Y-78601580D01*
X154408871Y-78601580D02*
X154504109Y-78506342D01*
X154504109Y-78506342D02*
X154694585Y-78411104D01*
X154694585Y-78411104D02*
X155075538Y-78411104D01*
X155075538Y-78411104D02*
X155266014Y-78506342D01*
X156218395Y-79744438D02*
X156218395Y-78411104D01*
X156218395Y-77744438D02*
X156123157Y-77839676D01*
X156123157Y-77839676D02*
X156218395Y-77934914D01*
X156218395Y-77934914D02*
X156313633Y-77839676D01*
X156313633Y-77839676D02*
X156218395Y-77744438D01*
X156218395Y-77744438D02*
X156218395Y-77934914D01*
X157456490Y-79744438D02*
X157266014Y-79649200D01*
X157266014Y-79649200D02*
X157170776Y-79553961D01*
X157170776Y-79553961D02*
X157075538Y-79363485D01*
X157075538Y-79363485D02*
X157075538Y-78792057D01*
X157075538Y-78792057D02*
X157170776Y-78601580D01*
X157170776Y-78601580D02*
X157266014Y-78506342D01*
X157266014Y-78506342D02*
X157456490Y-78411104D01*
X157456490Y-78411104D02*
X157742205Y-78411104D01*
X157742205Y-78411104D02*
X157932681Y-78506342D01*
X157932681Y-78506342D02*
X158027919Y-78601580D01*
X158027919Y-78601580D02*
X158123157Y-78792057D01*
X158123157Y-78792057D02*
X158123157Y-79363485D01*
X158123157Y-79363485D02*
X158027919Y-79553961D01*
X158027919Y-79553961D02*
X157932681Y-79649200D01*
X157932681Y-79649200D02*
X157742205Y-79744438D01*
X157742205Y-79744438D02*
X157456490Y-79744438D01*
X158789824Y-78411104D02*
X159170776Y-79744438D01*
X159170776Y-79744438D02*
X159551729Y-78792057D01*
X159551729Y-78792057D02*
X159932681Y-79744438D01*
X159932681Y-79744438D02*
X160313633Y-78411104D01*
X161837443Y-79649200D02*
X161646967Y-79744438D01*
X161646967Y-79744438D02*
X161266014Y-79744438D01*
X161266014Y-79744438D02*
X161075538Y-79649200D01*
X161075538Y-79649200D02*
X160980300Y-79458723D01*
X160980300Y-79458723D02*
X160980300Y-78696819D01*
X160980300Y-78696819D02*
X161075538Y-78506342D01*
X161075538Y-78506342D02*
X161266014Y-78411104D01*
X161266014Y-78411104D02*
X161646967Y-78411104D01*
X161646967Y-78411104D02*
X161837443Y-78506342D01*
X161837443Y-78506342D02*
X161932681Y-78696819D01*
X161932681Y-78696819D02*
X161932681Y-78887295D01*
X161932681Y-78887295D02*
X160980300Y-79077771D01*
X163646967Y-79649200D02*
X163456491Y-79744438D01*
X163456491Y-79744438D02*
X163075538Y-79744438D01*
X163075538Y-79744438D02*
X162885062Y-79649200D01*
X162885062Y-79649200D02*
X162789824Y-79553961D01*
X162789824Y-79553961D02*
X162694586Y-79363485D01*
X162694586Y-79363485D02*
X162694586Y-78792057D01*
X162694586Y-78792057D02*
X162789824Y-78601580D01*
X162789824Y-78601580D02*
X162885062Y-78506342D01*
X162885062Y-78506342D02*
X163075538Y-78411104D01*
X163075538Y-78411104D02*
X163456491Y-78411104D01*
X163456491Y-78411104D02*
X163646967Y-78506342D01*
X164504110Y-79744438D02*
X164504110Y-77744438D01*
X164694586Y-78982533D02*
X165266015Y-79744438D01*
X165266015Y-78411104D02*
X164504110Y-79173009D01*
X166885063Y-79649200D02*
X166694587Y-79744438D01*
X166694587Y-79744438D02*
X166313634Y-79744438D01*
X166313634Y-79744438D02*
X166123158Y-79649200D01*
X166123158Y-79649200D02*
X166027920Y-79458723D01*
X166027920Y-79458723D02*
X166027920Y-78696819D01*
X166027920Y-78696819D02*
X166123158Y-78506342D01*
X166123158Y-78506342D02*
X166313634Y-78411104D01*
X166313634Y-78411104D02*
X166694587Y-78411104D01*
X166694587Y-78411104D02*
X166885063Y-78506342D01*
X166885063Y-78506342D02*
X166980301Y-78696819D01*
X166980301Y-78696819D02*
X166980301Y-78887295D01*
X166980301Y-78887295D02*
X166027920Y-79077771D01*
X167837444Y-79744438D02*
X167837444Y-78411104D01*
X167837444Y-78792057D02*
X167932682Y-78601580D01*
X167932682Y-78601580D02*
X168027920Y-78506342D01*
X168027920Y-78506342D02*
X168218396Y-78411104D01*
X168218396Y-78411104D02*
X168408873Y-78411104D01*
D10*
X91776779Y-106549819D02*
X91776779Y-105549819D01*
X91776779Y-105549819D02*
X92110112Y-106264104D01*
X92110112Y-106264104D02*
X92443445Y-105549819D01*
X92443445Y-105549819D02*
X92443445Y-106549819D01*
X93348207Y-106549819D02*
X93348207Y-106026009D01*
X93348207Y-106026009D02*
X93300588Y-105930771D01*
X93300588Y-105930771D02*
X93205350Y-105883152D01*
X93205350Y-105883152D02*
X93014874Y-105883152D01*
X93014874Y-105883152D02*
X92919636Y-105930771D01*
X93348207Y-106502200D02*
X93252969Y-106549819D01*
X93252969Y-106549819D02*
X93014874Y-106549819D01*
X93014874Y-106549819D02*
X92919636Y-106502200D01*
X92919636Y-106502200D02*
X92872017Y-106406961D01*
X92872017Y-106406961D02*
X92872017Y-106311723D01*
X92872017Y-106311723D02*
X92919636Y-106216485D01*
X92919636Y-106216485D02*
X93014874Y-106168866D01*
X93014874Y-106168866D02*
X93252969Y-106168866D01*
X93252969Y-106168866D02*
X93348207Y-106121247D01*
X93729160Y-106549819D02*
X94252969Y-105883152D01*
X93729160Y-105883152D02*
X94252969Y-106549819D01*
X94681541Y-106549819D02*
X94872017Y-106549819D01*
X94872017Y-106549819D02*
X94967255Y-106502200D01*
X94967255Y-106502200D02*
X95014874Y-106454580D01*
X95014874Y-106454580D02*
X95110112Y-106311723D01*
X95110112Y-106311723D02*
X95157731Y-106121247D01*
X95157731Y-106121247D02*
X95157731Y-105740295D01*
X95157731Y-105740295D02*
X95110112Y-105645057D01*
X95110112Y-105645057D02*
X95062493Y-105597438D01*
X95062493Y-105597438D02*
X94967255Y-105549819D01*
X94967255Y-105549819D02*
X94776779Y-105549819D01*
X94776779Y-105549819D02*
X94681541Y-105597438D01*
X94681541Y-105597438D02*
X94633922Y-105645057D01*
X94633922Y-105645057D02*
X94586303Y-105740295D01*
X94586303Y-105740295D02*
X94586303Y-105978390D01*
X94586303Y-105978390D02*
X94633922Y-106073628D01*
X94633922Y-106073628D02*
X94681541Y-106121247D01*
X94681541Y-106121247D02*
X94776779Y-106168866D01*
X94776779Y-106168866D02*
X94967255Y-106168866D01*
X94967255Y-106168866D02*
X95062493Y-106121247D01*
X95062493Y-106121247D02*
X95110112Y-106073628D01*
X95110112Y-106073628D02*
X95157731Y-105978390D01*
X95729160Y-105978390D02*
X95633922Y-105930771D01*
X95633922Y-105930771D02*
X95586303Y-105883152D01*
X95586303Y-105883152D02*
X95538684Y-105787914D01*
X95538684Y-105787914D02*
X95538684Y-105740295D01*
X95538684Y-105740295D02*
X95586303Y-105645057D01*
X95586303Y-105645057D02*
X95633922Y-105597438D01*
X95633922Y-105597438D02*
X95729160Y-105549819D01*
X95729160Y-105549819D02*
X95919636Y-105549819D01*
X95919636Y-105549819D02*
X96014874Y-105597438D01*
X96014874Y-105597438D02*
X96062493Y-105645057D01*
X96062493Y-105645057D02*
X96110112Y-105740295D01*
X96110112Y-105740295D02*
X96110112Y-105787914D01*
X96110112Y-105787914D02*
X96062493Y-105883152D01*
X96062493Y-105883152D02*
X96014874Y-105930771D01*
X96014874Y-105930771D02*
X95919636Y-105978390D01*
X95919636Y-105978390D02*
X95729160Y-105978390D01*
X95729160Y-105978390D02*
X95633922Y-106026009D01*
X95633922Y-106026009D02*
X95586303Y-106073628D01*
X95586303Y-106073628D02*
X95538684Y-106168866D01*
X95538684Y-106168866D02*
X95538684Y-106359342D01*
X95538684Y-106359342D02*
X95586303Y-106454580D01*
X95586303Y-106454580D02*
X95633922Y-106502200D01*
X95633922Y-106502200D02*
X95729160Y-106549819D01*
X95729160Y-106549819D02*
X95919636Y-106549819D01*
X95919636Y-106549819D02*
X96014874Y-106502200D01*
X96014874Y-106502200D02*
X96062493Y-106454580D01*
X96062493Y-106454580D02*
X96110112Y-106359342D01*
X96110112Y-106359342D02*
X96110112Y-106168866D01*
X96110112Y-106168866D02*
X96062493Y-106073628D01*
X96062493Y-106073628D02*
X96014874Y-106026009D01*
X96014874Y-106026009D02*
X95919636Y-105978390D01*
X96443446Y-105549819D02*
X97062493Y-105549819D01*
X97062493Y-105549819D02*
X96729160Y-105930771D01*
X96729160Y-105930771D02*
X96872017Y-105930771D01*
X96872017Y-105930771D02*
X96967255Y-105978390D01*
X96967255Y-105978390D02*
X97014874Y-106026009D01*
X97014874Y-106026009D02*
X97062493Y-106121247D01*
X97062493Y-106121247D02*
X97062493Y-106359342D01*
X97062493Y-106359342D02*
X97014874Y-106454580D01*
X97014874Y-106454580D02*
X96967255Y-106502200D01*
X96967255Y-106502200D02*
X96872017Y-106549819D01*
X96872017Y-106549819D02*
X96586303Y-106549819D01*
X96586303Y-106549819D02*
X96491065Y-106502200D01*
X96491065Y-106502200D02*
X96443446Y-106454580D01*
X97967255Y-105549819D02*
X97491065Y-105549819D01*
X97491065Y-105549819D02*
X97443446Y-106026009D01*
X97443446Y-106026009D02*
X97491065Y-105978390D01*
X97491065Y-105978390D02*
X97586303Y-105930771D01*
X97586303Y-105930771D02*
X97824398Y-105930771D01*
X97824398Y-105930771D02*
X97919636Y-105978390D01*
X97919636Y-105978390D02*
X97967255Y-106026009D01*
X97967255Y-106026009D02*
X98014874Y-106121247D01*
X98014874Y-106121247D02*
X98014874Y-106359342D01*
X98014874Y-106359342D02*
X97967255Y-106454580D01*
X97967255Y-106454580D02*
X97919636Y-106502200D01*
X97919636Y-106502200D02*
X97824398Y-106549819D01*
X97824398Y-106549819D02*
X97586303Y-106549819D01*
X97586303Y-106549819D02*
X97491065Y-106502200D01*
X97491065Y-106502200D02*
X97443446Y-106454580D01*
X98348208Y-105549819D02*
X99014874Y-105549819D01*
X99014874Y-105549819D02*
X98586303Y-106549819D01*
X98345714Y-96927200D02*
X98488571Y-96974819D01*
X98488571Y-96974819D02*
X98726666Y-96974819D01*
X98726666Y-96974819D02*
X98821904Y-96927200D01*
X98821904Y-96927200D02*
X98869523Y-96879580D01*
X98869523Y-96879580D02*
X98917142Y-96784342D01*
X98917142Y-96784342D02*
X98917142Y-96689104D01*
X98917142Y-96689104D02*
X98869523Y-96593866D01*
X98869523Y-96593866D02*
X98821904Y-96546247D01*
X98821904Y-96546247D02*
X98726666Y-96498628D01*
X98726666Y-96498628D02*
X98536190Y-96451009D01*
X98536190Y-96451009D02*
X98440952Y-96403390D01*
X98440952Y-96403390D02*
X98393333Y-96355771D01*
X98393333Y-96355771D02*
X98345714Y-96260533D01*
X98345714Y-96260533D02*
X98345714Y-96165295D01*
X98345714Y-96165295D02*
X98393333Y-96070057D01*
X98393333Y-96070057D02*
X98440952Y-96022438D01*
X98440952Y-96022438D02*
X98536190Y-95974819D01*
X98536190Y-95974819D02*
X98774285Y-95974819D01*
X98774285Y-95974819D02*
X98917142Y-96022438D01*
X99726666Y-96927200D02*
X99631428Y-96974819D01*
X99631428Y-96974819D02*
X99440952Y-96974819D01*
X99440952Y-96974819D02*
X99345714Y-96927200D01*
X99345714Y-96927200D02*
X99298095Y-96831961D01*
X99298095Y-96831961D02*
X99298095Y-96451009D01*
X99298095Y-96451009D02*
X99345714Y-96355771D01*
X99345714Y-96355771D02*
X99440952Y-96308152D01*
X99440952Y-96308152D02*
X99631428Y-96308152D01*
X99631428Y-96308152D02*
X99726666Y-96355771D01*
X99726666Y-96355771D02*
X99774285Y-96451009D01*
X99774285Y-96451009D02*
X99774285Y-96546247D01*
X99774285Y-96546247D02*
X99298095Y-96641485D01*
X108339048Y-122374819D02*
X108339048Y-121374819D01*
X108339048Y-121374819D02*
X108577143Y-121374819D01*
X108577143Y-121374819D02*
X108720000Y-121422438D01*
X108720000Y-121422438D02*
X108815238Y-121517676D01*
X108815238Y-121517676D02*
X108862857Y-121612914D01*
X108862857Y-121612914D02*
X108910476Y-121803390D01*
X108910476Y-121803390D02*
X108910476Y-121946247D01*
X108910476Y-121946247D02*
X108862857Y-122136723D01*
X108862857Y-122136723D02*
X108815238Y-122231961D01*
X108815238Y-122231961D02*
X108720000Y-122327200D01*
X108720000Y-122327200D02*
X108577143Y-122374819D01*
X108577143Y-122374819D02*
X108339048Y-122374819D01*
X109339048Y-122374819D02*
X109339048Y-121374819D01*
X109815238Y-122374819D02*
X109815238Y-121374819D01*
X109815238Y-121374819D02*
X110386666Y-122374819D01*
X110386666Y-122374819D02*
X110386666Y-121374819D01*
X193807218Y-117301139D02*
X193473885Y-116824948D01*
X193235790Y-117301139D02*
X193235790Y-116301139D01*
X193235790Y-116301139D02*
X193616742Y-116301139D01*
X193616742Y-116301139D02*
X193711980Y-116348758D01*
X193711980Y-116348758D02*
X193759599Y-116396377D01*
X193759599Y-116396377D02*
X193807218Y-116491615D01*
X193807218Y-116491615D02*
X193807218Y-116634472D01*
X193807218Y-116634472D02*
X193759599Y-116729710D01*
X193759599Y-116729710D02*
X193711980Y-116777329D01*
X193711980Y-116777329D02*
X193616742Y-116824948D01*
X193616742Y-116824948D02*
X193235790Y-116824948D01*
X194235790Y-116777329D02*
X194569123Y-116777329D01*
X194711980Y-117301139D02*
X194235790Y-117301139D01*
X194235790Y-117301139D02*
X194235790Y-116301139D01*
X194235790Y-116301139D02*
X194711980Y-116301139D01*
X195092933Y-117253520D02*
X195235790Y-117301139D01*
X195235790Y-117301139D02*
X195473885Y-117301139D01*
X195473885Y-117301139D02*
X195569123Y-117253520D01*
X195569123Y-117253520D02*
X195616742Y-117205900D01*
X195616742Y-117205900D02*
X195664361Y-117110662D01*
X195664361Y-117110662D02*
X195664361Y-117015424D01*
X195664361Y-117015424D02*
X195616742Y-116920186D01*
X195616742Y-116920186D02*
X195569123Y-116872567D01*
X195569123Y-116872567D02*
X195473885Y-116824948D01*
X195473885Y-116824948D02*
X195283409Y-116777329D01*
X195283409Y-116777329D02*
X195188171Y-116729710D01*
X195188171Y-116729710D02*
X195140552Y-116682091D01*
X195140552Y-116682091D02*
X195092933Y-116586853D01*
X195092933Y-116586853D02*
X195092933Y-116491615D01*
X195092933Y-116491615D02*
X195140552Y-116396377D01*
X195140552Y-116396377D02*
X195188171Y-116348758D01*
X195188171Y-116348758D02*
X195283409Y-116301139D01*
X195283409Y-116301139D02*
X195521504Y-116301139D01*
X195521504Y-116301139D02*
X195664361Y-116348758D01*
X196092933Y-116777329D02*
X196426266Y-116777329D01*
X196569123Y-117301139D02*
X196092933Y-117301139D01*
X196092933Y-117301139D02*
X196092933Y-116301139D01*
X196092933Y-116301139D02*
X196569123Y-116301139D01*
X196854838Y-116301139D02*
X197426266Y-116301139D01*
X197140552Y-117301139D02*
X197140552Y-116301139D01*
X194006743Y-98531139D02*
X194578171Y-98531139D01*
X194292457Y-99531139D02*
X194292457Y-98531139D01*
X194673410Y-99626377D02*
X195435314Y-99626377D01*
X196244838Y-99435900D02*
X196197219Y-99483520D01*
X196197219Y-99483520D02*
X196054362Y-99531139D01*
X196054362Y-99531139D02*
X195959124Y-99531139D01*
X195959124Y-99531139D02*
X195816267Y-99483520D01*
X195816267Y-99483520D02*
X195721029Y-99388281D01*
X195721029Y-99388281D02*
X195673410Y-99293043D01*
X195673410Y-99293043D02*
X195625791Y-99102567D01*
X195625791Y-99102567D02*
X195625791Y-98959710D01*
X195625791Y-98959710D02*
X195673410Y-98769234D01*
X195673410Y-98769234D02*
X195721029Y-98673996D01*
X195721029Y-98673996D02*
X195816267Y-98578758D01*
X195816267Y-98578758D02*
X195959124Y-98531139D01*
X195959124Y-98531139D02*
X196054362Y-98531139D01*
X196054362Y-98531139D02*
X196197219Y-98578758D01*
X196197219Y-98578758D02*
X196244838Y-98626377D01*
X196625791Y-99483520D02*
X196768648Y-99531139D01*
X196768648Y-99531139D02*
X197006743Y-99531139D01*
X197006743Y-99531139D02*
X197101981Y-99483520D01*
X197101981Y-99483520D02*
X197149600Y-99435900D01*
X197149600Y-99435900D02*
X197197219Y-99340662D01*
X197197219Y-99340662D02*
X197197219Y-99245424D01*
X197197219Y-99245424D02*
X197149600Y-99150186D01*
X197149600Y-99150186D02*
X197101981Y-99102567D01*
X197101981Y-99102567D02*
X197006743Y-99054948D01*
X197006743Y-99054948D02*
X196816267Y-99007329D01*
X196816267Y-99007329D02*
X196721029Y-98959710D01*
X196721029Y-98959710D02*
X196673410Y-98912091D01*
X196673410Y-98912091D02*
X196625791Y-98816853D01*
X196625791Y-98816853D02*
X196625791Y-98721615D01*
X196625791Y-98721615D02*
X196673410Y-98626377D01*
X196673410Y-98626377D02*
X196721029Y-98578758D01*
X196721029Y-98578758D02*
X196816267Y-98531139D01*
X196816267Y-98531139D02*
X197054362Y-98531139D01*
X197054362Y-98531139D02*
X197197219Y-98578758D01*
X189633886Y-104573520D02*
X189776743Y-104621139D01*
X189776743Y-104621139D02*
X190014838Y-104621139D01*
X190014838Y-104621139D02*
X190110076Y-104573520D01*
X190110076Y-104573520D02*
X190157695Y-104525900D01*
X190157695Y-104525900D02*
X190205314Y-104430662D01*
X190205314Y-104430662D02*
X190205314Y-104335424D01*
X190205314Y-104335424D02*
X190157695Y-104240186D01*
X190157695Y-104240186D02*
X190110076Y-104192567D01*
X190110076Y-104192567D02*
X190014838Y-104144948D01*
X190014838Y-104144948D02*
X189824362Y-104097329D01*
X189824362Y-104097329D02*
X189729124Y-104049710D01*
X189729124Y-104049710D02*
X189681505Y-104002091D01*
X189681505Y-104002091D02*
X189633886Y-103906853D01*
X189633886Y-103906853D02*
X189633886Y-103811615D01*
X189633886Y-103811615D02*
X189681505Y-103716377D01*
X189681505Y-103716377D02*
X189729124Y-103668758D01*
X189729124Y-103668758D02*
X189824362Y-103621139D01*
X189824362Y-103621139D02*
X190062457Y-103621139D01*
X190062457Y-103621139D02*
X190205314Y-103668758D01*
X190633886Y-104621139D02*
X190633886Y-103621139D01*
X190633886Y-103621139D02*
X190871981Y-103621139D01*
X190871981Y-103621139D02*
X191014838Y-103668758D01*
X191014838Y-103668758D02*
X191110076Y-103763996D01*
X191110076Y-103763996D02*
X191157695Y-103859234D01*
X191157695Y-103859234D02*
X191205314Y-104049710D01*
X191205314Y-104049710D02*
X191205314Y-104192567D01*
X191205314Y-104192567D02*
X191157695Y-104383043D01*
X191157695Y-104383043D02*
X191110076Y-104478281D01*
X191110076Y-104478281D02*
X191014838Y-104573520D01*
X191014838Y-104573520D02*
X190871981Y-104621139D01*
X190871981Y-104621139D02*
X190633886Y-104621139D01*
X191824362Y-103621139D02*
X192014838Y-103621139D01*
X192014838Y-103621139D02*
X192110076Y-103668758D01*
X192110076Y-103668758D02*
X192205314Y-103763996D01*
X192205314Y-103763996D02*
X192252933Y-103954472D01*
X192252933Y-103954472D02*
X192252933Y-104287805D01*
X192252933Y-104287805D02*
X192205314Y-104478281D01*
X192205314Y-104478281D02*
X192110076Y-104573520D01*
X192110076Y-104573520D02*
X192014838Y-104621139D01*
X192014838Y-104621139D02*
X191824362Y-104621139D01*
X191824362Y-104621139D02*
X191729124Y-104573520D01*
X191729124Y-104573520D02*
X191633886Y-104478281D01*
X191633886Y-104478281D02*
X191586267Y-104287805D01*
X191586267Y-104287805D02*
X191586267Y-103954472D01*
X191586267Y-103954472D02*
X191633886Y-103763996D01*
X191633886Y-103763996D02*
X191729124Y-103668758D01*
X191729124Y-103668758D02*
X191824362Y-103621139D01*
X192967219Y-105002091D02*
X192919600Y-104954472D01*
X192919600Y-104954472D02*
X192824362Y-104811615D01*
X192824362Y-104811615D02*
X192776743Y-104716377D01*
X192776743Y-104716377D02*
X192729124Y-104573520D01*
X192729124Y-104573520D02*
X192681505Y-104335424D01*
X192681505Y-104335424D02*
X192681505Y-104144948D01*
X192681505Y-104144948D02*
X192729124Y-103906853D01*
X192729124Y-103906853D02*
X192776743Y-103763996D01*
X192776743Y-103763996D02*
X192824362Y-103668758D01*
X192824362Y-103668758D02*
X192919600Y-103525900D01*
X192919600Y-103525900D02*
X192967219Y-103478281D01*
X193348172Y-104621139D02*
X193348172Y-103621139D01*
X193348172Y-103621139D02*
X193681505Y-104335424D01*
X193681505Y-104335424D02*
X194014838Y-103621139D01*
X194014838Y-103621139D02*
X194014838Y-104621139D01*
X194491029Y-104621139D02*
X194491029Y-103621139D01*
X194919600Y-104573520D02*
X195062457Y-104621139D01*
X195062457Y-104621139D02*
X195300552Y-104621139D01*
X195300552Y-104621139D02*
X195395790Y-104573520D01*
X195395790Y-104573520D02*
X195443409Y-104525900D01*
X195443409Y-104525900D02*
X195491028Y-104430662D01*
X195491028Y-104430662D02*
X195491028Y-104335424D01*
X195491028Y-104335424D02*
X195443409Y-104240186D01*
X195443409Y-104240186D02*
X195395790Y-104192567D01*
X195395790Y-104192567D02*
X195300552Y-104144948D01*
X195300552Y-104144948D02*
X195110076Y-104097329D01*
X195110076Y-104097329D02*
X195014838Y-104049710D01*
X195014838Y-104049710D02*
X194967219Y-104002091D01*
X194967219Y-104002091D02*
X194919600Y-103906853D01*
X194919600Y-103906853D02*
X194919600Y-103811615D01*
X194919600Y-103811615D02*
X194967219Y-103716377D01*
X194967219Y-103716377D02*
X195014838Y-103668758D01*
X195014838Y-103668758D02*
X195110076Y-103621139D01*
X195110076Y-103621139D02*
X195348171Y-103621139D01*
X195348171Y-103621139D02*
X195491028Y-103668758D01*
X196110076Y-103621139D02*
X196300552Y-103621139D01*
X196300552Y-103621139D02*
X196395790Y-103668758D01*
X196395790Y-103668758D02*
X196491028Y-103763996D01*
X196491028Y-103763996D02*
X196538647Y-103954472D01*
X196538647Y-103954472D02*
X196538647Y-104287805D01*
X196538647Y-104287805D02*
X196491028Y-104478281D01*
X196491028Y-104478281D02*
X196395790Y-104573520D01*
X196395790Y-104573520D02*
X196300552Y-104621139D01*
X196300552Y-104621139D02*
X196110076Y-104621139D01*
X196110076Y-104621139D02*
X196014838Y-104573520D01*
X196014838Y-104573520D02*
X195919600Y-104478281D01*
X195919600Y-104478281D02*
X195871981Y-104287805D01*
X195871981Y-104287805D02*
X195871981Y-103954472D01*
X195871981Y-103954472D02*
X195919600Y-103763996D01*
X195919600Y-103763996D02*
X196014838Y-103668758D01*
X196014838Y-103668758D02*
X196110076Y-103621139D01*
X196871981Y-105002091D02*
X196919600Y-104954472D01*
X196919600Y-104954472D02*
X197014838Y-104811615D01*
X197014838Y-104811615D02*
X197062457Y-104716377D01*
X197062457Y-104716377D02*
X197110076Y-104573520D01*
X197110076Y-104573520D02*
X197157695Y-104335424D01*
X197157695Y-104335424D02*
X197157695Y-104144948D01*
X197157695Y-104144948D02*
X197110076Y-103906853D01*
X197110076Y-103906853D02*
X197062457Y-103763996D01*
X197062457Y-103763996D02*
X197014838Y-103668758D01*
X197014838Y-103668758D02*
X196919600Y-103525900D01*
X196919600Y-103525900D02*
X196871981Y-103478281D01*
X121866743Y-112223520D02*
X122009600Y-112271139D01*
X122009600Y-112271139D02*
X122247695Y-112271139D01*
X122247695Y-112271139D02*
X122342933Y-112223520D01*
X122342933Y-112223520D02*
X122390552Y-112175900D01*
X122390552Y-112175900D02*
X122438171Y-112080662D01*
X122438171Y-112080662D02*
X122438171Y-111985424D01*
X122438171Y-111985424D02*
X122390552Y-111890186D01*
X122390552Y-111890186D02*
X122342933Y-111842567D01*
X122342933Y-111842567D02*
X122247695Y-111794948D01*
X122247695Y-111794948D02*
X122057219Y-111747329D01*
X122057219Y-111747329D02*
X121961981Y-111699710D01*
X121961981Y-111699710D02*
X121914362Y-111652091D01*
X121914362Y-111652091D02*
X121866743Y-111556853D01*
X121866743Y-111556853D02*
X121866743Y-111461615D01*
X121866743Y-111461615D02*
X121914362Y-111366377D01*
X121914362Y-111366377D02*
X121961981Y-111318758D01*
X121961981Y-111318758D02*
X122057219Y-111271139D01*
X122057219Y-111271139D02*
X122295314Y-111271139D01*
X122295314Y-111271139D02*
X122438171Y-111318758D01*
X122866743Y-112271139D02*
X122866743Y-111271139D01*
X122866743Y-111271139D02*
X123104838Y-111271139D01*
X123104838Y-111271139D02*
X123247695Y-111318758D01*
X123247695Y-111318758D02*
X123342933Y-111413996D01*
X123342933Y-111413996D02*
X123390552Y-111509234D01*
X123390552Y-111509234D02*
X123438171Y-111699710D01*
X123438171Y-111699710D02*
X123438171Y-111842567D01*
X123438171Y-111842567D02*
X123390552Y-112033043D01*
X123390552Y-112033043D02*
X123342933Y-112128281D01*
X123342933Y-112128281D02*
X123247695Y-112223520D01*
X123247695Y-112223520D02*
X123104838Y-112271139D01*
X123104838Y-112271139D02*
X122866743Y-112271139D01*
X123628648Y-112366377D02*
X124390552Y-112366377D01*
X125200076Y-112175900D02*
X125152457Y-112223520D01*
X125152457Y-112223520D02*
X125009600Y-112271139D01*
X125009600Y-112271139D02*
X124914362Y-112271139D01*
X124914362Y-112271139D02*
X124771505Y-112223520D01*
X124771505Y-112223520D02*
X124676267Y-112128281D01*
X124676267Y-112128281D02*
X124628648Y-112033043D01*
X124628648Y-112033043D02*
X124581029Y-111842567D01*
X124581029Y-111842567D02*
X124581029Y-111699710D01*
X124581029Y-111699710D02*
X124628648Y-111509234D01*
X124628648Y-111509234D02*
X124676267Y-111413996D01*
X124676267Y-111413996D02*
X124771505Y-111318758D01*
X124771505Y-111318758D02*
X124914362Y-111271139D01*
X124914362Y-111271139D02*
X125009600Y-111271139D01*
X125009600Y-111271139D02*
X125152457Y-111318758D01*
X125152457Y-111318758D02*
X125200076Y-111366377D01*
X125581029Y-112223520D02*
X125723886Y-112271139D01*
X125723886Y-112271139D02*
X125961981Y-112271139D01*
X125961981Y-112271139D02*
X126057219Y-112223520D01*
X126057219Y-112223520D02*
X126104838Y-112175900D01*
X126104838Y-112175900D02*
X126152457Y-112080662D01*
X126152457Y-112080662D02*
X126152457Y-111985424D01*
X126152457Y-111985424D02*
X126104838Y-111890186D01*
X126104838Y-111890186D02*
X126057219Y-111842567D01*
X126057219Y-111842567D02*
X125961981Y-111794948D01*
X125961981Y-111794948D02*
X125771505Y-111747329D01*
X125771505Y-111747329D02*
X125676267Y-111699710D01*
X125676267Y-111699710D02*
X125628648Y-111652091D01*
X125628648Y-111652091D02*
X125581029Y-111556853D01*
X125581029Y-111556853D02*
X125581029Y-111461615D01*
X125581029Y-111461615D02*
X125628648Y-111366377D01*
X125628648Y-111366377D02*
X125676267Y-111318758D01*
X125676267Y-111318758D02*
X125771505Y-111271139D01*
X125771505Y-111271139D02*
X126009600Y-111271139D01*
X126009600Y-111271139D02*
X126152457Y-111318758D01*
X193128171Y-100991139D02*
X193699599Y-100991139D01*
X193413885Y-101991139D02*
X193413885Y-100991139D01*
X193794838Y-102086377D02*
X194556742Y-102086377D01*
X195366266Y-101895900D02*
X195318647Y-101943520D01*
X195318647Y-101943520D02*
X195175790Y-101991139D01*
X195175790Y-101991139D02*
X195080552Y-101991139D01*
X195080552Y-101991139D02*
X194937695Y-101943520D01*
X194937695Y-101943520D02*
X194842457Y-101848281D01*
X194842457Y-101848281D02*
X194794838Y-101753043D01*
X194794838Y-101753043D02*
X194747219Y-101562567D01*
X194747219Y-101562567D02*
X194747219Y-101419710D01*
X194747219Y-101419710D02*
X194794838Y-101229234D01*
X194794838Y-101229234D02*
X194842457Y-101133996D01*
X194842457Y-101133996D02*
X194937695Y-101038758D01*
X194937695Y-101038758D02*
X195080552Y-100991139D01*
X195080552Y-100991139D02*
X195175790Y-100991139D01*
X195175790Y-100991139D02*
X195318647Y-101038758D01*
X195318647Y-101038758D02*
X195366266Y-101086377D01*
X196271028Y-101991139D02*
X195794838Y-101991139D01*
X195794838Y-101991139D02*
X195794838Y-100991139D01*
X196604362Y-101991139D02*
X196604362Y-100991139D01*
X197175790Y-101991139D02*
X196747219Y-101419710D01*
X197175790Y-100991139D02*
X196604362Y-101562567D01*
X195167695Y-121488758D02*
X195072457Y-121441139D01*
X195072457Y-121441139D02*
X194929600Y-121441139D01*
X194929600Y-121441139D02*
X194786743Y-121488758D01*
X194786743Y-121488758D02*
X194691505Y-121583996D01*
X194691505Y-121583996D02*
X194643886Y-121679234D01*
X194643886Y-121679234D02*
X194596267Y-121869710D01*
X194596267Y-121869710D02*
X194596267Y-122012567D01*
X194596267Y-122012567D02*
X194643886Y-122203043D01*
X194643886Y-122203043D02*
X194691505Y-122298281D01*
X194691505Y-122298281D02*
X194786743Y-122393520D01*
X194786743Y-122393520D02*
X194929600Y-122441139D01*
X194929600Y-122441139D02*
X195024838Y-122441139D01*
X195024838Y-122441139D02*
X195167695Y-122393520D01*
X195167695Y-122393520D02*
X195215314Y-122345900D01*
X195215314Y-122345900D02*
X195215314Y-122012567D01*
X195215314Y-122012567D02*
X195024838Y-122012567D01*
X195643886Y-122441139D02*
X195643886Y-121441139D01*
X195643886Y-121441139D02*
X196215314Y-122441139D01*
X196215314Y-122441139D02*
X196215314Y-121441139D01*
X196691505Y-122441139D02*
X196691505Y-121441139D01*
X196691505Y-121441139D02*
X196929600Y-121441139D01*
X196929600Y-121441139D02*
X197072457Y-121488758D01*
X197072457Y-121488758D02*
X197167695Y-121583996D01*
X197167695Y-121583996D02*
X197215314Y-121679234D01*
X197215314Y-121679234D02*
X197262933Y-121869710D01*
X197262933Y-121869710D02*
X197262933Y-122012567D01*
X197262933Y-122012567D02*
X197215314Y-122203043D01*
X197215314Y-122203043D02*
X197167695Y-122298281D01*
X197167695Y-122298281D02*
X197072457Y-122393520D01*
X197072457Y-122393520D02*
X196929600Y-122441139D01*
X196929600Y-122441139D02*
X196691505Y-122441139D01*
X196322933Y-119835900D02*
X196275314Y-119883520D01*
X196275314Y-119883520D02*
X196132457Y-119931139D01*
X196132457Y-119931139D02*
X196037219Y-119931139D01*
X196037219Y-119931139D02*
X195894362Y-119883520D01*
X195894362Y-119883520D02*
X195799124Y-119788281D01*
X195799124Y-119788281D02*
X195751505Y-119693043D01*
X195751505Y-119693043D02*
X195703886Y-119502567D01*
X195703886Y-119502567D02*
X195703886Y-119359710D01*
X195703886Y-119359710D02*
X195751505Y-119169234D01*
X195751505Y-119169234D02*
X195799124Y-119073996D01*
X195799124Y-119073996D02*
X195894362Y-118978758D01*
X195894362Y-118978758D02*
X196037219Y-118931139D01*
X196037219Y-118931139D02*
X196132457Y-118931139D01*
X196132457Y-118931139D02*
X196275314Y-118978758D01*
X196275314Y-118978758D02*
X196322933Y-119026377D01*
X196703886Y-119883520D02*
X196846743Y-119931139D01*
X196846743Y-119931139D02*
X197084838Y-119931139D01*
X197084838Y-119931139D02*
X197180076Y-119883520D01*
X197180076Y-119883520D02*
X197227695Y-119835900D01*
X197227695Y-119835900D02*
X197275314Y-119740662D01*
X197275314Y-119740662D02*
X197275314Y-119645424D01*
X197275314Y-119645424D02*
X197227695Y-119550186D01*
X197227695Y-119550186D02*
X197180076Y-119502567D01*
X197180076Y-119502567D02*
X197084838Y-119454948D01*
X197084838Y-119454948D02*
X196894362Y-119407329D01*
X196894362Y-119407329D02*
X196799124Y-119359710D01*
X196799124Y-119359710D02*
X196751505Y-119312091D01*
X196751505Y-119312091D02*
X196703886Y-119216853D01*
X196703886Y-119216853D02*
X196703886Y-119121615D01*
X196703886Y-119121615D02*
X196751505Y-119026377D01*
X196751505Y-119026377D02*
X196799124Y-118978758D01*
X196799124Y-118978758D02*
X196894362Y-118931139D01*
X196894362Y-118931139D02*
X197132457Y-118931139D01*
X197132457Y-118931139D02*
X197275314Y-118978758D01*
X121873410Y-107193520D02*
X122016267Y-107241139D01*
X122016267Y-107241139D02*
X122254362Y-107241139D01*
X122254362Y-107241139D02*
X122349600Y-107193520D01*
X122349600Y-107193520D02*
X122397219Y-107145900D01*
X122397219Y-107145900D02*
X122444838Y-107050662D01*
X122444838Y-107050662D02*
X122444838Y-106955424D01*
X122444838Y-106955424D02*
X122397219Y-106860186D01*
X122397219Y-106860186D02*
X122349600Y-106812567D01*
X122349600Y-106812567D02*
X122254362Y-106764948D01*
X122254362Y-106764948D02*
X122063886Y-106717329D01*
X122063886Y-106717329D02*
X121968648Y-106669710D01*
X121968648Y-106669710D02*
X121921029Y-106622091D01*
X121921029Y-106622091D02*
X121873410Y-106526853D01*
X121873410Y-106526853D02*
X121873410Y-106431615D01*
X121873410Y-106431615D02*
X121921029Y-106336377D01*
X121921029Y-106336377D02*
X121968648Y-106288758D01*
X121968648Y-106288758D02*
X122063886Y-106241139D01*
X122063886Y-106241139D02*
X122301981Y-106241139D01*
X122301981Y-106241139D02*
X122444838Y-106288758D01*
X122873410Y-107241139D02*
X122873410Y-106241139D01*
X122873410Y-106241139D02*
X123111505Y-106241139D01*
X123111505Y-106241139D02*
X123254362Y-106288758D01*
X123254362Y-106288758D02*
X123349600Y-106383996D01*
X123349600Y-106383996D02*
X123397219Y-106479234D01*
X123397219Y-106479234D02*
X123444838Y-106669710D01*
X123444838Y-106669710D02*
X123444838Y-106812567D01*
X123444838Y-106812567D02*
X123397219Y-107003043D01*
X123397219Y-107003043D02*
X123349600Y-107098281D01*
X123349600Y-107098281D02*
X123254362Y-107193520D01*
X123254362Y-107193520D02*
X123111505Y-107241139D01*
X123111505Y-107241139D02*
X122873410Y-107241139D01*
X123635315Y-107336377D02*
X124397219Y-107336377D01*
X124635315Y-107241139D02*
X124635315Y-106241139D01*
X124635315Y-106241139D02*
X124968648Y-106955424D01*
X124968648Y-106955424D02*
X125301981Y-106241139D01*
X125301981Y-106241139D02*
X125301981Y-107241139D01*
X125778172Y-107241139D02*
X125778172Y-106241139D01*
X126206743Y-107193520D02*
X126349600Y-107241139D01*
X126349600Y-107241139D02*
X126587695Y-107241139D01*
X126587695Y-107241139D02*
X126682933Y-107193520D01*
X126682933Y-107193520D02*
X126730552Y-107145900D01*
X126730552Y-107145900D02*
X126778171Y-107050662D01*
X126778171Y-107050662D02*
X126778171Y-106955424D01*
X126778171Y-106955424D02*
X126730552Y-106860186D01*
X126730552Y-106860186D02*
X126682933Y-106812567D01*
X126682933Y-106812567D02*
X126587695Y-106764948D01*
X126587695Y-106764948D02*
X126397219Y-106717329D01*
X126397219Y-106717329D02*
X126301981Y-106669710D01*
X126301981Y-106669710D02*
X126254362Y-106622091D01*
X126254362Y-106622091D02*
X126206743Y-106526853D01*
X126206743Y-106526853D02*
X126206743Y-106431615D01*
X126206743Y-106431615D02*
X126254362Y-106336377D01*
X126254362Y-106336377D02*
X126301981Y-106288758D01*
X126301981Y-106288758D02*
X126397219Y-106241139D01*
X126397219Y-106241139D02*
X126635314Y-106241139D01*
X126635314Y-106241139D02*
X126778171Y-106288758D01*
X127397219Y-106241139D02*
X127587695Y-106241139D01*
X127587695Y-106241139D02*
X127682933Y-106288758D01*
X127682933Y-106288758D02*
X127778171Y-106383996D01*
X127778171Y-106383996D02*
X127825790Y-106574472D01*
X127825790Y-106574472D02*
X127825790Y-106907805D01*
X127825790Y-106907805D02*
X127778171Y-107098281D01*
X127778171Y-107098281D02*
X127682933Y-107193520D01*
X127682933Y-107193520D02*
X127587695Y-107241139D01*
X127587695Y-107241139D02*
X127397219Y-107241139D01*
X127397219Y-107241139D02*
X127301981Y-107193520D01*
X127301981Y-107193520D02*
X127206743Y-107098281D01*
X127206743Y-107098281D02*
X127159124Y-106907805D01*
X127159124Y-106907805D02*
X127159124Y-106574472D01*
X127159124Y-106574472D02*
X127206743Y-106383996D01*
X127206743Y-106383996D02*
X127301981Y-106288758D01*
X127301981Y-106288758D02*
X127397219Y-106241139D01*
X121926743Y-104623520D02*
X122069600Y-104671139D01*
X122069600Y-104671139D02*
X122307695Y-104671139D01*
X122307695Y-104671139D02*
X122402933Y-104623520D01*
X122402933Y-104623520D02*
X122450552Y-104575900D01*
X122450552Y-104575900D02*
X122498171Y-104480662D01*
X122498171Y-104480662D02*
X122498171Y-104385424D01*
X122498171Y-104385424D02*
X122450552Y-104290186D01*
X122450552Y-104290186D02*
X122402933Y-104242567D01*
X122402933Y-104242567D02*
X122307695Y-104194948D01*
X122307695Y-104194948D02*
X122117219Y-104147329D01*
X122117219Y-104147329D02*
X122021981Y-104099710D01*
X122021981Y-104099710D02*
X121974362Y-104052091D01*
X121974362Y-104052091D02*
X121926743Y-103956853D01*
X121926743Y-103956853D02*
X121926743Y-103861615D01*
X121926743Y-103861615D02*
X121974362Y-103766377D01*
X121974362Y-103766377D02*
X122021981Y-103718758D01*
X122021981Y-103718758D02*
X122117219Y-103671139D01*
X122117219Y-103671139D02*
X122355314Y-103671139D01*
X122355314Y-103671139D02*
X122498171Y-103718758D01*
X122926743Y-104671139D02*
X122926743Y-103671139D01*
X122926743Y-103671139D02*
X123164838Y-103671139D01*
X123164838Y-103671139D02*
X123307695Y-103718758D01*
X123307695Y-103718758D02*
X123402933Y-103813996D01*
X123402933Y-103813996D02*
X123450552Y-103909234D01*
X123450552Y-103909234D02*
X123498171Y-104099710D01*
X123498171Y-104099710D02*
X123498171Y-104242567D01*
X123498171Y-104242567D02*
X123450552Y-104433043D01*
X123450552Y-104433043D02*
X123402933Y-104528281D01*
X123402933Y-104528281D02*
X123307695Y-104623520D01*
X123307695Y-104623520D02*
X123164838Y-104671139D01*
X123164838Y-104671139D02*
X122926743Y-104671139D01*
X123688648Y-104766377D02*
X124450552Y-104766377D01*
X124641029Y-104623520D02*
X124783886Y-104671139D01*
X124783886Y-104671139D02*
X125021981Y-104671139D01*
X125021981Y-104671139D02*
X125117219Y-104623520D01*
X125117219Y-104623520D02*
X125164838Y-104575900D01*
X125164838Y-104575900D02*
X125212457Y-104480662D01*
X125212457Y-104480662D02*
X125212457Y-104385424D01*
X125212457Y-104385424D02*
X125164838Y-104290186D01*
X125164838Y-104290186D02*
X125117219Y-104242567D01*
X125117219Y-104242567D02*
X125021981Y-104194948D01*
X125021981Y-104194948D02*
X124831505Y-104147329D01*
X124831505Y-104147329D02*
X124736267Y-104099710D01*
X124736267Y-104099710D02*
X124688648Y-104052091D01*
X124688648Y-104052091D02*
X124641029Y-103956853D01*
X124641029Y-103956853D02*
X124641029Y-103861615D01*
X124641029Y-103861615D02*
X124688648Y-103766377D01*
X124688648Y-103766377D02*
X124736267Y-103718758D01*
X124736267Y-103718758D02*
X124831505Y-103671139D01*
X124831505Y-103671139D02*
X125069600Y-103671139D01*
X125069600Y-103671139D02*
X125212457Y-103718758D01*
X126212457Y-104575900D02*
X126164838Y-104623520D01*
X126164838Y-104623520D02*
X126021981Y-104671139D01*
X126021981Y-104671139D02*
X125926743Y-104671139D01*
X125926743Y-104671139D02*
X125783886Y-104623520D01*
X125783886Y-104623520D02*
X125688648Y-104528281D01*
X125688648Y-104528281D02*
X125641029Y-104433043D01*
X125641029Y-104433043D02*
X125593410Y-104242567D01*
X125593410Y-104242567D02*
X125593410Y-104099710D01*
X125593410Y-104099710D02*
X125641029Y-103909234D01*
X125641029Y-103909234D02*
X125688648Y-103813996D01*
X125688648Y-103813996D02*
X125783886Y-103718758D01*
X125783886Y-103718758D02*
X125926743Y-103671139D01*
X125926743Y-103671139D02*
X126021981Y-103671139D01*
X126021981Y-103671139D02*
X126164838Y-103718758D01*
X126164838Y-103718758D02*
X126212457Y-103766377D01*
X126641029Y-104671139D02*
X126641029Y-103671139D01*
X127212457Y-104671139D02*
X126783886Y-104099710D01*
X127212457Y-103671139D02*
X126641029Y-104242567D01*
X121983410Y-109653520D02*
X122126267Y-109701139D01*
X122126267Y-109701139D02*
X122364362Y-109701139D01*
X122364362Y-109701139D02*
X122459600Y-109653520D01*
X122459600Y-109653520D02*
X122507219Y-109605900D01*
X122507219Y-109605900D02*
X122554838Y-109510662D01*
X122554838Y-109510662D02*
X122554838Y-109415424D01*
X122554838Y-109415424D02*
X122507219Y-109320186D01*
X122507219Y-109320186D02*
X122459600Y-109272567D01*
X122459600Y-109272567D02*
X122364362Y-109224948D01*
X122364362Y-109224948D02*
X122173886Y-109177329D01*
X122173886Y-109177329D02*
X122078648Y-109129710D01*
X122078648Y-109129710D02*
X122031029Y-109082091D01*
X122031029Y-109082091D02*
X121983410Y-108986853D01*
X121983410Y-108986853D02*
X121983410Y-108891615D01*
X121983410Y-108891615D02*
X122031029Y-108796377D01*
X122031029Y-108796377D02*
X122078648Y-108748758D01*
X122078648Y-108748758D02*
X122173886Y-108701139D01*
X122173886Y-108701139D02*
X122411981Y-108701139D01*
X122411981Y-108701139D02*
X122554838Y-108748758D01*
X122983410Y-109701139D02*
X122983410Y-108701139D01*
X122983410Y-108701139D02*
X123221505Y-108701139D01*
X123221505Y-108701139D02*
X123364362Y-108748758D01*
X123364362Y-108748758D02*
X123459600Y-108843996D01*
X123459600Y-108843996D02*
X123507219Y-108939234D01*
X123507219Y-108939234D02*
X123554838Y-109129710D01*
X123554838Y-109129710D02*
X123554838Y-109272567D01*
X123554838Y-109272567D02*
X123507219Y-109463043D01*
X123507219Y-109463043D02*
X123459600Y-109558281D01*
X123459600Y-109558281D02*
X123364362Y-109653520D01*
X123364362Y-109653520D02*
X123221505Y-109701139D01*
X123221505Y-109701139D02*
X122983410Y-109701139D01*
X123745315Y-109796377D02*
X124507219Y-109796377D01*
X124745315Y-109701139D02*
X124745315Y-108701139D01*
X124745315Y-108701139D02*
X125078648Y-109415424D01*
X125078648Y-109415424D02*
X125411981Y-108701139D01*
X125411981Y-108701139D02*
X125411981Y-109701139D01*
X126078648Y-108701139D02*
X126269124Y-108701139D01*
X126269124Y-108701139D02*
X126364362Y-108748758D01*
X126364362Y-108748758D02*
X126459600Y-108843996D01*
X126459600Y-108843996D02*
X126507219Y-109034472D01*
X126507219Y-109034472D02*
X126507219Y-109367805D01*
X126507219Y-109367805D02*
X126459600Y-109558281D01*
X126459600Y-109558281D02*
X126364362Y-109653520D01*
X126364362Y-109653520D02*
X126269124Y-109701139D01*
X126269124Y-109701139D02*
X126078648Y-109701139D01*
X126078648Y-109701139D02*
X125983410Y-109653520D01*
X125983410Y-109653520D02*
X125888172Y-109558281D01*
X125888172Y-109558281D02*
X125840553Y-109367805D01*
X125840553Y-109367805D02*
X125840553Y-109034472D01*
X125840553Y-109034472D02*
X125888172Y-108843996D01*
X125888172Y-108843996D02*
X125983410Y-108748758D01*
X125983410Y-108748758D02*
X126078648Y-108701139D01*
X126888172Y-109653520D02*
X127031029Y-109701139D01*
X127031029Y-109701139D02*
X127269124Y-109701139D01*
X127269124Y-109701139D02*
X127364362Y-109653520D01*
X127364362Y-109653520D02*
X127411981Y-109605900D01*
X127411981Y-109605900D02*
X127459600Y-109510662D01*
X127459600Y-109510662D02*
X127459600Y-109415424D01*
X127459600Y-109415424D02*
X127411981Y-109320186D01*
X127411981Y-109320186D02*
X127364362Y-109272567D01*
X127364362Y-109272567D02*
X127269124Y-109224948D01*
X127269124Y-109224948D02*
X127078648Y-109177329D01*
X127078648Y-109177329D02*
X126983410Y-109129710D01*
X126983410Y-109129710D02*
X126935791Y-109082091D01*
X126935791Y-109082091D02*
X126888172Y-108986853D01*
X126888172Y-108986853D02*
X126888172Y-108891615D01*
X126888172Y-108891615D02*
X126935791Y-108796377D01*
X126935791Y-108796377D02*
X126983410Y-108748758D01*
X126983410Y-108748758D02*
X127078648Y-108701139D01*
X127078648Y-108701139D02*
X127316743Y-108701139D01*
X127316743Y-108701139D02*
X127459600Y-108748758D01*
X127888172Y-109701139D02*
X127888172Y-108701139D01*
X190854419Y-99093462D02*
X190854419Y-98522034D01*
X191854419Y-98807748D02*
X190854419Y-98807748D01*
X190854419Y-97998224D02*
X190854419Y-97807748D01*
X190854419Y-97807748D02*
X190902038Y-97712510D01*
X190902038Y-97712510D02*
X190997276Y-97617272D01*
X190997276Y-97617272D02*
X191187752Y-97569653D01*
X191187752Y-97569653D02*
X191521085Y-97569653D01*
X191521085Y-97569653D02*
X191711561Y-97617272D01*
X191711561Y-97617272D02*
X191806800Y-97712510D01*
X191806800Y-97712510D02*
X191854419Y-97807748D01*
X191854419Y-97807748D02*
X191854419Y-97998224D01*
X191854419Y-97998224D02*
X191806800Y-98093462D01*
X191806800Y-98093462D02*
X191711561Y-98188700D01*
X191711561Y-98188700D02*
X191521085Y-98236319D01*
X191521085Y-98236319D02*
X191187752Y-98236319D01*
X191187752Y-98236319D02*
X190997276Y-98188700D01*
X190997276Y-98188700D02*
X190902038Y-98093462D01*
X190902038Y-98093462D02*
X190854419Y-97998224D01*
X190854419Y-97141081D02*
X191663942Y-97141081D01*
X191663942Y-97141081D02*
X191759180Y-97093462D01*
X191759180Y-97093462D02*
X191806800Y-97045843D01*
X191806800Y-97045843D02*
X191854419Y-96950605D01*
X191854419Y-96950605D02*
X191854419Y-96760129D01*
X191854419Y-96760129D02*
X191806800Y-96664891D01*
X191806800Y-96664891D02*
X191759180Y-96617272D01*
X191759180Y-96617272D02*
X191663942Y-96569653D01*
X191663942Y-96569653D02*
X190854419Y-96569653D01*
X191759180Y-95522034D02*
X191806800Y-95569653D01*
X191806800Y-95569653D02*
X191854419Y-95712510D01*
X191854419Y-95712510D02*
X191854419Y-95807748D01*
X191854419Y-95807748D02*
X191806800Y-95950605D01*
X191806800Y-95950605D02*
X191711561Y-96045843D01*
X191711561Y-96045843D02*
X191616323Y-96093462D01*
X191616323Y-96093462D02*
X191425847Y-96141081D01*
X191425847Y-96141081D02*
X191282990Y-96141081D01*
X191282990Y-96141081D02*
X191092514Y-96093462D01*
X191092514Y-96093462D02*
X190997276Y-96045843D01*
X190997276Y-96045843D02*
X190902038Y-95950605D01*
X190902038Y-95950605D02*
X190854419Y-95807748D01*
X190854419Y-95807748D02*
X190854419Y-95712510D01*
X190854419Y-95712510D02*
X190902038Y-95569653D01*
X190902038Y-95569653D02*
X190949657Y-95522034D01*
X191854419Y-95093462D02*
X190854419Y-95093462D01*
X191330609Y-95093462D02*
X191330609Y-94522034D01*
X191854419Y-94522034D02*
X190854419Y-94522034D01*
X194703886Y-109713520D02*
X194846743Y-109761139D01*
X194846743Y-109761139D02*
X195084838Y-109761139D01*
X195084838Y-109761139D02*
X195180076Y-109713520D01*
X195180076Y-109713520D02*
X195227695Y-109665900D01*
X195227695Y-109665900D02*
X195275314Y-109570662D01*
X195275314Y-109570662D02*
X195275314Y-109475424D01*
X195275314Y-109475424D02*
X195227695Y-109380186D01*
X195227695Y-109380186D02*
X195180076Y-109332567D01*
X195180076Y-109332567D02*
X195084838Y-109284948D01*
X195084838Y-109284948D02*
X194894362Y-109237329D01*
X194894362Y-109237329D02*
X194799124Y-109189710D01*
X194799124Y-109189710D02*
X194751505Y-109142091D01*
X194751505Y-109142091D02*
X194703886Y-109046853D01*
X194703886Y-109046853D02*
X194703886Y-108951615D01*
X194703886Y-108951615D02*
X194751505Y-108856377D01*
X194751505Y-108856377D02*
X194799124Y-108808758D01*
X194799124Y-108808758D02*
X194894362Y-108761139D01*
X194894362Y-108761139D02*
X195132457Y-108761139D01*
X195132457Y-108761139D02*
X195275314Y-108808758D01*
X196275314Y-109665900D02*
X196227695Y-109713520D01*
X196227695Y-109713520D02*
X196084838Y-109761139D01*
X196084838Y-109761139D02*
X195989600Y-109761139D01*
X195989600Y-109761139D02*
X195846743Y-109713520D01*
X195846743Y-109713520D02*
X195751505Y-109618281D01*
X195751505Y-109618281D02*
X195703886Y-109523043D01*
X195703886Y-109523043D02*
X195656267Y-109332567D01*
X195656267Y-109332567D02*
X195656267Y-109189710D01*
X195656267Y-109189710D02*
X195703886Y-108999234D01*
X195703886Y-108999234D02*
X195751505Y-108903996D01*
X195751505Y-108903996D02*
X195846743Y-108808758D01*
X195846743Y-108808758D02*
X195989600Y-108761139D01*
X195989600Y-108761139D02*
X196084838Y-108761139D01*
X196084838Y-108761139D02*
X196227695Y-108808758D01*
X196227695Y-108808758D02*
X196275314Y-108856377D01*
X196703886Y-109761139D02*
X196703886Y-108761139D01*
X197275314Y-109761139D02*
X196846743Y-109189710D01*
X197275314Y-108761139D02*
X196703886Y-109332567D01*
X194596267Y-123901139D02*
X194929600Y-124901139D01*
X194929600Y-124901139D02*
X195262933Y-123901139D01*
X196167695Y-124805900D02*
X196120076Y-124853520D01*
X196120076Y-124853520D02*
X195977219Y-124901139D01*
X195977219Y-124901139D02*
X195881981Y-124901139D01*
X195881981Y-124901139D02*
X195739124Y-124853520D01*
X195739124Y-124853520D02*
X195643886Y-124758281D01*
X195643886Y-124758281D02*
X195596267Y-124663043D01*
X195596267Y-124663043D02*
X195548648Y-124472567D01*
X195548648Y-124472567D02*
X195548648Y-124329710D01*
X195548648Y-124329710D02*
X195596267Y-124139234D01*
X195596267Y-124139234D02*
X195643886Y-124043996D01*
X195643886Y-124043996D02*
X195739124Y-123948758D01*
X195739124Y-123948758D02*
X195881981Y-123901139D01*
X195881981Y-123901139D02*
X195977219Y-123901139D01*
X195977219Y-123901139D02*
X196120076Y-123948758D01*
X196120076Y-123948758D02*
X196167695Y-123996377D01*
X197167695Y-124805900D02*
X197120076Y-124853520D01*
X197120076Y-124853520D02*
X196977219Y-124901139D01*
X196977219Y-124901139D02*
X196881981Y-124901139D01*
X196881981Y-124901139D02*
X196739124Y-124853520D01*
X196739124Y-124853520D02*
X196643886Y-124758281D01*
X196643886Y-124758281D02*
X196596267Y-124663043D01*
X196596267Y-124663043D02*
X196548648Y-124472567D01*
X196548648Y-124472567D02*
X196548648Y-124329710D01*
X196548648Y-124329710D02*
X196596267Y-124139234D01*
X196596267Y-124139234D02*
X196643886Y-124043996D01*
X196643886Y-124043996D02*
X196739124Y-123948758D01*
X196739124Y-123948758D02*
X196881981Y-123901139D01*
X196881981Y-123901139D02*
X196977219Y-123901139D01*
X196977219Y-123901139D02*
X197120076Y-123948758D01*
X197120076Y-123948758D02*
X197167695Y-123996377D01*
X193391029Y-96021139D02*
X193962457Y-96021139D01*
X193676743Y-97021139D02*
X193676743Y-96021139D01*
X194057696Y-97116377D02*
X194819600Y-97116377D01*
X195057696Y-97021139D02*
X195057696Y-96021139D01*
X195057696Y-96021139D02*
X195295791Y-96021139D01*
X195295791Y-96021139D02*
X195438648Y-96068758D01*
X195438648Y-96068758D02*
X195533886Y-96163996D01*
X195533886Y-96163996D02*
X195581505Y-96259234D01*
X195581505Y-96259234D02*
X195629124Y-96449710D01*
X195629124Y-96449710D02*
X195629124Y-96592567D01*
X195629124Y-96592567D02*
X195581505Y-96783043D01*
X195581505Y-96783043D02*
X195533886Y-96878281D01*
X195533886Y-96878281D02*
X195438648Y-96973520D01*
X195438648Y-96973520D02*
X195295791Y-97021139D01*
X195295791Y-97021139D02*
X195057696Y-97021139D01*
X196057696Y-97021139D02*
X196057696Y-96021139D01*
X196533886Y-97021139D02*
X196533886Y-96021139D01*
X196533886Y-96021139D02*
X197105314Y-97021139D01*
X197105314Y-97021139D02*
X197105314Y-96021139D01*
X194703886Y-114791139D02*
X194703886Y-113791139D01*
X194703886Y-113791139D02*
X194941981Y-113791139D01*
X194941981Y-113791139D02*
X195084838Y-113838758D01*
X195084838Y-113838758D02*
X195180076Y-113933996D01*
X195180076Y-113933996D02*
X195227695Y-114029234D01*
X195227695Y-114029234D02*
X195275314Y-114219710D01*
X195275314Y-114219710D02*
X195275314Y-114362567D01*
X195275314Y-114362567D02*
X195227695Y-114553043D01*
X195227695Y-114553043D02*
X195180076Y-114648281D01*
X195180076Y-114648281D02*
X195084838Y-114743520D01*
X195084838Y-114743520D02*
X194941981Y-114791139D01*
X194941981Y-114791139D02*
X194703886Y-114791139D01*
X196418171Y-113743520D02*
X195561029Y-115029234D01*
X197322933Y-114695900D02*
X197275314Y-114743520D01*
X197275314Y-114743520D02*
X197132457Y-114791139D01*
X197132457Y-114791139D02*
X197037219Y-114791139D01*
X197037219Y-114791139D02*
X196894362Y-114743520D01*
X196894362Y-114743520D02*
X196799124Y-114648281D01*
X196799124Y-114648281D02*
X196751505Y-114553043D01*
X196751505Y-114553043D02*
X196703886Y-114362567D01*
X196703886Y-114362567D02*
X196703886Y-114219710D01*
X196703886Y-114219710D02*
X196751505Y-114029234D01*
X196751505Y-114029234D02*
X196799124Y-113933996D01*
X196799124Y-113933996D02*
X196894362Y-113838758D01*
X196894362Y-113838758D02*
X197037219Y-113791139D01*
X197037219Y-113791139D02*
X197132457Y-113791139D01*
X197132457Y-113791139D02*
X197275314Y-113838758D01*
X197275314Y-113838758D02*
X197322933Y-113886377D01*
X193909124Y-93621139D02*
X194480552Y-93621139D01*
X194194838Y-94621139D02*
X194194838Y-93621139D01*
X194575791Y-94716377D02*
X195337695Y-94716377D01*
X195575791Y-94621139D02*
X195575791Y-93621139D01*
X195575791Y-93621139D02*
X195813886Y-93621139D01*
X195813886Y-93621139D02*
X195956743Y-93668758D01*
X195956743Y-93668758D02*
X196051981Y-93763996D01*
X196051981Y-93763996D02*
X196099600Y-93859234D01*
X196099600Y-93859234D02*
X196147219Y-94049710D01*
X196147219Y-94049710D02*
X196147219Y-94192567D01*
X196147219Y-94192567D02*
X196099600Y-94383043D01*
X196099600Y-94383043D02*
X196051981Y-94478281D01*
X196051981Y-94478281D02*
X195956743Y-94573520D01*
X195956743Y-94573520D02*
X195813886Y-94621139D01*
X195813886Y-94621139D02*
X195575791Y-94621139D01*
X196766267Y-93621139D02*
X196956743Y-93621139D01*
X196956743Y-93621139D02*
X197051981Y-93668758D01*
X197051981Y-93668758D02*
X197147219Y-93763996D01*
X197147219Y-93763996D02*
X197194838Y-93954472D01*
X197194838Y-93954472D02*
X197194838Y-94287805D01*
X197194838Y-94287805D02*
X197147219Y-94478281D01*
X197147219Y-94478281D02*
X197051981Y-94573520D01*
X197051981Y-94573520D02*
X196956743Y-94621139D01*
X196956743Y-94621139D02*
X196766267Y-94621139D01*
X196766267Y-94621139D02*
X196671029Y-94573520D01*
X196671029Y-94573520D02*
X196575791Y-94478281D01*
X196575791Y-94478281D02*
X196528172Y-94287805D01*
X196528172Y-94287805D02*
X196528172Y-93954472D01*
X196528172Y-93954472D02*
X196575791Y-93763996D01*
X196575791Y-93763996D02*
X196671029Y-93668758D01*
X196671029Y-93668758D02*
X196766267Y-93621139D01*
X193391029Y-90991139D02*
X193962457Y-90991139D01*
X193676743Y-91991139D02*
X193676743Y-90991139D01*
X194057696Y-92086377D02*
X194819600Y-92086377D01*
X195057696Y-91991139D02*
X195057696Y-90991139D01*
X196105314Y-91991139D02*
X195771981Y-91514948D01*
X195533886Y-91991139D02*
X195533886Y-90991139D01*
X195533886Y-90991139D02*
X195914838Y-90991139D01*
X195914838Y-90991139D02*
X196010076Y-91038758D01*
X196010076Y-91038758D02*
X196057695Y-91086377D01*
X196057695Y-91086377D02*
X196105314Y-91181615D01*
X196105314Y-91181615D02*
X196105314Y-91324472D01*
X196105314Y-91324472D02*
X196057695Y-91419710D01*
X196057695Y-91419710D02*
X196010076Y-91467329D01*
X196010076Y-91467329D02*
X195914838Y-91514948D01*
X195914838Y-91514948D02*
X195533886Y-91514948D01*
X197200552Y-92086377D02*
X197105314Y-92038758D01*
X197105314Y-92038758D02*
X197010076Y-91943520D01*
X197010076Y-91943520D02*
X196867219Y-91800662D01*
X196867219Y-91800662D02*
X196771981Y-91753043D01*
X196771981Y-91753043D02*
X196676743Y-91753043D01*
X196724362Y-91991139D02*
X196629124Y-91943520D01*
X196629124Y-91943520D02*
X196533886Y-91848281D01*
X196533886Y-91848281D02*
X196486267Y-91657805D01*
X196486267Y-91657805D02*
X196486267Y-91324472D01*
X196486267Y-91324472D02*
X196533886Y-91133996D01*
X196533886Y-91133996D02*
X196629124Y-91038758D01*
X196629124Y-91038758D02*
X196724362Y-90991139D01*
X196724362Y-90991139D02*
X196914838Y-90991139D01*
X196914838Y-90991139D02*
X197010076Y-91038758D01*
X197010076Y-91038758D02*
X197105314Y-91133996D01*
X197105314Y-91133996D02*
X197152933Y-91324472D01*
X197152933Y-91324472D02*
X197152933Y-91657805D01*
X197152933Y-91657805D02*
X197105314Y-91848281D01*
X197105314Y-91848281D02*
X197010076Y-91943520D01*
X197010076Y-91943520D02*
X196914838Y-91991139D01*
X196914838Y-91991139D02*
X196724362Y-91991139D01*
X195506742Y-107131139D02*
X195030552Y-107131139D01*
X195030552Y-107131139D02*
X195030552Y-106131139D01*
X195840076Y-106607329D02*
X196173409Y-106607329D01*
X196316266Y-107131139D02*
X195840076Y-107131139D01*
X195840076Y-107131139D02*
X195840076Y-106131139D01*
X195840076Y-106131139D02*
X196316266Y-106131139D01*
X196744838Y-107131139D02*
X196744838Y-106131139D01*
X196744838Y-106131139D02*
X196982933Y-106131139D01*
X196982933Y-106131139D02*
X197125790Y-106178758D01*
X197125790Y-106178758D02*
X197221028Y-106273996D01*
X197221028Y-106273996D02*
X197268647Y-106369234D01*
X197268647Y-106369234D02*
X197316266Y-106559710D01*
X197316266Y-106559710D02*
X197316266Y-106702567D01*
X197316266Y-106702567D02*
X197268647Y-106893043D01*
X197268647Y-106893043D02*
X197221028Y-106988281D01*
X197221028Y-106988281D02*
X197125790Y-107083520D01*
X197125790Y-107083520D02*
X196982933Y-107131139D01*
X196982933Y-107131139D02*
X196744838Y-107131139D01*
X190249600Y-112173520D02*
X190392457Y-112221139D01*
X190392457Y-112221139D02*
X190630552Y-112221139D01*
X190630552Y-112221139D02*
X190725790Y-112173520D01*
X190725790Y-112173520D02*
X190773409Y-112125900D01*
X190773409Y-112125900D02*
X190821028Y-112030662D01*
X190821028Y-112030662D02*
X190821028Y-111935424D01*
X190821028Y-111935424D02*
X190773409Y-111840186D01*
X190773409Y-111840186D02*
X190725790Y-111792567D01*
X190725790Y-111792567D02*
X190630552Y-111744948D01*
X190630552Y-111744948D02*
X190440076Y-111697329D01*
X190440076Y-111697329D02*
X190344838Y-111649710D01*
X190344838Y-111649710D02*
X190297219Y-111602091D01*
X190297219Y-111602091D02*
X190249600Y-111506853D01*
X190249600Y-111506853D02*
X190249600Y-111411615D01*
X190249600Y-111411615D02*
X190297219Y-111316377D01*
X190297219Y-111316377D02*
X190344838Y-111268758D01*
X190344838Y-111268758D02*
X190440076Y-111221139D01*
X190440076Y-111221139D02*
X190678171Y-111221139D01*
X190678171Y-111221139D02*
X190821028Y-111268758D01*
X191249600Y-112221139D02*
X191249600Y-111221139D01*
X191249600Y-111221139D02*
X191487695Y-111221139D01*
X191487695Y-111221139D02*
X191630552Y-111268758D01*
X191630552Y-111268758D02*
X191725790Y-111363996D01*
X191725790Y-111363996D02*
X191773409Y-111459234D01*
X191773409Y-111459234D02*
X191821028Y-111649710D01*
X191821028Y-111649710D02*
X191821028Y-111792567D01*
X191821028Y-111792567D02*
X191773409Y-111983043D01*
X191773409Y-111983043D02*
X191725790Y-112078281D01*
X191725790Y-112078281D02*
X191630552Y-112173520D01*
X191630552Y-112173520D02*
X191487695Y-112221139D01*
X191487695Y-112221139D02*
X191249600Y-112221139D01*
X192249600Y-112221139D02*
X192249600Y-111221139D01*
X193011504Y-112602091D02*
X192963885Y-112554472D01*
X192963885Y-112554472D02*
X192868647Y-112411615D01*
X192868647Y-112411615D02*
X192821028Y-112316377D01*
X192821028Y-112316377D02*
X192773409Y-112173520D01*
X192773409Y-112173520D02*
X192725790Y-111935424D01*
X192725790Y-111935424D02*
X192725790Y-111744948D01*
X192725790Y-111744948D02*
X192773409Y-111506853D01*
X192773409Y-111506853D02*
X192821028Y-111363996D01*
X192821028Y-111363996D02*
X192868647Y-111268758D01*
X192868647Y-111268758D02*
X192963885Y-111125900D01*
X192963885Y-111125900D02*
X193011504Y-111078281D01*
X193392457Y-112221139D02*
X193392457Y-111221139D01*
X193392457Y-111221139D02*
X193725790Y-111935424D01*
X193725790Y-111935424D02*
X194059123Y-111221139D01*
X194059123Y-111221139D02*
X194059123Y-112221139D01*
X194725790Y-111221139D02*
X194916266Y-111221139D01*
X194916266Y-111221139D02*
X195011504Y-111268758D01*
X195011504Y-111268758D02*
X195106742Y-111363996D01*
X195106742Y-111363996D02*
X195154361Y-111554472D01*
X195154361Y-111554472D02*
X195154361Y-111887805D01*
X195154361Y-111887805D02*
X195106742Y-112078281D01*
X195106742Y-112078281D02*
X195011504Y-112173520D01*
X195011504Y-112173520D02*
X194916266Y-112221139D01*
X194916266Y-112221139D02*
X194725790Y-112221139D01*
X194725790Y-112221139D02*
X194630552Y-112173520D01*
X194630552Y-112173520D02*
X194535314Y-112078281D01*
X194535314Y-112078281D02*
X194487695Y-111887805D01*
X194487695Y-111887805D02*
X194487695Y-111554472D01*
X194487695Y-111554472D02*
X194535314Y-111363996D01*
X194535314Y-111363996D02*
X194630552Y-111268758D01*
X194630552Y-111268758D02*
X194725790Y-111221139D01*
X195535314Y-112173520D02*
X195678171Y-112221139D01*
X195678171Y-112221139D02*
X195916266Y-112221139D01*
X195916266Y-112221139D02*
X196011504Y-112173520D01*
X196011504Y-112173520D02*
X196059123Y-112125900D01*
X196059123Y-112125900D02*
X196106742Y-112030662D01*
X196106742Y-112030662D02*
X196106742Y-111935424D01*
X196106742Y-111935424D02*
X196059123Y-111840186D01*
X196059123Y-111840186D02*
X196011504Y-111792567D01*
X196011504Y-111792567D02*
X195916266Y-111744948D01*
X195916266Y-111744948D02*
X195725790Y-111697329D01*
X195725790Y-111697329D02*
X195630552Y-111649710D01*
X195630552Y-111649710D02*
X195582933Y-111602091D01*
X195582933Y-111602091D02*
X195535314Y-111506853D01*
X195535314Y-111506853D02*
X195535314Y-111411615D01*
X195535314Y-111411615D02*
X195582933Y-111316377D01*
X195582933Y-111316377D02*
X195630552Y-111268758D01*
X195630552Y-111268758D02*
X195725790Y-111221139D01*
X195725790Y-111221139D02*
X195963885Y-111221139D01*
X195963885Y-111221139D02*
X196106742Y-111268758D01*
X196535314Y-112221139D02*
X196535314Y-111221139D01*
X196916266Y-112602091D02*
X196963885Y-112554472D01*
X196963885Y-112554472D02*
X197059123Y-112411615D01*
X197059123Y-112411615D02*
X197106742Y-112316377D01*
X197106742Y-112316377D02*
X197154361Y-112173520D01*
X197154361Y-112173520D02*
X197201980Y-111935424D01*
X197201980Y-111935424D02*
X197201980Y-111744948D01*
X197201980Y-111744948D02*
X197154361Y-111506853D01*
X197154361Y-111506853D02*
X197106742Y-111363996D01*
X197106742Y-111363996D02*
X197059123Y-111268758D01*
X197059123Y-111268758D02*
X196963885Y-111125900D01*
X196963885Y-111125900D02*
X196916266Y-111078281D01*
X108196191Y-111214819D02*
X108529524Y-112214819D01*
X108529524Y-112214819D02*
X108862857Y-111214819D01*
X109196191Y-112214819D02*
X109196191Y-111548152D01*
X109196191Y-111214819D02*
X109148572Y-111262438D01*
X109148572Y-111262438D02*
X109196191Y-111310057D01*
X109196191Y-111310057D02*
X109243810Y-111262438D01*
X109243810Y-111262438D02*
X109196191Y-111214819D01*
X109196191Y-111214819D02*
X109196191Y-111310057D01*
X109672381Y-111548152D02*
X109672381Y-112214819D01*
X109672381Y-111643390D02*
X109720000Y-111595771D01*
X109720000Y-111595771D02*
X109815238Y-111548152D01*
X109815238Y-111548152D02*
X109958095Y-111548152D01*
X109958095Y-111548152D02*
X110053333Y-111595771D01*
X110053333Y-111595771D02*
X110100952Y-111691009D01*
X110100952Y-111691009D02*
X110100952Y-112214819D01*
X103401905Y-96927200D02*
X103544762Y-96974819D01*
X103544762Y-96974819D02*
X103782857Y-96974819D01*
X103782857Y-96974819D02*
X103878095Y-96927200D01*
X103878095Y-96927200D02*
X103925714Y-96879580D01*
X103925714Y-96879580D02*
X103973333Y-96784342D01*
X103973333Y-96784342D02*
X103973333Y-96689104D01*
X103973333Y-96689104D02*
X103925714Y-96593866D01*
X103925714Y-96593866D02*
X103878095Y-96546247D01*
X103878095Y-96546247D02*
X103782857Y-96498628D01*
X103782857Y-96498628D02*
X103592381Y-96451009D01*
X103592381Y-96451009D02*
X103497143Y-96403390D01*
X103497143Y-96403390D02*
X103449524Y-96355771D01*
X103449524Y-96355771D02*
X103401905Y-96260533D01*
X103401905Y-96260533D02*
X103401905Y-96165295D01*
X103401905Y-96165295D02*
X103449524Y-96070057D01*
X103449524Y-96070057D02*
X103497143Y-96022438D01*
X103497143Y-96022438D02*
X103592381Y-95974819D01*
X103592381Y-95974819D02*
X103830476Y-95974819D01*
X103830476Y-95974819D02*
X103973333Y-96022438D01*
X104830476Y-96974819D02*
X104830476Y-96451009D01*
X104830476Y-96451009D02*
X104782857Y-96355771D01*
X104782857Y-96355771D02*
X104687619Y-96308152D01*
X104687619Y-96308152D02*
X104497143Y-96308152D01*
X104497143Y-96308152D02*
X104401905Y-96355771D01*
X104830476Y-96927200D02*
X104735238Y-96974819D01*
X104735238Y-96974819D02*
X104497143Y-96974819D01*
X104497143Y-96974819D02*
X104401905Y-96927200D01*
X104401905Y-96927200D02*
X104354286Y-96831961D01*
X104354286Y-96831961D02*
X104354286Y-96736723D01*
X104354286Y-96736723D02*
X104401905Y-96641485D01*
X104401905Y-96641485D02*
X104497143Y-96593866D01*
X104497143Y-96593866D02*
X104735238Y-96593866D01*
X104735238Y-96593866D02*
X104830476Y-96546247D01*
X83510476Y-117294819D02*
X83034286Y-117294819D01*
X83034286Y-117294819D02*
X83034286Y-116294819D01*
X83843810Y-116913866D02*
X84605715Y-116913866D01*
X84224762Y-117294819D02*
X84224762Y-116532914D01*
X83510476Y-122374819D02*
X83034286Y-122374819D01*
X83034286Y-122374819D02*
X83034286Y-121374819D01*
X83843810Y-121993866D02*
X84605715Y-121993866D01*
X108862857Y-113802438D02*
X108767619Y-113754819D01*
X108767619Y-113754819D02*
X108624762Y-113754819D01*
X108624762Y-113754819D02*
X108481905Y-113802438D01*
X108481905Y-113802438D02*
X108386667Y-113897676D01*
X108386667Y-113897676D02*
X108339048Y-113992914D01*
X108339048Y-113992914D02*
X108291429Y-114183390D01*
X108291429Y-114183390D02*
X108291429Y-114326247D01*
X108291429Y-114326247D02*
X108339048Y-114516723D01*
X108339048Y-114516723D02*
X108386667Y-114611961D01*
X108386667Y-114611961D02*
X108481905Y-114707200D01*
X108481905Y-114707200D02*
X108624762Y-114754819D01*
X108624762Y-114754819D02*
X108720000Y-114754819D01*
X108720000Y-114754819D02*
X108862857Y-114707200D01*
X108862857Y-114707200D02*
X108910476Y-114659580D01*
X108910476Y-114659580D02*
X108910476Y-114326247D01*
X108910476Y-114326247D02*
X108720000Y-114326247D01*
X109339048Y-114754819D02*
X109339048Y-113754819D01*
X109339048Y-113754819D02*
X109910476Y-114754819D01*
X109910476Y-114754819D02*
X109910476Y-113754819D01*
X110386667Y-114754819D02*
X110386667Y-113754819D01*
X110386667Y-113754819D02*
X110624762Y-113754819D01*
X110624762Y-113754819D02*
X110767619Y-113802438D01*
X110767619Y-113802438D02*
X110862857Y-113897676D01*
X110862857Y-113897676D02*
X110910476Y-113992914D01*
X110910476Y-113992914D02*
X110958095Y-114183390D01*
X110958095Y-114183390D02*
X110958095Y-114326247D01*
X110958095Y-114326247D02*
X110910476Y-114516723D01*
X110910476Y-114516723D02*
X110862857Y-114611961D01*
X110862857Y-114611961D02*
X110767619Y-114707200D01*
X110767619Y-114707200D02*
X110624762Y-114754819D01*
X110624762Y-114754819D02*
X110386667Y-114754819D01*
X88090476Y-95974819D02*
X87614286Y-95974819D01*
X87614286Y-95974819D02*
X87566667Y-96451009D01*
X87566667Y-96451009D02*
X87614286Y-96403390D01*
X87614286Y-96403390D02*
X87709524Y-96355771D01*
X87709524Y-96355771D02*
X87947619Y-96355771D01*
X87947619Y-96355771D02*
X88042857Y-96403390D01*
X88042857Y-96403390D02*
X88090476Y-96451009D01*
X88090476Y-96451009D02*
X88138095Y-96546247D01*
X88138095Y-96546247D02*
X88138095Y-96784342D01*
X88138095Y-96784342D02*
X88090476Y-96879580D01*
X88090476Y-96879580D02*
X88042857Y-96927200D01*
X88042857Y-96927200D02*
X87947619Y-96974819D01*
X87947619Y-96974819D02*
X87709524Y-96974819D01*
X87709524Y-96974819D02*
X87614286Y-96927200D01*
X87614286Y-96927200D02*
X87566667Y-96879580D01*
X88423810Y-95974819D02*
X88757143Y-96974819D01*
X88757143Y-96974819D02*
X89090476Y-95974819D01*
X89423810Y-96593866D02*
X90185715Y-96593866D01*
X89804762Y-96974819D02*
X89804762Y-96212914D01*
X93218095Y-96022438D02*
X93122857Y-95974819D01*
X93122857Y-95974819D02*
X92980000Y-95974819D01*
X92980000Y-95974819D02*
X92837143Y-96022438D01*
X92837143Y-96022438D02*
X92741905Y-96117676D01*
X92741905Y-96117676D02*
X92694286Y-96212914D01*
X92694286Y-96212914D02*
X92646667Y-96403390D01*
X92646667Y-96403390D02*
X92646667Y-96546247D01*
X92646667Y-96546247D02*
X92694286Y-96736723D01*
X92694286Y-96736723D02*
X92741905Y-96831961D01*
X92741905Y-96831961D02*
X92837143Y-96927200D01*
X92837143Y-96927200D02*
X92980000Y-96974819D01*
X92980000Y-96974819D02*
X93075238Y-96974819D01*
X93075238Y-96974819D02*
X93218095Y-96927200D01*
X93218095Y-96927200D02*
X93265714Y-96879580D01*
X93265714Y-96879580D02*
X93265714Y-96546247D01*
X93265714Y-96546247D02*
X93075238Y-96546247D01*
X93694286Y-96974819D02*
X93694286Y-95974819D01*
X93694286Y-95974819D02*
X94265714Y-96974819D01*
X94265714Y-96974819D02*
X94265714Y-95974819D01*
X94741905Y-96974819D02*
X94741905Y-95974819D01*
X94741905Y-95974819D02*
X94980000Y-95974819D01*
X94980000Y-95974819D02*
X95122857Y-96022438D01*
X95122857Y-96022438D02*
X95218095Y-96117676D01*
X95218095Y-96117676D02*
X95265714Y-96212914D01*
X95265714Y-96212914D02*
X95313333Y-96403390D01*
X95313333Y-96403390D02*
X95313333Y-96546247D01*
X95313333Y-96546247D02*
X95265714Y-96736723D01*
X95265714Y-96736723D02*
X95218095Y-96831961D01*
X95218095Y-96831961D02*
X95122857Y-96927200D01*
X95122857Y-96927200D02*
X94980000Y-96974819D01*
X94980000Y-96974819D02*
X94741905Y-96974819D01*
X108815238Y-127454819D02*
X108339048Y-127454819D01*
X108339048Y-127454819D02*
X108339048Y-126454819D01*
X109720000Y-127454819D02*
X109386667Y-126978628D01*
X109148572Y-127454819D02*
X109148572Y-126454819D01*
X109148572Y-126454819D02*
X109529524Y-126454819D01*
X109529524Y-126454819D02*
X109624762Y-126502438D01*
X109624762Y-126502438D02*
X109672381Y-126550057D01*
X109672381Y-126550057D02*
X109720000Y-126645295D01*
X109720000Y-126645295D02*
X109720000Y-126788152D01*
X109720000Y-126788152D02*
X109672381Y-126883390D01*
X109672381Y-126883390D02*
X109624762Y-126931009D01*
X109624762Y-126931009D02*
X109529524Y-126978628D01*
X109529524Y-126978628D02*
X109148572Y-126978628D01*
X110720000Y-127359580D02*
X110672381Y-127407200D01*
X110672381Y-127407200D02*
X110529524Y-127454819D01*
X110529524Y-127454819D02*
X110434286Y-127454819D01*
X110434286Y-127454819D02*
X110291429Y-127407200D01*
X110291429Y-127407200D02*
X110196191Y-127311961D01*
X110196191Y-127311961D02*
X110148572Y-127216723D01*
X110148572Y-127216723D02*
X110100953Y-127026247D01*
X110100953Y-127026247D02*
X110100953Y-126883390D01*
X110100953Y-126883390D02*
X110148572Y-126692914D01*
X110148572Y-126692914D02*
X110196191Y-126597676D01*
X110196191Y-126597676D02*
X110291429Y-126502438D01*
X110291429Y-126502438D02*
X110434286Y-126454819D01*
X110434286Y-126454819D02*
X110529524Y-126454819D01*
X110529524Y-126454819D02*
X110672381Y-126502438D01*
X110672381Y-126502438D02*
X110720000Y-126550057D01*
X108672381Y-124391009D02*
X108815238Y-124438628D01*
X108815238Y-124438628D02*
X108862857Y-124486247D01*
X108862857Y-124486247D02*
X108910476Y-124581485D01*
X108910476Y-124581485D02*
X108910476Y-124724342D01*
X108910476Y-124724342D02*
X108862857Y-124819580D01*
X108862857Y-124819580D02*
X108815238Y-124867200D01*
X108815238Y-124867200D02*
X108720000Y-124914819D01*
X108720000Y-124914819D02*
X108339048Y-124914819D01*
X108339048Y-124914819D02*
X108339048Y-123914819D01*
X108339048Y-123914819D02*
X108672381Y-123914819D01*
X108672381Y-123914819D02*
X108767619Y-123962438D01*
X108767619Y-123962438D02*
X108815238Y-124010057D01*
X108815238Y-124010057D02*
X108862857Y-124105295D01*
X108862857Y-124105295D02*
X108862857Y-124200533D01*
X108862857Y-124200533D02*
X108815238Y-124295771D01*
X108815238Y-124295771D02*
X108767619Y-124343390D01*
X108767619Y-124343390D02*
X108672381Y-124391009D01*
X108672381Y-124391009D02*
X108339048Y-124391009D01*
X109910476Y-124819580D02*
X109862857Y-124867200D01*
X109862857Y-124867200D02*
X109720000Y-124914819D01*
X109720000Y-124914819D02*
X109624762Y-124914819D01*
X109624762Y-124914819D02*
X109481905Y-124867200D01*
X109481905Y-124867200D02*
X109386667Y-124771961D01*
X109386667Y-124771961D02*
X109339048Y-124676723D01*
X109339048Y-124676723D02*
X109291429Y-124486247D01*
X109291429Y-124486247D02*
X109291429Y-124343390D01*
X109291429Y-124343390D02*
X109339048Y-124152914D01*
X109339048Y-124152914D02*
X109386667Y-124057676D01*
X109386667Y-124057676D02*
X109481905Y-123962438D01*
X109481905Y-123962438D02*
X109624762Y-123914819D01*
X109624762Y-123914819D02*
X109720000Y-123914819D01*
X109720000Y-123914819D02*
X109862857Y-123962438D01*
X109862857Y-123962438D02*
X109910476Y-124010057D01*
X110815238Y-124914819D02*
X110339048Y-124914819D01*
X110339048Y-124914819D02*
X110339048Y-123914819D01*
X111148572Y-124914819D02*
X111148572Y-123914819D01*
X111720000Y-124914819D02*
X111291429Y-124343390D01*
X111720000Y-123914819D02*
X111148572Y-124486247D01*
X108291429Y-117247200D02*
X108434286Y-117294819D01*
X108434286Y-117294819D02*
X108672381Y-117294819D01*
X108672381Y-117294819D02*
X108767619Y-117247200D01*
X108767619Y-117247200D02*
X108815238Y-117199580D01*
X108815238Y-117199580D02*
X108862857Y-117104342D01*
X108862857Y-117104342D02*
X108862857Y-117009104D01*
X108862857Y-117009104D02*
X108815238Y-116913866D01*
X108815238Y-116913866D02*
X108767619Y-116866247D01*
X108767619Y-116866247D02*
X108672381Y-116818628D01*
X108672381Y-116818628D02*
X108481905Y-116771009D01*
X108481905Y-116771009D02*
X108386667Y-116723390D01*
X108386667Y-116723390D02*
X108339048Y-116675771D01*
X108339048Y-116675771D02*
X108291429Y-116580533D01*
X108291429Y-116580533D02*
X108291429Y-116485295D01*
X108291429Y-116485295D02*
X108339048Y-116390057D01*
X108339048Y-116390057D02*
X108386667Y-116342438D01*
X108386667Y-116342438D02*
X108481905Y-116294819D01*
X108481905Y-116294819D02*
X108720000Y-116294819D01*
X108720000Y-116294819D02*
X108862857Y-116342438D01*
X109291429Y-117294819D02*
X109291429Y-116294819D01*
X109291429Y-116294819D02*
X109529524Y-116294819D01*
X109529524Y-116294819D02*
X109672381Y-116342438D01*
X109672381Y-116342438D02*
X109767619Y-116437676D01*
X109767619Y-116437676D02*
X109815238Y-116532914D01*
X109815238Y-116532914D02*
X109862857Y-116723390D01*
X109862857Y-116723390D02*
X109862857Y-116866247D01*
X109862857Y-116866247D02*
X109815238Y-117056723D01*
X109815238Y-117056723D02*
X109767619Y-117151961D01*
X109767619Y-117151961D02*
X109672381Y-117247200D01*
X109672381Y-117247200D02*
X109529524Y-117294819D01*
X109529524Y-117294819D02*
X109291429Y-117294819D01*
X108862857Y-118882438D02*
X108767619Y-118834819D01*
X108767619Y-118834819D02*
X108624762Y-118834819D01*
X108624762Y-118834819D02*
X108481905Y-118882438D01*
X108481905Y-118882438D02*
X108386667Y-118977676D01*
X108386667Y-118977676D02*
X108339048Y-119072914D01*
X108339048Y-119072914D02*
X108291429Y-119263390D01*
X108291429Y-119263390D02*
X108291429Y-119406247D01*
X108291429Y-119406247D02*
X108339048Y-119596723D01*
X108339048Y-119596723D02*
X108386667Y-119691961D01*
X108386667Y-119691961D02*
X108481905Y-119787200D01*
X108481905Y-119787200D02*
X108624762Y-119834819D01*
X108624762Y-119834819D02*
X108720000Y-119834819D01*
X108720000Y-119834819D02*
X108862857Y-119787200D01*
X108862857Y-119787200D02*
X108910476Y-119739580D01*
X108910476Y-119739580D02*
X108910476Y-119406247D01*
X108910476Y-119406247D02*
X108720000Y-119406247D01*
X109291429Y-119549104D02*
X109767619Y-119549104D01*
X109196191Y-119834819D02*
X109529524Y-118834819D01*
X109529524Y-118834819D02*
X109862857Y-119834819D01*
X110196191Y-119834819D02*
X110196191Y-118834819D01*
X110672381Y-119834819D02*
X110672381Y-118834819D01*
X110672381Y-118834819D02*
X111243809Y-119834819D01*
X111243809Y-119834819D02*
X111243809Y-118834819D01*
%TO.C,U2*%
X114909600Y-133026320D02*
X114909600Y-83026320D01*
X121309600Y-133026320D02*
X121309600Y-83026320D01*
X190509600Y-133026320D02*
X190509600Y-83026320D01*
X200909600Y-133026320D02*
X114909600Y-133026320D01*
X193079600Y-102546320D02*
X192129600Y-100976320D01*
X192129600Y-100976320D02*
X192129600Y-92036320D01*
X192129600Y-92036320D02*
X193029600Y-90696320D01*
X114909600Y-83026320D02*
X200909600Y-83026320D01*
X200909600Y-83026320D02*
X200909600Y-133026320D01*
X120030920Y-130026320D02*
G75*
G03*
X120030920Y-130026320I-2121320J0D01*
G01*
X196110920Y-130026320D02*
G75*
G03*
X196110920Y-130026320I-2121320J0D01*
G01*
X120030920Y-86026320D02*
G75*
G03*
X120030920Y-86026320I-2121320J0D01*
G01*
X196110920Y-86026320D02*
G75*
G03*
X196110920Y-86026320I-2121320J0D01*
G01*
D12*
%TO.C,G\u002A\u002A\u002A*%
X86540000Y-142110000D02*
X87865000Y-142585000D01*
X86540000Y-142110000D02*
X89440000Y-141635000D01*
X86540000Y-142110000D02*
X90440000Y-137935000D01*
X87865000Y-142585000D02*
X88690000Y-142235000D01*
X88940000Y-142635000D02*
X89515000Y-141835000D01*
X89215000Y-142260000D02*
X86540000Y-142110000D01*
X89440000Y-141635000D02*
X89215000Y-142260000D01*
X89490000Y-142360000D02*
X88940000Y-142635000D01*
D13*
X89490000Y-142460000D02*
X89490000Y-141760000D01*
X89990000Y-141760000D02*
X89990000Y-142460000D01*
D12*
X90040000Y-141610000D02*
X90365000Y-142010000D01*
X90365000Y-142010000D02*
X89990000Y-142185000D01*
X90440000Y-137935000D02*
X91465000Y-137685000D01*
X90440000Y-137935000D02*
X92190000Y-139260000D01*
D13*
X90690000Y-141760000D02*
X90690000Y-142410000D01*
D12*
X90890000Y-141085000D02*
X97990000Y-136485000D01*
D13*
X91190000Y-141760000D02*
X91190000Y-142460000D01*
D12*
X91465000Y-137685000D02*
X92190000Y-139260000D01*
X91565000Y-137860000D02*
X93140000Y-138760000D01*
D13*
X91590000Y-143360000D02*
X92790000Y-143360000D01*
X91640000Y-140910000D02*
X91590000Y-143360000D01*
X92140000Y-141310000D02*
X92390000Y-141310000D01*
X92140000Y-141360000D02*
X92140000Y-141810000D01*
X92140000Y-141810000D02*
X92440000Y-141810000D01*
X92140000Y-142310000D02*
X92140000Y-142810000D01*
X92140000Y-142810000D02*
X92590000Y-142810000D01*
X92140001Y-142305050D02*
X92540001Y-142305050D01*
D12*
X92190000Y-139260000D02*
X86540000Y-142110000D01*
X92190000Y-139260000D02*
X90715000Y-140985000D01*
D13*
X92540000Y-140923605D02*
X91640000Y-140910000D01*
X93640000Y-143360000D02*
X93740000Y-143360000D01*
X93690000Y-140910000D02*
X93640000Y-143360000D01*
X93740000Y-143360000D02*
X94990000Y-143360000D01*
D12*
X93765000Y-136685000D02*
X91565000Y-137860000D01*
X93765000Y-136685000D02*
X94515000Y-138110000D01*
X94115000Y-140885000D02*
X94890000Y-140285000D01*
D13*
X94140000Y-141410000D02*
X94990000Y-141410000D01*
X94140000Y-141860000D02*
X94140000Y-141410000D01*
X94140000Y-142310000D02*
X94790000Y-142310000D01*
X94140000Y-142860000D02*
X94140000Y-142310000D01*
D12*
X94515000Y-138110000D02*
X92190000Y-139260000D01*
X94515000Y-138110000D02*
X97990000Y-136485000D01*
X94765000Y-140110000D02*
X92940000Y-141010000D01*
D13*
X94790000Y-141860000D02*
X94140000Y-141860000D01*
X94790000Y-142310000D02*
X94790000Y-141860000D01*
D12*
X94890000Y-140285000D02*
X95290000Y-140560000D01*
D13*
X94990000Y-140910000D02*
X93690000Y-140910000D01*
X94990000Y-141410000D02*
X94990000Y-140910000D01*
X94990000Y-142860000D02*
X94140000Y-142860000D01*
X94990000Y-143360000D02*
X94990000Y-142860000D01*
D12*
X95290000Y-140560000D02*
X94315000Y-140910000D01*
D13*
X95440000Y-140910000D02*
X95440000Y-143360000D01*
X95440000Y-143360000D02*
X95890000Y-143360000D01*
X95890000Y-142410000D02*
X96040000Y-142410000D01*
X95890000Y-143360000D02*
X95890000Y-142410000D01*
X95940000Y-141360000D02*
X95940000Y-141910000D01*
X95940000Y-141910000D02*
X96440000Y-141910000D01*
X96040000Y-142410000D02*
X96790000Y-143360000D01*
X96390000Y-141360000D02*
X95940000Y-141360000D01*
D12*
X96440000Y-140335000D02*
X94765000Y-140110000D01*
D13*
X96548731Y-140904594D02*
X95440000Y-140910000D01*
X96790000Y-143360000D02*
X97190000Y-143360000D01*
D12*
X96890000Y-138110000D02*
X97465000Y-139610000D01*
D13*
X97190000Y-143360000D02*
X97290000Y-143360000D01*
X97290000Y-143360000D02*
X96590000Y-142410000D01*
X97465000Y-143360000D02*
X97490000Y-140910000D01*
X97490000Y-140910000D02*
X97940000Y-140910000D01*
X97940000Y-140910000D02*
X97965000Y-142910000D01*
X97965000Y-142910000D02*
X98715000Y-142910000D01*
D12*
X97990000Y-136485000D02*
X98065000Y-139210000D01*
X98015000Y-136885000D02*
X96890000Y-138110000D01*
X98065000Y-139210000D02*
X96440000Y-140335000D01*
X98215000Y-139660000D02*
X99215000Y-138985000D01*
D13*
X98715000Y-142910000D02*
X98715000Y-143360000D01*
X98715000Y-143360000D02*
X97465000Y-143360000D01*
D12*
X99215000Y-138985000D02*
X99915000Y-139560000D01*
X99340000Y-137510000D02*
X101490000Y-138635000D01*
D13*
X99390000Y-143385000D02*
X98890000Y-143385000D01*
X99390000Y-143385000D02*
X99640000Y-142785000D01*
X99640000Y-142785000D02*
X100240000Y-142785000D01*
X99665000Y-142385000D02*
X100165000Y-142385000D01*
X99790000Y-140935000D02*
X98890000Y-143385000D01*
D12*
X99915000Y-139560000D02*
X98240000Y-139660000D01*
D13*
X99940000Y-141635000D02*
X99665000Y-142385000D01*
X100115000Y-140935000D02*
X99790000Y-140935000D01*
X100165000Y-142385000D02*
X99940000Y-141635000D01*
X100240000Y-142785000D02*
X100490000Y-143385000D01*
X100490000Y-143385000D02*
X100890000Y-143385000D01*
X100890000Y-143385000D02*
X100115000Y-140935000D01*
D12*
X101140000Y-137460000D02*
X99340000Y-137510000D01*
D13*
X101165000Y-143385000D02*
X102365000Y-143385000D01*
X101215000Y-140935000D02*
X101165000Y-143385000D01*
D12*
X101490000Y-138635000D02*
X101140000Y-137460000D01*
D13*
X101715000Y-141335000D02*
X101965000Y-141335000D01*
X101715000Y-141385000D02*
X101715000Y-141835000D01*
X101715000Y-141835000D02*
X102015000Y-141835000D01*
X101715000Y-142335000D02*
X101715000Y-142835000D01*
X101715000Y-142835000D02*
X102165000Y-142835000D01*
X101715001Y-142330050D02*
X102115001Y-142330050D01*
X102115000Y-140948605D02*
X101215000Y-140935000D01*
D12*
X102440000Y-139510000D02*
X103440000Y-139360000D01*
X102865000Y-139835000D02*
X102440000Y-139510000D01*
X103440000Y-139360000D02*
X102865000Y-139835000D01*
D13*
X91190000Y-141760000D02*
G75*
G03*
X89490000Y-141760000I-850000J0D01*
G01*
X90690000Y-141760000D02*
G75*
G03*
X89990000Y-141760000I-350000J0D01*
G01*
X89990000Y-142460000D02*
G75*
G03*
X90690000Y-142460000I350000J0D01*
G01*
X89490000Y-142460000D02*
G75*
G03*
X91190000Y-142460000I850000J0D01*
G01*
X92440000Y-141810000D02*
G75*
G03*
X92379366Y-141317464I0J250000D01*
G01*
X92989999Y-142009999D02*
G75*
G03*
X92540000Y-140923605I-449999J449999D01*
G01*
X92589999Y-142809999D02*
G75*
G03*
X92540001Y-142305050I-49999J249999D01*
G01*
X92789999Y-143359998D02*
G75*
G03*
X92966256Y-142051064I-249998J699998D01*
G01*
X96439999Y-141909998D02*
G75*
G03*
X96439999Y-141360002I-124999J274998D01*
G01*
X96564999Y-142359998D02*
G75*
G03*
X96548731Y-140904595I-249999J724998D01*
G01*
X102015000Y-141835000D02*
G75*
G03*
X101954366Y-141342464I0J250000D01*
G01*
X102564999Y-142034999D02*
G75*
G03*
X102115000Y-140948605I-449999J449999D01*
G01*
X102164999Y-142834999D02*
G75*
G03*
X102115001Y-142330050I-49999J249999D01*
G01*
X102364999Y-143384999D02*
G75*
G03*
X102541256Y-142076063I-249999J699999D01*
G01*
%TD*%
M02*
