%TF.GenerationSoftware,KiCad,Pcbnew,7.0.8*%
%TF.CreationDate,2024-07-13T09:20:10+02:00*%
%TF.ProjectId,ESP32_TFT2-8,45535033-325f-4544-9654-322d382e6b69,rev?*%
%TF.SameCoordinates,Original*%
%TF.FileFunction,Legend,Bot*%
%TF.FilePolarity,Positive*%
%FSLAX46Y46*%
G04 Gerber Fmt 4.6, Leading zero omitted, Abs format (unit mm)*
G04 Created by KiCad (PCBNEW 7.0.8) date 2024-07-13 09:20:10*
%MOMM*%
%LPD*%
G01*
G04 APERTURE LIST*
%ADD10C,0.150000*%
%ADD11C,0.010000*%
%ADD12C,0.120000*%
G04 APERTURE END LIST*
D10*
X133254819Y-106488095D02*
X134064342Y-106488095D01*
X134064342Y-106488095D02*
X134159580Y-106535714D01*
X134159580Y-106535714D02*
X134207200Y-106583333D01*
X134207200Y-106583333D02*
X134254819Y-106678571D01*
X134254819Y-106678571D02*
X134254819Y-106869047D01*
X134254819Y-106869047D02*
X134207200Y-106964285D01*
X134207200Y-106964285D02*
X134159580Y-107011904D01*
X134159580Y-107011904D02*
X134064342Y-107059523D01*
X134064342Y-107059523D02*
X133254819Y-107059523D01*
X134254819Y-108059523D02*
X134254819Y-107488095D01*
X134254819Y-107773809D02*
X133254819Y-107773809D01*
X133254819Y-107773809D02*
X133397676Y-107678571D01*
X133397676Y-107678571D02*
X133492914Y-107583333D01*
X133492914Y-107583333D02*
X133540533Y-107488095D01*
X165625237Y-107181009D02*
X165291904Y-107181009D01*
X165149047Y-107704819D02*
X165625237Y-107704819D01*
X165625237Y-107704819D02*
X165625237Y-106704819D01*
X165625237Y-106704819D02*
X165149047Y-106704819D01*
X164768094Y-107657200D02*
X164625237Y-107704819D01*
X164625237Y-107704819D02*
X164387142Y-107704819D01*
X164387142Y-107704819D02*
X164291904Y-107657200D01*
X164291904Y-107657200D02*
X164244285Y-107609580D01*
X164244285Y-107609580D02*
X164196666Y-107514342D01*
X164196666Y-107514342D02*
X164196666Y-107419104D01*
X164196666Y-107419104D02*
X164244285Y-107323866D01*
X164244285Y-107323866D02*
X164291904Y-107276247D01*
X164291904Y-107276247D02*
X164387142Y-107228628D01*
X164387142Y-107228628D02*
X164577618Y-107181009D01*
X164577618Y-107181009D02*
X164672856Y-107133390D01*
X164672856Y-107133390D02*
X164720475Y-107085771D01*
X164720475Y-107085771D02*
X164768094Y-106990533D01*
X164768094Y-106990533D02*
X164768094Y-106895295D01*
X164768094Y-106895295D02*
X164720475Y-106800057D01*
X164720475Y-106800057D02*
X164672856Y-106752438D01*
X164672856Y-106752438D02*
X164577618Y-106704819D01*
X164577618Y-106704819D02*
X164339523Y-106704819D01*
X164339523Y-106704819D02*
X164196666Y-106752438D01*
X163768094Y-107704819D02*
X163768094Y-106704819D01*
X163768094Y-106704819D02*
X163387142Y-106704819D01*
X163387142Y-106704819D02*
X163291904Y-106752438D01*
X163291904Y-106752438D02*
X163244285Y-106800057D01*
X163244285Y-106800057D02*
X163196666Y-106895295D01*
X163196666Y-106895295D02*
X163196666Y-107038152D01*
X163196666Y-107038152D02*
X163244285Y-107133390D01*
X163244285Y-107133390D02*
X163291904Y-107181009D01*
X163291904Y-107181009D02*
X163387142Y-107228628D01*
X163387142Y-107228628D02*
X163768094Y-107228628D01*
X162863332Y-106704819D02*
X162244285Y-106704819D01*
X162244285Y-106704819D02*
X162577618Y-107085771D01*
X162577618Y-107085771D02*
X162434761Y-107085771D01*
X162434761Y-107085771D02*
X162339523Y-107133390D01*
X162339523Y-107133390D02*
X162291904Y-107181009D01*
X162291904Y-107181009D02*
X162244285Y-107276247D01*
X162244285Y-107276247D02*
X162244285Y-107514342D01*
X162244285Y-107514342D02*
X162291904Y-107609580D01*
X162291904Y-107609580D02*
X162339523Y-107657200D01*
X162339523Y-107657200D02*
X162434761Y-107704819D01*
X162434761Y-107704819D02*
X162720475Y-107704819D01*
X162720475Y-107704819D02*
X162815713Y-107657200D01*
X162815713Y-107657200D02*
X162863332Y-107609580D01*
X161863332Y-106800057D02*
X161815713Y-106752438D01*
X161815713Y-106752438D02*
X161720475Y-106704819D01*
X161720475Y-106704819D02*
X161482380Y-106704819D01*
X161482380Y-106704819D02*
X161387142Y-106752438D01*
X161387142Y-106752438D02*
X161339523Y-106800057D01*
X161339523Y-106800057D02*
X161291904Y-106895295D01*
X161291904Y-106895295D02*
X161291904Y-106990533D01*
X161291904Y-106990533D02*
X161339523Y-107133390D01*
X161339523Y-107133390D02*
X161910951Y-107704819D01*
X161910951Y-107704819D02*
X161291904Y-107704819D01*
X160863332Y-107323866D02*
X160101428Y-107323866D01*
X159625237Y-107704819D02*
X159625237Y-106704819D01*
X159625237Y-106704819D02*
X159387142Y-106704819D01*
X159387142Y-106704819D02*
X159244285Y-106752438D01*
X159244285Y-106752438D02*
X159149047Y-106847676D01*
X159149047Y-106847676D02*
X159101428Y-106942914D01*
X159101428Y-106942914D02*
X159053809Y-107133390D01*
X159053809Y-107133390D02*
X159053809Y-107276247D01*
X159053809Y-107276247D02*
X159101428Y-107466723D01*
X159101428Y-107466723D02*
X159149047Y-107561961D01*
X159149047Y-107561961D02*
X159244285Y-107657200D01*
X159244285Y-107657200D02*
X159387142Y-107704819D01*
X159387142Y-107704819D02*
X159625237Y-107704819D01*
X158244285Y-107657200D02*
X158339523Y-107704819D01*
X158339523Y-107704819D02*
X158529999Y-107704819D01*
X158529999Y-107704819D02*
X158625237Y-107657200D01*
X158625237Y-107657200D02*
X158672856Y-107561961D01*
X158672856Y-107561961D02*
X158672856Y-107181009D01*
X158672856Y-107181009D02*
X158625237Y-107085771D01*
X158625237Y-107085771D02*
X158529999Y-107038152D01*
X158529999Y-107038152D02*
X158339523Y-107038152D01*
X158339523Y-107038152D02*
X158244285Y-107085771D01*
X158244285Y-107085771D02*
X158196666Y-107181009D01*
X158196666Y-107181009D02*
X158196666Y-107276247D01*
X158196666Y-107276247D02*
X158672856Y-107371485D01*
X157863332Y-107038152D02*
X157625237Y-107704819D01*
X157625237Y-107704819D02*
X157387142Y-107038152D01*
X157006189Y-107704819D02*
X157006189Y-106704819D01*
X156434761Y-107704819D02*
X156863332Y-107133390D01*
X156434761Y-106704819D02*
X157006189Y-107276247D01*
X156006189Y-107704819D02*
X156006189Y-107038152D01*
X156006189Y-106704819D02*
X156053808Y-106752438D01*
X156053808Y-106752438D02*
X156006189Y-106800057D01*
X156006189Y-106800057D02*
X155958570Y-106752438D01*
X155958570Y-106752438D02*
X156006189Y-106704819D01*
X156006189Y-106704819D02*
X156006189Y-106800057D01*
X155672856Y-107038152D02*
X155291904Y-107038152D01*
X155529999Y-106704819D02*
X155529999Y-107561961D01*
X155529999Y-107561961D02*
X155482380Y-107657200D01*
X155482380Y-107657200D02*
X155387142Y-107704819D01*
X155387142Y-107704819D02*
X155291904Y-107704819D01*
X154387142Y-107609580D02*
X154434761Y-107657200D01*
X154434761Y-107657200D02*
X154577618Y-107704819D01*
X154577618Y-107704819D02*
X154672856Y-107704819D01*
X154672856Y-107704819D02*
X154815713Y-107657200D01*
X154815713Y-107657200D02*
X154910951Y-107561961D01*
X154910951Y-107561961D02*
X154958570Y-107466723D01*
X154958570Y-107466723D02*
X155006189Y-107276247D01*
X155006189Y-107276247D02*
X155006189Y-107133390D01*
X155006189Y-107133390D02*
X154958570Y-106942914D01*
X154958570Y-106942914D02*
X154910951Y-106847676D01*
X154910951Y-106847676D02*
X154815713Y-106752438D01*
X154815713Y-106752438D02*
X154672856Y-106704819D01*
X154672856Y-106704819D02*
X154577618Y-106704819D01*
X154577618Y-106704819D02*
X154434761Y-106752438D01*
X154434761Y-106752438D02*
X154387142Y-106800057D01*
X181326099Y-96629289D02*
X181326099Y-96153099D01*
X181326099Y-96153099D02*
X181802289Y-96105480D01*
X181802289Y-96105480D02*
X181754670Y-96153099D01*
X181754670Y-96153099D02*
X181707051Y-96248337D01*
X181707051Y-96248337D02*
X181707051Y-96486432D01*
X181707051Y-96486432D02*
X181754670Y-96581670D01*
X181754670Y-96581670D02*
X181802289Y-96629289D01*
X181802289Y-96629289D02*
X181897527Y-96676908D01*
X181897527Y-96676908D02*
X182135622Y-96676908D01*
X182135622Y-96676908D02*
X182230860Y-96629289D01*
X182230860Y-96629289D02*
X182278480Y-96581670D01*
X182278480Y-96581670D02*
X182326099Y-96486432D01*
X182326099Y-96486432D02*
X182326099Y-96248337D01*
X182326099Y-96248337D02*
X182278480Y-96153099D01*
X182278480Y-96153099D02*
X182230860Y-96105480D01*
X181326099Y-96962623D02*
X182326099Y-97295956D01*
X182326099Y-97295956D02*
X181326099Y-97629289D01*
X145709366Y-111781316D02*
X145676033Y-111714649D01*
X145676033Y-111714649D02*
X145676033Y-111614649D01*
X145676033Y-111614649D02*
X145709366Y-111514649D01*
X145709366Y-111514649D02*
X145776033Y-111447983D01*
X145776033Y-111447983D02*
X145842700Y-111414649D01*
X145842700Y-111414649D02*
X145976033Y-111381316D01*
X145976033Y-111381316D02*
X146076033Y-111381316D01*
X146076033Y-111381316D02*
X146209366Y-111414649D01*
X146209366Y-111414649D02*
X146276033Y-111447983D01*
X146276033Y-111447983D02*
X146342700Y-111514649D01*
X146342700Y-111514649D02*
X146376033Y-111614649D01*
X146376033Y-111614649D02*
X146376033Y-111681316D01*
X146376033Y-111681316D02*
X146342700Y-111781316D01*
X146342700Y-111781316D02*
X146309366Y-111814649D01*
X146309366Y-111814649D02*
X146076033Y-111814649D01*
X146076033Y-111814649D02*
X146076033Y-111681316D01*
X146376033Y-112114649D02*
X145676033Y-112114649D01*
X145676033Y-112114649D02*
X145676033Y-112381316D01*
X145676033Y-112381316D02*
X145709366Y-112447983D01*
X145709366Y-112447983D02*
X145742700Y-112481316D01*
X145742700Y-112481316D02*
X145809366Y-112514649D01*
X145809366Y-112514649D02*
X145909366Y-112514649D01*
X145909366Y-112514649D02*
X145976033Y-112481316D01*
X145976033Y-112481316D02*
X146009366Y-112447983D01*
X146009366Y-112447983D02*
X146042700Y-112381316D01*
X146042700Y-112381316D02*
X146042700Y-112114649D01*
X146376033Y-112814649D02*
X145676033Y-112814649D01*
X145676033Y-113281316D02*
X145676033Y-113414649D01*
X145676033Y-113414649D02*
X145709366Y-113481316D01*
X145709366Y-113481316D02*
X145776033Y-113547982D01*
X145776033Y-113547982D02*
X145909366Y-113581316D01*
X145909366Y-113581316D02*
X146142700Y-113581316D01*
X146142700Y-113581316D02*
X146276033Y-113547982D01*
X146276033Y-113547982D02*
X146342700Y-113481316D01*
X146342700Y-113481316D02*
X146376033Y-113414649D01*
X146376033Y-113414649D02*
X146376033Y-113281316D01*
X146376033Y-113281316D02*
X146342700Y-113214649D01*
X146342700Y-113214649D02*
X146276033Y-113147982D01*
X146276033Y-113147982D02*
X146142700Y-113114649D01*
X146142700Y-113114649D02*
X145909366Y-113114649D01*
X145909366Y-113114649D02*
X145776033Y-113147982D01*
X145776033Y-113147982D02*
X145709366Y-113214649D01*
X145709366Y-113214649D02*
X145676033Y-113281316D01*
X145676033Y-113814649D02*
X145676033Y-114247982D01*
X145676033Y-114247982D02*
X145942700Y-114014649D01*
X145942700Y-114014649D02*
X145942700Y-114114649D01*
X145942700Y-114114649D02*
X145976033Y-114181315D01*
X145976033Y-114181315D02*
X146009366Y-114214649D01*
X146009366Y-114214649D02*
X146076033Y-114247982D01*
X146076033Y-114247982D02*
X146242700Y-114247982D01*
X146242700Y-114247982D02*
X146309366Y-114214649D01*
X146309366Y-114214649D02*
X146342700Y-114181315D01*
X146342700Y-114181315D02*
X146376033Y-114114649D01*
X146376033Y-114114649D02*
X146376033Y-113914649D01*
X146376033Y-113914649D02*
X146342700Y-113847982D01*
X146342700Y-113847982D02*
X146309366Y-113814649D01*
X145642700Y-115047982D02*
X146542700Y-114447982D01*
X145676033Y-115281315D02*
X146242700Y-115281315D01*
X146242700Y-115281315D02*
X146309366Y-115314649D01*
X146309366Y-115314649D02*
X146342700Y-115347982D01*
X146342700Y-115347982D02*
X146376033Y-115414649D01*
X146376033Y-115414649D02*
X146376033Y-115547982D01*
X146376033Y-115547982D02*
X146342700Y-115614649D01*
X146342700Y-115614649D02*
X146309366Y-115647982D01*
X146309366Y-115647982D02*
X146242700Y-115681315D01*
X146242700Y-115681315D02*
X145676033Y-115681315D01*
X145676033Y-116147982D02*
X145676033Y-116214648D01*
X145676033Y-116214648D02*
X145709366Y-116281315D01*
X145709366Y-116281315D02*
X145742700Y-116314648D01*
X145742700Y-116314648D02*
X145809366Y-116347982D01*
X145809366Y-116347982D02*
X145942700Y-116381315D01*
X145942700Y-116381315D02*
X146109366Y-116381315D01*
X146109366Y-116381315D02*
X146242700Y-116347982D01*
X146242700Y-116347982D02*
X146309366Y-116314648D01*
X146309366Y-116314648D02*
X146342700Y-116281315D01*
X146342700Y-116281315D02*
X146376033Y-116214648D01*
X146376033Y-116214648D02*
X146376033Y-116147982D01*
X146376033Y-116147982D02*
X146342700Y-116081315D01*
X146342700Y-116081315D02*
X146309366Y-116047982D01*
X146309366Y-116047982D02*
X146242700Y-116014648D01*
X146242700Y-116014648D02*
X146109366Y-115981315D01*
X146109366Y-115981315D02*
X145942700Y-115981315D01*
X145942700Y-115981315D02*
X145809366Y-116014648D01*
X145809366Y-116014648D02*
X145742700Y-116047982D01*
X145742700Y-116047982D02*
X145709366Y-116081315D01*
X145709366Y-116081315D02*
X145676033Y-116147982D01*
X146376033Y-117081315D02*
X146042700Y-116847982D01*
X146376033Y-116681315D02*
X145676033Y-116681315D01*
X145676033Y-116681315D02*
X145676033Y-116947982D01*
X145676033Y-116947982D02*
X145709366Y-117014649D01*
X145709366Y-117014649D02*
X145742700Y-117047982D01*
X145742700Y-117047982D02*
X145809366Y-117081315D01*
X145809366Y-117081315D02*
X145909366Y-117081315D01*
X145909366Y-117081315D02*
X145976033Y-117047982D01*
X145976033Y-117047982D02*
X146009366Y-117014649D01*
X146009366Y-117014649D02*
X146042700Y-116947982D01*
X146042700Y-116947982D02*
X146042700Y-116681315D01*
X145676033Y-117314649D02*
X146376033Y-117781315D01*
X145676033Y-117781315D02*
X146376033Y-117314649D01*
X146376033Y-118047982D02*
X145676033Y-118047982D01*
X145676033Y-118047982D02*
X145676033Y-118214649D01*
X145676033Y-118214649D02*
X145709366Y-118314649D01*
X145709366Y-118314649D02*
X145776033Y-118381316D01*
X145776033Y-118381316D02*
X145842700Y-118414649D01*
X145842700Y-118414649D02*
X145976033Y-118447982D01*
X145976033Y-118447982D02*
X146076033Y-118447982D01*
X146076033Y-118447982D02*
X146209366Y-118414649D01*
X146209366Y-118414649D02*
X146276033Y-118381316D01*
X146276033Y-118381316D02*
X146342700Y-118314649D01*
X146342700Y-118314649D02*
X146376033Y-118214649D01*
X146376033Y-118214649D02*
X146376033Y-118047982D01*
X171109366Y-115981316D02*
X171076033Y-115914649D01*
X171076033Y-115914649D02*
X171076033Y-115814649D01*
X171076033Y-115814649D02*
X171109366Y-115714649D01*
X171109366Y-115714649D02*
X171176033Y-115647983D01*
X171176033Y-115647983D02*
X171242700Y-115614649D01*
X171242700Y-115614649D02*
X171376033Y-115581316D01*
X171376033Y-115581316D02*
X171476033Y-115581316D01*
X171476033Y-115581316D02*
X171609366Y-115614649D01*
X171609366Y-115614649D02*
X171676033Y-115647983D01*
X171676033Y-115647983D02*
X171742700Y-115714649D01*
X171742700Y-115714649D02*
X171776033Y-115814649D01*
X171776033Y-115814649D02*
X171776033Y-115881316D01*
X171776033Y-115881316D02*
X171742700Y-115981316D01*
X171742700Y-115981316D02*
X171709366Y-116014649D01*
X171709366Y-116014649D02*
X171476033Y-116014649D01*
X171476033Y-116014649D02*
X171476033Y-115881316D01*
X171776033Y-116314649D02*
X171076033Y-116314649D01*
X171076033Y-116314649D02*
X171076033Y-116581316D01*
X171076033Y-116581316D02*
X171109366Y-116647983D01*
X171109366Y-116647983D02*
X171142700Y-116681316D01*
X171142700Y-116681316D02*
X171209366Y-116714649D01*
X171209366Y-116714649D02*
X171309366Y-116714649D01*
X171309366Y-116714649D02*
X171376033Y-116681316D01*
X171376033Y-116681316D02*
X171409366Y-116647983D01*
X171409366Y-116647983D02*
X171442700Y-116581316D01*
X171442700Y-116581316D02*
X171442700Y-116314649D01*
X171776033Y-117014649D02*
X171076033Y-117014649D01*
X171076033Y-117481316D02*
X171076033Y-117614649D01*
X171076033Y-117614649D02*
X171109366Y-117681316D01*
X171109366Y-117681316D02*
X171176033Y-117747982D01*
X171176033Y-117747982D02*
X171309366Y-117781316D01*
X171309366Y-117781316D02*
X171542700Y-117781316D01*
X171542700Y-117781316D02*
X171676033Y-117747982D01*
X171676033Y-117747982D02*
X171742700Y-117681316D01*
X171742700Y-117681316D02*
X171776033Y-117614649D01*
X171776033Y-117614649D02*
X171776033Y-117481316D01*
X171776033Y-117481316D02*
X171742700Y-117414649D01*
X171742700Y-117414649D02*
X171676033Y-117347982D01*
X171676033Y-117347982D02*
X171542700Y-117314649D01*
X171542700Y-117314649D02*
X171309366Y-117314649D01*
X171309366Y-117314649D02*
X171176033Y-117347982D01*
X171176033Y-117347982D02*
X171109366Y-117414649D01*
X171109366Y-117414649D02*
X171076033Y-117481316D01*
X171142700Y-118047982D02*
X171109366Y-118081315D01*
X171109366Y-118081315D02*
X171076033Y-118147982D01*
X171076033Y-118147982D02*
X171076033Y-118314649D01*
X171076033Y-118314649D02*
X171109366Y-118381315D01*
X171109366Y-118381315D02*
X171142700Y-118414649D01*
X171142700Y-118414649D02*
X171209366Y-118447982D01*
X171209366Y-118447982D02*
X171276033Y-118447982D01*
X171276033Y-118447982D02*
X171376033Y-118414649D01*
X171376033Y-118414649D02*
X171776033Y-118014649D01*
X171776033Y-118014649D02*
X171776033Y-118447982D01*
X176856033Y-96085350D02*
X176156033Y-96085350D01*
X176156033Y-96085350D02*
X176156033Y-96252017D01*
X176156033Y-96252017D02*
X176189366Y-96352017D01*
X176189366Y-96352017D02*
X176256033Y-96418684D01*
X176256033Y-96418684D02*
X176322700Y-96452017D01*
X176322700Y-96452017D02*
X176456033Y-96485350D01*
X176456033Y-96485350D02*
X176556033Y-96485350D01*
X176556033Y-96485350D02*
X176689366Y-96452017D01*
X176689366Y-96452017D02*
X176756033Y-96418684D01*
X176756033Y-96418684D02*
X176822700Y-96352017D01*
X176822700Y-96352017D02*
X176856033Y-96252017D01*
X176856033Y-96252017D02*
X176856033Y-96085350D01*
X176156033Y-96718684D02*
X176156033Y-97152017D01*
X176156033Y-97152017D02*
X176422700Y-96918684D01*
X176422700Y-96918684D02*
X176422700Y-97018684D01*
X176422700Y-97018684D02*
X176456033Y-97085350D01*
X176456033Y-97085350D02*
X176489366Y-97118684D01*
X176489366Y-97118684D02*
X176556033Y-97152017D01*
X176556033Y-97152017D02*
X176722700Y-97152017D01*
X176722700Y-97152017D02*
X176789366Y-97118684D01*
X176789366Y-97118684D02*
X176822700Y-97085350D01*
X176822700Y-97085350D02*
X176856033Y-97018684D01*
X176856033Y-97018684D02*
X176856033Y-96818684D01*
X176856033Y-96818684D02*
X176822700Y-96752017D01*
X176822700Y-96752017D02*
X176789366Y-96718684D01*
X143136033Y-95985350D02*
X143836033Y-96218684D01*
X143836033Y-96218684D02*
X143136033Y-96452017D01*
X143836033Y-96685350D02*
X143136033Y-96685350D01*
X143136033Y-96685350D02*
X143836033Y-97085350D01*
X143836033Y-97085350D02*
X143136033Y-97085350D01*
X143102700Y-97918683D02*
X144002700Y-97318683D01*
X143169366Y-98518683D02*
X143136033Y-98452016D01*
X143136033Y-98452016D02*
X143136033Y-98352016D01*
X143136033Y-98352016D02*
X143169366Y-98252016D01*
X143169366Y-98252016D02*
X143236033Y-98185350D01*
X143236033Y-98185350D02*
X143302700Y-98152016D01*
X143302700Y-98152016D02*
X143436033Y-98118683D01*
X143436033Y-98118683D02*
X143536033Y-98118683D01*
X143536033Y-98118683D02*
X143669366Y-98152016D01*
X143669366Y-98152016D02*
X143736033Y-98185350D01*
X143736033Y-98185350D02*
X143802700Y-98252016D01*
X143802700Y-98252016D02*
X143836033Y-98352016D01*
X143836033Y-98352016D02*
X143836033Y-98418683D01*
X143836033Y-98418683D02*
X143802700Y-98518683D01*
X143802700Y-98518683D02*
X143769366Y-98552016D01*
X143769366Y-98552016D02*
X143536033Y-98552016D01*
X143536033Y-98552016D02*
X143536033Y-98418683D01*
X143836033Y-98852016D02*
X143136033Y-98852016D01*
X143136033Y-98852016D02*
X143136033Y-99118683D01*
X143136033Y-99118683D02*
X143169366Y-99185350D01*
X143169366Y-99185350D02*
X143202700Y-99218683D01*
X143202700Y-99218683D02*
X143269366Y-99252016D01*
X143269366Y-99252016D02*
X143369366Y-99252016D01*
X143369366Y-99252016D02*
X143436033Y-99218683D01*
X143436033Y-99218683D02*
X143469366Y-99185350D01*
X143469366Y-99185350D02*
X143502700Y-99118683D01*
X143502700Y-99118683D02*
X143502700Y-98852016D01*
X143836033Y-99552016D02*
X143136033Y-99552016D01*
X143136033Y-100018683D02*
X143136033Y-100152016D01*
X143136033Y-100152016D02*
X143169366Y-100218683D01*
X143169366Y-100218683D02*
X143236033Y-100285349D01*
X143236033Y-100285349D02*
X143369366Y-100318683D01*
X143369366Y-100318683D02*
X143602700Y-100318683D01*
X143602700Y-100318683D02*
X143736033Y-100285349D01*
X143736033Y-100285349D02*
X143802700Y-100218683D01*
X143802700Y-100218683D02*
X143836033Y-100152016D01*
X143836033Y-100152016D02*
X143836033Y-100018683D01*
X143836033Y-100018683D02*
X143802700Y-99952016D01*
X143802700Y-99952016D02*
X143736033Y-99885349D01*
X143736033Y-99885349D02*
X143602700Y-99852016D01*
X143602700Y-99852016D02*
X143369366Y-99852016D01*
X143369366Y-99852016D02*
X143236033Y-99885349D01*
X143236033Y-99885349D02*
X143169366Y-99952016D01*
X143169366Y-99952016D02*
X143136033Y-100018683D01*
X143136033Y-100552016D02*
X143136033Y-100985349D01*
X143136033Y-100985349D02*
X143402700Y-100752016D01*
X143402700Y-100752016D02*
X143402700Y-100852016D01*
X143402700Y-100852016D02*
X143436033Y-100918682D01*
X143436033Y-100918682D02*
X143469366Y-100952016D01*
X143469366Y-100952016D02*
X143536033Y-100985349D01*
X143536033Y-100985349D02*
X143702700Y-100985349D01*
X143702700Y-100985349D02*
X143769366Y-100952016D01*
X143769366Y-100952016D02*
X143802700Y-100918682D01*
X143802700Y-100918682D02*
X143836033Y-100852016D01*
X143836033Y-100852016D02*
X143836033Y-100652016D01*
X143836033Y-100652016D02*
X143802700Y-100585349D01*
X143802700Y-100585349D02*
X143769366Y-100552016D01*
X143836033Y-101318683D02*
X143836033Y-101452016D01*
X143836033Y-101452016D02*
X143802700Y-101518683D01*
X143802700Y-101518683D02*
X143769366Y-101552016D01*
X143769366Y-101552016D02*
X143669366Y-101618683D01*
X143669366Y-101618683D02*
X143536033Y-101652016D01*
X143536033Y-101652016D02*
X143269366Y-101652016D01*
X143269366Y-101652016D02*
X143202700Y-101618683D01*
X143202700Y-101618683D02*
X143169366Y-101585349D01*
X143169366Y-101585349D02*
X143136033Y-101518683D01*
X143136033Y-101518683D02*
X143136033Y-101385349D01*
X143136033Y-101385349D02*
X143169366Y-101318683D01*
X143169366Y-101318683D02*
X143202700Y-101285349D01*
X143202700Y-101285349D02*
X143269366Y-101252016D01*
X143269366Y-101252016D02*
X143436033Y-101252016D01*
X143436033Y-101252016D02*
X143502700Y-101285349D01*
X143502700Y-101285349D02*
X143536033Y-101318683D01*
X143536033Y-101318683D02*
X143569366Y-101385349D01*
X143569366Y-101385349D02*
X143569366Y-101518683D01*
X143569366Y-101518683D02*
X143536033Y-101585349D01*
X143536033Y-101585349D02*
X143502700Y-101618683D01*
X143502700Y-101618683D02*
X143436033Y-101652016D01*
X135354819Y-96061541D02*
X135354819Y-96680588D01*
X135354819Y-96680588D02*
X135735771Y-96347255D01*
X135735771Y-96347255D02*
X135735771Y-96490112D01*
X135735771Y-96490112D02*
X135783390Y-96585350D01*
X135783390Y-96585350D02*
X135831009Y-96632969D01*
X135831009Y-96632969D02*
X135926247Y-96680588D01*
X135926247Y-96680588D02*
X136164342Y-96680588D01*
X136164342Y-96680588D02*
X136259580Y-96632969D01*
X136259580Y-96632969D02*
X136307200Y-96585350D01*
X136307200Y-96585350D02*
X136354819Y-96490112D01*
X136354819Y-96490112D02*
X136354819Y-96204398D01*
X136354819Y-96204398D02*
X136307200Y-96109160D01*
X136307200Y-96109160D02*
X136259580Y-96061541D01*
X135354819Y-96966303D02*
X136354819Y-97299636D01*
X136354819Y-97299636D02*
X135354819Y-97632969D01*
X135354819Y-97871065D02*
X135354819Y-98490112D01*
X135354819Y-98490112D02*
X135735771Y-98156779D01*
X135735771Y-98156779D02*
X135735771Y-98299636D01*
X135735771Y-98299636D02*
X135783390Y-98394874D01*
X135783390Y-98394874D02*
X135831009Y-98442493D01*
X135831009Y-98442493D02*
X135926247Y-98490112D01*
X135926247Y-98490112D02*
X136164342Y-98490112D01*
X136164342Y-98490112D02*
X136259580Y-98442493D01*
X136259580Y-98442493D02*
X136307200Y-98394874D01*
X136307200Y-98394874D02*
X136354819Y-98299636D01*
X136354819Y-98299636D02*
X136354819Y-98013922D01*
X136354819Y-98013922D02*
X136307200Y-97918684D01*
X136307200Y-97918684D02*
X136259580Y-97871065D01*
X143169366Y-111947983D02*
X143136033Y-111881316D01*
X143136033Y-111881316D02*
X143136033Y-111781316D01*
X143136033Y-111781316D02*
X143169366Y-111681316D01*
X143169366Y-111681316D02*
X143236033Y-111614650D01*
X143236033Y-111614650D02*
X143302700Y-111581316D01*
X143302700Y-111581316D02*
X143436033Y-111547983D01*
X143436033Y-111547983D02*
X143536033Y-111547983D01*
X143536033Y-111547983D02*
X143669366Y-111581316D01*
X143669366Y-111581316D02*
X143736033Y-111614650D01*
X143736033Y-111614650D02*
X143802700Y-111681316D01*
X143802700Y-111681316D02*
X143836033Y-111781316D01*
X143836033Y-111781316D02*
X143836033Y-111847983D01*
X143836033Y-111847983D02*
X143802700Y-111947983D01*
X143802700Y-111947983D02*
X143769366Y-111981316D01*
X143769366Y-111981316D02*
X143536033Y-111981316D01*
X143536033Y-111981316D02*
X143536033Y-111847983D01*
X143836033Y-112281316D02*
X143136033Y-112281316D01*
X143136033Y-112281316D02*
X143136033Y-112547983D01*
X143136033Y-112547983D02*
X143169366Y-112614650D01*
X143169366Y-112614650D02*
X143202700Y-112647983D01*
X143202700Y-112647983D02*
X143269366Y-112681316D01*
X143269366Y-112681316D02*
X143369366Y-112681316D01*
X143369366Y-112681316D02*
X143436033Y-112647983D01*
X143436033Y-112647983D02*
X143469366Y-112614650D01*
X143469366Y-112614650D02*
X143502700Y-112547983D01*
X143502700Y-112547983D02*
X143502700Y-112281316D01*
X143836033Y-112981316D02*
X143136033Y-112981316D01*
X143136033Y-113447983D02*
X143136033Y-113581316D01*
X143136033Y-113581316D02*
X143169366Y-113647983D01*
X143169366Y-113647983D02*
X143236033Y-113714649D01*
X143236033Y-113714649D02*
X143369366Y-113747983D01*
X143369366Y-113747983D02*
X143602700Y-113747983D01*
X143602700Y-113747983D02*
X143736033Y-113714649D01*
X143736033Y-113714649D02*
X143802700Y-113647983D01*
X143802700Y-113647983D02*
X143836033Y-113581316D01*
X143836033Y-113581316D02*
X143836033Y-113447983D01*
X143836033Y-113447983D02*
X143802700Y-113381316D01*
X143802700Y-113381316D02*
X143736033Y-113314649D01*
X143736033Y-113314649D02*
X143602700Y-113281316D01*
X143602700Y-113281316D02*
X143369366Y-113281316D01*
X143369366Y-113281316D02*
X143236033Y-113314649D01*
X143236033Y-113314649D02*
X143169366Y-113381316D01*
X143169366Y-113381316D02*
X143136033Y-113447983D01*
X143836033Y-114414649D02*
X143836033Y-114014649D01*
X143836033Y-114214649D02*
X143136033Y-114214649D01*
X143136033Y-114214649D02*
X143236033Y-114147982D01*
X143236033Y-114147982D02*
X143302700Y-114081316D01*
X143302700Y-114081316D02*
X143336033Y-114014649D01*
X143102700Y-115214649D02*
X144002700Y-114614649D01*
X143136033Y-115447982D02*
X143702700Y-115447982D01*
X143702700Y-115447982D02*
X143769366Y-115481316D01*
X143769366Y-115481316D02*
X143802700Y-115514649D01*
X143802700Y-115514649D02*
X143836033Y-115581316D01*
X143836033Y-115581316D02*
X143836033Y-115714649D01*
X143836033Y-115714649D02*
X143802700Y-115781316D01*
X143802700Y-115781316D02*
X143769366Y-115814649D01*
X143769366Y-115814649D02*
X143702700Y-115847982D01*
X143702700Y-115847982D02*
X143136033Y-115847982D01*
X143136033Y-116314649D02*
X143136033Y-116381315D01*
X143136033Y-116381315D02*
X143169366Y-116447982D01*
X143169366Y-116447982D02*
X143202700Y-116481315D01*
X143202700Y-116481315D02*
X143269366Y-116514649D01*
X143269366Y-116514649D02*
X143402700Y-116547982D01*
X143402700Y-116547982D02*
X143569366Y-116547982D01*
X143569366Y-116547982D02*
X143702700Y-116514649D01*
X143702700Y-116514649D02*
X143769366Y-116481315D01*
X143769366Y-116481315D02*
X143802700Y-116447982D01*
X143802700Y-116447982D02*
X143836033Y-116381315D01*
X143836033Y-116381315D02*
X143836033Y-116314649D01*
X143836033Y-116314649D02*
X143802700Y-116247982D01*
X143802700Y-116247982D02*
X143769366Y-116214649D01*
X143769366Y-116214649D02*
X143702700Y-116181315D01*
X143702700Y-116181315D02*
X143569366Y-116147982D01*
X143569366Y-116147982D02*
X143402700Y-116147982D01*
X143402700Y-116147982D02*
X143269366Y-116181315D01*
X143269366Y-116181315D02*
X143202700Y-116214649D01*
X143202700Y-116214649D02*
X143169366Y-116247982D01*
X143169366Y-116247982D02*
X143136033Y-116314649D01*
X143136033Y-116747982D02*
X143136033Y-117147982D01*
X143836033Y-116947982D02*
X143136033Y-116947982D01*
X143136033Y-117314649D02*
X143836033Y-117781315D01*
X143136033Y-117781315D02*
X143836033Y-117314649D01*
X143836033Y-118047982D02*
X143136033Y-118047982D01*
X143136033Y-118047982D02*
X143136033Y-118214649D01*
X143136033Y-118214649D02*
X143169366Y-118314649D01*
X143169366Y-118314649D02*
X143236033Y-118381316D01*
X143236033Y-118381316D02*
X143302700Y-118414649D01*
X143302700Y-118414649D02*
X143436033Y-118447982D01*
X143436033Y-118447982D02*
X143536033Y-118447982D01*
X143536033Y-118447982D02*
X143669366Y-118414649D01*
X143669366Y-118414649D02*
X143736033Y-118381316D01*
X143736033Y-118381316D02*
X143802700Y-118314649D01*
X143802700Y-118314649D02*
X143836033Y-118214649D01*
X143836033Y-118214649D02*
X143836033Y-118047982D01*
X135402438Y-116295601D02*
X135354819Y-116200363D01*
X135354819Y-116200363D02*
X135354819Y-116057506D01*
X135354819Y-116057506D02*
X135402438Y-115914649D01*
X135402438Y-115914649D02*
X135497676Y-115819411D01*
X135497676Y-115819411D02*
X135592914Y-115771792D01*
X135592914Y-115771792D02*
X135783390Y-115724173D01*
X135783390Y-115724173D02*
X135926247Y-115724173D01*
X135926247Y-115724173D02*
X136116723Y-115771792D01*
X136116723Y-115771792D02*
X136211961Y-115819411D01*
X136211961Y-115819411D02*
X136307200Y-115914649D01*
X136307200Y-115914649D02*
X136354819Y-116057506D01*
X136354819Y-116057506D02*
X136354819Y-116152744D01*
X136354819Y-116152744D02*
X136307200Y-116295601D01*
X136307200Y-116295601D02*
X136259580Y-116343220D01*
X136259580Y-116343220D02*
X135926247Y-116343220D01*
X135926247Y-116343220D02*
X135926247Y-116152744D01*
X136354819Y-116771792D02*
X135354819Y-116771792D01*
X135354819Y-116771792D02*
X136354819Y-117343220D01*
X136354819Y-117343220D02*
X135354819Y-117343220D01*
X136354819Y-117819411D02*
X135354819Y-117819411D01*
X135354819Y-117819411D02*
X135354819Y-118057506D01*
X135354819Y-118057506D02*
X135402438Y-118200363D01*
X135402438Y-118200363D02*
X135497676Y-118295601D01*
X135497676Y-118295601D02*
X135592914Y-118343220D01*
X135592914Y-118343220D02*
X135783390Y-118390839D01*
X135783390Y-118390839D02*
X135926247Y-118390839D01*
X135926247Y-118390839D02*
X136116723Y-118343220D01*
X136116723Y-118343220D02*
X136211961Y-118295601D01*
X136211961Y-118295601D02*
X136307200Y-118200363D01*
X136307200Y-118200363D02*
X136354819Y-118057506D01*
X136354819Y-118057506D02*
X136354819Y-117819411D01*
X138368289Y-96051921D02*
X138368289Y-96385254D01*
X138892099Y-96528111D02*
X138892099Y-96051921D01*
X138892099Y-96051921D02*
X137892099Y-96051921D01*
X137892099Y-96051921D02*
X137892099Y-96528111D01*
X138892099Y-96956683D02*
X137892099Y-96956683D01*
X137892099Y-96956683D02*
X138892099Y-97528111D01*
X138892099Y-97528111D02*
X137892099Y-97528111D01*
X137844480Y-98718587D02*
X139130194Y-97861445D01*
X138892099Y-99623349D02*
X138415908Y-99290016D01*
X138892099Y-99051921D02*
X137892099Y-99051921D01*
X137892099Y-99051921D02*
X137892099Y-99432873D01*
X137892099Y-99432873D02*
X137939718Y-99528111D01*
X137939718Y-99528111D02*
X137987337Y-99575730D01*
X137987337Y-99575730D02*
X138082575Y-99623349D01*
X138082575Y-99623349D02*
X138225432Y-99623349D01*
X138225432Y-99623349D02*
X138320670Y-99575730D01*
X138320670Y-99575730D02*
X138368289Y-99528111D01*
X138368289Y-99528111D02*
X138415908Y-99432873D01*
X138415908Y-99432873D02*
X138415908Y-99051921D01*
X138368289Y-100051921D02*
X138368289Y-100385254D01*
X138892099Y-100528111D02*
X138892099Y-100051921D01*
X138892099Y-100051921D02*
X137892099Y-100051921D01*
X137892099Y-100051921D02*
X137892099Y-100528111D01*
X138844480Y-100909064D02*
X138892099Y-101051921D01*
X138892099Y-101051921D02*
X138892099Y-101290016D01*
X138892099Y-101290016D02*
X138844480Y-101385254D01*
X138844480Y-101385254D02*
X138796860Y-101432873D01*
X138796860Y-101432873D02*
X138701622Y-101480492D01*
X138701622Y-101480492D02*
X138606384Y-101480492D01*
X138606384Y-101480492D02*
X138511146Y-101432873D01*
X138511146Y-101432873D02*
X138463527Y-101385254D01*
X138463527Y-101385254D02*
X138415908Y-101290016D01*
X138415908Y-101290016D02*
X138368289Y-101099540D01*
X138368289Y-101099540D02*
X138320670Y-101004302D01*
X138320670Y-101004302D02*
X138273051Y-100956683D01*
X138273051Y-100956683D02*
X138177813Y-100909064D01*
X138177813Y-100909064D02*
X138082575Y-100909064D01*
X138082575Y-100909064D02*
X137987337Y-100956683D01*
X137987337Y-100956683D02*
X137939718Y-101004302D01*
X137939718Y-101004302D02*
X137892099Y-101099540D01*
X137892099Y-101099540D02*
X137892099Y-101337635D01*
X137892099Y-101337635D02*
X137939718Y-101480492D01*
X138368289Y-101909064D02*
X138368289Y-102242397D01*
X138892099Y-102385254D02*
X138892099Y-101909064D01*
X138892099Y-101909064D02*
X137892099Y-101909064D01*
X137892099Y-101909064D02*
X137892099Y-102385254D01*
X137892099Y-102670969D02*
X137892099Y-103242397D01*
X138892099Y-102956683D02*
X137892099Y-102956683D01*
X173649366Y-111814650D02*
X173616033Y-111747983D01*
X173616033Y-111747983D02*
X173616033Y-111647983D01*
X173616033Y-111647983D02*
X173649366Y-111547983D01*
X173649366Y-111547983D02*
X173716033Y-111481317D01*
X173716033Y-111481317D02*
X173782700Y-111447983D01*
X173782700Y-111447983D02*
X173916033Y-111414650D01*
X173916033Y-111414650D02*
X174016033Y-111414650D01*
X174016033Y-111414650D02*
X174149366Y-111447983D01*
X174149366Y-111447983D02*
X174216033Y-111481317D01*
X174216033Y-111481317D02*
X174282700Y-111547983D01*
X174282700Y-111547983D02*
X174316033Y-111647983D01*
X174316033Y-111647983D02*
X174316033Y-111714650D01*
X174316033Y-111714650D02*
X174282700Y-111814650D01*
X174282700Y-111814650D02*
X174249366Y-111847983D01*
X174249366Y-111847983D02*
X174016033Y-111847983D01*
X174016033Y-111847983D02*
X174016033Y-111714650D01*
X174316033Y-112147983D02*
X173616033Y-112147983D01*
X173616033Y-112147983D02*
X173616033Y-112414650D01*
X173616033Y-112414650D02*
X173649366Y-112481317D01*
X173649366Y-112481317D02*
X173682700Y-112514650D01*
X173682700Y-112514650D02*
X173749366Y-112547983D01*
X173749366Y-112547983D02*
X173849366Y-112547983D01*
X173849366Y-112547983D02*
X173916033Y-112514650D01*
X173916033Y-112514650D02*
X173949366Y-112481317D01*
X173949366Y-112481317D02*
X173982700Y-112414650D01*
X173982700Y-112414650D02*
X173982700Y-112147983D01*
X174316033Y-112847983D02*
X173616033Y-112847983D01*
X173616033Y-113314650D02*
X173616033Y-113447983D01*
X173616033Y-113447983D02*
X173649366Y-113514650D01*
X173649366Y-113514650D02*
X173716033Y-113581316D01*
X173716033Y-113581316D02*
X173849366Y-113614650D01*
X173849366Y-113614650D02*
X174082700Y-113614650D01*
X174082700Y-113614650D02*
X174216033Y-113581316D01*
X174216033Y-113581316D02*
X174282700Y-113514650D01*
X174282700Y-113514650D02*
X174316033Y-113447983D01*
X174316033Y-113447983D02*
X174316033Y-113314650D01*
X174316033Y-113314650D02*
X174282700Y-113247983D01*
X174282700Y-113247983D02*
X174216033Y-113181316D01*
X174216033Y-113181316D02*
X174082700Y-113147983D01*
X174082700Y-113147983D02*
X173849366Y-113147983D01*
X173849366Y-113147983D02*
X173716033Y-113181316D01*
X173716033Y-113181316D02*
X173649366Y-113247983D01*
X173649366Y-113247983D02*
X173616033Y-113314650D01*
X174316033Y-114281316D02*
X174316033Y-113881316D01*
X174316033Y-114081316D02*
X173616033Y-114081316D01*
X173616033Y-114081316D02*
X173716033Y-114014649D01*
X173716033Y-114014649D02*
X173782700Y-113947983D01*
X173782700Y-113947983D02*
X173816033Y-113881316D01*
X173616033Y-114914650D02*
X173616033Y-114581316D01*
X173616033Y-114581316D02*
X173949366Y-114547983D01*
X173949366Y-114547983D02*
X173916033Y-114581316D01*
X173916033Y-114581316D02*
X173882700Y-114647983D01*
X173882700Y-114647983D02*
X173882700Y-114814650D01*
X173882700Y-114814650D02*
X173916033Y-114881316D01*
X173916033Y-114881316D02*
X173949366Y-114914650D01*
X173949366Y-114914650D02*
X174016033Y-114947983D01*
X174016033Y-114947983D02*
X174182700Y-114947983D01*
X174182700Y-114947983D02*
X174249366Y-114914650D01*
X174249366Y-114914650D02*
X174282700Y-114881316D01*
X174282700Y-114881316D02*
X174316033Y-114814650D01*
X174316033Y-114814650D02*
X174316033Y-114647983D01*
X174316033Y-114647983D02*
X174282700Y-114581316D01*
X174282700Y-114581316D02*
X174249366Y-114547983D01*
X173582700Y-115747983D02*
X174482700Y-115147983D01*
X174316033Y-115981316D02*
X173616033Y-115981316D01*
X173616033Y-115981316D02*
X174116033Y-116214650D01*
X174116033Y-116214650D02*
X173616033Y-116447983D01*
X173616033Y-116447983D02*
X174316033Y-116447983D01*
X173616033Y-116681316D02*
X173616033Y-117081316D01*
X174316033Y-116881316D02*
X173616033Y-116881316D01*
X174316033Y-117314649D02*
X173616033Y-117314649D01*
X173616033Y-117314649D02*
X173616033Y-117481316D01*
X173616033Y-117481316D02*
X173649366Y-117581316D01*
X173649366Y-117581316D02*
X173716033Y-117647983D01*
X173716033Y-117647983D02*
X173782700Y-117681316D01*
X173782700Y-117681316D02*
X173916033Y-117714649D01*
X173916033Y-117714649D02*
X174016033Y-117714649D01*
X174016033Y-117714649D02*
X174149366Y-117681316D01*
X174149366Y-117681316D02*
X174216033Y-117647983D01*
X174216033Y-117647983D02*
X174282700Y-117581316D01*
X174282700Y-117581316D02*
X174316033Y-117481316D01*
X174316033Y-117481316D02*
X174316033Y-117314649D01*
X173616033Y-118147983D02*
X173616033Y-118281316D01*
X173616033Y-118281316D02*
X173649366Y-118347983D01*
X173649366Y-118347983D02*
X173716033Y-118414649D01*
X173716033Y-118414649D02*
X173849366Y-118447983D01*
X173849366Y-118447983D02*
X174082700Y-118447983D01*
X174082700Y-118447983D02*
X174216033Y-118414649D01*
X174216033Y-118414649D02*
X174282700Y-118347983D01*
X174282700Y-118347983D02*
X174316033Y-118281316D01*
X174316033Y-118281316D02*
X174316033Y-118147983D01*
X174316033Y-118147983D02*
X174282700Y-118081316D01*
X174282700Y-118081316D02*
X174216033Y-118014649D01*
X174216033Y-118014649D02*
X174082700Y-117981316D01*
X174082700Y-117981316D02*
X173849366Y-117981316D01*
X173849366Y-117981316D02*
X173716033Y-118014649D01*
X173716033Y-118014649D02*
X173649366Y-118081316D01*
X173649366Y-118081316D02*
X173616033Y-118147983D01*
X168569366Y-115981316D02*
X168536033Y-115914649D01*
X168536033Y-115914649D02*
X168536033Y-115814649D01*
X168536033Y-115814649D02*
X168569366Y-115714649D01*
X168569366Y-115714649D02*
X168636033Y-115647983D01*
X168636033Y-115647983D02*
X168702700Y-115614649D01*
X168702700Y-115614649D02*
X168836033Y-115581316D01*
X168836033Y-115581316D02*
X168936033Y-115581316D01*
X168936033Y-115581316D02*
X169069366Y-115614649D01*
X169069366Y-115614649D02*
X169136033Y-115647983D01*
X169136033Y-115647983D02*
X169202700Y-115714649D01*
X169202700Y-115714649D02*
X169236033Y-115814649D01*
X169236033Y-115814649D02*
X169236033Y-115881316D01*
X169236033Y-115881316D02*
X169202700Y-115981316D01*
X169202700Y-115981316D02*
X169169366Y-116014649D01*
X169169366Y-116014649D02*
X168936033Y-116014649D01*
X168936033Y-116014649D02*
X168936033Y-115881316D01*
X169236033Y-116314649D02*
X168536033Y-116314649D01*
X168536033Y-116314649D02*
X168536033Y-116581316D01*
X168536033Y-116581316D02*
X168569366Y-116647983D01*
X168569366Y-116647983D02*
X168602700Y-116681316D01*
X168602700Y-116681316D02*
X168669366Y-116714649D01*
X168669366Y-116714649D02*
X168769366Y-116714649D01*
X168769366Y-116714649D02*
X168836033Y-116681316D01*
X168836033Y-116681316D02*
X168869366Y-116647983D01*
X168869366Y-116647983D02*
X168902700Y-116581316D01*
X168902700Y-116581316D02*
X168902700Y-116314649D01*
X169236033Y-117014649D02*
X168536033Y-117014649D01*
X168536033Y-117481316D02*
X168536033Y-117614649D01*
X168536033Y-117614649D02*
X168569366Y-117681316D01*
X168569366Y-117681316D02*
X168636033Y-117747982D01*
X168636033Y-117747982D02*
X168769366Y-117781316D01*
X168769366Y-117781316D02*
X169002700Y-117781316D01*
X169002700Y-117781316D02*
X169136033Y-117747982D01*
X169136033Y-117747982D02*
X169202700Y-117681316D01*
X169202700Y-117681316D02*
X169236033Y-117614649D01*
X169236033Y-117614649D02*
X169236033Y-117481316D01*
X169236033Y-117481316D02*
X169202700Y-117414649D01*
X169202700Y-117414649D02*
X169136033Y-117347982D01*
X169136033Y-117347982D02*
X169002700Y-117314649D01*
X169002700Y-117314649D02*
X168769366Y-117314649D01*
X168769366Y-117314649D02*
X168636033Y-117347982D01*
X168636033Y-117347982D02*
X168569366Y-117414649D01*
X168569366Y-117414649D02*
X168536033Y-117481316D01*
X168536033Y-118214649D02*
X168536033Y-118281315D01*
X168536033Y-118281315D02*
X168569366Y-118347982D01*
X168569366Y-118347982D02*
X168602700Y-118381315D01*
X168602700Y-118381315D02*
X168669366Y-118414649D01*
X168669366Y-118414649D02*
X168802700Y-118447982D01*
X168802700Y-118447982D02*
X168969366Y-118447982D01*
X168969366Y-118447982D02*
X169102700Y-118414649D01*
X169102700Y-118414649D02*
X169169366Y-118381315D01*
X169169366Y-118381315D02*
X169202700Y-118347982D01*
X169202700Y-118347982D02*
X169236033Y-118281315D01*
X169236033Y-118281315D02*
X169236033Y-118214649D01*
X169236033Y-118214649D02*
X169202700Y-118147982D01*
X169202700Y-118147982D02*
X169169366Y-118114649D01*
X169169366Y-118114649D02*
X169102700Y-118081315D01*
X169102700Y-118081315D02*
X168969366Y-118047982D01*
X168969366Y-118047982D02*
X168802700Y-118047982D01*
X168802700Y-118047982D02*
X168669366Y-118081315D01*
X168669366Y-118081315D02*
X168602700Y-118114649D01*
X168602700Y-118114649D02*
X168569366Y-118147982D01*
X168569366Y-118147982D02*
X168536033Y-118214649D01*
X171109366Y-96452017D02*
X171076033Y-96385350D01*
X171076033Y-96385350D02*
X171076033Y-96285350D01*
X171076033Y-96285350D02*
X171109366Y-96185350D01*
X171109366Y-96185350D02*
X171176033Y-96118684D01*
X171176033Y-96118684D02*
X171242700Y-96085350D01*
X171242700Y-96085350D02*
X171376033Y-96052017D01*
X171376033Y-96052017D02*
X171476033Y-96052017D01*
X171476033Y-96052017D02*
X171609366Y-96085350D01*
X171609366Y-96085350D02*
X171676033Y-96118684D01*
X171676033Y-96118684D02*
X171742700Y-96185350D01*
X171742700Y-96185350D02*
X171776033Y-96285350D01*
X171776033Y-96285350D02*
X171776033Y-96352017D01*
X171776033Y-96352017D02*
X171742700Y-96452017D01*
X171742700Y-96452017D02*
X171709366Y-96485350D01*
X171709366Y-96485350D02*
X171476033Y-96485350D01*
X171476033Y-96485350D02*
X171476033Y-96352017D01*
X171776033Y-96785350D02*
X171076033Y-96785350D01*
X171076033Y-96785350D02*
X171076033Y-97052017D01*
X171076033Y-97052017D02*
X171109366Y-97118684D01*
X171109366Y-97118684D02*
X171142700Y-97152017D01*
X171142700Y-97152017D02*
X171209366Y-97185350D01*
X171209366Y-97185350D02*
X171309366Y-97185350D01*
X171309366Y-97185350D02*
X171376033Y-97152017D01*
X171376033Y-97152017D02*
X171409366Y-97118684D01*
X171409366Y-97118684D02*
X171442700Y-97052017D01*
X171442700Y-97052017D02*
X171442700Y-96785350D01*
X171776033Y-97485350D02*
X171076033Y-97485350D01*
X171076033Y-97952017D02*
X171076033Y-98085350D01*
X171076033Y-98085350D02*
X171109366Y-98152017D01*
X171109366Y-98152017D02*
X171176033Y-98218683D01*
X171176033Y-98218683D02*
X171309366Y-98252017D01*
X171309366Y-98252017D02*
X171542700Y-98252017D01*
X171542700Y-98252017D02*
X171676033Y-98218683D01*
X171676033Y-98218683D02*
X171742700Y-98152017D01*
X171742700Y-98152017D02*
X171776033Y-98085350D01*
X171776033Y-98085350D02*
X171776033Y-97952017D01*
X171776033Y-97952017D02*
X171742700Y-97885350D01*
X171742700Y-97885350D02*
X171676033Y-97818683D01*
X171676033Y-97818683D02*
X171542700Y-97785350D01*
X171542700Y-97785350D02*
X171309366Y-97785350D01*
X171309366Y-97785350D02*
X171176033Y-97818683D01*
X171176033Y-97818683D02*
X171109366Y-97885350D01*
X171109366Y-97885350D02*
X171076033Y-97952017D01*
X171776033Y-98918683D02*
X171776033Y-98518683D01*
X171776033Y-98718683D02*
X171076033Y-98718683D01*
X171076033Y-98718683D02*
X171176033Y-98652016D01*
X171176033Y-98652016D02*
X171242700Y-98585350D01*
X171242700Y-98585350D02*
X171276033Y-98518683D01*
X171076033Y-99152017D02*
X171076033Y-99585350D01*
X171076033Y-99585350D02*
X171342700Y-99352017D01*
X171342700Y-99352017D02*
X171342700Y-99452017D01*
X171342700Y-99452017D02*
X171376033Y-99518683D01*
X171376033Y-99518683D02*
X171409366Y-99552017D01*
X171409366Y-99552017D02*
X171476033Y-99585350D01*
X171476033Y-99585350D02*
X171642700Y-99585350D01*
X171642700Y-99585350D02*
X171709366Y-99552017D01*
X171709366Y-99552017D02*
X171742700Y-99518683D01*
X171742700Y-99518683D02*
X171776033Y-99452017D01*
X171776033Y-99452017D02*
X171776033Y-99252017D01*
X171776033Y-99252017D02*
X171742700Y-99185350D01*
X171742700Y-99185350D02*
X171709366Y-99152017D01*
X171042700Y-100385350D02*
X171942700Y-99785350D01*
X171776033Y-100618683D02*
X171076033Y-100618683D01*
X171076033Y-100618683D02*
X171576033Y-100852017D01*
X171576033Y-100852017D02*
X171076033Y-101085350D01*
X171076033Y-101085350D02*
X171776033Y-101085350D01*
X171076033Y-101318683D02*
X171076033Y-101718683D01*
X171776033Y-101518683D02*
X171076033Y-101518683D01*
X171709366Y-102352016D02*
X171742700Y-102318683D01*
X171742700Y-102318683D02*
X171776033Y-102218683D01*
X171776033Y-102218683D02*
X171776033Y-102152016D01*
X171776033Y-102152016D02*
X171742700Y-102052016D01*
X171742700Y-102052016D02*
X171676033Y-101985350D01*
X171676033Y-101985350D02*
X171609366Y-101952016D01*
X171609366Y-101952016D02*
X171476033Y-101918683D01*
X171476033Y-101918683D02*
X171376033Y-101918683D01*
X171376033Y-101918683D02*
X171242700Y-101952016D01*
X171242700Y-101952016D02*
X171176033Y-101985350D01*
X171176033Y-101985350D02*
X171109366Y-102052016D01*
X171109366Y-102052016D02*
X171076033Y-102152016D01*
X171076033Y-102152016D02*
X171076033Y-102218683D01*
X171076033Y-102218683D02*
X171109366Y-102318683D01*
X171109366Y-102318683D02*
X171142700Y-102352016D01*
X171776033Y-102652016D02*
X171076033Y-102652016D01*
X171776033Y-103052016D02*
X171376033Y-102752016D01*
X171076033Y-103052016D02*
X171476033Y-102652016D01*
X163489366Y-96452017D02*
X163456033Y-96385350D01*
X163456033Y-96385350D02*
X163456033Y-96285350D01*
X163456033Y-96285350D02*
X163489366Y-96185350D01*
X163489366Y-96185350D02*
X163556033Y-96118684D01*
X163556033Y-96118684D02*
X163622700Y-96085350D01*
X163622700Y-96085350D02*
X163756033Y-96052017D01*
X163756033Y-96052017D02*
X163856033Y-96052017D01*
X163856033Y-96052017D02*
X163989366Y-96085350D01*
X163989366Y-96085350D02*
X164056033Y-96118684D01*
X164056033Y-96118684D02*
X164122700Y-96185350D01*
X164122700Y-96185350D02*
X164156033Y-96285350D01*
X164156033Y-96285350D02*
X164156033Y-96352017D01*
X164156033Y-96352017D02*
X164122700Y-96452017D01*
X164122700Y-96452017D02*
X164089366Y-96485350D01*
X164089366Y-96485350D02*
X163856033Y-96485350D01*
X163856033Y-96485350D02*
X163856033Y-96352017D01*
X164156033Y-96785350D02*
X163456033Y-96785350D01*
X163456033Y-96785350D02*
X163456033Y-97052017D01*
X163456033Y-97052017D02*
X163489366Y-97118684D01*
X163489366Y-97118684D02*
X163522700Y-97152017D01*
X163522700Y-97152017D02*
X163589366Y-97185350D01*
X163589366Y-97185350D02*
X163689366Y-97185350D01*
X163689366Y-97185350D02*
X163756033Y-97152017D01*
X163756033Y-97152017D02*
X163789366Y-97118684D01*
X163789366Y-97118684D02*
X163822700Y-97052017D01*
X163822700Y-97052017D02*
X163822700Y-96785350D01*
X164156033Y-97485350D02*
X163456033Y-97485350D01*
X163456033Y-97952017D02*
X163456033Y-98085350D01*
X163456033Y-98085350D02*
X163489366Y-98152017D01*
X163489366Y-98152017D02*
X163556033Y-98218683D01*
X163556033Y-98218683D02*
X163689366Y-98252017D01*
X163689366Y-98252017D02*
X163922700Y-98252017D01*
X163922700Y-98252017D02*
X164056033Y-98218683D01*
X164056033Y-98218683D02*
X164122700Y-98152017D01*
X164122700Y-98152017D02*
X164156033Y-98085350D01*
X164156033Y-98085350D02*
X164156033Y-97952017D01*
X164156033Y-97952017D02*
X164122700Y-97885350D01*
X164122700Y-97885350D02*
X164056033Y-97818683D01*
X164056033Y-97818683D02*
X163922700Y-97785350D01*
X163922700Y-97785350D02*
X163689366Y-97785350D01*
X163689366Y-97785350D02*
X163556033Y-97818683D01*
X163556033Y-97818683D02*
X163489366Y-97885350D01*
X163489366Y-97885350D02*
X163456033Y-97952017D01*
X164156033Y-98918683D02*
X164156033Y-98518683D01*
X164156033Y-98718683D02*
X163456033Y-98718683D01*
X163456033Y-98718683D02*
X163556033Y-98652016D01*
X163556033Y-98652016D02*
X163622700Y-98585350D01*
X163622700Y-98585350D02*
X163656033Y-98518683D01*
X163689366Y-99518683D02*
X164156033Y-99518683D01*
X163422700Y-99352017D02*
X163922700Y-99185350D01*
X163922700Y-99185350D02*
X163922700Y-99618683D01*
X163422700Y-100385350D02*
X164322700Y-99785350D01*
X164156033Y-100618683D02*
X163456033Y-100618683D01*
X163456033Y-100618683D02*
X163956033Y-100852017D01*
X163956033Y-100852017D02*
X163456033Y-101085350D01*
X163456033Y-101085350D02*
X164156033Y-101085350D01*
X163456033Y-101318683D02*
X163456033Y-101718683D01*
X164156033Y-101518683D02*
X163456033Y-101518683D01*
X164156033Y-101952016D02*
X163456033Y-101952016D01*
X163456033Y-101952016D02*
X163956033Y-102185350D01*
X163956033Y-102185350D02*
X163456033Y-102418683D01*
X163456033Y-102418683D02*
X164156033Y-102418683D01*
X164122700Y-102718683D02*
X164156033Y-102818683D01*
X164156033Y-102818683D02*
X164156033Y-102985350D01*
X164156033Y-102985350D02*
X164122700Y-103052016D01*
X164122700Y-103052016D02*
X164089366Y-103085350D01*
X164089366Y-103085350D02*
X164022700Y-103118683D01*
X164022700Y-103118683D02*
X163956033Y-103118683D01*
X163956033Y-103118683D02*
X163889366Y-103085350D01*
X163889366Y-103085350D02*
X163856033Y-103052016D01*
X163856033Y-103052016D02*
X163822700Y-102985350D01*
X163822700Y-102985350D02*
X163789366Y-102852016D01*
X163789366Y-102852016D02*
X163756033Y-102785350D01*
X163756033Y-102785350D02*
X163722700Y-102752016D01*
X163722700Y-102752016D02*
X163656033Y-102718683D01*
X163656033Y-102718683D02*
X163589366Y-102718683D01*
X163589366Y-102718683D02*
X163522700Y-102752016D01*
X163522700Y-102752016D02*
X163489366Y-102785350D01*
X163489366Y-102785350D02*
X163456033Y-102852016D01*
X163456033Y-102852016D02*
X163456033Y-103018683D01*
X163456033Y-103018683D02*
X163489366Y-103118683D01*
X150789366Y-96452017D02*
X150756033Y-96385350D01*
X150756033Y-96385350D02*
X150756033Y-96285350D01*
X150756033Y-96285350D02*
X150789366Y-96185350D01*
X150789366Y-96185350D02*
X150856033Y-96118684D01*
X150856033Y-96118684D02*
X150922700Y-96085350D01*
X150922700Y-96085350D02*
X151056033Y-96052017D01*
X151056033Y-96052017D02*
X151156033Y-96052017D01*
X151156033Y-96052017D02*
X151289366Y-96085350D01*
X151289366Y-96085350D02*
X151356033Y-96118684D01*
X151356033Y-96118684D02*
X151422700Y-96185350D01*
X151422700Y-96185350D02*
X151456033Y-96285350D01*
X151456033Y-96285350D02*
X151456033Y-96352017D01*
X151456033Y-96352017D02*
X151422700Y-96452017D01*
X151422700Y-96452017D02*
X151389366Y-96485350D01*
X151389366Y-96485350D02*
X151156033Y-96485350D01*
X151156033Y-96485350D02*
X151156033Y-96352017D01*
X151456033Y-96785350D02*
X150756033Y-96785350D01*
X150756033Y-96785350D02*
X150756033Y-97052017D01*
X150756033Y-97052017D02*
X150789366Y-97118684D01*
X150789366Y-97118684D02*
X150822700Y-97152017D01*
X150822700Y-97152017D02*
X150889366Y-97185350D01*
X150889366Y-97185350D02*
X150989366Y-97185350D01*
X150989366Y-97185350D02*
X151056033Y-97152017D01*
X151056033Y-97152017D02*
X151089366Y-97118684D01*
X151089366Y-97118684D02*
X151122700Y-97052017D01*
X151122700Y-97052017D02*
X151122700Y-96785350D01*
X151456033Y-97485350D02*
X150756033Y-97485350D01*
X150756033Y-97952017D02*
X150756033Y-98085350D01*
X150756033Y-98085350D02*
X150789366Y-98152017D01*
X150789366Y-98152017D02*
X150856033Y-98218683D01*
X150856033Y-98218683D02*
X150989366Y-98252017D01*
X150989366Y-98252017D02*
X151222700Y-98252017D01*
X151222700Y-98252017D02*
X151356033Y-98218683D01*
X151356033Y-98218683D02*
X151422700Y-98152017D01*
X151422700Y-98152017D02*
X151456033Y-98085350D01*
X151456033Y-98085350D02*
X151456033Y-97952017D01*
X151456033Y-97952017D02*
X151422700Y-97885350D01*
X151422700Y-97885350D02*
X151356033Y-97818683D01*
X151356033Y-97818683D02*
X151222700Y-97785350D01*
X151222700Y-97785350D02*
X150989366Y-97785350D01*
X150989366Y-97785350D02*
X150856033Y-97818683D01*
X150856033Y-97818683D02*
X150789366Y-97885350D01*
X150789366Y-97885350D02*
X150756033Y-97952017D01*
X150756033Y-98485350D02*
X150756033Y-98918683D01*
X150756033Y-98918683D02*
X151022700Y-98685350D01*
X151022700Y-98685350D02*
X151022700Y-98785350D01*
X151022700Y-98785350D02*
X151056033Y-98852016D01*
X151056033Y-98852016D02*
X151089366Y-98885350D01*
X151089366Y-98885350D02*
X151156033Y-98918683D01*
X151156033Y-98918683D02*
X151322700Y-98918683D01*
X151322700Y-98918683D02*
X151389366Y-98885350D01*
X151389366Y-98885350D02*
X151422700Y-98852016D01*
X151422700Y-98852016D02*
X151456033Y-98785350D01*
X151456033Y-98785350D02*
X151456033Y-98585350D01*
X151456033Y-98585350D02*
X151422700Y-98518683D01*
X151422700Y-98518683D02*
X151389366Y-98485350D01*
X150822700Y-99185350D02*
X150789366Y-99218683D01*
X150789366Y-99218683D02*
X150756033Y-99285350D01*
X150756033Y-99285350D02*
X150756033Y-99452017D01*
X150756033Y-99452017D02*
X150789366Y-99518683D01*
X150789366Y-99518683D02*
X150822700Y-99552017D01*
X150822700Y-99552017D02*
X150889366Y-99585350D01*
X150889366Y-99585350D02*
X150956033Y-99585350D01*
X150956033Y-99585350D02*
X151056033Y-99552017D01*
X151056033Y-99552017D02*
X151456033Y-99152017D01*
X151456033Y-99152017D02*
X151456033Y-99585350D01*
X140596033Y-95985350D02*
X141296033Y-96218684D01*
X141296033Y-96218684D02*
X140596033Y-96452017D01*
X141296033Y-96685350D02*
X140596033Y-96685350D01*
X140596033Y-96685350D02*
X140596033Y-96952017D01*
X140596033Y-96952017D02*
X140629366Y-97018684D01*
X140629366Y-97018684D02*
X140662700Y-97052017D01*
X140662700Y-97052017D02*
X140729366Y-97085350D01*
X140729366Y-97085350D02*
X140829366Y-97085350D01*
X140829366Y-97085350D02*
X140896033Y-97052017D01*
X140896033Y-97052017D02*
X140929366Y-97018684D01*
X140929366Y-97018684D02*
X140962700Y-96952017D01*
X140962700Y-96952017D02*
X140962700Y-96685350D01*
X140562700Y-97885350D02*
X141462700Y-97285350D01*
X140629366Y-98485350D02*
X140596033Y-98418683D01*
X140596033Y-98418683D02*
X140596033Y-98318683D01*
X140596033Y-98318683D02*
X140629366Y-98218683D01*
X140629366Y-98218683D02*
X140696033Y-98152017D01*
X140696033Y-98152017D02*
X140762700Y-98118683D01*
X140762700Y-98118683D02*
X140896033Y-98085350D01*
X140896033Y-98085350D02*
X140996033Y-98085350D01*
X140996033Y-98085350D02*
X141129366Y-98118683D01*
X141129366Y-98118683D02*
X141196033Y-98152017D01*
X141196033Y-98152017D02*
X141262700Y-98218683D01*
X141262700Y-98218683D02*
X141296033Y-98318683D01*
X141296033Y-98318683D02*
X141296033Y-98385350D01*
X141296033Y-98385350D02*
X141262700Y-98485350D01*
X141262700Y-98485350D02*
X141229366Y-98518683D01*
X141229366Y-98518683D02*
X140996033Y-98518683D01*
X140996033Y-98518683D02*
X140996033Y-98385350D01*
X141296033Y-98818683D02*
X140596033Y-98818683D01*
X140596033Y-98818683D02*
X140596033Y-99085350D01*
X140596033Y-99085350D02*
X140629366Y-99152017D01*
X140629366Y-99152017D02*
X140662700Y-99185350D01*
X140662700Y-99185350D02*
X140729366Y-99218683D01*
X140729366Y-99218683D02*
X140829366Y-99218683D01*
X140829366Y-99218683D02*
X140896033Y-99185350D01*
X140896033Y-99185350D02*
X140929366Y-99152017D01*
X140929366Y-99152017D02*
X140962700Y-99085350D01*
X140962700Y-99085350D02*
X140962700Y-98818683D01*
X141296033Y-99518683D02*
X140596033Y-99518683D01*
X140596033Y-99985350D02*
X140596033Y-100118683D01*
X140596033Y-100118683D02*
X140629366Y-100185350D01*
X140629366Y-100185350D02*
X140696033Y-100252016D01*
X140696033Y-100252016D02*
X140829366Y-100285350D01*
X140829366Y-100285350D02*
X141062700Y-100285350D01*
X141062700Y-100285350D02*
X141196033Y-100252016D01*
X141196033Y-100252016D02*
X141262700Y-100185350D01*
X141262700Y-100185350D02*
X141296033Y-100118683D01*
X141296033Y-100118683D02*
X141296033Y-99985350D01*
X141296033Y-99985350D02*
X141262700Y-99918683D01*
X141262700Y-99918683D02*
X141196033Y-99852016D01*
X141196033Y-99852016D02*
X141062700Y-99818683D01*
X141062700Y-99818683D02*
X140829366Y-99818683D01*
X140829366Y-99818683D02*
X140696033Y-99852016D01*
X140696033Y-99852016D02*
X140629366Y-99918683D01*
X140629366Y-99918683D02*
X140596033Y-99985350D01*
X140596033Y-100518683D02*
X140596033Y-100952016D01*
X140596033Y-100952016D02*
X140862700Y-100718683D01*
X140862700Y-100718683D02*
X140862700Y-100818683D01*
X140862700Y-100818683D02*
X140896033Y-100885349D01*
X140896033Y-100885349D02*
X140929366Y-100918683D01*
X140929366Y-100918683D02*
X140996033Y-100952016D01*
X140996033Y-100952016D02*
X141162700Y-100952016D01*
X141162700Y-100952016D02*
X141229366Y-100918683D01*
X141229366Y-100918683D02*
X141262700Y-100885349D01*
X141262700Y-100885349D02*
X141296033Y-100818683D01*
X141296033Y-100818683D02*
X141296033Y-100618683D01*
X141296033Y-100618683D02*
X141262700Y-100552016D01*
X141262700Y-100552016D02*
X141229366Y-100518683D01*
X140596033Y-101552016D02*
X140596033Y-101418683D01*
X140596033Y-101418683D02*
X140629366Y-101352016D01*
X140629366Y-101352016D02*
X140662700Y-101318683D01*
X140662700Y-101318683D02*
X140762700Y-101252016D01*
X140762700Y-101252016D02*
X140896033Y-101218683D01*
X140896033Y-101218683D02*
X141162700Y-101218683D01*
X141162700Y-101218683D02*
X141229366Y-101252016D01*
X141229366Y-101252016D02*
X141262700Y-101285350D01*
X141262700Y-101285350D02*
X141296033Y-101352016D01*
X141296033Y-101352016D02*
X141296033Y-101485350D01*
X141296033Y-101485350D02*
X141262700Y-101552016D01*
X141262700Y-101552016D02*
X141229366Y-101585350D01*
X141229366Y-101585350D02*
X141162700Y-101618683D01*
X141162700Y-101618683D02*
X140996033Y-101618683D01*
X140996033Y-101618683D02*
X140929366Y-101585350D01*
X140929366Y-101585350D02*
X140896033Y-101552016D01*
X140896033Y-101552016D02*
X140862700Y-101485350D01*
X140862700Y-101485350D02*
X140862700Y-101352016D01*
X140862700Y-101352016D02*
X140896033Y-101285350D01*
X140896033Y-101285350D02*
X140929366Y-101252016D01*
X140929366Y-101252016D02*
X140996033Y-101218683D01*
X166029366Y-96452017D02*
X165996033Y-96385350D01*
X165996033Y-96385350D02*
X165996033Y-96285350D01*
X165996033Y-96285350D02*
X166029366Y-96185350D01*
X166029366Y-96185350D02*
X166096033Y-96118684D01*
X166096033Y-96118684D02*
X166162700Y-96085350D01*
X166162700Y-96085350D02*
X166296033Y-96052017D01*
X166296033Y-96052017D02*
X166396033Y-96052017D01*
X166396033Y-96052017D02*
X166529366Y-96085350D01*
X166529366Y-96085350D02*
X166596033Y-96118684D01*
X166596033Y-96118684D02*
X166662700Y-96185350D01*
X166662700Y-96185350D02*
X166696033Y-96285350D01*
X166696033Y-96285350D02*
X166696033Y-96352017D01*
X166696033Y-96352017D02*
X166662700Y-96452017D01*
X166662700Y-96452017D02*
X166629366Y-96485350D01*
X166629366Y-96485350D02*
X166396033Y-96485350D01*
X166396033Y-96485350D02*
X166396033Y-96352017D01*
X166696033Y-96785350D02*
X165996033Y-96785350D01*
X165996033Y-96785350D02*
X165996033Y-97052017D01*
X165996033Y-97052017D02*
X166029366Y-97118684D01*
X166029366Y-97118684D02*
X166062700Y-97152017D01*
X166062700Y-97152017D02*
X166129366Y-97185350D01*
X166129366Y-97185350D02*
X166229366Y-97185350D01*
X166229366Y-97185350D02*
X166296033Y-97152017D01*
X166296033Y-97152017D02*
X166329366Y-97118684D01*
X166329366Y-97118684D02*
X166362700Y-97052017D01*
X166362700Y-97052017D02*
X166362700Y-96785350D01*
X166696033Y-97485350D02*
X165996033Y-97485350D01*
X165996033Y-97952017D02*
X165996033Y-98085350D01*
X165996033Y-98085350D02*
X166029366Y-98152017D01*
X166029366Y-98152017D02*
X166096033Y-98218683D01*
X166096033Y-98218683D02*
X166229366Y-98252017D01*
X166229366Y-98252017D02*
X166462700Y-98252017D01*
X166462700Y-98252017D02*
X166596033Y-98218683D01*
X166596033Y-98218683D02*
X166662700Y-98152017D01*
X166662700Y-98152017D02*
X166696033Y-98085350D01*
X166696033Y-98085350D02*
X166696033Y-97952017D01*
X166696033Y-97952017D02*
X166662700Y-97885350D01*
X166662700Y-97885350D02*
X166596033Y-97818683D01*
X166596033Y-97818683D02*
X166462700Y-97785350D01*
X166462700Y-97785350D02*
X166229366Y-97785350D01*
X166229366Y-97785350D02*
X166096033Y-97818683D01*
X166096033Y-97818683D02*
X166029366Y-97885350D01*
X166029366Y-97885350D02*
X165996033Y-97952017D01*
X166696033Y-98918683D02*
X166696033Y-98518683D01*
X166696033Y-98718683D02*
X165996033Y-98718683D01*
X165996033Y-98718683D02*
X166096033Y-98652016D01*
X166096033Y-98652016D02*
X166162700Y-98585350D01*
X166162700Y-98585350D02*
X166196033Y-98518683D01*
X166062700Y-99185350D02*
X166029366Y-99218683D01*
X166029366Y-99218683D02*
X165996033Y-99285350D01*
X165996033Y-99285350D02*
X165996033Y-99452017D01*
X165996033Y-99452017D02*
X166029366Y-99518683D01*
X166029366Y-99518683D02*
X166062700Y-99552017D01*
X166062700Y-99552017D02*
X166129366Y-99585350D01*
X166129366Y-99585350D02*
X166196033Y-99585350D01*
X166196033Y-99585350D02*
X166296033Y-99552017D01*
X166296033Y-99552017D02*
X166696033Y-99152017D01*
X166696033Y-99152017D02*
X166696033Y-99585350D01*
X165962700Y-100385350D02*
X166862700Y-99785350D01*
X166696033Y-100618683D02*
X165996033Y-100618683D01*
X165996033Y-100618683D02*
X166496033Y-100852017D01*
X166496033Y-100852017D02*
X165996033Y-101085350D01*
X165996033Y-101085350D02*
X166696033Y-101085350D01*
X165996033Y-101318683D02*
X165996033Y-101718683D01*
X166696033Y-101518683D02*
X165996033Y-101518683D01*
X166696033Y-101952016D02*
X165996033Y-101952016D01*
X165996033Y-101952016D02*
X165996033Y-102118683D01*
X165996033Y-102118683D02*
X166029366Y-102218683D01*
X166029366Y-102218683D02*
X166096033Y-102285350D01*
X166096033Y-102285350D02*
X166162700Y-102318683D01*
X166162700Y-102318683D02*
X166296033Y-102352016D01*
X166296033Y-102352016D02*
X166396033Y-102352016D01*
X166396033Y-102352016D02*
X166529366Y-102318683D01*
X166529366Y-102318683D02*
X166596033Y-102285350D01*
X166596033Y-102285350D02*
X166662700Y-102218683D01*
X166662700Y-102218683D02*
X166696033Y-102118683D01*
X166696033Y-102118683D02*
X166696033Y-101952016D01*
X166696033Y-102652016D02*
X165996033Y-102652016D01*
X155869366Y-96452017D02*
X155836033Y-96385350D01*
X155836033Y-96385350D02*
X155836033Y-96285350D01*
X155836033Y-96285350D02*
X155869366Y-96185350D01*
X155869366Y-96185350D02*
X155936033Y-96118684D01*
X155936033Y-96118684D02*
X156002700Y-96085350D01*
X156002700Y-96085350D02*
X156136033Y-96052017D01*
X156136033Y-96052017D02*
X156236033Y-96052017D01*
X156236033Y-96052017D02*
X156369366Y-96085350D01*
X156369366Y-96085350D02*
X156436033Y-96118684D01*
X156436033Y-96118684D02*
X156502700Y-96185350D01*
X156502700Y-96185350D02*
X156536033Y-96285350D01*
X156536033Y-96285350D02*
X156536033Y-96352017D01*
X156536033Y-96352017D02*
X156502700Y-96452017D01*
X156502700Y-96452017D02*
X156469366Y-96485350D01*
X156469366Y-96485350D02*
X156236033Y-96485350D01*
X156236033Y-96485350D02*
X156236033Y-96352017D01*
X156536033Y-96785350D02*
X155836033Y-96785350D01*
X155836033Y-96785350D02*
X155836033Y-97052017D01*
X155836033Y-97052017D02*
X155869366Y-97118684D01*
X155869366Y-97118684D02*
X155902700Y-97152017D01*
X155902700Y-97152017D02*
X155969366Y-97185350D01*
X155969366Y-97185350D02*
X156069366Y-97185350D01*
X156069366Y-97185350D02*
X156136033Y-97152017D01*
X156136033Y-97152017D02*
X156169366Y-97118684D01*
X156169366Y-97118684D02*
X156202700Y-97052017D01*
X156202700Y-97052017D02*
X156202700Y-96785350D01*
X156536033Y-97485350D02*
X155836033Y-97485350D01*
X155836033Y-97952017D02*
X155836033Y-98085350D01*
X155836033Y-98085350D02*
X155869366Y-98152017D01*
X155869366Y-98152017D02*
X155936033Y-98218683D01*
X155936033Y-98218683D02*
X156069366Y-98252017D01*
X156069366Y-98252017D02*
X156302700Y-98252017D01*
X156302700Y-98252017D02*
X156436033Y-98218683D01*
X156436033Y-98218683D02*
X156502700Y-98152017D01*
X156502700Y-98152017D02*
X156536033Y-98085350D01*
X156536033Y-98085350D02*
X156536033Y-97952017D01*
X156536033Y-97952017D02*
X156502700Y-97885350D01*
X156502700Y-97885350D02*
X156436033Y-97818683D01*
X156436033Y-97818683D02*
X156302700Y-97785350D01*
X156302700Y-97785350D02*
X156069366Y-97785350D01*
X156069366Y-97785350D02*
X155936033Y-97818683D01*
X155936033Y-97818683D02*
X155869366Y-97885350D01*
X155869366Y-97885350D02*
X155836033Y-97952017D01*
X155902700Y-98518683D02*
X155869366Y-98552016D01*
X155869366Y-98552016D02*
X155836033Y-98618683D01*
X155836033Y-98618683D02*
X155836033Y-98785350D01*
X155836033Y-98785350D02*
X155869366Y-98852016D01*
X155869366Y-98852016D02*
X155902700Y-98885350D01*
X155902700Y-98885350D02*
X155969366Y-98918683D01*
X155969366Y-98918683D02*
X156036033Y-98918683D01*
X156036033Y-98918683D02*
X156136033Y-98885350D01*
X156136033Y-98885350D02*
X156536033Y-98485350D01*
X156536033Y-98485350D02*
X156536033Y-98918683D01*
X155836033Y-99552017D02*
X155836033Y-99218683D01*
X155836033Y-99218683D02*
X156169366Y-99185350D01*
X156169366Y-99185350D02*
X156136033Y-99218683D01*
X156136033Y-99218683D02*
X156102700Y-99285350D01*
X156102700Y-99285350D02*
X156102700Y-99452017D01*
X156102700Y-99452017D02*
X156136033Y-99518683D01*
X156136033Y-99518683D02*
X156169366Y-99552017D01*
X156169366Y-99552017D02*
X156236033Y-99585350D01*
X156236033Y-99585350D02*
X156402700Y-99585350D01*
X156402700Y-99585350D02*
X156469366Y-99552017D01*
X156469366Y-99552017D02*
X156502700Y-99518683D01*
X156502700Y-99518683D02*
X156536033Y-99452017D01*
X156536033Y-99452017D02*
X156536033Y-99285350D01*
X156536033Y-99285350D02*
X156502700Y-99218683D01*
X156502700Y-99218683D02*
X156469366Y-99185350D01*
X140629366Y-115314649D02*
X140596033Y-115247982D01*
X140596033Y-115247982D02*
X140596033Y-115147982D01*
X140596033Y-115147982D02*
X140629366Y-115047982D01*
X140629366Y-115047982D02*
X140696033Y-114981316D01*
X140696033Y-114981316D02*
X140762700Y-114947982D01*
X140762700Y-114947982D02*
X140896033Y-114914649D01*
X140896033Y-114914649D02*
X140996033Y-114914649D01*
X140996033Y-114914649D02*
X141129366Y-114947982D01*
X141129366Y-114947982D02*
X141196033Y-114981316D01*
X141196033Y-114981316D02*
X141262700Y-115047982D01*
X141262700Y-115047982D02*
X141296033Y-115147982D01*
X141296033Y-115147982D02*
X141296033Y-115214649D01*
X141296033Y-115214649D02*
X141262700Y-115314649D01*
X141262700Y-115314649D02*
X141229366Y-115347982D01*
X141229366Y-115347982D02*
X140996033Y-115347982D01*
X140996033Y-115347982D02*
X140996033Y-115214649D01*
X141296033Y-115647982D02*
X140596033Y-115647982D01*
X140596033Y-115647982D02*
X140596033Y-115914649D01*
X140596033Y-115914649D02*
X140629366Y-115981316D01*
X140629366Y-115981316D02*
X140662700Y-116014649D01*
X140662700Y-116014649D02*
X140729366Y-116047982D01*
X140729366Y-116047982D02*
X140829366Y-116047982D01*
X140829366Y-116047982D02*
X140896033Y-116014649D01*
X140896033Y-116014649D02*
X140929366Y-115981316D01*
X140929366Y-115981316D02*
X140962700Y-115914649D01*
X140962700Y-115914649D02*
X140962700Y-115647982D01*
X141296033Y-116347982D02*
X140596033Y-116347982D01*
X140596033Y-116814649D02*
X140596033Y-116947982D01*
X140596033Y-116947982D02*
X140629366Y-117014649D01*
X140629366Y-117014649D02*
X140696033Y-117081315D01*
X140696033Y-117081315D02*
X140829366Y-117114649D01*
X140829366Y-117114649D02*
X141062700Y-117114649D01*
X141062700Y-117114649D02*
X141196033Y-117081315D01*
X141196033Y-117081315D02*
X141262700Y-117014649D01*
X141262700Y-117014649D02*
X141296033Y-116947982D01*
X141296033Y-116947982D02*
X141296033Y-116814649D01*
X141296033Y-116814649D02*
X141262700Y-116747982D01*
X141262700Y-116747982D02*
X141196033Y-116681315D01*
X141196033Y-116681315D02*
X141062700Y-116647982D01*
X141062700Y-116647982D02*
X140829366Y-116647982D01*
X140829366Y-116647982D02*
X140696033Y-116681315D01*
X140696033Y-116681315D02*
X140629366Y-116747982D01*
X140629366Y-116747982D02*
X140596033Y-116814649D01*
X140662700Y-117381315D02*
X140629366Y-117414648D01*
X140629366Y-117414648D02*
X140596033Y-117481315D01*
X140596033Y-117481315D02*
X140596033Y-117647982D01*
X140596033Y-117647982D02*
X140629366Y-117714648D01*
X140629366Y-117714648D02*
X140662700Y-117747982D01*
X140662700Y-117747982D02*
X140729366Y-117781315D01*
X140729366Y-117781315D02*
X140796033Y-117781315D01*
X140796033Y-117781315D02*
X140896033Y-117747982D01*
X140896033Y-117747982D02*
X141296033Y-117347982D01*
X141296033Y-117347982D02*
X141296033Y-117781315D01*
X140662700Y-118047982D02*
X140629366Y-118081315D01*
X140629366Y-118081315D02*
X140596033Y-118147982D01*
X140596033Y-118147982D02*
X140596033Y-118314649D01*
X140596033Y-118314649D02*
X140629366Y-118381315D01*
X140629366Y-118381315D02*
X140662700Y-118414649D01*
X140662700Y-118414649D02*
X140729366Y-118447982D01*
X140729366Y-118447982D02*
X140796033Y-118447982D01*
X140796033Y-118447982D02*
X140896033Y-118414649D01*
X140896033Y-118414649D02*
X141296033Y-118014649D01*
X141296033Y-118014649D02*
X141296033Y-118447982D01*
X155869366Y-115314649D02*
X155836033Y-115247982D01*
X155836033Y-115247982D02*
X155836033Y-115147982D01*
X155836033Y-115147982D02*
X155869366Y-115047982D01*
X155869366Y-115047982D02*
X155936033Y-114981316D01*
X155936033Y-114981316D02*
X156002700Y-114947982D01*
X156002700Y-114947982D02*
X156136033Y-114914649D01*
X156136033Y-114914649D02*
X156236033Y-114914649D01*
X156236033Y-114914649D02*
X156369366Y-114947982D01*
X156369366Y-114947982D02*
X156436033Y-114981316D01*
X156436033Y-114981316D02*
X156502700Y-115047982D01*
X156502700Y-115047982D02*
X156536033Y-115147982D01*
X156536033Y-115147982D02*
X156536033Y-115214649D01*
X156536033Y-115214649D02*
X156502700Y-115314649D01*
X156502700Y-115314649D02*
X156469366Y-115347982D01*
X156469366Y-115347982D02*
X156236033Y-115347982D01*
X156236033Y-115347982D02*
X156236033Y-115214649D01*
X156536033Y-115647982D02*
X155836033Y-115647982D01*
X155836033Y-115647982D02*
X155836033Y-115914649D01*
X155836033Y-115914649D02*
X155869366Y-115981316D01*
X155869366Y-115981316D02*
X155902700Y-116014649D01*
X155902700Y-116014649D02*
X155969366Y-116047982D01*
X155969366Y-116047982D02*
X156069366Y-116047982D01*
X156069366Y-116047982D02*
X156136033Y-116014649D01*
X156136033Y-116014649D02*
X156169366Y-115981316D01*
X156169366Y-115981316D02*
X156202700Y-115914649D01*
X156202700Y-115914649D02*
X156202700Y-115647982D01*
X156536033Y-116347982D02*
X155836033Y-116347982D01*
X155836033Y-116814649D02*
X155836033Y-116947982D01*
X155836033Y-116947982D02*
X155869366Y-117014649D01*
X155869366Y-117014649D02*
X155936033Y-117081315D01*
X155936033Y-117081315D02*
X156069366Y-117114649D01*
X156069366Y-117114649D02*
X156302700Y-117114649D01*
X156302700Y-117114649D02*
X156436033Y-117081315D01*
X156436033Y-117081315D02*
X156502700Y-117014649D01*
X156502700Y-117014649D02*
X156536033Y-116947982D01*
X156536033Y-116947982D02*
X156536033Y-116814649D01*
X156536033Y-116814649D02*
X156502700Y-116747982D01*
X156502700Y-116747982D02*
X156436033Y-116681315D01*
X156436033Y-116681315D02*
X156302700Y-116647982D01*
X156302700Y-116647982D02*
X156069366Y-116647982D01*
X156069366Y-116647982D02*
X155936033Y-116681315D01*
X155936033Y-116681315D02*
X155869366Y-116747982D01*
X155869366Y-116747982D02*
X155836033Y-116814649D01*
X156536033Y-117781315D02*
X156536033Y-117381315D01*
X156536033Y-117581315D02*
X155836033Y-117581315D01*
X155836033Y-117581315D02*
X155936033Y-117514648D01*
X155936033Y-117514648D02*
X156002700Y-117447982D01*
X156002700Y-117447982D02*
X156036033Y-117381315D01*
X156136033Y-118181315D02*
X156102700Y-118114649D01*
X156102700Y-118114649D02*
X156069366Y-118081315D01*
X156069366Y-118081315D02*
X156002700Y-118047982D01*
X156002700Y-118047982D02*
X155969366Y-118047982D01*
X155969366Y-118047982D02*
X155902700Y-118081315D01*
X155902700Y-118081315D02*
X155869366Y-118114649D01*
X155869366Y-118114649D02*
X155836033Y-118181315D01*
X155836033Y-118181315D02*
X155836033Y-118314649D01*
X155836033Y-118314649D02*
X155869366Y-118381315D01*
X155869366Y-118381315D02*
X155902700Y-118414649D01*
X155902700Y-118414649D02*
X155969366Y-118447982D01*
X155969366Y-118447982D02*
X156002700Y-118447982D01*
X156002700Y-118447982D02*
X156069366Y-118414649D01*
X156069366Y-118414649D02*
X156102700Y-118381315D01*
X156102700Y-118381315D02*
X156136033Y-118314649D01*
X156136033Y-118314649D02*
X156136033Y-118181315D01*
X156136033Y-118181315D02*
X156169366Y-118114649D01*
X156169366Y-118114649D02*
X156202700Y-118081315D01*
X156202700Y-118081315D02*
X156269366Y-118047982D01*
X156269366Y-118047982D02*
X156402700Y-118047982D01*
X156402700Y-118047982D02*
X156469366Y-118081315D01*
X156469366Y-118081315D02*
X156502700Y-118114649D01*
X156502700Y-118114649D02*
X156536033Y-118181315D01*
X156536033Y-118181315D02*
X156536033Y-118314649D01*
X156536033Y-118314649D02*
X156502700Y-118381315D01*
X156502700Y-118381315D02*
X156469366Y-118414649D01*
X156469366Y-118414649D02*
X156402700Y-118447982D01*
X156402700Y-118447982D02*
X156269366Y-118447982D01*
X156269366Y-118447982D02*
X156202700Y-118414649D01*
X156202700Y-118414649D02*
X156169366Y-118381315D01*
X156169366Y-118381315D02*
X156136033Y-118314649D01*
X153329366Y-96452017D02*
X153296033Y-96385350D01*
X153296033Y-96385350D02*
X153296033Y-96285350D01*
X153296033Y-96285350D02*
X153329366Y-96185350D01*
X153329366Y-96185350D02*
X153396033Y-96118684D01*
X153396033Y-96118684D02*
X153462700Y-96085350D01*
X153462700Y-96085350D02*
X153596033Y-96052017D01*
X153596033Y-96052017D02*
X153696033Y-96052017D01*
X153696033Y-96052017D02*
X153829366Y-96085350D01*
X153829366Y-96085350D02*
X153896033Y-96118684D01*
X153896033Y-96118684D02*
X153962700Y-96185350D01*
X153962700Y-96185350D02*
X153996033Y-96285350D01*
X153996033Y-96285350D02*
X153996033Y-96352017D01*
X153996033Y-96352017D02*
X153962700Y-96452017D01*
X153962700Y-96452017D02*
X153929366Y-96485350D01*
X153929366Y-96485350D02*
X153696033Y-96485350D01*
X153696033Y-96485350D02*
X153696033Y-96352017D01*
X153996033Y-96785350D02*
X153296033Y-96785350D01*
X153296033Y-96785350D02*
X153296033Y-97052017D01*
X153296033Y-97052017D02*
X153329366Y-97118684D01*
X153329366Y-97118684D02*
X153362700Y-97152017D01*
X153362700Y-97152017D02*
X153429366Y-97185350D01*
X153429366Y-97185350D02*
X153529366Y-97185350D01*
X153529366Y-97185350D02*
X153596033Y-97152017D01*
X153596033Y-97152017D02*
X153629366Y-97118684D01*
X153629366Y-97118684D02*
X153662700Y-97052017D01*
X153662700Y-97052017D02*
X153662700Y-96785350D01*
X153996033Y-97485350D02*
X153296033Y-97485350D01*
X153296033Y-97952017D02*
X153296033Y-98085350D01*
X153296033Y-98085350D02*
X153329366Y-98152017D01*
X153329366Y-98152017D02*
X153396033Y-98218683D01*
X153396033Y-98218683D02*
X153529366Y-98252017D01*
X153529366Y-98252017D02*
X153762700Y-98252017D01*
X153762700Y-98252017D02*
X153896033Y-98218683D01*
X153896033Y-98218683D02*
X153962700Y-98152017D01*
X153962700Y-98152017D02*
X153996033Y-98085350D01*
X153996033Y-98085350D02*
X153996033Y-97952017D01*
X153996033Y-97952017D02*
X153962700Y-97885350D01*
X153962700Y-97885350D02*
X153896033Y-97818683D01*
X153896033Y-97818683D02*
X153762700Y-97785350D01*
X153762700Y-97785350D02*
X153529366Y-97785350D01*
X153529366Y-97785350D02*
X153396033Y-97818683D01*
X153396033Y-97818683D02*
X153329366Y-97885350D01*
X153329366Y-97885350D02*
X153296033Y-97952017D01*
X153296033Y-98485350D02*
X153296033Y-98918683D01*
X153296033Y-98918683D02*
X153562700Y-98685350D01*
X153562700Y-98685350D02*
X153562700Y-98785350D01*
X153562700Y-98785350D02*
X153596033Y-98852016D01*
X153596033Y-98852016D02*
X153629366Y-98885350D01*
X153629366Y-98885350D02*
X153696033Y-98918683D01*
X153696033Y-98918683D02*
X153862700Y-98918683D01*
X153862700Y-98918683D02*
X153929366Y-98885350D01*
X153929366Y-98885350D02*
X153962700Y-98852016D01*
X153962700Y-98852016D02*
X153996033Y-98785350D01*
X153996033Y-98785350D02*
X153996033Y-98585350D01*
X153996033Y-98585350D02*
X153962700Y-98518683D01*
X153962700Y-98518683D02*
X153929366Y-98485350D01*
X153296033Y-99152017D02*
X153296033Y-99585350D01*
X153296033Y-99585350D02*
X153562700Y-99352017D01*
X153562700Y-99352017D02*
X153562700Y-99452017D01*
X153562700Y-99452017D02*
X153596033Y-99518683D01*
X153596033Y-99518683D02*
X153629366Y-99552017D01*
X153629366Y-99552017D02*
X153696033Y-99585350D01*
X153696033Y-99585350D02*
X153862700Y-99585350D01*
X153862700Y-99585350D02*
X153929366Y-99552017D01*
X153929366Y-99552017D02*
X153962700Y-99518683D01*
X153962700Y-99518683D02*
X153996033Y-99452017D01*
X153996033Y-99452017D02*
X153996033Y-99252017D01*
X153996033Y-99252017D02*
X153962700Y-99185350D01*
X153962700Y-99185350D02*
X153929366Y-99152017D01*
X158409366Y-96452017D02*
X158376033Y-96385350D01*
X158376033Y-96385350D02*
X158376033Y-96285350D01*
X158376033Y-96285350D02*
X158409366Y-96185350D01*
X158409366Y-96185350D02*
X158476033Y-96118684D01*
X158476033Y-96118684D02*
X158542700Y-96085350D01*
X158542700Y-96085350D02*
X158676033Y-96052017D01*
X158676033Y-96052017D02*
X158776033Y-96052017D01*
X158776033Y-96052017D02*
X158909366Y-96085350D01*
X158909366Y-96085350D02*
X158976033Y-96118684D01*
X158976033Y-96118684D02*
X159042700Y-96185350D01*
X159042700Y-96185350D02*
X159076033Y-96285350D01*
X159076033Y-96285350D02*
X159076033Y-96352017D01*
X159076033Y-96352017D02*
X159042700Y-96452017D01*
X159042700Y-96452017D02*
X159009366Y-96485350D01*
X159009366Y-96485350D02*
X158776033Y-96485350D01*
X158776033Y-96485350D02*
X158776033Y-96352017D01*
X159076033Y-96785350D02*
X158376033Y-96785350D01*
X158376033Y-96785350D02*
X158376033Y-97052017D01*
X158376033Y-97052017D02*
X158409366Y-97118684D01*
X158409366Y-97118684D02*
X158442700Y-97152017D01*
X158442700Y-97152017D02*
X158509366Y-97185350D01*
X158509366Y-97185350D02*
X158609366Y-97185350D01*
X158609366Y-97185350D02*
X158676033Y-97152017D01*
X158676033Y-97152017D02*
X158709366Y-97118684D01*
X158709366Y-97118684D02*
X158742700Y-97052017D01*
X158742700Y-97052017D02*
X158742700Y-96785350D01*
X159076033Y-97485350D02*
X158376033Y-97485350D01*
X158376033Y-97952017D02*
X158376033Y-98085350D01*
X158376033Y-98085350D02*
X158409366Y-98152017D01*
X158409366Y-98152017D02*
X158476033Y-98218683D01*
X158476033Y-98218683D02*
X158609366Y-98252017D01*
X158609366Y-98252017D02*
X158842700Y-98252017D01*
X158842700Y-98252017D02*
X158976033Y-98218683D01*
X158976033Y-98218683D02*
X159042700Y-98152017D01*
X159042700Y-98152017D02*
X159076033Y-98085350D01*
X159076033Y-98085350D02*
X159076033Y-97952017D01*
X159076033Y-97952017D02*
X159042700Y-97885350D01*
X159042700Y-97885350D02*
X158976033Y-97818683D01*
X158976033Y-97818683D02*
X158842700Y-97785350D01*
X158842700Y-97785350D02*
X158609366Y-97785350D01*
X158609366Y-97785350D02*
X158476033Y-97818683D01*
X158476033Y-97818683D02*
X158409366Y-97885350D01*
X158409366Y-97885350D02*
X158376033Y-97952017D01*
X158442700Y-98518683D02*
X158409366Y-98552016D01*
X158409366Y-98552016D02*
X158376033Y-98618683D01*
X158376033Y-98618683D02*
X158376033Y-98785350D01*
X158376033Y-98785350D02*
X158409366Y-98852016D01*
X158409366Y-98852016D02*
X158442700Y-98885350D01*
X158442700Y-98885350D02*
X158509366Y-98918683D01*
X158509366Y-98918683D02*
X158576033Y-98918683D01*
X158576033Y-98918683D02*
X158676033Y-98885350D01*
X158676033Y-98885350D02*
X159076033Y-98485350D01*
X159076033Y-98485350D02*
X159076033Y-98918683D01*
X158376033Y-99518683D02*
X158376033Y-99385350D01*
X158376033Y-99385350D02*
X158409366Y-99318683D01*
X158409366Y-99318683D02*
X158442700Y-99285350D01*
X158442700Y-99285350D02*
X158542700Y-99218683D01*
X158542700Y-99218683D02*
X158676033Y-99185350D01*
X158676033Y-99185350D02*
X158942700Y-99185350D01*
X158942700Y-99185350D02*
X159009366Y-99218683D01*
X159009366Y-99218683D02*
X159042700Y-99252017D01*
X159042700Y-99252017D02*
X159076033Y-99318683D01*
X159076033Y-99318683D02*
X159076033Y-99452017D01*
X159076033Y-99452017D02*
X159042700Y-99518683D01*
X159042700Y-99518683D02*
X159009366Y-99552017D01*
X159009366Y-99552017D02*
X158942700Y-99585350D01*
X158942700Y-99585350D02*
X158776033Y-99585350D01*
X158776033Y-99585350D02*
X158709366Y-99552017D01*
X158709366Y-99552017D02*
X158676033Y-99518683D01*
X158676033Y-99518683D02*
X158642700Y-99452017D01*
X158642700Y-99452017D02*
X158642700Y-99318683D01*
X158642700Y-99318683D02*
X158676033Y-99252017D01*
X158676033Y-99252017D02*
X158709366Y-99218683D01*
X158709366Y-99218683D02*
X158776033Y-99185350D01*
X163489366Y-115314649D02*
X163456033Y-115247982D01*
X163456033Y-115247982D02*
X163456033Y-115147982D01*
X163456033Y-115147982D02*
X163489366Y-115047982D01*
X163489366Y-115047982D02*
X163556033Y-114981316D01*
X163556033Y-114981316D02*
X163622700Y-114947982D01*
X163622700Y-114947982D02*
X163756033Y-114914649D01*
X163756033Y-114914649D02*
X163856033Y-114914649D01*
X163856033Y-114914649D02*
X163989366Y-114947982D01*
X163989366Y-114947982D02*
X164056033Y-114981316D01*
X164056033Y-114981316D02*
X164122700Y-115047982D01*
X164122700Y-115047982D02*
X164156033Y-115147982D01*
X164156033Y-115147982D02*
X164156033Y-115214649D01*
X164156033Y-115214649D02*
X164122700Y-115314649D01*
X164122700Y-115314649D02*
X164089366Y-115347982D01*
X164089366Y-115347982D02*
X163856033Y-115347982D01*
X163856033Y-115347982D02*
X163856033Y-115214649D01*
X164156033Y-115647982D02*
X163456033Y-115647982D01*
X163456033Y-115647982D02*
X163456033Y-115914649D01*
X163456033Y-115914649D02*
X163489366Y-115981316D01*
X163489366Y-115981316D02*
X163522700Y-116014649D01*
X163522700Y-116014649D02*
X163589366Y-116047982D01*
X163589366Y-116047982D02*
X163689366Y-116047982D01*
X163689366Y-116047982D02*
X163756033Y-116014649D01*
X163756033Y-116014649D02*
X163789366Y-115981316D01*
X163789366Y-115981316D02*
X163822700Y-115914649D01*
X163822700Y-115914649D02*
X163822700Y-115647982D01*
X164156033Y-116347982D02*
X163456033Y-116347982D01*
X163456033Y-116814649D02*
X163456033Y-116947982D01*
X163456033Y-116947982D02*
X163489366Y-117014649D01*
X163489366Y-117014649D02*
X163556033Y-117081315D01*
X163556033Y-117081315D02*
X163689366Y-117114649D01*
X163689366Y-117114649D02*
X163922700Y-117114649D01*
X163922700Y-117114649D02*
X164056033Y-117081315D01*
X164056033Y-117081315D02*
X164122700Y-117014649D01*
X164122700Y-117014649D02*
X164156033Y-116947982D01*
X164156033Y-116947982D02*
X164156033Y-116814649D01*
X164156033Y-116814649D02*
X164122700Y-116747982D01*
X164122700Y-116747982D02*
X164056033Y-116681315D01*
X164056033Y-116681315D02*
X163922700Y-116647982D01*
X163922700Y-116647982D02*
X163689366Y-116647982D01*
X163689366Y-116647982D02*
X163556033Y-116681315D01*
X163556033Y-116681315D02*
X163489366Y-116747982D01*
X163489366Y-116747982D02*
X163456033Y-116814649D01*
X164156033Y-117781315D02*
X164156033Y-117381315D01*
X164156033Y-117581315D02*
X163456033Y-117581315D01*
X163456033Y-117581315D02*
X163556033Y-117514648D01*
X163556033Y-117514648D02*
X163622700Y-117447982D01*
X163622700Y-117447982D02*
X163656033Y-117381315D01*
X163456033Y-118381315D02*
X163456033Y-118247982D01*
X163456033Y-118247982D02*
X163489366Y-118181315D01*
X163489366Y-118181315D02*
X163522700Y-118147982D01*
X163522700Y-118147982D02*
X163622700Y-118081315D01*
X163622700Y-118081315D02*
X163756033Y-118047982D01*
X163756033Y-118047982D02*
X164022700Y-118047982D01*
X164022700Y-118047982D02*
X164089366Y-118081315D01*
X164089366Y-118081315D02*
X164122700Y-118114649D01*
X164122700Y-118114649D02*
X164156033Y-118181315D01*
X164156033Y-118181315D02*
X164156033Y-118314649D01*
X164156033Y-118314649D02*
X164122700Y-118381315D01*
X164122700Y-118381315D02*
X164089366Y-118414649D01*
X164089366Y-118414649D02*
X164022700Y-118447982D01*
X164022700Y-118447982D02*
X163856033Y-118447982D01*
X163856033Y-118447982D02*
X163789366Y-118414649D01*
X163789366Y-118414649D02*
X163756033Y-118381315D01*
X163756033Y-118381315D02*
X163722700Y-118314649D01*
X163722700Y-118314649D02*
X163722700Y-118181315D01*
X163722700Y-118181315D02*
X163756033Y-118114649D01*
X163756033Y-118114649D02*
X163789366Y-118081315D01*
X163789366Y-118081315D02*
X163856033Y-118047982D01*
X179396033Y-117381315D02*
X178696033Y-117381315D01*
X178696033Y-117381315D02*
X178696033Y-117547982D01*
X178696033Y-117547982D02*
X178729366Y-117647982D01*
X178729366Y-117647982D02*
X178796033Y-117714649D01*
X178796033Y-117714649D02*
X178862700Y-117747982D01*
X178862700Y-117747982D02*
X178996033Y-117781315D01*
X178996033Y-117781315D02*
X179096033Y-117781315D01*
X179096033Y-117781315D02*
X179229366Y-117747982D01*
X179229366Y-117747982D02*
X179296033Y-117714649D01*
X179296033Y-117714649D02*
X179362700Y-117647982D01*
X179362700Y-117647982D02*
X179396033Y-117547982D01*
X179396033Y-117547982D02*
X179396033Y-117381315D01*
X178696033Y-118214649D02*
X178696033Y-118281315D01*
X178696033Y-118281315D02*
X178729366Y-118347982D01*
X178729366Y-118347982D02*
X178762700Y-118381315D01*
X178762700Y-118381315D02*
X178829366Y-118414649D01*
X178829366Y-118414649D02*
X178962700Y-118447982D01*
X178962700Y-118447982D02*
X179129366Y-118447982D01*
X179129366Y-118447982D02*
X179262700Y-118414649D01*
X179262700Y-118414649D02*
X179329366Y-118381315D01*
X179329366Y-118381315D02*
X179362700Y-118347982D01*
X179362700Y-118347982D02*
X179396033Y-118281315D01*
X179396033Y-118281315D02*
X179396033Y-118214649D01*
X179396033Y-118214649D02*
X179362700Y-118147982D01*
X179362700Y-118147982D02*
X179329366Y-118114649D01*
X179329366Y-118114649D02*
X179262700Y-118081315D01*
X179262700Y-118081315D02*
X179129366Y-118047982D01*
X179129366Y-118047982D02*
X178962700Y-118047982D01*
X178962700Y-118047982D02*
X178829366Y-118081315D01*
X178829366Y-118081315D02*
X178762700Y-118114649D01*
X178762700Y-118114649D02*
X178729366Y-118147982D01*
X178729366Y-118147982D02*
X178696033Y-118214649D01*
X145709366Y-96452017D02*
X145676033Y-96385350D01*
X145676033Y-96385350D02*
X145676033Y-96285350D01*
X145676033Y-96285350D02*
X145709366Y-96185350D01*
X145709366Y-96185350D02*
X145776033Y-96118684D01*
X145776033Y-96118684D02*
X145842700Y-96085350D01*
X145842700Y-96085350D02*
X145976033Y-96052017D01*
X145976033Y-96052017D02*
X146076033Y-96052017D01*
X146076033Y-96052017D02*
X146209366Y-96085350D01*
X146209366Y-96085350D02*
X146276033Y-96118684D01*
X146276033Y-96118684D02*
X146342700Y-96185350D01*
X146342700Y-96185350D02*
X146376033Y-96285350D01*
X146376033Y-96285350D02*
X146376033Y-96352017D01*
X146376033Y-96352017D02*
X146342700Y-96452017D01*
X146342700Y-96452017D02*
X146309366Y-96485350D01*
X146309366Y-96485350D02*
X146076033Y-96485350D01*
X146076033Y-96485350D02*
X146076033Y-96352017D01*
X146376033Y-96785350D02*
X145676033Y-96785350D01*
X145676033Y-96785350D02*
X145676033Y-97052017D01*
X145676033Y-97052017D02*
X145709366Y-97118684D01*
X145709366Y-97118684D02*
X145742700Y-97152017D01*
X145742700Y-97152017D02*
X145809366Y-97185350D01*
X145809366Y-97185350D02*
X145909366Y-97185350D01*
X145909366Y-97185350D02*
X145976033Y-97152017D01*
X145976033Y-97152017D02*
X146009366Y-97118684D01*
X146009366Y-97118684D02*
X146042700Y-97052017D01*
X146042700Y-97052017D02*
X146042700Y-96785350D01*
X146376033Y-97485350D02*
X145676033Y-97485350D01*
X145676033Y-97952017D02*
X145676033Y-98085350D01*
X145676033Y-98085350D02*
X145709366Y-98152017D01*
X145709366Y-98152017D02*
X145776033Y-98218683D01*
X145776033Y-98218683D02*
X145909366Y-98252017D01*
X145909366Y-98252017D02*
X146142700Y-98252017D01*
X146142700Y-98252017D02*
X146276033Y-98218683D01*
X146276033Y-98218683D02*
X146342700Y-98152017D01*
X146342700Y-98152017D02*
X146376033Y-98085350D01*
X146376033Y-98085350D02*
X146376033Y-97952017D01*
X146376033Y-97952017D02*
X146342700Y-97885350D01*
X146342700Y-97885350D02*
X146276033Y-97818683D01*
X146276033Y-97818683D02*
X146142700Y-97785350D01*
X146142700Y-97785350D02*
X145909366Y-97785350D01*
X145909366Y-97785350D02*
X145776033Y-97818683D01*
X145776033Y-97818683D02*
X145709366Y-97885350D01*
X145709366Y-97885350D02*
X145676033Y-97952017D01*
X145676033Y-98485350D02*
X145676033Y-98918683D01*
X145676033Y-98918683D02*
X145942700Y-98685350D01*
X145942700Y-98685350D02*
X145942700Y-98785350D01*
X145942700Y-98785350D02*
X145976033Y-98852016D01*
X145976033Y-98852016D02*
X146009366Y-98885350D01*
X146009366Y-98885350D02*
X146076033Y-98918683D01*
X146076033Y-98918683D02*
X146242700Y-98918683D01*
X146242700Y-98918683D02*
X146309366Y-98885350D01*
X146309366Y-98885350D02*
X146342700Y-98852016D01*
X146342700Y-98852016D02*
X146376033Y-98785350D01*
X146376033Y-98785350D02*
X146376033Y-98585350D01*
X146376033Y-98585350D02*
X146342700Y-98518683D01*
X146342700Y-98518683D02*
X146309366Y-98485350D01*
X145909366Y-99518683D02*
X146376033Y-99518683D01*
X145642700Y-99352017D02*
X146142700Y-99185350D01*
X146142700Y-99185350D02*
X146142700Y-99618683D01*
X179329366Y-96485350D02*
X179362700Y-96452017D01*
X179362700Y-96452017D02*
X179396033Y-96352017D01*
X179396033Y-96352017D02*
X179396033Y-96285350D01*
X179396033Y-96285350D02*
X179362700Y-96185350D01*
X179362700Y-96185350D02*
X179296033Y-96118684D01*
X179296033Y-96118684D02*
X179229366Y-96085350D01*
X179229366Y-96085350D02*
X179096033Y-96052017D01*
X179096033Y-96052017D02*
X178996033Y-96052017D01*
X178996033Y-96052017D02*
X178862700Y-96085350D01*
X178862700Y-96085350D02*
X178796033Y-96118684D01*
X178796033Y-96118684D02*
X178729366Y-96185350D01*
X178729366Y-96185350D02*
X178696033Y-96285350D01*
X178696033Y-96285350D02*
X178696033Y-96352017D01*
X178696033Y-96352017D02*
X178729366Y-96452017D01*
X178729366Y-96452017D02*
X178762700Y-96485350D01*
X179396033Y-96785350D02*
X178696033Y-96785350D01*
X178696033Y-96785350D02*
X179196033Y-97018684D01*
X179196033Y-97018684D02*
X178696033Y-97252017D01*
X178696033Y-97252017D02*
X179396033Y-97252017D01*
X179396033Y-97585350D02*
X178696033Y-97585350D01*
X178696033Y-97585350D02*
X178696033Y-97752017D01*
X178696033Y-97752017D02*
X178729366Y-97852017D01*
X178729366Y-97852017D02*
X178796033Y-97918684D01*
X178796033Y-97918684D02*
X178862700Y-97952017D01*
X178862700Y-97952017D02*
X178996033Y-97985350D01*
X178996033Y-97985350D02*
X179096033Y-97985350D01*
X179096033Y-97985350D02*
X179229366Y-97952017D01*
X179229366Y-97952017D02*
X179296033Y-97918684D01*
X179296033Y-97918684D02*
X179362700Y-97852017D01*
X179362700Y-97852017D02*
X179396033Y-97752017D01*
X179396033Y-97752017D02*
X179396033Y-97585350D01*
X166029366Y-115981316D02*
X165996033Y-115914649D01*
X165996033Y-115914649D02*
X165996033Y-115814649D01*
X165996033Y-115814649D02*
X166029366Y-115714649D01*
X166029366Y-115714649D02*
X166096033Y-115647983D01*
X166096033Y-115647983D02*
X166162700Y-115614649D01*
X166162700Y-115614649D02*
X166296033Y-115581316D01*
X166296033Y-115581316D02*
X166396033Y-115581316D01*
X166396033Y-115581316D02*
X166529366Y-115614649D01*
X166529366Y-115614649D02*
X166596033Y-115647983D01*
X166596033Y-115647983D02*
X166662700Y-115714649D01*
X166662700Y-115714649D02*
X166696033Y-115814649D01*
X166696033Y-115814649D02*
X166696033Y-115881316D01*
X166696033Y-115881316D02*
X166662700Y-115981316D01*
X166662700Y-115981316D02*
X166629366Y-116014649D01*
X166629366Y-116014649D02*
X166396033Y-116014649D01*
X166396033Y-116014649D02*
X166396033Y-115881316D01*
X166696033Y-116314649D02*
X165996033Y-116314649D01*
X165996033Y-116314649D02*
X165996033Y-116581316D01*
X165996033Y-116581316D02*
X166029366Y-116647983D01*
X166029366Y-116647983D02*
X166062700Y-116681316D01*
X166062700Y-116681316D02*
X166129366Y-116714649D01*
X166129366Y-116714649D02*
X166229366Y-116714649D01*
X166229366Y-116714649D02*
X166296033Y-116681316D01*
X166296033Y-116681316D02*
X166329366Y-116647983D01*
X166329366Y-116647983D02*
X166362700Y-116581316D01*
X166362700Y-116581316D02*
X166362700Y-116314649D01*
X166696033Y-117014649D02*
X165996033Y-117014649D01*
X165996033Y-117481316D02*
X165996033Y-117614649D01*
X165996033Y-117614649D02*
X166029366Y-117681316D01*
X166029366Y-117681316D02*
X166096033Y-117747982D01*
X166096033Y-117747982D02*
X166229366Y-117781316D01*
X166229366Y-117781316D02*
X166462700Y-117781316D01*
X166462700Y-117781316D02*
X166596033Y-117747982D01*
X166596033Y-117747982D02*
X166662700Y-117681316D01*
X166662700Y-117681316D02*
X166696033Y-117614649D01*
X166696033Y-117614649D02*
X166696033Y-117481316D01*
X166696033Y-117481316D02*
X166662700Y-117414649D01*
X166662700Y-117414649D02*
X166596033Y-117347982D01*
X166596033Y-117347982D02*
X166462700Y-117314649D01*
X166462700Y-117314649D02*
X166229366Y-117314649D01*
X166229366Y-117314649D02*
X166096033Y-117347982D01*
X166096033Y-117347982D02*
X166029366Y-117414649D01*
X166029366Y-117414649D02*
X165996033Y-117481316D01*
X166229366Y-118381315D02*
X166696033Y-118381315D01*
X165962700Y-118214649D02*
X166462700Y-118047982D01*
X166462700Y-118047982D02*
X166462700Y-118481315D01*
X181869366Y-117181315D02*
X181902700Y-117147982D01*
X181902700Y-117147982D02*
X181936033Y-117047982D01*
X181936033Y-117047982D02*
X181936033Y-116981315D01*
X181936033Y-116981315D02*
X181902700Y-116881315D01*
X181902700Y-116881315D02*
X181836033Y-116814649D01*
X181836033Y-116814649D02*
X181769366Y-116781315D01*
X181769366Y-116781315D02*
X181636033Y-116747982D01*
X181636033Y-116747982D02*
X181536033Y-116747982D01*
X181536033Y-116747982D02*
X181402700Y-116781315D01*
X181402700Y-116781315D02*
X181336033Y-116814649D01*
X181336033Y-116814649D02*
X181269366Y-116881315D01*
X181269366Y-116881315D02*
X181236033Y-116981315D01*
X181236033Y-116981315D02*
X181236033Y-117047982D01*
X181236033Y-117047982D02*
X181269366Y-117147982D01*
X181269366Y-117147982D02*
X181302700Y-117181315D01*
X181936033Y-117814649D02*
X181936033Y-117481315D01*
X181936033Y-117481315D02*
X181236033Y-117481315D01*
X181936033Y-118047982D02*
X181236033Y-118047982D01*
X181936033Y-118447982D02*
X181536033Y-118147982D01*
X181236033Y-118447982D02*
X181636033Y-118047982D01*
X158409366Y-115981316D02*
X158376033Y-115914649D01*
X158376033Y-115914649D02*
X158376033Y-115814649D01*
X158376033Y-115814649D02*
X158409366Y-115714649D01*
X158409366Y-115714649D02*
X158476033Y-115647983D01*
X158476033Y-115647983D02*
X158542700Y-115614649D01*
X158542700Y-115614649D02*
X158676033Y-115581316D01*
X158676033Y-115581316D02*
X158776033Y-115581316D01*
X158776033Y-115581316D02*
X158909366Y-115614649D01*
X158909366Y-115614649D02*
X158976033Y-115647983D01*
X158976033Y-115647983D02*
X159042700Y-115714649D01*
X159042700Y-115714649D02*
X159076033Y-115814649D01*
X159076033Y-115814649D02*
X159076033Y-115881316D01*
X159076033Y-115881316D02*
X159042700Y-115981316D01*
X159042700Y-115981316D02*
X159009366Y-116014649D01*
X159009366Y-116014649D02*
X158776033Y-116014649D01*
X158776033Y-116014649D02*
X158776033Y-115881316D01*
X159076033Y-116314649D02*
X158376033Y-116314649D01*
X158376033Y-116314649D02*
X158376033Y-116581316D01*
X158376033Y-116581316D02*
X158409366Y-116647983D01*
X158409366Y-116647983D02*
X158442700Y-116681316D01*
X158442700Y-116681316D02*
X158509366Y-116714649D01*
X158509366Y-116714649D02*
X158609366Y-116714649D01*
X158609366Y-116714649D02*
X158676033Y-116681316D01*
X158676033Y-116681316D02*
X158709366Y-116647983D01*
X158709366Y-116647983D02*
X158742700Y-116581316D01*
X158742700Y-116581316D02*
X158742700Y-116314649D01*
X159076033Y-117014649D02*
X158376033Y-117014649D01*
X158376033Y-117481316D02*
X158376033Y-117614649D01*
X158376033Y-117614649D02*
X158409366Y-117681316D01*
X158409366Y-117681316D02*
X158476033Y-117747982D01*
X158476033Y-117747982D02*
X158609366Y-117781316D01*
X158609366Y-117781316D02*
X158842700Y-117781316D01*
X158842700Y-117781316D02*
X158976033Y-117747982D01*
X158976033Y-117747982D02*
X159042700Y-117681316D01*
X159042700Y-117681316D02*
X159076033Y-117614649D01*
X159076033Y-117614649D02*
X159076033Y-117481316D01*
X159076033Y-117481316D02*
X159042700Y-117414649D01*
X159042700Y-117414649D02*
X158976033Y-117347982D01*
X158976033Y-117347982D02*
X158842700Y-117314649D01*
X158842700Y-117314649D02*
X158609366Y-117314649D01*
X158609366Y-117314649D02*
X158476033Y-117347982D01*
X158476033Y-117347982D02*
X158409366Y-117414649D01*
X158409366Y-117414649D02*
X158376033Y-117481316D01*
X158376033Y-118414649D02*
X158376033Y-118081315D01*
X158376033Y-118081315D02*
X158709366Y-118047982D01*
X158709366Y-118047982D02*
X158676033Y-118081315D01*
X158676033Y-118081315D02*
X158642700Y-118147982D01*
X158642700Y-118147982D02*
X158642700Y-118314649D01*
X158642700Y-118314649D02*
X158676033Y-118381315D01*
X158676033Y-118381315D02*
X158709366Y-118414649D01*
X158709366Y-118414649D02*
X158776033Y-118447982D01*
X158776033Y-118447982D02*
X158942700Y-118447982D01*
X158942700Y-118447982D02*
X159009366Y-118414649D01*
X159009366Y-118414649D02*
X159042700Y-118381315D01*
X159042700Y-118381315D02*
X159076033Y-118314649D01*
X159076033Y-118314649D02*
X159076033Y-118147982D01*
X159076033Y-118147982D02*
X159042700Y-118081315D01*
X159042700Y-118081315D02*
X159009366Y-118047982D01*
X160949366Y-96452017D02*
X160916033Y-96385350D01*
X160916033Y-96385350D02*
X160916033Y-96285350D01*
X160916033Y-96285350D02*
X160949366Y-96185350D01*
X160949366Y-96185350D02*
X161016033Y-96118684D01*
X161016033Y-96118684D02*
X161082700Y-96085350D01*
X161082700Y-96085350D02*
X161216033Y-96052017D01*
X161216033Y-96052017D02*
X161316033Y-96052017D01*
X161316033Y-96052017D02*
X161449366Y-96085350D01*
X161449366Y-96085350D02*
X161516033Y-96118684D01*
X161516033Y-96118684D02*
X161582700Y-96185350D01*
X161582700Y-96185350D02*
X161616033Y-96285350D01*
X161616033Y-96285350D02*
X161616033Y-96352017D01*
X161616033Y-96352017D02*
X161582700Y-96452017D01*
X161582700Y-96452017D02*
X161549366Y-96485350D01*
X161549366Y-96485350D02*
X161316033Y-96485350D01*
X161316033Y-96485350D02*
X161316033Y-96352017D01*
X161616033Y-96785350D02*
X160916033Y-96785350D01*
X160916033Y-96785350D02*
X160916033Y-97052017D01*
X160916033Y-97052017D02*
X160949366Y-97118684D01*
X160949366Y-97118684D02*
X160982700Y-97152017D01*
X160982700Y-97152017D02*
X161049366Y-97185350D01*
X161049366Y-97185350D02*
X161149366Y-97185350D01*
X161149366Y-97185350D02*
X161216033Y-97152017D01*
X161216033Y-97152017D02*
X161249366Y-97118684D01*
X161249366Y-97118684D02*
X161282700Y-97052017D01*
X161282700Y-97052017D02*
X161282700Y-96785350D01*
X161616033Y-97485350D02*
X160916033Y-97485350D01*
X160916033Y-97952017D02*
X160916033Y-98085350D01*
X160916033Y-98085350D02*
X160949366Y-98152017D01*
X160949366Y-98152017D02*
X161016033Y-98218683D01*
X161016033Y-98218683D02*
X161149366Y-98252017D01*
X161149366Y-98252017D02*
X161382700Y-98252017D01*
X161382700Y-98252017D02*
X161516033Y-98218683D01*
X161516033Y-98218683D02*
X161582700Y-98152017D01*
X161582700Y-98152017D02*
X161616033Y-98085350D01*
X161616033Y-98085350D02*
X161616033Y-97952017D01*
X161616033Y-97952017D02*
X161582700Y-97885350D01*
X161582700Y-97885350D02*
X161516033Y-97818683D01*
X161516033Y-97818683D02*
X161382700Y-97785350D01*
X161382700Y-97785350D02*
X161149366Y-97785350D01*
X161149366Y-97785350D02*
X161016033Y-97818683D01*
X161016033Y-97818683D02*
X160949366Y-97885350D01*
X160949366Y-97885350D02*
X160916033Y-97952017D01*
X160982700Y-98518683D02*
X160949366Y-98552016D01*
X160949366Y-98552016D02*
X160916033Y-98618683D01*
X160916033Y-98618683D02*
X160916033Y-98785350D01*
X160916033Y-98785350D02*
X160949366Y-98852016D01*
X160949366Y-98852016D02*
X160982700Y-98885350D01*
X160982700Y-98885350D02*
X161049366Y-98918683D01*
X161049366Y-98918683D02*
X161116033Y-98918683D01*
X161116033Y-98918683D02*
X161216033Y-98885350D01*
X161216033Y-98885350D02*
X161616033Y-98485350D01*
X161616033Y-98485350D02*
X161616033Y-98918683D01*
X160916033Y-99152017D02*
X160916033Y-99618683D01*
X160916033Y-99618683D02*
X161616033Y-99318683D01*
X138089366Y-115314649D02*
X138056033Y-115247982D01*
X138056033Y-115247982D02*
X138056033Y-115147982D01*
X138056033Y-115147982D02*
X138089366Y-115047982D01*
X138089366Y-115047982D02*
X138156033Y-114981316D01*
X138156033Y-114981316D02*
X138222700Y-114947982D01*
X138222700Y-114947982D02*
X138356033Y-114914649D01*
X138356033Y-114914649D02*
X138456033Y-114914649D01*
X138456033Y-114914649D02*
X138589366Y-114947982D01*
X138589366Y-114947982D02*
X138656033Y-114981316D01*
X138656033Y-114981316D02*
X138722700Y-115047982D01*
X138722700Y-115047982D02*
X138756033Y-115147982D01*
X138756033Y-115147982D02*
X138756033Y-115214649D01*
X138756033Y-115214649D02*
X138722700Y-115314649D01*
X138722700Y-115314649D02*
X138689366Y-115347982D01*
X138689366Y-115347982D02*
X138456033Y-115347982D01*
X138456033Y-115347982D02*
X138456033Y-115214649D01*
X138756033Y-115647982D02*
X138056033Y-115647982D01*
X138056033Y-115647982D02*
X138056033Y-115914649D01*
X138056033Y-115914649D02*
X138089366Y-115981316D01*
X138089366Y-115981316D02*
X138122700Y-116014649D01*
X138122700Y-116014649D02*
X138189366Y-116047982D01*
X138189366Y-116047982D02*
X138289366Y-116047982D01*
X138289366Y-116047982D02*
X138356033Y-116014649D01*
X138356033Y-116014649D02*
X138389366Y-115981316D01*
X138389366Y-115981316D02*
X138422700Y-115914649D01*
X138422700Y-115914649D02*
X138422700Y-115647982D01*
X138756033Y-116347982D02*
X138056033Y-116347982D01*
X138056033Y-116814649D02*
X138056033Y-116947982D01*
X138056033Y-116947982D02*
X138089366Y-117014649D01*
X138089366Y-117014649D02*
X138156033Y-117081315D01*
X138156033Y-117081315D02*
X138289366Y-117114649D01*
X138289366Y-117114649D02*
X138522700Y-117114649D01*
X138522700Y-117114649D02*
X138656033Y-117081315D01*
X138656033Y-117081315D02*
X138722700Y-117014649D01*
X138722700Y-117014649D02*
X138756033Y-116947982D01*
X138756033Y-116947982D02*
X138756033Y-116814649D01*
X138756033Y-116814649D02*
X138722700Y-116747982D01*
X138722700Y-116747982D02*
X138656033Y-116681315D01*
X138656033Y-116681315D02*
X138522700Y-116647982D01*
X138522700Y-116647982D02*
X138289366Y-116647982D01*
X138289366Y-116647982D02*
X138156033Y-116681315D01*
X138156033Y-116681315D02*
X138089366Y-116747982D01*
X138089366Y-116747982D02*
X138056033Y-116814649D01*
X138122700Y-117381315D02*
X138089366Y-117414648D01*
X138089366Y-117414648D02*
X138056033Y-117481315D01*
X138056033Y-117481315D02*
X138056033Y-117647982D01*
X138056033Y-117647982D02*
X138089366Y-117714648D01*
X138089366Y-117714648D02*
X138122700Y-117747982D01*
X138122700Y-117747982D02*
X138189366Y-117781315D01*
X138189366Y-117781315D02*
X138256033Y-117781315D01*
X138256033Y-117781315D02*
X138356033Y-117747982D01*
X138356033Y-117747982D02*
X138756033Y-117347982D01*
X138756033Y-117347982D02*
X138756033Y-117781315D01*
X138056033Y-118014649D02*
X138056033Y-118447982D01*
X138056033Y-118447982D02*
X138322700Y-118214649D01*
X138322700Y-118214649D02*
X138322700Y-118314649D01*
X138322700Y-118314649D02*
X138356033Y-118381315D01*
X138356033Y-118381315D02*
X138389366Y-118414649D01*
X138389366Y-118414649D02*
X138456033Y-118447982D01*
X138456033Y-118447982D02*
X138622700Y-118447982D01*
X138622700Y-118447982D02*
X138689366Y-118414649D01*
X138689366Y-118414649D02*
X138722700Y-118381315D01*
X138722700Y-118381315D02*
X138756033Y-118314649D01*
X138756033Y-118314649D02*
X138756033Y-118114649D01*
X138756033Y-118114649D02*
X138722700Y-118047982D01*
X138722700Y-118047982D02*
X138689366Y-118014649D01*
X150642438Y-116295601D02*
X150594819Y-116200363D01*
X150594819Y-116200363D02*
X150594819Y-116057506D01*
X150594819Y-116057506D02*
X150642438Y-115914649D01*
X150642438Y-115914649D02*
X150737676Y-115819411D01*
X150737676Y-115819411D02*
X150832914Y-115771792D01*
X150832914Y-115771792D02*
X151023390Y-115724173D01*
X151023390Y-115724173D02*
X151166247Y-115724173D01*
X151166247Y-115724173D02*
X151356723Y-115771792D01*
X151356723Y-115771792D02*
X151451961Y-115819411D01*
X151451961Y-115819411D02*
X151547200Y-115914649D01*
X151547200Y-115914649D02*
X151594819Y-116057506D01*
X151594819Y-116057506D02*
X151594819Y-116152744D01*
X151594819Y-116152744D02*
X151547200Y-116295601D01*
X151547200Y-116295601D02*
X151499580Y-116343220D01*
X151499580Y-116343220D02*
X151166247Y-116343220D01*
X151166247Y-116343220D02*
X151166247Y-116152744D01*
X151594819Y-116771792D02*
X150594819Y-116771792D01*
X150594819Y-116771792D02*
X151594819Y-117343220D01*
X151594819Y-117343220D02*
X150594819Y-117343220D01*
X151594819Y-117819411D02*
X150594819Y-117819411D01*
X150594819Y-117819411D02*
X150594819Y-118057506D01*
X150594819Y-118057506D02*
X150642438Y-118200363D01*
X150642438Y-118200363D02*
X150737676Y-118295601D01*
X150737676Y-118295601D02*
X150832914Y-118343220D01*
X150832914Y-118343220D02*
X151023390Y-118390839D01*
X151023390Y-118390839D02*
X151166247Y-118390839D01*
X151166247Y-118390839D02*
X151356723Y-118343220D01*
X151356723Y-118343220D02*
X151451961Y-118295601D01*
X151451961Y-118295601D02*
X151547200Y-118200363D01*
X151547200Y-118200363D02*
X151594819Y-118057506D01*
X151594819Y-118057506D02*
X151594819Y-117819411D01*
X160949366Y-115314649D02*
X160916033Y-115247982D01*
X160916033Y-115247982D02*
X160916033Y-115147982D01*
X160916033Y-115147982D02*
X160949366Y-115047982D01*
X160949366Y-115047982D02*
X161016033Y-114981316D01*
X161016033Y-114981316D02*
X161082700Y-114947982D01*
X161082700Y-114947982D02*
X161216033Y-114914649D01*
X161216033Y-114914649D02*
X161316033Y-114914649D01*
X161316033Y-114914649D02*
X161449366Y-114947982D01*
X161449366Y-114947982D02*
X161516033Y-114981316D01*
X161516033Y-114981316D02*
X161582700Y-115047982D01*
X161582700Y-115047982D02*
X161616033Y-115147982D01*
X161616033Y-115147982D02*
X161616033Y-115214649D01*
X161616033Y-115214649D02*
X161582700Y-115314649D01*
X161582700Y-115314649D02*
X161549366Y-115347982D01*
X161549366Y-115347982D02*
X161316033Y-115347982D01*
X161316033Y-115347982D02*
X161316033Y-115214649D01*
X161616033Y-115647982D02*
X160916033Y-115647982D01*
X160916033Y-115647982D02*
X160916033Y-115914649D01*
X160916033Y-115914649D02*
X160949366Y-115981316D01*
X160949366Y-115981316D02*
X160982700Y-116014649D01*
X160982700Y-116014649D02*
X161049366Y-116047982D01*
X161049366Y-116047982D02*
X161149366Y-116047982D01*
X161149366Y-116047982D02*
X161216033Y-116014649D01*
X161216033Y-116014649D02*
X161249366Y-115981316D01*
X161249366Y-115981316D02*
X161282700Y-115914649D01*
X161282700Y-115914649D02*
X161282700Y-115647982D01*
X161616033Y-116347982D02*
X160916033Y-116347982D01*
X160916033Y-116814649D02*
X160916033Y-116947982D01*
X160916033Y-116947982D02*
X160949366Y-117014649D01*
X160949366Y-117014649D02*
X161016033Y-117081315D01*
X161016033Y-117081315D02*
X161149366Y-117114649D01*
X161149366Y-117114649D02*
X161382700Y-117114649D01*
X161382700Y-117114649D02*
X161516033Y-117081315D01*
X161516033Y-117081315D02*
X161582700Y-117014649D01*
X161582700Y-117014649D02*
X161616033Y-116947982D01*
X161616033Y-116947982D02*
X161616033Y-116814649D01*
X161616033Y-116814649D02*
X161582700Y-116747982D01*
X161582700Y-116747982D02*
X161516033Y-116681315D01*
X161516033Y-116681315D02*
X161382700Y-116647982D01*
X161382700Y-116647982D02*
X161149366Y-116647982D01*
X161149366Y-116647982D02*
X161016033Y-116681315D01*
X161016033Y-116681315D02*
X160949366Y-116747982D01*
X160949366Y-116747982D02*
X160916033Y-116814649D01*
X161616033Y-117781315D02*
X161616033Y-117381315D01*
X161616033Y-117581315D02*
X160916033Y-117581315D01*
X160916033Y-117581315D02*
X161016033Y-117514648D01*
X161016033Y-117514648D02*
X161082700Y-117447982D01*
X161082700Y-117447982D02*
X161116033Y-117381315D01*
X160916033Y-118014649D02*
X160916033Y-118481315D01*
X160916033Y-118481315D02*
X161616033Y-118181315D01*
X176856033Y-117381315D02*
X176156033Y-117381315D01*
X176156033Y-117381315D02*
X176156033Y-117547982D01*
X176156033Y-117547982D02*
X176189366Y-117647982D01*
X176189366Y-117647982D02*
X176256033Y-117714649D01*
X176256033Y-117714649D02*
X176322700Y-117747982D01*
X176322700Y-117747982D02*
X176456033Y-117781315D01*
X176456033Y-117781315D02*
X176556033Y-117781315D01*
X176556033Y-117781315D02*
X176689366Y-117747982D01*
X176689366Y-117747982D02*
X176756033Y-117714649D01*
X176756033Y-117714649D02*
X176822700Y-117647982D01*
X176822700Y-117647982D02*
X176856033Y-117547982D01*
X176856033Y-117547982D02*
X176856033Y-117381315D01*
X176856033Y-118447982D02*
X176856033Y-118047982D01*
X176856033Y-118247982D02*
X176156033Y-118247982D01*
X176156033Y-118247982D02*
X176256033Y-118181315D01*
X176256033Y-118181315D02*
X176322700Y-118114649D01*
X176322700Y-118114649D02*
X176356033Y-118047982D01*
X148249366Y-115314649D02*
X148216033Y-115247982D01*
X148216033Y-115247982D02*
X148216033Y-115147982D01*
X148216033Y-115147982D02*
X148249366Y-115047982D01*
X148249366Y-115047982D02*
X148316033Y-114981316D01*
X148316033Y-114981316D02*
X148382700Y-114947982D01*
X148382700Y-114947982D02*
X148516033Y-114914649D01*
X148516033Y-114914649D02*
X148616033Y-114914649D01*
X148616033Y-114914649D02*
X148749366Y-114947982D01*
X148749366Y-114947982D02*
X148816033Y-114981316D01*
X148816033Y-114981316D02*
X148882700Y-115047982D01*
X148882700Y-115047982D02*
X148916033Y-115147982D01*
X148916033Y-115147982D02*
X148916033Y-115214649D01*
X148916033Y-115214649D02*
X148882700Y-115314649D01*
X148882700Y-115314649D02*
X148849366Y-115347982D01*
X148849366Y-115347982D02*
X148616033Y-115347982D01*
X148616033Y-115347982D02*
X148616033Y-115214649D01*
X148916033Y-115647982D02*
X148216033Y-115647982D01*
X148216033Y-115647982D02*
X148216033Y-115914649D01*
X148216033Y-115914649D02*
X148249366Y-115981316D01*
X148249366Y-115981316D02*
X148282700Y-116014649D01*
X148282700Y-116014649D02*
X148349366Y-116047982D01*
X148349366Y-116047982D02*
X148449366Y-116047982D01*
X148449366Y-116047982D02*
X148516033Y-116014649D01*
X148516033Y-116014649D02*
X148549366Y-115981316D01*
X148549366Y-115981316D02*
X148582700Y-115914649D01*
X148582700Y-115914649D02*
X148582700Y-115647982D01*
X148916033Y-116347982D02*
X148216033Y-116347982D01*
X148216033Y-116814649D02*
X148216033Y-116947982D01*
X148216033Y-116947982D02*
X148249366Y-117014649D01*
X148249366Y-117014649D02*
X148316033Y-117081315D01*
X148316033Y-117081315D02*
X148449366Y-117114649D01*
X148449366Y-117114649D02*
X148682700Y-117114649D01*
X148682700Y-117114649D02*
X148816033Y-117081315D01*
X148816033Y-117081315D02*
X148882700Y-117014649D01*
X148882700Y-117014649D02*
X148916033Y-116947982D01*
X148916033Y-116947982D02*
X148916033Y-116814649D01*
X148916033Y-116814649D02*
X148882700Y-116747982D01*
X148882700Y-116747982D02*
X148816033Y-116681315D01*
X148816033Y-116681315D02*
X148682700Y-116647982D01*
X148682700Y-116647982D02*
X148449366Y-116647982D01*
X148449366Y-116647982D02*
X148316033Y-116681315D01*
X148316033Y-116681315D02*
X148249366Y-116747982D01*
X148249366Y-116747982D02*
X148216033Y-116814649D01*
X148282700Y-117381315D02*
X148249366Y-117414648D01*
X148249366Y-117414648D02*
X148216033Y-117481315D01*
X148216033Y-117481315D02*
X148216033Y-117647982D01*
X148216033Y-117647982D02*
X148249366Y-117714648D01*
X148249366Y-117714648D02*
X148282700Y-117747982D01*
X148282700Y-117747982D02*
X148349366Y-117781315D01*
X148349366Y-117781315D02*
X148416033Y-117781315D01*
X148416033Y-117781315D02*
X148516033Y-117747982D01*
X148516033Y-117747982D02*
X148916033Y-117347982D01*
X148916033Y-117347982D02*
X148916033Y-117781315D01*
X148916033Y-118447982D02*
X148916033Y-118047982D01*
X148916033Y-118247982D02*
X148216033Y-118247982D01*
X148216033Y-118247982D02*
X148316033Y-118181315D01*
X148316033Y-118181315D02*
X148382700Y-118114649D01*
X148382700Y-118114649D02*
X148416033Y-118047982D01*
X174316033Y-96085350D02*
X173616033Y-96085350D01*
X173616033Y-96085350D02*
X173616033Y-96252017D01*
X173616033Y-96252017D02*
X173649366Y-96352017D01*
X173649366Y-96352017D02*
X173716033Y-96418684D01*
X173716033Y-96418684D02*
X173782700Y-96452017D01*
X173782700Y-96452017D02*
X173916033Y-96485350D01*
X173916033Y-96485350D02*
X174016033Y-96485350D01*
X174016033Y-96485350D02*
X174149366Y-96452017D01*
X174149366Y-96452017D02*
X174216033Y-96418684D01*
X174216033Y-96418684D02*
X174282700Y-96352017D01*
X174282700Y-96352017D02*
X174316033Y-96252017D01*
X174316033Y-96252017D02*
X174316033Y-96085350D01*
X173682700Y-96752017D02*
X173649366Y-96785350D01*
X173649366Y-96785350D02*
X173616033Y-96852017D01*
X173616033Y-96852017D02*
X173616033Y-97018684D01*
X173616033Y-97018684D02*
X173649366Y-97085350D01*
X173649366Y-97085350D02*
X173682700Y-97118684D01*
X173682700Y-97118684D02*
X173749366Y-97152017D01*
X173749366Y-97152017D02*
X173816033Y-97152017D01*
X173816033Y-97152017D02*
X173916033Y-97118684D01*
X173916033Y-97118684D02*
X174316033Y-96718684D01*
X174316033Y-96718684D02*
X174316033Y-97152017D01*
X153329366Y-115314649D02*
X153296033Y-115247982D01*
X153296033Y-115247982D02*
X153296033Y-115147982D01*
X153296033Y-115147982D02*
X153329366Y-115047982D01*
X153329366Y-115047982D02*
X153396033Y-114981316D01*
X153396033Y-114981316D02*
X153462700Y-114947982D01*
X153462700Y-114947982D02*
X153596033Y-114914649D01*
X153596033Y-114914649D02*
X153696033Y-114914649D01*
X153696033Y-114914649D02*
X153829366Y-114947982D01*
X153829366Y-114947982D02*
X153896033Y-114981316D01*
X153896033Y-114981316D02*
X153962700Y-115047982D01*
X153962700Y-115047982D02*
X153996033Y-115147982D01*
X153996033Y-115147982D02*
X153996033Y-115214649D01*
X153996033Y-115214649D02*
X153962700Y-115314649D01*
X153962700Y-115314649D02*
X153929366Y-115347982D01*
X153929366Y-115347982D02*
X153696033Y-115347982D01*
X153696033Y-115347982D02*
X153696033Y-115214649D01*
X153996033Y-115647982D02*
X153296033Y-115647982D01*
X153296033Y-115647982D02*
X153296033Y-115914649D01*
X153296033Y-115914649D02*
X153329366Y-115981316D01*
X153329366Y-115981316D02*
X153362700Y-116014649D01*
X153362700Y-116014649D02*
X153429366Y-116047982D01*
X153429366Y-116047982D02*
X153529366Y-116047982D01*
X153529366Y-116047982D02*
X153596033Y-116014649D01*
X153596033Y-116014649D02*
X153629366Y-115981316D01*
X153629366Y-115981316D02*
X153662700Y-115914649D01*
X153662700Y-115914649D02*
X153662700Y-115647982D01*
X153996033Y-116347982D02*
X153296033Y-116347982D01*
X153296033Y-116814649D02*
X153296033Y-116947982D01*
X153296033Y-116947982D02*
X153329366Y-117014649D01*
X153329366Y-117014649D02*
X153396033Y-117081315D01*
X153396033Y-117081315D02*
X153529366Y-117114649D01*
X153529366Y-117114649D02*
X153762700Y-117114649D01*
X153762700Y-117114649D02*
X153896033Y-117081315D01*
X153896033Y-117081315D02*
X153962700Y-117014649D01*
X153962700Y-117014649D02*
X153996033Y-116947982D01*
X153996033Y-116947982D02*
X153996033Y-116814649D01*
X153996033Y-116814649D02*
X153962700Y-116747982D01*
X153962700Y-116747982D02*
X153896033Y-116681315D01*
X153896033Y-116681315D02*
X153762700Y-116647982D01*
X153762700Y-116647982D02*
X153529366Y-116647982D01*
X153529366Y-116647982D02*
X153396033Y-116681315D01*
X153396033Y-116681315D02*
X153329366Y-116747982D01*
X153329366Y-116747982D02*
X153296033Y-116814649D01*
X153996033Y-117781315D02*
X153996033Y-117381315D01*
X153996033Y-117581315D02*
X153296033Y-117581315D01*
X153296033Y-117581315D02*
X153396033Y-117514648D01*
X153396033Y-117514648D02*
X153462700Y-117447982D01*
X153462700Y-117447982D02*
X153496033Y-117381315D01*
X153996033Y-118114649D02*
X153996033Y-118247982D01*
X153996033Y-118247982D02*
X153962700Y-118314649D01*
X153962700Y-118314649D02*
X153929366Y-118347982D01*
X153929366Y-118347982D02*
X153829366Y-118414649D01*
X153829366Y-118414649D02*
X153696033Y-118447982D01*
X153696033Y-118447982D02*
X153429366Y-118447982D01*
X153429366Y-118447982D02*
X153362700Y-118414649D01*
X153362700Y-118414649D02*
X153329366Y-118381315D01*
X153329366Y-118381315D02*
X153296033Y-118314649D01*
X153296033Y-118314649D02*
X153296033Y-118181315D01*
X153296033Y-118181315D02*
X153329366Y-118114649D01*
X153329366Y-118114649D02*
X153362700Y-118081315D01*
X153362700Y-118081315D02*
X153429366Y-118047982D01*
X153429366Y-118047982D02*
X153596033Y-118047982D01*
X153596033Y-118047982D02*
X153662700Y-118081315D01*
X153662700Y-118081315D02*
X153696033Y-118114649D01*
X153696033Y-118114649D02*
X153729366Y-118181315D01*
X153729366Y-118181315D02*
X153729366Y-118314649D01*
X153729366Y-118314649D02*
X153696033Y-118381315D01*
X153696033Y-118381315D02*
X153662700Y-118414649D01*
X153662700Y-118414649D02*
X153596033Y-118447982D01*
X148249366Y-96452017D02*
X148216033Y-96385350D01*
X148216033Y-96385350D02*
X148216033Y-96285350D01*
X148216033Y-96285350D02*
X148249366Y-96185350D01*
X148249366Y-96185350D02*
X148316033Y-96118684D01*
X148316033Y-96118684D02*
X148382700Y-96085350D01*
X148382700Y-96085350D02*
X148516033Y-96052017D01*
X148516033Y-96052017D02*
X148616033Y-96052017D01*
X148616033Y-96052017D02*
X148749366Y-96085350D01*
X148749366Y-96085350D02*
X148816033Y-96118684D01*
X148816033Y-96118684D02*
X148882700Y-96185350D01*
X148882700Y-96185350D02*
X148916033Y-96285350D01*
X148916033Y-96285350D02*
X148916033Y-96352017D01*
X148916033Y-96352017D02*
X148882700Y-96452017D01*
X148882700Y-96452017D02*
X148849366Y-96485350D01*
X148849366Y-96485350D02*
X148616033Y-96485350D01*
X148616033Y-96485350D02*
X148616033Y-96352017D01*
X148916033Y-96785350D02*
X148216033Y-96785350D01*
X148216033Y-96785350D02*
X148216033Y-97052017D01*
X148216033Y-97052017D02*
X148249366Y-97118684D01*
X148249366Y-97118684D02*
X148282700Y-97152017D01*
X148282700Y-97152017D02*
X148349366Y-97185350D01*
X148349366Y-97185350D02*
X148449366Y-97185350D01*
X148449366Y-97185350D02*
X148516033Y-97152017D01*
X148516033Y-97152017D02*
X148549366Y-97118684D01*
X148549366Y-97118684D02*
X148582700Y-97052017D01*
X148582700Y-97052017D02*
X148582700Y-96785350D01*
X148916033Y-97485350D02*
X148216033Y-97485350D01*
X148216033Y-97952017D02*
X148216033Y-98085350D01*
X148216033Y-98085350D02*
X148249366Y-98152017D01*
X148249366Y-98152017D02*
X148316033Y-98218683D01*
X148316033Y-98218683D02*
X148449366Y-98252017D01*
X148449366Y-98252017D02*
X148682700Y-98252017D01*
X148682700Y-98252017D02*
X148816033Y-98218683D01*
X148816033Y-98218683D02*
X148882700Y-98152017D01*
X148882700Y-98152017D02*
X148916033Y-98085350D01*
X148916033Y-98085350D02*
X148916033Y-97952017D01*
X148916033Y-97952017D02*
X148882700Y-97885350D01*
X148882700Y-97885350D02*
X148816033Y-97818683D01*
X148816033Y-97818683D02*
X148682700Y-97785350D01*
X148682700Y-97785350D02*
X148449366Y-97785350D01*
X148449366Y-97785350D02*
X148316033Y-97818683D01*
X148316033Y-97818683D02*
X148249366Y-97885350D01*
X148249366Y-97885350D02*
X148216033Y-97952017D01*
X148216033Y-98485350D02*
X148216033Y-98918683D01*
X148216033Y-98918683D02*
X148482700Y-98685350D01*
X148482700Y-98685350D02*
X148482700Y-98785350D01*
X148482700Y-98785350D02*
X148516033Y-98852016D01*
X148516033Y-98852016D02*
X148549366Y-98885350D01*
X148549366Y-98885350D02*
X148616033Y-98918683D01*
X148616033Y-98918683D02*
X148782700Y-98918683D01*
X148782700Y-98918683D02*
X148849366Y-98885350D01*
X148849366Y-98885350D02*
X148882700Y-98852016D01*
X148882700Y-98852016D02*
X148916033Y-98785350D01*
X148916033Y-98785350D02*
X148916033Y-98585350D01*
X148916033Y-98585350D02*
X148882700Y-98518683D01*
X148882700Y-98518683D02*
X148849366Y-98485350D01*
X148216033Y-99552017D02*
X148216033Y-99218683D01*
X148216033Y-99218683D02*
X148549366Y-99185350D01*
X148549366Y-99185350D02*
X148516033Y-99218683D01*
X148516033Y-99218683D02*
X148482700Y-99285350D01*
X148482700Y-99285350D02*
X148482700Y-99452017D01*
X148482700Y-99452017D02*
X148516033Y-99518683D01*
X148516033Y-99518683D02*
X148549366Y-99552017D01*
X148549366Y-99552017D02*
X148616033Y-99585350D01*
X148616033Y-99585350D02*
X148782700Y-99585350D01*
X148782700Y-99585350D02*
X148849366Y-99552017D01*
X148849366Y-99552017D02*
X148882700Y-99518683D01*
X148882700Y-99518683D02*
X148916033Y-99452017D01*
X148916033Y-99452017D02*
X148916033Y-99285350D01*
X148916033Y-99285350D02*
X148882700Y-99218683D01*
X148882700Y-99218683D02*
X148849366Y-99185350D01*
X168422438Y-96680588D02*
X168374819Y-96585350D01*
X168374819Y-96585350D02*
X168374819Y-96442493D01*
X168374819Y-96442493D02*
X168422438Y-96299636D01*
X168422438Y-96299636D02*
X168517676Y-96204398D01*
X168517676Y-96204398D02*
X168612914Y-96156779D01*
X168612914Y-96156779D02*
X168803390Y-96109160D01*
X168803390Y-96109160D02*
X168946247Y-96109160D01*
X168946247Y-96109160D02*
X169136723Y-96156779D01*
X169136723Y-96156779D02*
X169231961Y-96204398D01*
X169231961Y-96204398D02*
X169327200Y-96299636D01*
X169327200Y-96299636D02*
X169374819Y-96442493D01*
X169374819Y-96442493D02*
X169374819Y-96537731D01*
X169374819Y-96537731D02*
X169327200Y-96680588D01*
X169327200Y-96680588D02*
X169279580Y-96728207D01*
X169279580Y-96728207D02*
X168946247Y-96728207D01*
X168946247Y-96728207D02*
X168946247Y-96537731D01*
X169374819Y-97156779D02*
X168374819Y-97156779D01*
X168374819Y-97156779D02*
X169374819Y-97728207D01*
X169374819Y-97728207D02*
X168374819Y-97728207D01*
X169374819Y-98204398D02*
X168374819Y-98204398D01*
X168374819Y-98204398D02*
X168374819Y-98442493D01*
X168374819Y-98442493D02*
X168422438Y-98585350D01*
X168422438Y-98585350D02*
X168517676Y-98680588D01*
X168517676Y-98680588D02*
X168612914Y-98728207D01*
X168612914Y-98728207D02*
X168803390Y-98775826D01*
X168803390Y-98775826D02*
X168946247Y-98775826D01*
X168946247Y-98775826D02*
X169136723Y-98728207D01*
X169136723Y-98728207D02*
X169231961Y-98680588D01*
X169231961Y-98680588D02*
X169327200Y-98585350D01*
X169327200Y-98585350D02*
X169374819Y-98442493D01*
X169374819Y-98442493D02*
X169374819Y-98204398D01*
%TO.C,G\u002A\u002A\u002A*%
D11*
X103762361Y-180155226D02*
X103698542Y-180219045D01*
X103634723Y-180155226D01*
X103698542Y-180091407D01*
X103762361Y-180155226D01*
G36*
X103762361Y-180155226D02*
G01*
X103698542Y-180219045D01*
X103634723Y-180155226D01*
X103698542Y-180091407D01*
X103762361Y-180155226D01*
G37*
D12*
%TO.C,U1*%
X182720000Y-93050000D02*
X182720000Y-121449999D01*
X134800000Y-93050001D02*
X182720000Y-93050000D01*
X134779680Y-98280120D02*
X128886880Y-98280120D01*
X128886880Y-98280120D02*
X128886880Y-116263320D01*
X128886880Y-116263320D02*
X134779680Y-116263320D01*
X182720000Y-121449999D02*
X134800000Y-121450000D01*
X134800000Y-121450000D02*
X134800000Y-93050001D01*
%TD*%
M02*
